<svg xmlns="http://www.w3.org/2000/svg" xmlns:xlink="http://www.w3.org/1999/xlink" width="100" height="46" viewBox="0 0 100 46">
  <defs>
    <clipPath id="clip-Artboard_1">
      <rect width="100" height="46"/>
    </clipPath>
  </defs>
  <g id="Artboard_1" data-name="Artboard – 1" clip-path="url(#clip-Artboard_1)">
    <rect width="100" height="46" fill="#fff"/>
    <g id="Group_9" data-name="Group 9" transform="translate(-7.412 -17.871)">
      <g id="Group_7" data-name="Group 7" transform="translate(8.412 20.486)">
        <g id="Group_2" data-name="Group 2" transform="translate(10.728)">
          <path id="Path_6" data-name="Path 6" d="M216.44,472.2l5.515-14.7,4.567-3.028,2.622,4.414Z" transform="translate(-216.44 -454.473)" fill="#ffe051"/>
          <path id="Path_7" data-name="Path 7" d="M229.751,469.984l-.608-2.078-12.7,13.311Z" transform="translate(-216.44 -463.491)" fill="#ffb600"/>
          <path id="Path_8" data-name="Path 8" d="M231.812,475l-2.061-.773L216.44,485.463Z" transform="translate(-216.44 -467.737)" fill="#fdc526"/>
          <path id="Path_9" data-name="Path 9" d="M231.76,483.81l-15.32,3.233,15.372-10.46,3.383,3.312Z" transform="translate(-216.44 -469.317)" fill="#ffe051"/>
        </g>
        <g id="Group_3" data-name="Group 3" transform="translate(17.77 17.724)">
          <path id="Path_10" data-name="Path 10" d="M237.866,517.427l2.807-7.481L243,508.405l1.335,2.247Z" transform="translate(-237.866 -508.405)" fill="#ffe051"/>
          <path id="Path_11" data-name="Path 11" d="M244.641,516.3l-.309-1.058-6.466,6.775Z" transform="translate(-237.866 -512.995)" fill="#ffb600"/>
          <path id="Path_12" data-name="Path 12" d="M245.69,518.854l-1.049-.394-6.775,5.717Z" transform="translate(-237.866 -515.156)" fill="#fdc526"/>
          <path id="Path_13" data-name="Path 13" d="M245.664,523.336l-7.8,1.645,7.824-5.323,1.722,1.686Z" transform="translate(-237.866 -515.96)" fill="#ffe051"/>
        </g>
        <g id="Group_4" data-name="Group 4" transform="translate(0 21.156)">
          <path id="Path_14" data-name="Path 14" d="M183.8,539.32l6.369-16.976,5.274-3.5,3.029,5.1Z" transform="translate(-183.795 -518.847)" fill="#ffe051"/>
          <path id="Path_15" data-name="Path 15" d="M199.17,536.762l-.7-2.4L183.8,549.735Z" transform="translate(-183.795 -529.263)" fill="#ffb600"/>
          <path id="Path_16" data-name="Path 16" d="M201.55,542.558l-2.381-.893L183.8,554.639Z" transform="translate(-183.795 -534.166)" fill="#fdc526"/>
          <path id="Path_17" data-name="Path 17" d="M201.49,552.73,183.8,556.464l17.755-12.081,3.907,3.825Z" transform="translate(-183.795 -535.991)" fill="#ffe051"/>
        </g>
      </g>
      <g id="Group_8" data-name="Group 8" transform="translate(42.945 19.871)">
        <g id="Group_1" data-name="Group 1">
          <path id="Path_1" data-name="Path 1" d="M298.551,456.107h-6.373v17.748h4.366v3.324h-4.366v9.735h-3.3V452.783h9.677Z" transform="translate(-288.874 -452.724)" fill="#001c54"/>
          <path id="Path_2" data-name="Path 2" d="M332.035,486.673h-3.3V452.6h3.3Z" transform="translate(-315.633 -452.602)" fill="#001c54"/>
          <path id="Path_3" data-name="Path 3" d="M363.75,453.144l-7.73,30.748h7.317v3.324H351.89l7.73-30.747h-7.081v-3.324Z" transform="translate(-331.181 -452.966)" fill="#001c54"/>
          <path id="Path_4" data-name="Path 4" d="M407.738,453.144l-7.73,30.748h7.317v3.324H395.878l7.73-30.747h-7.081v-3.324Z" transform="translate(-360.712 -452.966)" fill="#001c54"/>
          <path id="Path_5" data-name="Path 5" d="M452.909,487.215h-3.068l-1.416-9.913h-3.836l-1.475,9.913h-3.068q.589-4.154,1.209-8.488t1.239-8.607q.62-4.274,1.239-8.4t1.151-7.865a3.079,3.079,0,0,1,.029-.356.662.662,0,0,0-.029-.356h3.127v.3ZM447.893,474.1l-1.416-9.972L445,474.1Z" transform="translate(-390.365 -452.966)" fill="#001c54"/>
        </g>
        <g id="Group_6" data-name="Group 6" transform="translate(2.598 38.025)">
          <path id="Path_18" data-name="Path 18" d="M297.948,570.828c.251,0,.789.106.789.472v.2h-.282v-.127c0-.185-.322-.273-.507-.273a.891.891,0,0,0,.009,1.78.98.98,0,0,0,.714-.313l.141.224a1.17,1.17,0,0,1-.868.362,1.121,1.121,0,0,1-1.163-1.159A1.134,1.134,0,0,1,297.948,570.828Z" transform="translate(-296.78 -570)" fill="#001c54"/>
          <path id="Path_19" data-name="Path 19" d="M311.25,571.731h.124v-.026c0-.463-.168-.626-.573-.626-.11,0-.432.031-.432.194v.141h-.287V571.2c0-.308.529-.375.723-.375.7,0,.868.375.868.85v1.062a.086.086,0,0,0,.1.1h.185v.26h-.3c-.189,0-.264-.084-.264-.265,0-.1,0-.163,0-.163h-.009a.784.784,0,0,1-.736.48.686.686,0,0,1-.753-.657C309.893,571.758,310.867,571.731,311.25,571.731Zm-.555,1.163a.773.773,0,0,0,.679-.824v-.1h-.128c-.348,0-1.044.009-1.044.507A.441.441,0,0,0,310.695,572.895Z" transform="translate(-305.584 -570)" fill="#001c54"/>
          <path id="Path_20" data-name="Path 20" d="M323.073,571.3a.088.088,0,0,0-.1-.1h-.185v-.26h.308c.185,0,.269.075.269.251v.15a1.647,1.647,0,0,1-.009.167h.009a.756.756,0,0,1,.7-.591.587.587,0,0,1,.119.013v.3a.756.756,0,0,0-.11-.009.71.71,0,0,0-.643.573,1.453,1.453,0,0,0-.062.432v.934h-.3Z" transform="translate(-314.243 -570.063)" fill="#001c54"/>
          <path id="Path_21" data-name="Path 21" d="M334.054,571.3a.088.088,0,0,0-.1-.1h-.185v-.26h.308c.185,0,.269.075.269.251v.15a1.647,1.647,0,0,1-.009.167h.009a.756.756,0,0,1,.7-.591.593.593,0,0,1,.119.013v.3a.764.764,0,0,0-.11-.009.71.71,0,0,0-.643.573,1.452,1.452,0,0,0-.062.432v.934h-.3Z" transform="translate(-321.615 -570.063)" fill="#001c54"/>
          <path id="Path_22" data-name="Path 22" d="M345.1,573.862c.194,0,.326-.158.41-.361l.132-.3-.78-1.846a.142.142,0,0,0-.154-.1h-.044v-.26h.136c.2,0,.26.044.339.243l.569,1.384c.044.11.079.238.079.238h.009a2.027,2.027,0,0,1,.075-.238l.547-1.384c.075-.2.141-.243.343-.243h.137v.26h-.044a.139.139,0,0,0-.154.1l-.956,2.318a.677.677,0,0,1-.635.462.646.646,0,0,1-.48-.216l.141-.221A.474.474,0,0,0,345.1,573.862Z" transform="translate(-328.906 -570.108)" fill="#001c54"/>
          <path id="Path_23" data-name="Path 23" d="M367.81,571.351a.137.137,0,0,0-.154-.1H367.6v-.26h.154c.212,0,.282.04.348.247l.454,1.406c.035.106.066.238.066.238h.009s.035-.133.071-.238l.542-1.643h.3l.542,1.643c.035.106.071.238.071.238h.009s.026-.128.061-.238l.458-1.406c.066-.207.136-.247.348-.247h.154v.26h-.061a.14.14,0,0,0-.154.1l-.635,1.855H370l-.542-1.578c-.035-.11-.066-.238-.066-.238h-.009s-.031.128-.071.238l-.537,1.578h-.335Z" transform="translate(-344.325 -570.108)" fill="#001c54"/>
          <path id="Path_24" data-name="Path 24" d="M385.338,569.546a.088.088,0,0,0-.1-.1h-.185v-.26h.313c.19,0,.269.08.269.269v1.591a.086.086,0,0,0,.1.1h.185v.26h-.313c-.19,0-.269-.08-.269-.269Zm-.009-1.238h.291v.379h-.291Z" transform="translate(-356.045 -568.308)" fill="#001c54"/>
          <path id="Path_25" data-name="Path 25" d="M394.732,569.989h-.291v-.251h.3v-.612h.3v.612h.555v.251h-.555v1.128c0,.52.331.586.5.586a.5.5,0,0,0,.1-.009v.269a.857.857,0,0,1-.128.009.72.72,0,0,1-.771-.824Z" transform="translate(-362.346 -568.857)" fill="#001c54"/>
          <path id="Path_26" data-name="Path 26" d="M405.061,568.665a.088.088,0,0,0-.1-.1h-.185v-.26h.313c.189,0,.269.079.269.26v.939c0,.1-.009.18-.009.18h.009a.947.947,0,0,1,.877-.551c.551,0,.745.313.745.859v1.053a.086.086,0,0,0,.1.1h.185v.26h-.313c-.189,0-.269-.08-.269-.269v-1.062c0-.348-.053-.657-.485-.657a.84.84,0,0,0-.8.63,1.038,1.038,0,0,0-.035.3v1.062h-.3Z" transform="translate(-369.287 -568.308)" fill="#001c54"/>
          <path id="Path_27" data-name="Path 27" d="M428.913,568.665a.088.088,0,0,0-.1-.1h-.185v-.26h.313c.189,0,.269.079.269.269v2.472a.086.086,0,0,0,.1.1h.185v.26h-.313c-.19,0-.269-.08-.269-.269Z" transform="translate(-385.3 -568.308)" fill="#001c54"/>
          <path id="Path_28" data-name="Path 28" d="M439.359,570.828a1.161,1.161,0,1,1-1.168,1.15A1.148,1.148,0,0,1,439.359,570.828Zm0,2.054a.874.874,0,0,0,.859-.9.862.862,0,1,0-1.723,0A.874.874,0,0,0,439.363,572.882Z" transform="translate(-391.718 -570)" fill="#001c54"/>
          <path id="Path_29" data-name="Path 29" d="M452.128,571.351a.14.14,0,0,0-.154-.1h-.039v-.26h.119c.212,0,.278.044.353.243l.533,1.384c.04.11.075.26.075.26h.009s.035-.15.075-.26l.533-1.384c.075-.2.141-.243.348-.243h.115v.26h-.04a.137.137,0,0,0-.154.1l-.723,1.855h-.326Z" transform="translate(-400.945 -570.108)" fill="#001c54"/>
          <path id="Path_30" data-name="Path 30" d="M466.22,570.828a.927.927,0,0,1,.93,1.022c0,.053-.009.15-.009.15h-1.7a.841.841,0,0,0,.859.881.988.988,0,0,0,.666-.273l.145.225a1.256,1.256,0,0,1-.824.317,1.123,1.123,0,0,1-1.159-1.159A1.084,1.084,0,0,1,466.22,570.828Zm.622.934a.63.63,0,0,0-.626-.683.761.761,0,0,0-.762.683Z" transform="translate(-409.802 -570)" fill="#001c54"/>
        </g>
      </g>
    </g>
  </g>
</svg>
