<svg xmlns="http://www.w3.org/2000/svg" width="21.285" height="21.285"><g data-name="Group 323"><g data-name="Group 283"><g data-name="Group 282"><path data-name="Path 41" d="M17.211 6.184a.416.416 0 0 0 .416-.416V1.247A1.249 1.249 0 0 0 16.38 0H1.247A1.249 1.249 0 0 0 0 1.247v18.791a1.249 1.249 0 0 0 1.247 1.247H16.38a1.249 1.249 0 0 0 1.247-1.247v-3.063a.416.416 0 1 0-.831 0v3.063a.416.416 0 0 1-.416.416H1.247a.416.416 0 0 1-.416-.416V1.247a.416.416 0 0 1 .416-.416H16.38a.416.416 0 0 1 .416.416v4.521a.416.416 0 0 0 .415.416z" fill="#30cc71"/></g></g><g data-name="Group 287"><g data-name="Group 286"><path data-name="Path 43" d="M11.059 18.209H8.814a.416.416 0 1 0 0 .831h2.245a.416.416 0 1 0 0-.831z" fill="#30cc71"/></g></g><g data-name="Group 289"><g data-name="Group 288"><path data-name="Path 44" d="M11.058 15.881h-5.9a.416.416 0 1 0 0 .831h5.9a.416.416 0 1 0 0-.831z" fill="#30cc71"/></g></g><g data-name="Group 291"><g data-name="Group 290"><path data-name="Path 45" d="M11.058 13.553h-5.9a.416.416 0 1 0 0 .831h5.9a.416.416 0 1 0 0-.831z" fill="#30cc71"/></g></g><g data-name="Group 293"><g data-name="Group 292"><path data-name="Path 46" d="M3.676 11.347a.415.415 0 1 0 .122.294.419.419 0 0 0-.122-.294z" fill="#30cc71"/></g></g><g data-name="Group 303"><g data-name="Group 292"><path data-name="Path 46" d="M3.676 9.019a.415.415 0 1 0 .122.294.419.419 0 0 0-.122-.294z" fill="#30cc71"/></g></g><g data-name="Group 305"><g data-name="Group 292"><path data-name="Path 46" d="M3.676 6.69a.415.415 0 1 0 .122.294.419.419 0 0 0-.122-.294z" fill="#30cc71"/></g></g><g data-name="Group 295"><g data-name="Group 294"><path data-name="Path 47" d="M3.676 13.675a.415.415 0 1 0 .122.294.42.42 0 0 0-.122-.294z" fill="#30cc71"/></g></g><g data-name="Group 297"><g data-name="Group 296"><path data-name="Path 48" d="M3.676 16.003a.415.415 0 1 0 .122.294.42.42 0 0 0-.122-.294z" fill="#30cc71"/></g></g><g data-name="Group 299"><g data-name="Group 298"><path data-name="Path 49" d="M11.058 11.225h-5.9a.416.416 0 1 0 0 .831h5.9a.416.416 0 1 0 0-.831z" fill="#30cc71"/></g></g><g data-name="Group 302"><g data-name="Group 298"><path data-name="Path 49" d="M11.058 8.897h-5.9a.416.416 0 1 0 0 .831h5.9a.416.416 0 1 0 0-.831z" fill="#30cc71"/></g></g><g data-name="Group 304"><g data-name="Group 298"><path data-name="Path 49" d="M11.058 6.568h-5.9a.416.416 0 1 0 0 .831h5.9a.416.416 0 1 0 0-.831z" fill="#30cc71"/></g></g><g data-name="Group 301"><g data-name="Group 300"><path data-name="Path 50" d="M20.412 5.418a1.746 1.746 0 0 0-2.385.639l-5.232 9.061a.416.416 0 0 0-.053.162l-.368 3.3a.416.416 0 0 0 .66.381l2.672-1.968a.414.414 0 0 0 .113-.127l5.232-9.061a1.748 1.748 0 0 0-.639-2.387zm-7.106 12.309l.192-1.722 1.2.695zm2-1.638l-1.584-.915 4.2-7.271 1.584.915zm5.024-8.7l-.41.71-1.584-.915.41-.71a.915.915 0 0 1 1.584.915z" fill="#30cc71"/></g></g></g></svg>