<svg xmlns="http://www.w3.org/2000/svg" width="16.529" height="20.316"><path data-name="garbage (2)" d="M16.184 2.066h-4.836a2.737 2.737 0 0 0-.624-1.622A1.457 1.457 0 0 0 9.641 0H6.2a1.457 1.457 0 0 0-1.083.444 2.737 2.737 0 0 0-.624 1.622H.344a.344.344 0 0 0 0 .689h.7L1.707 18.6A1.671 1.671 0 0 0 3.4 20.316h9.735a1.669 1.669 0 0 0 1.69-1.707l.66-15.854h.7a.344.344 0 0 0 0-.689zM5.165 17.217a.344.344 0 0 1-.689 0V5.854a.344.344 0 1 1 .689 0zm3.443 0a.344.344 0 0 1-.689 0V5.854a.344.344 0 0 1 .689 0zm3.443 0a.344.344 0 0 1-.689 0V5.854a.344.344 0 1 1 .689 0zM5.61.923A.781.781 0 0 1 6.2.689h3.443a.781.781 0 0 1 .588.234 2.026 2.026 0 0 1 .427 1.143H5.183A2.028 2.028 0 0 1 5.61.923z" fill="#c0392c"/></svg>