<svg xmlns="http://www.w3.org/2000/svg" viewBox="0 0 30.167 30.737"><defs><style>.cls-1{fill:none;stroke:#994dc9;stroke-linecap:round;stroke-linejoin:round;stroke-miterlimit:10;stroke-width:1.5px}</style></defs><g id="Group_566" data-name="Group 566" transform="translate(.25 .25)"><path id="Path_257" data-name="Path 257" class="cls-1" d="M21.628 14.468A12.015 12.015 0 0 1 10.4 21.756" transform="translate(4.572 6.374)"/><path id="Path_258" data-name="Path 258" class="cls-1" d="M25.067 11.172A15.978 15.978 0 0 0 23.9 8.979a8.214 8.214 0 0 0-5.555-7.894A15.09 15.09 0 0 0 13.956.5a19.892 19.892 0 0 0-4.386.585 8.158 8.158 0 0 0-5.7 7.894 15.978 15.978 0 0 0-1.17 2.193" transform="translate(1.016)"/><path id="Path_259" data-name="Path 259" class="cls-1" d="M18.954 17.448H17.2V7.8h1.754a2.464 2.464 0 0 1 2.485 2.485v4.678a2.377 2.377 0 0 1-2.485 2.485z" transform="translate(7.713 3.372)"/><path id="Path_260" data-name="Path 260" class="cls-1" d="M2.985 7.8h1.754v9.648H2.985A2.464 2.464 0 0 1 .5 14.963v-4.678A2.464 2.464 0 0 1 2.985 7.8z" transform="translate(0 3.372)"/><circle id="Ellipse_85" data-name="Ellipse 85" cx="1.462" cy="1.462" r="1.462" transform="translate(13.364 26.814)" fill="#994dc9" stroke="#994dc9" stroke-linecap="round" stroke-linejoin="round" stroke-miterlimit="10" stroke-width="1.5"/></g></svg>