<svg xmlns="http://www.w3.org/2000/svg" viewBox="0 0 19.11 19.46"><defs><style>.cls-1{fill:none;stroke:#edd2ff;stroke-linecap:round;stroke-linejoin:round;stroke-miterlimit:10;stroke-width:1.5px}</style></defs><g id="Group_581" data-name="Group 581" transform="translate(.25 .25)"><path id="Path_257" data-name="Path 257" class="cls-1" d="M17.3 14.468a7.381 7.381 0 0 1-6.9 4.477" transform="translate(-1.01 -1.472)"/><path id="Path_258" data-name="Path 258" class="cls-1" d="M16.439 7.055a9.815 9.815 0 0 0-.718-1.347A5.046 5.046 0 0 0 12.309.859 9.27 9.27 0 0 0 9.615.5a12.219 12.219 0 0 0-2.694.359 5.011 5.011 0 0 0-3.5 4.849A9.815 9.815 0 0 0 2.7 7.055" transform="translate(-.224)"/><path id="Path_259" data-name="Path 259" class="cls-1" d="M18.278 13.727H17.2V7.8h1.078A1.514 1.514 0 0 1 19.8 9.327V12.2a1.46 1.46 0 0 1-1.522 1.527z" transform="translate(-1.703 -.745)"/><path id="Path_260" data-name="Path 260" class="cls-1" d="M2.027 7.8H3.1v5.927H2.027A1.514 1.514 0 0 1 .5 12.2V9.327A1.514 1.514 0 0 1 2.027 7.8z" transform="translate(0 -.745)"/><circle id="Ellipse_85" data-name="Ellipse 85" cx=".898" cy=".898" r=".898" transform="translate(8.402 16.664)" fill="#edd2ff" stroke="#edd2ff" stroke-linecap="round" stroke-linejoin="round" stroke-miterlimit="10" stroke-width="1.5"/></g></svg>