<svg xmlns="http://www.w3.org/2000/svg" width="215.767" height="281.432" viewBox="0 0 215.767 281.432">
  <g id="Group_1" data-name="Group 1" transform="translate(-76.119 -250.284)">
    <path id="Path_1" data-name="Path 1" d="M255.481,376.286H194.5v9.381h60.977v4.691a14.071,14.071,0,0,1-14.072,14.072H119.456a14.071,14.071,0,0,1-14.072-14.072v-4.691h60.977v-9.381H105.384V320H96v70.358a23.481,23.481,0,0,0,23.453,23.453H241.409a23.481,23.481,0,0,0,23.453-23.453V320h-9.381Z" transform="translate(3.572 117.905)" fill="#001c54"/>
    <path id="Path_2" data-name="Path 2" d="M105.384,37.524h150.1V84.43h9.381V23.453A23.481,23.481,0,0,0,241.409,0H119.456A23.481,23.481,0,0,0,96,23.453v79.7h9.381V37.524ZM119.456,9.381H241.409a14.071,14.071,0,0,1,14.072,14.072v4.691h-150.1V23.453A14.071,14.071,0,0,1,119.456,9.381Z" transform="translate(3.572 250.284)" fill="#001c54"/>
    <path id="Path_3" data-name="Path 3" d="M232,416h9.381v9.381H232Z" transform="translate(-52.689 78.192)" fill="#001c54"/>
    <path id="Path_4" data-name="Path 4" d="M232,24h9.381v9.381H232Z" transform="translate(-52.689 240.356)" fill="#001c54"/>
    <path id="Path_5" data-name="Path 5" d="M224.86,132.132a46.094,46.094,0,0,0-12.566,1.712,46.905,46.905,0,0,0-84.636-5.849,32.8,32.8,0,0,0-37.487,23.049,37.524,37.524,0,0,0,3.354,74.9H224.86a46.905,46.905,0,0,0,0-93.811Zm0,84.43H93.525a28.144,28.144,0,0,1,.422-56.286,4.69,4.69,0,0,0,4.625-3.921,23.308,23.308,0,0,1,23.1-19.531,23.645,23.645,0,0,1,7.078,1.093,4.69,4.69,0,0,0,5.685-2.542,37.524,37.524,0,0,1,70.358,5.68,4.69,4.69,0,0,0,6.313,3.105,35.908,35.908,0,0,1,13.757-2.645,37.524,37.524,0,0,1,0,75.048Z" transform="translate(20.121 207.272)" fill="#001c54"/>
    <path id="Path_6" data-name="Path 6" d="M228.312,212.963V168h-9.381v44.963l-11.9-11.9L200.4,207.7l23.218,23.218L246.839,207.7l-6.632-6.632Z" transform="translate(-39.617 180.785)" fill="#001c54"/>
  </g>
</svg>
