<svg xmlns="http://www.w3.org/2000/svg" width="46.868" height="54.902"><g data-name="Group 412"><g data-name="Group 405" fill="#676767"><g data-name="Path 52"><path d="M28.891 54.652H7.074A6.832 6.832 0 0 1 .25 47.827V15.102a6.832 6.832 0 0 1 6.824-6.825h4.079V7.075A6.833 6.833 0 0 1 17.978.25h10.83l.063.01.013.002h.013c.124.006.243.029.374.073a1.396 1.396 0 0 1 .524.315l16.42 16.42c.109.109.197.239.27.399l.046.124c.04.12.064.237.072.358v.01l.002.009.013.09V39.8a6.833 6.833 0 0 1-6.825 6.824h-4.077v1.203a6.832 6.832 0 0 1-6.825 6.825zM7.074 11.017a4.088 4.088 0 0 0-4.083 4.084v32.725a4.088 4.088 0 0 0 4.083 4.084H28.89a4.088 4.088 0 0 0 4.083-4.084V27.44h-9.596a6.833 6.833 0 0 1-6.825-6.825v-9.597H7.074zm28.642 15.07v17.795h4.077a4.088 4.088 0 0 0 4.083-4.083V19.413H34.28a6.832 6.832 0 0 1-6.824-6.825V2.992h-9.478a4.088 4.088 0 0 0-4.084 4.084v1.202h4.009l.087.014.291.048v-.004a1.9 1.9 0 0 1 .092.028l.004.002.004.001a1.312 1.312 0 0 1 .511.31L35.315 25.1c.105.106.192.233.264.388l.05.133c.041.124.064.237.072.356v.01l.002.01.013.088zm-16.423-13.13v7.657a4.089 4.089 0 0 0 4.085 4.084h7.658l-.427-.427L19.72 13.383l-.427-.426zm10.903-8.028v7.659a4.088 4.088 0 0 0 4.083 4.084h7.659l-.427-.427-10.888-10.89-.427-.426z"/><path d="M17.978.5a6.583 6.583 0 0 0-6.575 6.575v1.452H7.074A6.582 6.582 0 0 0 .5 15.102v32.725a6.582 6.582 0 0 0 6.574 6.575h21.817a6.582 6.582 0 0 0 6.575-6.575v-1.453h4.327a6.583 6.583 0 0 0 6.575-6.575V18.08l-.01-.074-.003-.019-.001-.019a1.125 1.125 0 0 0-.058-.29l-.042-.112a1.08 1.08 0 0 0-.216-.318L29.618.828a1.15 1.15 0 0 0-.341-.226 1.852 1.852 0 0 0-.085-.03 1.093 1.093 0 0 0-.306-.06L28.859.51l-.026-.004L28.789.5H17.978m21.815 43.632h-4.327V26.104l-.01-.07-.004-.02v-.02a1.14 1.14 0 0 0-.058-.288l-.046-.12a1.087 1.087 0 0 0-.21-.308L18.717 8.854a1.053 1.053 0 0 0-.307-.208l-.003-.001-.004-.002a.7.7 0 0 0-.096-.037l-.008-.003-.008-.002a1.255 1.255 0 0 0-.033-.011l-.308-.051-.068-.011h-4.238V7.076a4.339 4.339 0 0 1 4.334-4.334h9.728v9.846a6.582 6.582 0 0 0 6.574 6.576h9.846v20.635a4.338 4.338 0 0 1-4.333 4.333m2.748-27.21H34.28a4.338 4.338 0 0 1-4.332-4.334V5.533l-.001-1.208.854.854 10.888 10.89.853.853M28.891 52.16H7.073a4.338 4.338 0 0 1-4.333-4.334V15.101a4.338 4.338 0 0 1 4.333-4.334h9.728v9.847a6.583 6.583 0 0 0 6.575 6.575h9.846v20.637a4.338 4.338 0 0 1-4.333 4.334m2.75-27.212h-8.262a4.339 4.339 0 0 1-4.335-4.334v-8.261l.854.854 10.889 10.888.853.853M17.978 0h10.849l.081.012c.154.007.296.037.443.086.056.019.09.03.123.044.21.096.364.2.496.33l16.42 16.422c.134.133.24.29.325.479l.05.136c.05.146.077.284.087.425l.015.109v21.756a7.083 7.083 0 0 1-7.075 7.075h-3.827v.953c0 3.9-3.174 7.075-7.075 7.075H7.074c-3.9 0-7.074-3.175-7.074-7.075V15.102c0-3.9 3.174-7.075 7.074-7.075h3.829v-.952A7.083 7.083 0 0 1 17.978 0zm21.815 43.632a3.838 3.838 0 0 0 3.833-3.833V19.664H34.28c-3.9 0-7.074-3.174-7.074-7.076V3.242h-9.228a3.838 3.838 0 0 0-3.834 3.834v.952h3.78l.107.017v-.003c.135.007.28.037.424.086a1.55 1.55 0 0 1 .613.37l16.424 16.426c.127.128.231.28.317.468l.056.146c.05.15.076.283.085.424l.016.106v17.564h3.827zm-9.347-38.1v7.056a3.837 3.837 0 0 0 3.833 3.834h7.055L30.446 5.532zM28.89 51.66a3.838 3.838 0 0 0 3.833-3.834V27.69h-9.346a7.083 7.083 0 0 1-7.075-7.075v-9.347H7.074a3.838 3.838 0 0 0-3.833 3.834v32.725a3.838 3.838 0 0 0 3.833 3.834H28.89zm1.542-27.212L19.543 13.56v7.054a3.838 3.838 0 0 0 3.835 3.834h7.054z" fill="#fff"/></g><g data-name="Path 53"><path d="M17.393 45.507a1.3 1.3 0 0 1-1.299-1.299v-5.803h-5.803a1.3 1.3 0 0 1-1.299-1.3 1.3 1.3 0 0 1 1.299-1.298h5.803v-5.803a1.3 1.3 0 0 1 1.299-1.299 1.3 1.3 0 0 1 1.299 1.299v5.803h5.804a1.3 1.3 0 0 1 1.299 1.299 1.3 1.3 0 0 1-1.3 1.299h-5.803v5.803a1.3 1.3 0 0 1-1.3 1.299z"/><path d="M17.393 28.955a1.05 1.05 0 0 0-1.049 1.049v6.053h-6.053a1.05 1.05 0 0 0 0 2.098h6.053v6.053a1.05 1.05 0 0 0 2.098 0v-6.053h6.054a1.05 1.05 0 0 0 0-2.098h-6.054v-6.053a1.05 1.05 0 0 0-1.05-1.049m0-.5a1.55 1.55 0 0 1 1.55 1.549v5.553h5.554a1.55 1.55 0 0 1 0 3.098h-5.554v5.553a1.549 1.549 0 0 1-3.098 0v-5.553h-5.553a1.549 1.549 0 0 1 0-3.098h5.553v-5.553a1.55 1.55 0 0 1 1.549-1.549z" fill="#fff"/></g></g></g></svg>