<svg xmlns="http://www.w3.org/2000/svg" width="18.627" height="18.625"><g data-name="airplane (1)"><path data-name="Path 315" d="M3.35 12.352l2.936 2.922a7.408 7.408 0 0 1 .291 2.631l-.581.581a.412.412 0 0 1-.581 0l-.305-.305-2.326-2.326c-.945-.945-1.9-1.89-2.355-2.355l-.291-.292a.412.412 0 0 1 0-.581l.581-.581a7.421 7.421 0 0 1 2.631.306z" fill="#d8dbdb"/><path data-name="Path 316" d="M4.442 1.755a.8.8 0 1 0 .8.8.807.807 0 0 0-.8-.8zm2.471.872a.8.8 0 1 0 .8.8.807.807 0 0 0-.8-.8zm9.085 8.94a.8.8 0 1 0-.8.8.8.8 0 0 0 .8-.8zm.073 1.672a.8.8 0 1 0 .8.8.807.807 0 0 0-.8-.8z" fill="#676767"/><path data-name="Path 317" d="M10.9 4.866l2.878 2.878c.32.32 3.489 9.172 3.169 9.492l-1.148 1.148a.807.807 0 0 1-1.148 0l-6.358-8.067L.24 3.993a.807.807 0 0 1 0-1.148l1.148-1.152c.32-.315 9.187 2.853 9.512 3.173z" fill="#d8dbdb"/><path data-name="Path 318" d="M18.28.36c.8.8.087 2.791-.858 3.75L7.029 14.489c-.959.959-4.39 3.111-5.189 2.311s1.352-4.23 2.311-5.189L14.53 1.217C15.489.258 17.481-.44 18.28.36z" fill="#e4e7e7"/><path data-name="Path 319" d="M4.863 12.309L15.242 1.93a3.9 3.9 0 0 1 3.3-1.136 1.267 1.267 0 0 0-.262-.451c-.8-.8-2.791-.087-3.75.872L4.149 11.594c-.959.959-3.1 4.39-2.311 5.189a.748.748 0 0 0 .538.174c.016-1.247 1.673-3.834 2.487-4.648z" fill="#dde0e0"/><path data-name="Path 320" d="M5.095 7.803l1.643 1.279 4.2-4.2-.044-.044a15.878 15.878 0 0 0-2.006-.843z" fill="#c7caca"/><path data-name="Path 321" d="M9.572 11.945l5.059 6.44a.819.819 0 0 0 1.076.058l-5.582-7.05zm-2.326-3.43L.153 2.962A.814.814 0 0 0 .24 3.994l6.454 5.059z" fill="#f8ca1c"/><path data-name="Path 322" d="M6.694 9.052l.552-.538-1.6-1.25-.552.538z" fill="#deb51a"/></g></svg>