<svg xmlns="http://www.w3.org/2000/svg" width="107.505" height="107.505"><g data-name="Group 43"><g data-name="Group 42" fill="#f8c91c"><path data-name="Path 166" d="M77.046 100.338H26.877a1.792 1.792 0 00-1.792 1.792v3.584a1.792 1.792 0 003.583 0v-1.792h48.377a1.792 1.792 0 000-3.584z"/><path data-name="Path 167" d="M39.418 44.794a1.792 1.792 0 001.792 1.792h7.167a1.792 1.792 0 001.792-1.792v-10.75a1.792 1.792 0 00-1.792-1.792H41.21a1.792 1.792 0 00-1.792 1.792v10.751zm3.584-8.959h3.583v7.167h-3.584z"/><path data-name="Path 168" d="M23.293 21.501H1.792A1.792 1.792 0 000 23.293v35.835a1.792 1.792 0 103.583 0V25.085h19.71a1.792 1.792 0 000-3.584z"/><path data-name="Path 169" d="M86.004 87.796a1.792 1.792 0 001.792 1.792h7.167a1.792 1.792 0 001.792-1.792v-10.75a1.792 1.792 0 00-1.792-1.792h-7.167a1.792 1.792 0 00-1.792 1.792zm3.584-8.959h3.584v7.167h-3.584z"/><path data-name="Path 170" d="M8.959 64.503C.1 64.503 0 87.563 0 87.796a8.974 8.974 0 007.167 8.778v9.14a1.792 1.792 0 003.583 0v-9.14a8.974 8.974 0 007.167-8.778c0-.233-.102-23.293-8.958-23.293zm0 28.668a5.382 5.382 0 01-5.375-5.375c0-8.926 2.4-19.709 5.375-19.709s5.375 10.783 5.375 19.709a5.382 5.382 0 01-5.375 5.375z"/><path data-name="Path 171" d="M19.709 53.753h-7.167a1.792 1.792 0 00-1.792 1.792v3.584a1.792 1.792 0 003.583 0v-1.792h3.584v8.959a1.792 1.792 0 003.583 0V55.545a1.792 1.792 0 00-1.791-1.792z"/><path data-name="Path 172" d="M87.796 46.586h7.167a1.792 1.792 0 001.792-1.792v-10.75a1.792 1.792 0 00-1.792-1.792h-7.167a1.792 1.792 0 00-1.792 1.792v10.751a1.792 1.792 0 001.792 1.791zm1.792-10.751h3.584v7.167h-3.584z"/><path data-name="Path 173" d="M19.709 32.252h-7.167a1.792 1.792 0 00-1.792 1.792v10.751a1.792 1.792 0 001.792 1.792h7.167a1.792 1.792 0 001.792-1.792V34.044a1.792 1.792 0 00-1.792-1.792zm-1.792 10.751h-3.583v-7.167h3.584v7.167z"/><path data-name="Path 174" d="M57.336 44.794a1.792 1.792 0 001.792 1.792h7.167a1.792 1.792 0 001.792-1.792v-10.75a1.792 1.792 0 00-1.792-1.792h-7.167a1.792 1.792 0 00-1.792 1.792zm3.583-8.959h3.584v7.167h-3.584z"/><path data-name="Path 175" d="M105.714 21.501h-21.5a1.792 1.792 0 100 3.583h19.709v72a5.119 5.119 0 00-2.713-.249 7.156 7.156 0 00-12.492 0 5.267 5.267 0 00-.921-.081 5.375 5.375 0 000 10.751h14.334a5.382 5.382 0 005.375-5.375V23.293a1.792 1.792 0 00-1.792-1.792zm-3.584 82.421H87.796a1.792 1.792 0 110-3.583 1.771 1.771 0 01.971.292 1.792 1.792 0 002.716-1.1 3.569 3.569 0 016.959 0 1.792 1.792 0 002.716 1.1 1.827 1.827 0 012.763 1.5 1.8 1.8 0 01-1.791 1.791z"/><path data-name="Path 176" d="M59.128 25.085h7.167a1.792 1.792 0 001.792-1.792v-10.75a1.792 1.792 0 00-1.792-1.792h-7.167a1.792 1.792 0 00-1.792 1.792v10.75a1.792 1.792 0 001.792 1.792zm1.792-10.751h3.584v7.167h-3.585v-7.167z"/><path data-name="Path 177" d="M57.336 66.295a1.792 1.792 0 001.792 1.792h7.167a1.792 1.792 0 001.792-1.792v-10.75a1.792 1.792 0 00-1.792-1.792h-7.167a1.792 1.792 0 00-1.792 1.792zm3.583-8.959h3.584v7.167h-3.584z"/><path data-name="Path 178" d="M41.211 25.085h7.167a1.792 1.792 0 001.792-1.792v-10.75a1.792 1.792 0 00-1.792-1.792h-7.167a1.792 1.792 0 00-1.792 1.792v10.75a1.792 1.792 0 001.792 1.792zm1.792-10.751h3.582v7.167h-3.584z"/><path data-name="Path 179" d="M52.481 86.52a1.792 1.792 0 102.544 0 1.884 1.884 0 00-2.544 0z"/><path data-name="Path 180" d="M39.418 66.295a1.792 1.792 0 001.792 1.792h7.167a1.792 1.792 0 001.792-1.792v-10.75a1.792 1.792 0 00-1.792-1.792H41.21a1.792 1.792 0 00-1.792 1.792v10.751zm3.584-8.959h3.583v7.167h-3.584z"/><path data-name="Path 181" d="M35.835 77.046a1.792 1.792 0 001.792 1.792h5.375v16.126a1.792 1.792 0 003.583 0V78.837h14.334v16.126a1.792 1.792 0 003.583 0V78.837h5.375a1.792 1.792 0 000-3.583h-32.25a1.792 1.792 0 00-1.792 1.792z"/><path data-name="Path 182" d="M86.004 66.295a1.792 1.792 0 001.792 1.792h7.167a1.792 1.792 0 001.792-1.792v-10.75a1.792 1.792 0 00-1.792-1.792h-7.167a1.792 1.792 0 00-1.792 1.792zm3.584-8.959h3.584v7.167h-3.584z"/><path data-name="Path 183" d="M77.045 0H30.46a1.792 1.792 0 00-1.792 1.792v93.171a1.792 1.792 0 103.583 0V3.583h43v91.38a1.792 1.792 0 103.583 0V1.792A1.792 1.792 0 0077.045 0z"/></g></g></svg>