<svg data-name="call-answer (4)" xmlns="http://www.w3.org/2000/svg" width="22.209" height="22.159"><g data-name="Group 96"><g data-name="Group 95"><path data-name="Path 296" d="M21.711 17.526l-3.43-3.43a1.788 1.788 0 0 0-2.521.047l-1.728 1.728-.341-.19a17.2 17.2 0 0 1-4.156-3.006 17.292 17.292 0 0 1-3.013-4.163c-.064-.116-.125-.227-.186-.333L7.5 7.021l.57-.571a1.787 1.787 0 0 0 .046-2.522L4.682.497a1.787 1.787 0 0 0-2.521.048l-.967.972.026.026a5.59 5.59 0 0 0-.8 1.405 5.825 5.825 0 0 0-.35 1.425c-.453 3.755 1.263 7.186 5.919 11.843 6.436 6.436 11.623 5.95 11.847 5.926a5.8 5.8 0 0 0 1.429-.359 5.571 5.571 0 0 0 1.4-.793l.021.019.979-.959a1.79 1.79 0 0 0 .046-2.524z" fill="#f8be1c"/></g></g></svg>