<svg xmlns="http://www.w3.org/2000/svg" width="23.539" height="9.732"><g fill="#f8ca1c"><path data-name="Path 603" d="M19.313.454a.42.42 0 0 0-.379-.238h-.506a.42.42 0 0 0-.378.239l-4.138 8.674a.42.42 0 0 0 .379.6h.621a.42.42 0 0 0 .379-.239l1.083-2.27h4.647l1.1 2.271a.42.42 0 0 0 .379.238h.623a.42.42 0 0 0 .365-.63zm-2.27 5.368l1.643-3.444 1.66 3.444z"/><path data-name="Path 604" d="M7.446.682L7.222.233A.42.42 0 0 0 6.846 0H.573a.42.42 0 0 0-.42.42v.56a.42.42 0 0 0 .42.42h4.873L.083 8.6a.42.42 0 0 0-.039.438l.224.449a.42.42 0 0 0 .376.233h6.238a.42.42 0 0 0 .42-.42v-.56a.42.42 0 0 0-.42-.42H2.044l5.363-7.2a.42.42 0 0 0 .039-.438z"/><path data-name="Path 605" d="M13.71 5.764l-.441-.345a.42.42 0 0 0-.59.072l-1.022 1.3V.42a.42.42 0 0 0-.42-.42h-.56a.42.42 0 0 0-.42.42v6.375l-1.022-1.3a.42.42 0 0 0-.59-.072l-.441.345a.42.42 0 0 0-.072.59l2.494 3.186a.42.42 0 0 0 .662 0l2.494-3.186a.42.42 0 0 0-.072-.594z"/></g></svg>