<svg xmlns="http://www.w3.org/2000/svg" width="193.299" height="61.705"><g data-name="Group 334"><g data-name="Group 331"><path data-name="Path 477" d="M34.32 55.83a2.01 2.01 0 01-1.722.72l-8.234-.463a3.3 3.3 0 01-1.248-.268 4.275 4.275 0 01-1.136-.664q-.03-.033-.193-.182t-.4-.41a20.292 20.292 0 01-1.598-2.203 20.559 20.559 0 01-2.016-4.345 38.426 38.426 0 01-1.607-6.817 45.783 45.783 0 01-.31-9.554 48.235 48.235 0 01.901-7.682 41.4 41.4 0 011.632-5.852 27.62 27.62 0 011.936-4.23 22.653 22.653 0 011.893-2.83 10.9 10.9 0 011.503-1.595q.618-.497.683-.556a4.279 4.279 0 011.2-.542 3.3 3.3 0 011.27-.135l8.269.426a1.939 1.939 0 011.397.638 1.642 1.642 0 01.432.973 3.06 3.06 0 01-.104 1.1l-3.49 9.48a2.142 2.142 0 01-.997 1.195 2.744 2.744 0 01-1.548.387l-3.046-.16a.734.734 0 00-.316.077 1.086 1.086 0 00-.289.172 7.948 7.948 0 00-1.04 2.002 19.4 19.4 0 00-.824 2.934 28.592 28.592 0 00-.51 4.664 29.157 29.157 0 00.017 4.722 20.336 20.336 0 00.497 3.019 6.844 6.844 0 00.586 1.604l.286.483a1.049 1.049 0 00.24.168.735.735 0 00.306.11l3.577.156a2.7 2.7 0 011.757.906 2.3 2.3 0 01.599 1.06l.03.032 1.958 9.674a2.214 2.214 0 01-.342 1.785z" fill="#fcd626"/></g><g data-name="Group 332"><text data-name="088 808" transform="translate(117.299 36)" fill="#333" font-size="35" font-family="CirceRounded-Bold, Circe Rounded" font-weight="700" letter-spacing=".1em"><tspan x="-75.495" y="0">088 808</tspan></text><text data-name="ödənişsiz zəng" transform="translate(42.299 52)" fill="#898989" font-size="15" font-family="CirceRounded, Circe Rounded" letter-spacing=".28em"><tspan x="0" y="0">ödənişsiz zəng</tspan></text></g></g></svg>