<svg xmlns="http://www.w3.org/2000/svg" width="92" height="92"><g data-name="Group 450"><g data-name="Ellipse 79" fill="none" stroke="#f8ca1c" stroke-width="3"><circle cx="46" cy="46" r="46" stroke="none"/><circle cx="46" cy="46" r="44.5"/></g><g fill="#f8ca1c"><path data-name="Path 510" d="M61.861 26H29.88A3.885 3.885 0 0 0 26 29.88v6.665a3.885 3.885 0 0 0 3.88 3.88h1.262v24.232a1.362 1.362 0 0 0 1.362 1.362h26.734a1.362 1.362 0 0 0 1.362-1.362V40.426h1.262a3.885 3.885 0 0 0 3.88-3.88V29.88A3.885 3.885 0 0 0 61.861 26zm-28 8.121h24.014v24.544a6.162 6.162 0 0 0-4.637 4.63H38.502a6.162 6.162 0 0 0-4.636-4.63V34.121zm0 26.426A4.347 4.347 0 0 1 36.62 63.3h-2.755zM55.122 63.3a4.347 4.347 0 0 1 2.753-2.754V63.3zm7.9-26.75a1.159 1.159 0 0 1-1.161 1.15h-2.194v-3.579h1.452a.908.908 0 1 0 0-1.815H30.622a.908.908 0 1 0 0 1.815h1.453V37.7H29.88a1.159 1.159 0 0 1-1.157-1.157V29.88a1.159 1.159 0 0 1 1.157-1.157h31.981a1.159 1.159 0 0 1 1.157 1.157v6.665z"/><path data-name="Path 511" d="M44.092 46.195a2.643 2.643 0 0 0 2.549-1.958h2.445a1.276 1.276 0 0 1-1.078.6.681.681 0 1 0 0 1.361 2.643 2.643 0 0 0 2.549-1.958h.316a.681.681 0 0 0 0-1.361h-.316a2.638 2.638 0 0 0-5.1 0h-2.445a1.276 1.276 0 0 1 1.078-.6.681.681 0 0 0 0-1.362 2.643 2.643 0 0 0-2.549 1.958h-.316a.681.681 0 0 0 0 1.361h.316a2.643 2.643 0 0 0 2.551 1.959zm0-1.361a1.276 1.276 0 0 1-1.078-.6h2.157a1.276 1.276 0 0 1-1.079.6zm3.915-2.554a1.276 1.276 0 0 1 1.078.6h-2.157a1.276 1.276 0 0 1 1.079-.6z"/><path data-name="Path 512" d="M46.049 51.93a8.374 8.374 0 1 0-8.374-8.374 8.384 8.384 0 0 0 8.374 8.374zm0-14.933a6.559 6.559 0 1 1-6.559 6.559 6.566 6.566 0 0 1 6.559-6.559z"/></g></g></svg>