<svg xmlns="http://www.w3.org/2000/svg" width="92" height="92"><g data-name="Group 452"><g data-name="Ellipse 80" fill="none" stroke="#f8ca1c" stroke-width="3"><circle cx="46" cy="46" r="46" stroke="none"/><circle cx="46" cy="46" r="44.5"/></g><g data-name="Group 394" fill="#f8ca1c"><path data-name="Path 492" d="M72.314 39.765l-1.368-.295a3.078 3.078 0 01-.006.364l-.066.575-.106.932-2.178 19.024a2.942 2.942 0 01-3.259 2.622l-5.853-.671-9.461-1.083-9.457-1.084 26.152 5.633a2.905 2.905 0 00.614.064 2.978 2.978 0 002.886-2.354l4.348-20.197a2.971 2.971 0 00-.393-2.23 2.9 2.9 0 00-1.853-1.3z"/><path data-name="Path 493" d="M64.125 61.171a2.813 2.813 0 00.333.019 3.022 3.022 0 002.285-1.107 2.977 2.977 0 00.64-1.533l2-17.5.107-.932.106-.932.092-.8.041-.362a3.065 3.065 0 00-.056-.967 2.952 2.952 0 00-.554-1.215 2.9 2.9 0 00-1.968-1.105l-1.543-.18v21.45a2.143 2.143 0 01-2.055 2.221H38.426l4.447.508z"/><path data-name="Path 494" d="M59.644 54.266l-10.2.948-10.058.932-1.534.142-4.451.414-.077.007-2.071.193-1.122.1-.116.011-.682.064h32.233a2.96 2.96 0 002.939-2.975V33.444a2.979 2.979 0 00-.89-2.127 2.915 2.915 0 00-2.049-.848h-2.064l.078.841.009.091.087.933.144 1.56.088.95.069.745.019.205.068.744.056.6.031.346.058.629.09.974 1.185 12.774a2.14 2.14 0 01-1.84 2.405z"/><path data-name="Path 495" d="M36.202 45.25a.33.33 0 00-.2.089.4.4 0 00-.1.343.447.447 0 00.127.291.319.319 0 00.262.092.281.281 0 00.225-.134.472.472 0 00.057-.3.433.433 0 00-.126-.3.31.31 0 00-.245-.081z"/><path data-name="Path 496" d="M35.649 51.16a.6.6 0 00-.175.072.178.178 0 00-.077.176.173.173 0 00.07.139.218.218 0 00.142.032.417.417 0 00.23-.1.309.309 0 00.087-.282l-.013-.145a.434.434 0 01-.073.045.642.642 0 01-.1.036z"/><path data-name="Path 497" d="M41.936 45.173a.36.36 0 00-.114-.256.325.325 0 00-.248-.068.321.321 0 00-.231.113.439.439 0 00.048.526.323.323 0 00.25.07.312.312 0 00.236-.118.362.362 0 00.059-.267z"/><path data-name="Path 498" d="M43.278 43.773a.314.314 0 00-.191.083.416.416 0 00-.1.354.472.472 0 00.111.3.306.306 0 00.263.077.31.31 0 00.169-.07.37.37 0 00.12-.353.474.474 0 00-.119-.3.3.3 0 00-.253-.091z"/><path data-name="Path 499" d="M41.541 44.506a.273.273 0 00.2-.1.322.322 0 00-.039-.414.282.282 0 00-.219-.056.265.265 0 00-.261.314.278.278 0 00.095.2.29.29 0 00.224.056z"/><path data-name="Path 500" d="M46.572 49.637a.347.347 0 00-.241-.058.319.319 0 00-.227.108.417.417 0 00-.083.243l.678-.064a.327.327 0 00-.127-.229z"/><path data-name="Path 501" d="M51.873 44.052l.568-.053-.091-.981z"/><path data-name="Path 502" d="M42.241 50.539a.616.616 0 00-.176.071.181.181 0 00-.077.176.175.175 0 00.07.14.219.219 0 00.143.031.418.418 0 00.23-.1.312.312 0 00.087-.282l-.013-.146a.394.394 0 01-.073.045.681.681 0 01-.1.037z"/><path data-name="Path 503" d="M55.894 43.395a.316.316 0 00-.2.089.39.39 0 00-.1.342.462.462 0 00.128.291.317.317 0 00.262.092.284.284 0 00.225-.134.461.461 0 00.058-.3.443.443 0 00-.127-.3.309.309 0 00-.246-.08z"/><path data-name="Path 504" d="M32.656 44.876l-.477 1.035.432-.041.138-.013-.041-.435z"/><path data-name="Path 505" d="M30.793 51.044a.32.32 0 00-.226.108.416.416 0 00-.083.243l.678-.063a.333.333 0 00-.127-.228.341.341 0 00-.242-.06z"/><path data-name="Path 506" d="M26.893 51.943a.564.564 0 01-.1.036l-.089.025a.583.583 0 00-.175.071.205.205 0 00-.007.315.218.218 0 00.142.031.413.413 0 00.23-.1.307.307 0 00.087-.281l-.013-.146a.5.5 0 01-.075.049z"/><path data-name="Path 507" d="M23.99 47.012a2.313 2.313 0 00.006-.607 2.213 2.213 0 00-.119-.6.275.275 0 00-.527.049 2.907 2.907 0 00.116 1.207.271.271 0 00.525-.049z"/><path data-name="Path 508" d="M21.609 56.781c.082.007.161.024.245.024s.179 0 .27-.013l2.292-.212.755-.07 1.979-.184.306-.028.929-.087.408-.038.3-.028.236-.021.425-.039.941-.088.97-.09 1.579-.147 5.909-.547 18.342-1.696a2.961 2.961 0 002.651-3.235l-1.062-11.451-.09-.974-.047-.505-.045-.468-.044-.482-.068-.744-.019-.205-.069-.744-.088-.95-.131-1.422-.088-.933-.008-.092-.079-.841-.071-.764a2.978 2.978 0 00-1.336-2.223 2.873 2.873 0 00-1.865-.47l-35.37 3.282a2.962 2.962 0 00-2.652 3.234l1.909 20.572a2.937 2.937 0 002.686 2.679zm2-20.1a2.524 2.524 0 00-.337.334 2.372 2.372 0 00-.171.253 2.458 2.458 0 00-.363.962l-.629.06a2 2 0 01.992-1.411 1.959 1.959 0 01.508-.198zm30.423-5.278a4.036 4.036 0 011.346 1.986 3.917 3.917 0 01.136.7c.01.085 0 .168 0 .253a3.679 3.679 0 01-.047.731c-.011.066-.026.133-.04.2a3.8 3.8 0 01-.229.71c-.013.03-.023.062-.039.093a3.818 3.818 0 01-.479.786c-.012.015-.02.033-.031.047l-.009.008a4.064 4.064 0 01-2.6 1.371 3.621 3.621 0 01-.366.018 3.84 3.84 0 01-1.873-.489 3.821 3.821 0 01-2.277 1.047 3.772 3.772 0 01-.367.018 3.841 3.841 0 01-3.811-3.313c-.006-.044-.019-.085-.023-.13 0-.021-.01-.041-.013-.064a3.953 3.953 0 010-.75c0-.047.019-.092.024-.137a3.967 3.967 0 01.118-.582c.02-.066.052-.129.074-.194.015-.043.036-.083.053-.125a4.388 4.388 0 01.6-1.041c.064-.076.141-.136.208-.206s.121-.126.186-.184a3.815 3.815 0 011.23-.75c.075-.028.146-.068.224-.091a3.949 3.949 0 01.771-.154 3.845 3.845 0 011.509.154c.08.024.152.063.23.091a3.962 3.962 0 01.527.235c.088-.082.173-.161.267-.235.044-.034.092-.059.136-.091a3.78 3.78 0 014.43 0c.044.028.093.055.135.088zM24.581 52.859l-.4.038-.15-1.593-.041-.439h.041l.4-.039.529.754.146.21.264.376-.133-1.417.4-.037.191 2.032-.425.04-.295-.417-.146-.207-.52-.743zm-1.48-5.583a1.864 1.864 0 01-.218-.766 1.779 1.779 0 01.093-.888.585.585 0 01.125-.143.68.68 0 01.457-.221.7.7 0 01.476.118.578.578 0 01.165.131 1.783 1.783 0 01.256.853 1.755 1.755 0 01-.093.885.572.572 0 01-.328.284.78.78 0 01-.253.078.649.649 0 01-.639-.246.61.61 0 01-.041-.085zm-.367-8.275l.137 1.45c0 .012 0 .021.006.032l-.629.059-.141-1.483zm21.845 10.485a.586.586 0 01.264-.088.528.528 0 01.2.02.439.439 0 01.29.3 1.382 1.382 0 01.035.221l.088.949-.4.038-.09-.957a.306.306 0 00-.041-.138.2.2 0 00-.2-.087.227.227 0 00-.212.157.436.436 0 00-.015.176l.083.895-.4.039-.084-.895a.5.5 0 00-.047-.192.193.193 0 00-.2-.091.231.231 0 00-.215.131.4.4 0 00-.015.187l.085.9-.4.037-.142-1.5.381-.037.021.219a.61.61 0 01.122-.18.484.484 0 01.288-.116.465.465 0 01.286.049.456.456 0 01.147.168.54.54 0 01.171-.205zm-.161-5.769a2.136 2.136 0 00.294-.056.385.385 0 00.282-.312.4.4 0 00.007-.095l.374-.036.214 2.279-.46.043-.149-1.572-.535.051zm-.3 1.457a.74.74 0 01-.69.6.755.755 0 01-.475-.108.6.6 0 01-.277-.421l.446-.042a.284.284 0 00.1.156.263.263 0 00.19.046.322.322 0 00.288-.274 1.424 1.424 0 00.024-.4.5.5 0 01-.119.131.6.6 0 01-.3.1.708.708 0 01-.5-.142.685.685 0 01-.261-.522.833.833 0 01.156-.613.784.784 0 011.285.115 1.792 1.792 0 01.174.676 1.936 1.936 0 01-.046.695zm-1.717 4.808a.4.4 0 00-.193-.017.251.251 0 00-.193.088.276.276 0 00-.043.142l-.379.036a.572.572 0 01.081-.335.651.651 0 01.52-.25.955.955 0 01.449.056.374.374 0 01.228.352l.065.69c0 .048.011.1.019.173a.2.2 0 00.034.1.146.146 0 00.063.04l.005.056-.427.04a.369.369 0 01-.033-.082.821.821 0 01-.02-.09.8.8 0 01-.174.168.555.555 0 01-.281.1.5.5 0 01-.35-.085.425.425 0 01-.166-.319.433.433 0 01.177-.421.986.986 0 01.339-.13l.133-.028a.632.632 0 00.146-.049.118.118 0 00.073-.119.138.138 0 00-.073-.116zm-1.993 1.385l-.392.038-.142-1.5.381-.036.02.219a.688.688 0 01.128-.18.49.49 0 01.3-.119.579.579 0 01.391.086.5.5 0 01.186.391l.095 1.013-.4.038-.085-.914a.432.432 0 00-.048-.18.222.222 0 00-.229-.094.275.275 0 00-.257.2.641.641 0 00-.017.233zm.651-5.587a.678.678 0 01-.243-.471.7.7 0 01.055-.356.546.546 0 01.231-.258.542.542 0 01-.239-.218.673.673 0 01-.072-.236.562.562 0 01.147-.441.893.893 0 011.06-.1.565.565 0 01.228.406.661.661 0 01-.028.244.458.458 0 01-.193.243.651.651 0 01.279.226.682.682 0 01.117.339.654.654 0 01-.168.51.842.842 0 01-.577.258.774.774 0 01-.597-.145zm-3.558 5.366a2.363 2.363 0 00-.423-.08.869.869 0 01-.376-.125.348.348 0 01-.131-.26.474.474 0 01.13-.374.66.66 0 01.448-.193.854.854 0 01.47.068.483.483 0 01.241.37l-.392.037a.225.225 0 00-.054-.116.271.271 0 00-.228-.059.334.334 0 00-.179.057.116.116 0 00-.046.1.107.107 0 00.067.093 2.417 2.417 0 00.421.07.738.738 0 01.367.133.388.388 0 01.143.271.463.463 0 01-.133.382 1 1 0 01-1.039.09.49.49 0 01-.206-.365l.4-.037a.255.255 0 00.067.142.373.373 0 00.279.055.417.417 0 00.183-.054.109.109 0 00.059-.109.119.119 0 00-.068-.096zm-1.7-.543a.415.415 0 00-.193-.017.257.257 0 00-.193.088.288.288 0 00-.043.143l-.371.035a.572.572 0 01.077-.335.65.65 0 01.519-.249.972.972 0 01.45.056.377.377 0 01.227.352l.065.691c0 .047.011.1.02.173a.212.212 0 00.033.1.144.144 0 00.063.04l.005.057-.427.04a.619.619 0 01-.032-.081.774.774 0 01-.019-.09.821.821 0 01-.175.168.551.551 0 01-.281.1.5.5 0 01-.35-.085.419.419 0 01-.165-.318.429.429 0 01.176-.422.98.98 0 01.339-.13l.133-.028a.639.639 0 00.154-.05.117.117 0 00.073-.12.137.137 0 00-.085-.118zm-4.254.651a1.875 1.875 0 01.041.3l-.209.02-.886.083a.363.363 0 00.187.3.4.4 0 00.221.036.305.305 0 00.283-.2l.148-.014.253-.023a.489.489 0 01-.12.285.639.639 0 01-.229.187.9.9 0 01-.315.085.824.824 0 01-.546-.134c-.027-.019-.041-.054-.064-.076a.768.768 0 01-.221-.5.819.819 0 01.15-.618.7.7 0 01.36-.216.792.792 0 01.159-.043.862.862 0 01.36.038.612.612 0 01.28.2.7.7 0 01.079.159.76.76 0 01.074.132zm-2.038 1.14l-.091-.957a.306.306 0 00-.041-.138.2.2 0 00-.2-.087.224.224 0 00-.211.157.417.417 0 00-.016.175l.083.895-.274.026-.121.012-.083-.9a.508.508 0 00-.046-.192.181.181 0 00-.092-.077.26.26 0 00-.113-.014.231.231 0 00-.215.131.419.419 0 00-.013.187l.084.9-.349.032h-.049l-.142-1.5.365-.035h.017l.02.219a.6.6 0 01.122-.18.476.476 0 01.288-.116h.027a.476.476 0 01.26.045.438.438 0 01.147.169c.013-.029.037-.04.051-.064a.487.487 0 01.123-.15.589.589 0 01.264-.088.544.544 0 01.2.019.441.441 0 01.291.3 1.626 1.626 0 01.03.19v.03l.087.948-.205.02zm-6.172-11.987l-.136-1.449.65-.062.14 1.483-.646.06a.122.122 0 01-.008-.032zm5.8 6.7a1 1 0 01-.228-.021.643.643 0 01-.441-.208c-.009-.01-.023-.012-.032-.022a.933.933 0 01-.151-.429l.237-.022.2-.02a.517.517 0 00.065.222.274.274 0 00.16.117.345.345 0 00.152.02.334.334 0 00.221-.112.339.339 0 00.073-.27.292.292 0 00-.21-.282.6.6 0 00-.16-.019 1.661 1.661 0 00-.169.006l-.03-.321a1.129 1.129 0 00.242-.05.481.481 0 00.058-.021.265.265 0 00.125-.28.3.3 0 00-.1-.205c-.006-.006-.019 0-.027-.007a.279.279 0 00-.194-.055.272.272 0 00-.224.122.425.425 0 00-.046.275h-.041l-.377.036a1.125 1.125 0 01.028-.327.721.721 0 01.149-.263.6.6 0 01.2-.142.713.713 0 01.086-.021.94.94 0 01.208-.051.894.894 0 01.262.013.689.689 0 01.281.107.534.534 0 01.16.176.612.612 0 01.082.26.5.5 0 01-.088.351.439.439 0 01-.073.065.369.369 0 01-.074.067c.015 0 .044.023.063.03a.319.319 0 01.123.058.563.563 0 01.211.417.729.729 0 01-.15.527.655.655 0 01-.322.211 1.076 1.076 0 01-.253.065zm-1.743 5.1c0 .049.011.106.019.174a.214.214 0 00.034.1.162.162 0 00.063.04l.005.056-.177.017-.25.023a.375.375 0 01-.033-.083.65.65 0 01-.019-.09.842.842 0 01-.175.168.568.568 0 01-.281.1.543.543 0 01-.193-.014.463.463 0 01-.157-.072.418.418 0 01-.165-.318.432.432 0 01.176-.422.86.86 0 01.25-.1c.03-.009.055-.019.089-.026l.133-.029a.6.6 0 00.154-.05.116.116 0 00.074-.119.135.135 0 00-.076-.122.419.419 0 00-.194-.017.244.244 0 00-.144.065c-.013.01-.039.009-.049.022a.284.284 0 00-.043.142l-.379.036a.569.569 0 01.082-.335.61.61 0 01.432-.228.769.769 0 01.087-.021.944.944 0 01.449.056.375.375 0 01.228.352l.059.627zm-1.211-14.3l-.382.036.212 2.247-.9.084-.146.014-.214.021-.336-3.563a2.02 2.02 0 01.55-.146h.018l.129-.012 1.5-.142c.038 0 .074 0 .111-.005a2 2 0 011.394 1.044 2.211 2.211 0 01.108.233l-.137.013-1.912.181zm1.216.655l.606-.057.808-.075.063.67.074.78v.034l-.168.016-.951.09-.293.028zm.345 2.235l.95-.09.164-.016a1.959 1.959 0 01-.212.435 2.045 2.045 0 01-.144.215 1.985 1.985 0 01-.785.567l-.045-.474-.058-.626zm-.738 6.45l-.435.041a1.081 1.081 0 01.063-.459 1.275 1.275 0 01.408-.524l.081-.074a2.764 2.764 0 00.289-.282.469.469 0 00.109-.34.364.364 0 00-.1-.233.279.279 0 00-.191-.06c-.019 0-.029-.017-.047-.015a.284.284 0 00-.264.179.76.76 0 00-.024.285l-.435.041a1.105 1.105 0 01.061-.48.657.657 0 01.606-.4 1.147 1.147 0 01.149.008.769.769 0 01.447.137.7.7 0 01.264.511.714.714 0 01-.109.464 1.524 1.524 0 01-.3.322l-.168.144c-.1.09-.176.155-.214.2a.5.5 0 00-.093.133l.9-.085.092-.008.038.394-.176.017zm-2.972-6.1h.026l.064.671c-.03-.022-.063-.042-.09-.066a1.984 1.984 0 01-.456-.559zm.791-.074l.142-.013.146-.014.97-.092.118 1.192-.683.064a1.992 1.992 0 01-.4 0c-.05 0-.1-.02-.146-.029-.013 0-.025-.005-.038-.008zm.142 4.454l.053-.01a.416.416 0 00.095-.063.428.428 0 00.114-.076.414.414 0 00.073-.172.4.4 0 00.008-.093l.374-.036.215 2.28-.46.043-.148-1.576-.176.017-.146.014-.213.019-.03-.3a2.369 2.369 0 00.242-.049zm6.91.769l-.038-.391.708-1.462.376-.036.126-.013.134 1.424.258-.024.032.351-.257.024.046.491-.438.04-.046-.49-.249.023zm2.609.309a.806.806 0 01-.551-.124.686.686 0 01-.279-.474l.448-.041a.421.421 0 00.123.216.282.282 0 00.227.059.3.3 0 00.243-.141.485.485 0 00.058-.3.519.519 0 00-.108-.287.287.287 0 00-.266-.1.458.458 0 00-.14.033.288.288 0 00-.146.155l-.4.019.006-.403.029-.869.162-.015 1.092-.1.036.381-.932.088-.035.505a.9.9 0 01.153-.1.7.7 0 011.008.619.874.874 0 01-.15.583.734.734 0 01-.577.294zm.4 5.284l-1.439.135-.191-2.033.425-.04.157 1.667 1.02-.101zm1.429-5.457a.684.684 0 01-.67-.3 1.471 1.471 0 01-.227-.711 3.066 3.066 0 01-.019-.426 1.3 1.3 0 01.107-.5.76.76 0 01.23-.289.688.688 0 01.368-.136.758.758 0 01.522.115.621.621 0 01.253.413l-.446.041a.225.225 0 00-.048-.122.249.249 0 00-.228-.086.327.327 0 00-.288.275 1.539 1.539 0 00-.032.406.509.509 0 01.181-.164.713.713 0 01.764.09.738.738 0 01.243.509.893.893 0 01-.138.58.693.693 0 01-.566.303zm1.292-.181a2.74 2.74 0 01.282-1.313 3.035 3.035 0 01.36-.611l-1.136.107-.031-.4 1.61-.152.033.351a2.846 2.846 0 00-.248.38 3.138 3.138 0 00-.251.553 2.944 2.944 0 00-.124.535 2.2 2.2 0 00-.03.511zm.59 3.824l-.039-.418.39-.037.039.419.245-.023.026.279-.244.023.074.794q.008.093.035.113a.259.259 0 00.145.01l.038-.005.039-.005.028.295-.185.023a.5.5 0 01-.39-.06.291.291 0 01-.086-.2l-.086-.925-.211.019-.025-.279zM23.695 37.25l.082.882-.554.053a1.986 1.986 0 01.409-.873c.019-.023.043-.04.063-.062zm-.61 3.985a.3.3 0 00.017.04 2.444 2.444 0 00.933 1.048c.046.028.1.047.145.073v.045c-.052 0-.1-.02-.15-.026a1.983 1.983 0 01-1.588-1.119zm24.7 3.656l.038.394-1.562.147a1.094 1.094 0 01.064-.459 1.279 1.279 0 01.407-.525 3.37 3.37 0 00.372-.355.474.474 0 00.109-.341.365.365 0 00-.1-.233.329.329 0 00-.5.1.778.778 0 00-.023.284l-.436.041a1.129 1.129 0 01.061-.479.658.658 0 01.606-.4.807.807 0 01.594.147.7.7 0 01.264.511.718.718 0 01-.109.464 1.51 1.51 0 01-.3.322l-.168.145c-.1.09-.177.155-.215.2a.538.538 0 00-.093.134zm-1.484 4.364a.866.866 0 01.361.038.614.614 0 01.279.2.74.74 0 01.15.3 1.986 1.986 0 01.041.3l-1.095.1a.362.362 0 00.187.3.414.414 0 00.222.037.331.331 0 00.211-.09.308.308 0 00.071-.111l.4-.037a.486.486 0 01-.12.285.737.737 0 01-.545.272.823.823 0 01-.548-.134.737.737 0 01-.286-.58.82.82 0 01.152-.618.73.73 0 01.52-.262zm4.826-5.4a.56.56 0 01.211.417.733.733 0 01-.152.528.768.768 0 01-.572.275.722.722 0 01-.7-.253.947.947 0 01-.151-.431l.441-.04a.53.53 0 00.064.222.3.3 0 00.313.137.326.326 0 00.221-.112.336.336 0 00.073-.27.293.293 0 00-.209-.282.928.928 0 00-.331-.013l-.034-.316a.845.845 0 00.3-.071.265.265 0 00.123-.28.3.3 0 00-.095-.205.282.282 0 00-.222-.061.27.27 0 00-.223.122.431.431 0 00-.046.275l-.419.039a1.133 1.133 0 01.029-.328.715.715 0 01.15-.262.608.608 0 01.2-.143.874.874 0 01.292-.07.8.8 0 01.543.119.567.567 0 01.243.434.507.507 0 01-.089.351.391.391 0 01-.146.132.335.335 0 01.185.091zm1.834.941l-.44.041-.046-.491-.9.085-.038-.391.708-1.462.5-.047.134 1.423.257-.024.032.351-.258.024zm1.38-1.15a.288.288 0 00-.267-.1.451.451 0 00-.138.034.283.283 0 00-.145.155l-.4.019.041-1.275 1.253-.118.036.381-.932.088-.034.505a.958.958 0 01.153-.1.709.709 0 01.233-.058.719.719 0 01.511.143.709.709 0 01.262.534.88.88 0 01-.15.583.739.739 0 01-.583.3.807.807 0 01-.55-.124.686.686 0 01-.279-.473l.447-.042a.445.445 0 00.123.217.287.287 0 00.228.058.3.3 0 00.243-.142.483.483 0 00.059-.3.515.515 0 00-.112-.28zm2.242.623a.709.709 0 01-.569.3.682.682 0 01-.668-.3 1.477 1.477 0 01-.228-.71 3.356 3.356 0 01-.018-.426 1.339 1.339 0 01.107-.5.787.787 0 01.231-.289.7.7 0 01.363-.127.758.758 0 01.521.115.62.62 0 01.253.413l-.446.042a.218.218 0 00-.055-.116.249.249 0 00-.228-.086.324.324 0 00-.288.274 1.5 1.5 0 00-.032.406.517.517 0 01.179-.163.642.642 0 01.248-.069.657.657 0 01.516.159.727.727 0 01.243.508.884.884 0 01-.13.575z"/><path data-name="Path 509" d="M50.971 34.418l-.465.044-.214.021-.248.023-.725.068-.552.053-.238.022-.226.021-.466.044v-.493l.092-.008.373-.036.465-.044 1.149-.108.484-.046.472-.046.4-.038c0-.013-.012-.026-.016-.039a3.506 3.506 0 00-.208-.524l-.4.038-.486.046-.518.048-.747.07-.245.023-.246.023-.474.047c.011-.049.019-.1.031-.148.034-.127.072-.249.117-.371l.525-.05.539-.051.149-.014.565-.053.529-.051.354-.033h.018a3.382 3.382 0 00-.477-.52.173.173 0 01-.018-.019l-.2.019-.107.01-.314.03-.291.027-.383.037-.331.03-.266.025c.023-.041.054-.078.08-.118-.027-.013-.055-.029-.082-.041a2.923 2.923 0 00-1.2-.263c-.093 0-.186.005-.28.013a2.965 2.965 0 00-.865.231l-.045.019a2.921 2.921 0 00-1.068.794.065.065 0 00-.008.007 2.955 2.955 0 00-.393.645l-.014.037c-.03.064-.057.128-.081.193a2.822 2.822 0 00-.164.669c0 .016 0 .032-.005.049a3.117 3.117 0 000 .556 3.476 3.476 0 00.071.364l.005.029a2.919 2.919 0 004.653 1.643l.108-.01.635-.06.067-.006.556-.052h.041c.028-.028.047-.063.073-.09s.057-.073.088-.107a3.3 3.3 0 00.361-.438l-.215.021-.527.049-.4.038-.2.019-.327.031-.066.006-.579.055c-.055-.073-.094-.154-.143-.23s-.086-.129-.124-.2l.525-.049.468-.044h.054l.463-.044.526-.05.5-.047h.014l.273-.027a3.218 3.218 0 00.167-.539c0-.021.016-.042.02-.064l-.315.03h-.022l-.483.046-.484.046-.989.093-.072.006-.411.039-.486.046c-.037-.1-.079-.2-.107-.3-.017-.062-.021-.128-.036-.192l.468-.044.2-.019.265-.025 1.226-.116.331-.032.131-.013.467-.044.382-.037v-.456c0-.037-.019-.082-.023-.125z"/></g></g></svg>