<svg xmlns="http://www.w3.org/2000/svg" viewBox="0 0 86.227 21.847"><defs><style>.a{fill:#6a2c91}</style><clipPath id="a"><path class="a" d="M53.814 10.906a6.1 6.1 0 0 0-3.374-1.218 19.426 19.426 0 0 0-10.446 2.45 14.66 14.66 0 0 0-2.934 2.1c.484.132.983.264 1.5.381 6.525 1.187 12.012.233 15.254-3.713zm-3.932 7.5c-3.961-1.467-9.962-2.245-13.82-3.11a7.238 7.238 0 0 0-1.379 2.582 6.048 6.048 0 0 0-.22 1.937 7.6 7.6 0 0 0 .572 2.127c1.746 2.725 9.551.04 14.848-3.542zm5.487-3.99a12.47 12.47 0 0 1-2.787 3.609 5.547 5.547 0 0 1 2.377 1.863 18.838 18.838 0 0 0 .425-2.318 13.292 13.292 0 0 0-.015-3.158zm-12.162 1.35a58.221 58.221 0 0 1 7.981 1.716c2.142-1.643 3.653-3.4 3.741-4.841-.044-.1-.073-.191-.117-.293a4.474 4.474 0 0 0-.337-.646 4.2 4.2 0 0 0-.323-.44c-2.714 3.458-6.705 4.588-10.945 4.5zM39.5 28.628c.191.191.367.381.572.557a9.773 9.773 0 0 0 3.052 1.951 4.9 4.9 0 0 0 3.169.147 9.383 9.383 0 0 0 3.418-2.039c.249-.22.469-.455.7-.69a17.667 17.667 0 0 0 2.67-3.756c-2.45 2.95-8.981 5.811-13.581 3.83zm11.927-9.565c-4.225 3.594-10.651 6.851-14.891 5.751.073.117.147.235.22.367l.015.015c4.181 6.719 15.786 1.584 17.106-2.685.289-1.453-.723-2.553-2.454-3.448z" transform="translate(-34.457 -9.635)"/></clipPath></defs><g clip-path="url(#a)"><path class="a" d="M-.02-.005h21.056V21.86H-.02z"/></g><path class="a" d="M73.932 8.651a4.2 4.2 0 0 0-4.284 4.431 4.1 4.1 0 0 0 4.284 4.4 3.74 3.74 0 0 0 3.932-2.8h-1.467a.962.962 0 0 0-.807.411 2.055 2.055 0 0 1-1.57.675 1.92 1.92 0 0 1-2.069-2.127h6.059c.162-2.437-1.129-4.99-4.078-4.99zm-1.98 3.521a1.824 1.824 0 0 1 1.922-1.79c1.188 0 1.614.675 1.834 1.79zM49.476 8.651a4.2 4.2 0 0 0-4.284 4.431 4.1 4.1 0 0 0 4.284 4.4 3.74 3.74 0 0 0 3.932-2.8h-1.467a.962.962 0 0 0-.807.411 2.055 2.055 0 0 1-1.57.675 1.92 1.92 0 0 1-2.069-2.127h6.059c.162-2.437-1.115-4.99-4.078-4.99zm-1.984 3.521a1.824 1.824 0 0 1 1.922-1.79c1.188 0 1.614.675 1.834 1.79zM81.723 7.58v9.727c-1.98 0-2.274-.557-2.289-2.142V5.717c1.966 0 2.274.293 2.289 1.863zm4.504 0v9.727c-1.98 0-2.274-.557-2.289-2.142V5.717c1.966 0 2.274.293 2.289 1.863zm-52.419 9.712h2.685s-3.638-9.653-3.932-10.416a1.6 1.6 0 0 0-1.585-1.2h-1.394l-4.474 11.616h2.538l.939-2.611h4.343zM29.289 12.7L30.8 8.445l1.452 4.255zm12.367-1.908h-4.152v-1.76h5.531c1.57 0 1.54 1.731.836 2.465s-3.7 4.093-3.7 4.093h4.152v1.716h-7.156v-1.8zm13.175-1.76v8.274h2.274v-4.68c0-1 1.482-1.849 2.377-1.687a2.6 2.6 0 0 1 .631.191V8.9h-.66a2.5 2.5 0 0 0-1.863.807 4.455 4.455 0 0 0-.66.954V9.032zm13.864 2.803h-1.686c-.543 0-.763-1.54-2.171-1.54s-2.083 1.218-2.083 2.6.411 2.831 1.981 2.831 1.54-1.731 2.45-1.731h1.511a3.506 3.506 0 0 1-3.815 3.492 4.135 4.135 0 0 1-4.372-4.313 4.251 4.251 0 0 1 4.475-4.519 3.438 3.438 0 0 1 3.71 3.18z"/></svg>