<svg data-name="Group 78" xmlns="http://www.w3.org/2000/svg" width="187.52" height="127.724"><g data-name="Group 8" fill="#fcd626"><path data-name="Path 5" d="M28.989 10.102H9.9v52.876h13.08v9.9H9.9v28.989H0V.202h28.989z"/><path data-name="Path 6" d="M49.192 101.512h-9.9V0h9.9z"/><path data-name="Path 7" d="M97.624.556L74.442 92.17h21.919v9.9H62.069L85.25 10.456H64.039v-9.9z"/><path data-name="Path 8" d="M140.956.556L117.774 92.17h21.919v9.9h-34.292l23.181-91.614h-21.211v-9.9z"/><path data-name="Path 9" d="M187.52 102.068h-9.242l-4.242-29.545h-11.515l-4.444 29.545h-9.192q1.742-12.348 3.636-25.3c1.263-8.586 2.474-17.171 3.737-25.656s2.475-16.818 3.737-25.05c1.263-8.182 2.374-16.01 3.434-23.434 0-.253.05-.606.1-1.061a1.733 1.733 0 00-.1-1.061h9.394v.909zm-15.05-39.09l-4.242-29.7-4.444 29.7z"/></g><g data-name="Group 9" fill="#adadad"><path data-name="Path 10" d="M4.041 122.017a.268.268 0 00-.3-.3h-.559v-.757h.909c.556 0 .808.253.808.757v.3a2.082 2.082 0 01-.051.454h.051a2.724 2.724 0 012.424-1.667 1.852 1.852 0 012.071 1.667h.051a2.668 2.668 0 012.424-1.667c1.616 0 2.222.96 2.222 2.576v3.131a.268.268 0 00.3.3h.556v.758h-.96a.7.7 0 01-.808-.808v-3.182c0-1.061-.2-1.97-1.414-1.97a2.465 2.465 0 00-2.121 1.869 2.952 2.952 0 00-.1.96v3.131h-.962v-3.99c0-1.01-.152-1.97-1.414-1.97a2.513 2.513 0 00-2.172 1.97 2.362 2.362 0 00-.1.859v3.131h-.855z"/><path data-name="Path 11" d="M26.111 123.482h.354v-.1c0-1.364-.505-1.869-1.717-1.869-.354 0-1.313.1-1.313.555v.4h-.859v-.657c0-.909 1.566-1.111 2.172-1.111 2.121 0 2.576 1.111 2.576 2.525v3.182a.268.268 0 00.3.3h.556v.758h-.909a.7.7 0 01-.808-.808v-.505h-.051a2.4 2.4 0 01-2.222 1.414 2.075 2.075 0 01-2.271-1.962c.1-2.072 3.03-2.122 4.192-2.122zm-1.667 3.485a2.307 2.307 0 002.02-2.475v-.3h-.4c-1.061 0-3.131.05-3.131 1.515a1.357 1.357 0 001.511 1.259z"/><path data-name="Path 12" d="M38.333 120.755a2.35 2.35 0 012.172 1.263h.05a2.292 2.292 0 01-.05-.505v-2.173a.268.268 0 00-.3-.3h-.556v-.76h.96a.7.7 0 01.808.808v7.374a.268.268 0 00.3.3h.555v.758h-.909c-.556 0-.808-.253-.808-.758a1.4 1.4 0 01.051-.4h-.051a2.417 2.417 0 01-2.273 1.313c-1.768 0-2.879-1.414-2.879-3.485-.05-2.072 1.213-3.435 2.93-3.435zm2.172 3.485c0-1.364-.707-2.677-2.121-2.677-1.162 0-2.121 1.01-2.121 2.677 0 1.616.859 2.677 2.121 2.677 1.11-.001 2.121-.809 2.121-2.678z"/><path data-name="Path 13" d="M52.676 120.755a2.788 2.788 0 012.778 3.081 3.92 3.92 0 01-.05.454h-5.051a2.533 2.533 0 002.576 2.626 2.889 2.889 0 001.97-.808l.455.657a3.744 3.744 0 01-2.475.96 3.369 3.369 0 01-3.485-3.485 3.267 3.267 0 013.282-3.485zm1.869 2.828a1.871 1.871 0 00-1.869-2.02 2.238 2.238 0 00-2.273 2.02z"/><path data-name="Path 14" d="M73.13 122.018a.393.393 0 00-.455-.3h-.151v-.761h.454c.657 0 .859.1 1.061.758l1.364 4.192c.1.3.2.707.2.707h.051s.1-.4.2-.707l1.616-4.9h.909l1.616 4.9c.1.3.2.707.2.707h.051s.1-.4.2-.707l1.364-4.192c.2-.606.4-.758 1.061-.758h.454v.758h-.2c-.2 0-.4.05-.454.3l-1.919 5.555h-1.01l-1.616-4.7-.2-.707h-.05s-.1.4-.2.707l-1.616 4.7h-1.01z"/><path data-name="Path 15" d="M90.906 122.017a.268.268 0 00-.3-.3h-.558v-.758h.96a.7.7 0 01.808.808v4.747a.268.268 0 00.3.3h.556v.758h-.96a.7.7 0 01-.808-.808zm-.05-3.737h.859v1.111h-.859z"/><path data-name="Path 16" d="M100.553 121.664h-.858v-.757h.858v-1.819h.859v1.818h1.667v.757h-1.667v3.384c0 1.566 1.01 1.768 1.515 1.768a.732.732 0 00.3-.051v.808a1.4 1.4 0 01-.4.051 2.171 2.171 0 01-2.323-2.475v-3.485z"/><path data-name="Path 17" d="M111.109 119.34a.268.268 0 00-.3-.3h-.559v-.76h.96c.556 0 .808.252.808.758v2.828a3.158 3.158 0 01-.051.556h.051a2.786 2.786 0 012.626-1.667c1.667 0 2.222.96 2.222 2.576v3.131a.268.268 0 00.3.3h.556v.758h-.96a.7.7 0 01-.808-.808v-3.182c0-1.061-.151-1.969-1.465-1.969a2.531 2.531 0 00-2.424 1.868 2.363 2.363 0 00-.1.859v3.182h-.858z"/><path data-name="Path 18" d="M135.35 119.34a.268.268 0 00-.3-.3h-.558v-.76h.959a.7.7 0 01.808.808v7.374a.268.268 0 00.3.3h.556v.758h-.96a.7.7 0 01-.808-.808z"/><path data-name="Path 19" d="M147.774 120.755a3.46 3.46 0 110 6.919 3.46 3.46 0 110-6.919zm.05 6.161a2.623 2.623 0 002.576-2.727 2.58 2.58 0 10-2.576 2.727z"/><path data-name="Path 20" d="M158.783 122.018a.393.393 0 00-.454-.3h-.1v-.761h.354c.656 0 .808.151 1.06.707l1.616 4.141c.1.354.2.757.2.757h.051s.1-.455.2-.757l1.616-4.141c.2-.606.4-.707 1.06-.707h.354v.758h-.1c-.253 0-.4.05-.454.3l-2.172 5.555h-.959z"/><path data-name="Path 21" d="M174.844 120.755a2.788 2.788 0 012.778 3.081 3.908 3.908 0 01-.051.454h-5.1a2.533 2.533 0 002.576 2.626 2.889 2.889 0 001.97-.808l.454.657a3.744 3.744 0 01-2.474.96 3.369 3.369 0 01-3.485-3.485 3.334 3.334 0 013.332-3.485zm1.869 2.828a1.871 1.871 0 00-1.869-2.02 2.238 2.238 0 00-2.273 2.02z"/></g></svg>