<svg data-name="Group 10" xmlns="http://www.w3.org/2000/svg" width="73" height="49.722"><g data-name="Group 8" fill="#333"><path data-name="Path 5" d="M11.285 3.932H3.853v20.585h5.093v3.853H3.853v11.286H0V.079h11.285z"/><path data-name="Path 6" d="M19.149 39.518h-3.853V0h3.853z"/><path data-name="Path 7" d="M38.004.216L28.98 35.88h8.533v3.853h-13.35l9.024-35.664H24.93V.216z"/><path data-name="Path 8" d="M54.873.216L45.849 35.88h8.533v3.853h-13.35l9.024-35.664h-8.258V.216z"/><path data-name="Path 9" d="M73 39.735h-3.6l-1.651-11.5h-4.483l-1.73 11.5H57.96q.678-4.807 1.416-9.85c.491-3.342.963-6.685 1.455-9.988s.963-6.547 1.455-9.752c.491-3.185.924-6.232 1.337-9.123 0-.1.02-.236.039-.413a.674.674 0 00-.04-.412h3.657v.354zm-5.859-15.218l-1.651-11.56-1.73 11.56z"/></g><g data-name="Group 9" fill="#adadad"><path data-name="Path 10" d="M1.573 47.5a.1.1 0 00-.118-.118h-.216v-.295h.354c.216 0 .315.1.315.295v.118a.811.811 0 01-.02.177h.02a1.06 1.06 0 01.944-.649.721.721 0 01.806.649h.02a1.038 1.038 0 01.944-.649c.629 0 .865.374.865 1v1.219a.1.1 0 00.118.118h.216v.295h-.374a.273.273 0 01-.315-.315v-1.239c0-.413-.079-.767-.55-.767a.959.959 0 00-.826.727 1.149 1.149 0 00-.039.374v1.219h-.378v-1.553c0-.393-.059-.767-.55-.767a.978.978 0 00-.845.767.92.92 0 00-.039.334v1.219h-.332z"/><path data-name="Path 11" d="M10.165 48.07h.138v-.039c0-.531-.2-.727-.668-.727-.138 0-.511.039-.511.216v.157H8.79v-.256c0-.354.609-.432.845-.432.826 0 1 .432 1 .983v1.239a.1.1 0 00.118.118h.216v.295h-.354a.273.273 0 01-.315-.315v-.2h-.02a.933.933 0 01-.865.551.808.808 0 01-.885-.767c.042-.804 1.183-.823 1.635-.823zm-.649 1.357a.9.9 0 00.786-.963v-.118h-.157c-.413 0-1.219.02-1.219.59a.528.528 0 00.59.491z"/><path data-name="Path 12" d="M14.923 47.008a.915.915 0 01.845.492h.02a.892.892 0 01-.02-.2v-.845a.1.1 0 00-.118-.118h-.216v-.292h.374a.273.273 0 01.315.315v2.87a.1.1 0 00.118.118h.216v.295h-.354c-.216 0-.315-.1-.315-.295a.544.544 0 01.02-.157h-.023a.941.941 0 01-.885.511c-.688 0-1.121-.55-1.121-1.357a1.176 1.176 0 011.144-1.337zm.845 1.357c0-.531-.275-1.042-.826-1.042-.452 0-.826.393-.826 1.042 0 .629.334 1.042.826 1.042.433 0 .826-.315.826-1.042z"/><path data-name="Path 13" d="M20.507 47.008a1.085 1.085 0 011.081 1.2 1.526 1.526 0 01-.02.177h-1.965a.986.986 0 001 1.022 1.125 1.125 0 00.767-.315l.177.256a1.458 1.458 0 01-.963.374 1.312 1.312 0 01-1.357-1.357 1.272 1.272 0 011.28-1.357zm.727 1.1a.728.728 0 00-.727-.786.871.871 0 00-.885.786z"/><path data-name="Path 14" d="M28.469 47.5a.153.153 0 00-.177-.118h-.059v-.295h.177c.256 0 .334.039.413.295l.531 1.632c.039.118.079.275.079.275h.02s.039-.157.079-.275l.629-1.907h.354l.629 1.907c.039.118.079.275.079.275h.02s.039-.157.079-.275l.531-1.632c.079-.236.157-.295.413-.295h.177v.295h-.079c-.079 0-.157.02-.177.118l-.747 2.163h-.393l-.629-1.828-.079-.275h-.02s-.039.157-.079.275l-.629 1.828h-.393z"/><path data-name="Path 15" d="M35.389 47.5a.1.1 0 00-.118-.118h-.216v-.295h.374a.273.273 0 01.315.315v1.843a.1.1 0 00.118.118h.216v.295h-.374a.273.273 0 01-.315-.315zm-.02-1.455h.334v.433h-.334z"/><path data-name="Path 16" d="M39.145 47.36h-.334v-.295h.334v-.705h.334v.708h.649v.295h-.649v1.317c0 .609.393.688.59.688a.285.285 0 00.118-.02v.315a.545.545 0 01-.157.02.845.845 0 01-.9-.963v-1.36z"/><path data-name="Path 17" d="M43.254 46.458a.1.1 0 00-.118-.118h-.216v-.295h.374c.216 0 .315.1.315.295v1.1a1.23 1.23 0 01-.02.216h.02a1.084 1.084 0 011.022-.649c.649 0 .865.374.865 1v1.219a.1.1 0 00.118.118h.216v.295h-.374a.273.273 0 01-.315-.315v-1.239c0-.413-.059-.767-.57-.767a.985.985 0 00-.944.727.92.92 0 00-.039.334v1.239h-.334z"/><path data-name="Path 18" d="M52.691 46.458a.1.1 0 00-.118-.118h-.216v-.295h.373a.273.273 0 01.315.315v2.87a.1.1 0 00.118.118h.216v.295h-.374a.273.273 0 01-.315-.315z"/><path data-name="Path 19" d="M57.528 47.008a1.347 1.347 0 110 2.694 1.347 1.347 0 110-2.694zm.02 2.4a1.021 1.021 0 001-1.062 1 1 0 10-1 1.062z"/><path data-name="Path 20" d="M61.813 47.5a.153.153 0 00-.177-.118h-.039v-.295h.138c.256 0 .315.059.413.275l.629 1.612c.039.138.079.295.079.295h.02s.039-.177.079-.295l.629-1.612c.079-.236.157-.275.413-.275h.138v.295h-.038c-.1 0-.157.02-.177.118l-.845 2.163h-.378z"/><path data-name="Path 21" d="M68.068 47.008a1.085 1.085 0 011.081 1.2 1.521 1.521 0 01-.02.177h-1.986a.986.986 0 001 1.022 1.125 1.125 0 00.767-.315l.177.256a1.457 1.457 0 01-.963.374 1.312 1.312 0 01-1.357-1.357 1.3 1.3 0 011.301-1.357zm.727 1.1a.728.728 0 00-.727-.786.871.871 0 00-.885.786z"/></g></svg>