<svg data-name="Group 340" xmlns="http://www.w3.org/2000/svg" width="16.38" height="20.28"><g data-name="Group 339" fill="#fff"><path data-name="Path 481" d="M14.643 20.28H1.737A1.739 1.739 0 010 18.543V1.737A1.739 1.739 0 011.737 0h9.452a.347.347 0 010 .695H1.737A1.043 1.043 0 00.695 1.737v16.806a1.043 1.043 0 001.042 1.042h12.906a1.043 1.043 0 001.042-1.042V5.323a.347.347 0 11.695 0v13.22a1.738 1.738 0 01-1.737 1.737z"/><path data-name="Path 482" d="M16.032 5.67h-4.844a.348.348 0 01-.347-.347V.478a.347.347 0 11.695 0v4.5h4.5a.347.347 0 010 .695z"/><path data-name="Path 483" d="M16.032 5.67a.348.348 0 01-.249-.1L10.94.59a.348.348 0 01.5-.484l4.844 4.975a.347.347 0 01-.249.589z"/></g></svg>