<svg xmlns="http://www.w3.org/2000/svg" width="101.803" height="24.656"><g data-name="Group 39"><text transform="translate(34.803 19.656)" fill="#333" font-size="18" font-family="CirceRounded-Bold, Circe Rounded" font-weight="700" letter-spacing=".1em"><tspan x="0" y="0">SƏBƏT</tspan></text><g data-name="shopping-basket (1)"><g data-name="Group 11" fill="#fcd626"><path data-name="Path 22" d="M17.362 5.978h2.168L16.319.47a.934.934 0 1 0-1.613.943z"/><path data-name="Path 23" d="M10.013 1.407A.934.934 0 1 0 8.4.464L5.189 5.978h2.166z"/><path data-name="Path 24" d="M23.114 7.662H1.588A1.587 1.587 0 0 0 0 9.25v1.76a1.587 1.587 0 0 0 1.588 1.588h.5l1.532 8.3a2.176 2.176 0 0 0 2.014 1.755h13.123a2.176 2.176 0 0 0 2.014-1.755l1.542-8.308h.806a1.587 1.587 0 0 0 1.588-1.588v-1.76a1.593 1.593 0 0 0-1.593-1.58zm-14.349 8.3v3.581a.9.9 0 0 1-1.8 0v-5.022a.9.9 0 1 1 1.8 0zm2.881 0v3.581a.9.9 0 0 1-1.8 0v-5.022a.9.9 0 0 1 .9-.9.916.916 0 0 1 .9.9zm2.9 2.08v1.5a.9.9 0 0 1-1.8 0V14.52a.916.916 0 0 1 .9-.9.9.9 0 0 1 .9.9zm2.881 0v1.5a.9.9 0 0 1-1.8 0V14.52a.9.9 0 1 1 1.8 0z"/></g></g><g data-name="Ellipse 5" transform="translate(16.803 1.656)" fill="#fcd626" stroke="#fff"><circle cx="6" cy="6" r="6" stroke="none"/><circle cx="6" cy="6" r="5.5" fill="none"/></g><text data-name="3" transform="translate(22.803 9.656)" fill="#333" font-size="7" font-family="CirceRounded-Bold, Circe Rounded" font-weight="700" letter-spacing=".08em"><tspan x="-1.855" y="0">3</tspan></text></g></svg>