<svg xmlns="http://www.w3.org/2000/svg" width="92" height="92"><g data-name="Group 451" transform="translate(-552 -320)"><circle data-name="Ellipse 79" cx="46" cy="46" r="46" transform="translate(552 320)" fill="#f8ca1c"/><g fill="#fff"><path data-name="Path 510" d="M613.861 346H581.88a3.885 3.885 0 00-3.88 3.88v6.665a3.885 3.885 0 003.88 3.88h1.262v24.232a1.362 1.362 0 001.362 1.362h26.734a1.362 1.362 0 001.362-1.362v-24.231h1.262a3.885 3.885 0 003.88-3.88v-6.666a3.885 3.885 0 00-3.881-3.88zm-28 8.121h24.014v24.544a6.162 6.162 0 00-4.637 4.63h-14.736a6.162 6.162 0 00-4.636-4.63v-24.544zm0 26.426a4.347 4.347 0 012.759 2.753h-2.755zm21.261 2.753a4.347 4.347 0 012.753-2.754v2.754zm7.9-26.75a1.159 1.159 0 01-1.161 1.15h-2.194v-3.579h1.452a.908.908 0 100-1.815h-30.497a.908.908 0 100 1.815h1.453v3.579h-2.195a1.159 1.159 0 01-1.157-1.157v-6.663a1.159 1.159 0 011.157-1.157h31.981a1.159 1.159 0 011.157 1.157v6.665z"/><path data-name="Path 511" d="M596.092 366.195a2.643 2.643 0 002.549-1.958h2.445a1.276 1.276 0 01-1.078.6.681.681 0 100 1.361 2.643 2.643 0 002.549-1.958h.316a.681.681 0 000-1.361h-.316a2.638 2.638 0 00-5.1 0h-2.445a1.276 1.276 0 011.078-.6.681.681 0 000-1.362 2.643 2.643 0 00-2.549 1.958h-.316a.681.681 0 000 1.361h.316a2.643 2.643 0 002.551 1.959zm0-1.361a1.276 1.276 0 01-1.078-.6h2.157a1.276 1.276 0 01-1.079.6zm3.915-2.554a1.276 1.276 0 011.078.6h-2.157a1.276 1.276 0 011.079-.6z"/><path data-name="Path 512" d="M598.049 371.93a8.374 8.374 0 10-8.374-8.374 8.384 8.384 0 008.374 8.374zm0-14.933a6.559 6.559 0 11-6.559 6.559 6.566 6.566 0 016.559-6.559z"/></g></g></svg>