<svg xmlns="http://www.w3.org/2000/svg" width="414.876" height="64.072"><g data-name="Group 441"><path data-name="Path 156" d="M414.376 45.945c-2.2-.057-47.125-47.672-93.389-11.253s-88.319 11.253-88.319 11.253-67.693-41.884-114.989 0-75.64-4.468-75.64-4.468" fill="none" stroke="#333" stroke-linecap="round" stroke-dasharray="5"/><g data-name="Group 41" fill="#f6bd1c" fill-rule="evenodd"><path data-name="Path 157" d="M33.666 28.746l-6.826-6.885-6.324-6.38a3.711 3.711 0 0 0-2.79-1.085 3.816 3.816 0 0 0 .522 4.908l6.592 6.103 7.113 6.588 8.226 7.617-.292 5.325.477.462 1.73-3.708 2.992-1.523.091-.19 3.642-1.857-1.95-1.884-5.31.473zm0 0"/><path data-name="Path 158" d="M21.961 45.61l2.3-3.961 2.617-4.508 1.995-3.437-4.96-4.59-4.099 14.424zm0 0"/><path data-name="Path 159" d="M26.837 21.858l6.826 6.885 3.367-2.11 4.417-2.77 6.697-4.194-3.614-3.493zm0 0"/></g><path data-name="Path 160" d="M44.281 15.401l-17.213 5.53-5.972-6.024a4.5 4.5 0 0 0-3.253-1.33 4.687 4.687 0 0 0-4.666 4.826 4.5 4.5 0 0 0 1.44 3.208l6.223 5.764-4.943 17.391a.814.814 0 0 0 .217.808l3.614 3.493a.814.814 0 0 0 1.27-.176l3.445-5.933.229.22a.814.814 0 0 0 1.132-1.17l-.521-.504 1.774-3.057.087.084a.814.814 0 1 0 1.132-1.171l-.376-.364 1.164-2.006 7.198 6.667-.271 4.943a.815.815 0 0 0 .247.63l2.05 1.981a.814.814 0 0 0 1.304-.241l3.122-6.683 6.574-3.347a.814.814 0 0 0 .197-1.312l-2.047-1.978a.815.815 0 0 0-.639-.226l-4.93.439-6.907-6.968 1.964-1.232.377.364a.814.814 0 1 0 1.132-1.171l-.087-.085 2.995-1.876.518.5a.814.814 0 1 0 1.132-1.17L42.762 24l5.813-3.644a.815.815 0 0 0 .133-1.276l-3.61-3.49a.815.815 0 0 0-.817-.19zM26.696 35.833l-.82-.793a.814.814 0 0 0-1.132 1.17l1.11 1.074-1.775 3.055-.09-.087a.814.814 0 1 0-1.132 1.171l.377.365-3.12 5.387-2.517-2.433 4.584-16.125 5.661 5.243zm19.876 1.247l.961.93-5.806 2.954a.817.817 0 0 0-.369.38l-2.755 5.904-.962-.929.273-4.953a.815.815 0 0 0-.26-.642l-8.236-7.626-13.693-12.68a2.884 2.884 0 0 1-.918-2.057 3.058 3.058 0 0 1 3.047-3.153 2.883 2.883 0 0 1 2.087.847l21.04 21.229a.814.814 0 0 0 .651.238zm.26-17.546l-5.277 3.301-.38-.367a.814.814 0 1 0-1.132 1.172l.092.088-2.996 1.878-1.108-1.072a.814.814 0 0 0-1.133 1.172l.82.793-1.933 1.21-5.433-5.481 15.963-5.126zm0 0"/><path data-name="Path 161" d="M34.369 24.059a.815.815 0 0 0-.02-1.151l-.013-.013a.814.814 0 1 0-1.132 1.171l.013.013a.814.814 0 0 0 1.152-.02zm0 0"/><path data-name="Path 162" d="M23.028 33.419a.815.815 0 0 0 .02 1.152l.014.013a.814.814 0 0 0 1.132-1.171l-.014-.014a.815.815 0 0 0-1.152.02zm0 0"/><path data-name="Path 163" d="M39.515 21.996a.814.814 0 0 0-.02-1.151l-.013-.013a.814.814 0 1 0-1.132 1.17l.013.014a.814.814 0 0 0 1.152-.02zm0 0"/><path data-name="Path 164" d="M21.14 38.633a.814.814 0 0 0 .02 1.152l.015.013a.814.814 0 1 0 1.132-1.171l-.014-.013a.814.814 0 0 0-1.152.02zm0 0"/></g></svg>