<svg xmlns="http://www.w3.org/2000/svg" width="38.579" height="38.579"><path data-name="Path 5586" d="M19.289 0a19.29 19.29 0 1 0 19.29 19.289A19.29 19.29 0 0 0 19.289 0zM23.3 29.895q-1.489.588-2.376.895a6.268 6.268 0 0 1-2.061.309 4.107 4.107 0 0 1-2.8-.88 2.84 2.84 0 0 1-1-2.232 8.109 8.109 0 0 1 .073-1.076c.051-.366.131-.777.24-1.239l1.243-4.389c.109-.421.2-.821.279-1.194a5.293 5.293 0 0 0 .111-1.034 1.592 1.592 0 0 0-.346-1.171 1.967 1.967 0 0 0-1.328-.328 3.484 3.484 0 0 0-.988.147c-.335.1-.625.2-.864.287l.328-1.352q1.22-.5 2.335-.851a6.9 6.9 0 0 1 2.107-.356 4.031 4.031 0 0 1 2.763.865 2.875 2.875 0 0 1 .97 2.247q0 .287-.067 1.008a6.742 6.742 0 0 1-.248 1.324l-1.236 4.376c-.1.351-.191.753-.273 1.2a6.355 6.355 0 0 0-.119 1.022 1.468 1.468 0 0 0 .39 1.189 2.185 2.185 0 0 0 1.35.317 3.917 3.917 0 0 0 1.022-.158 5.812 5.812 0 0 0 .826-.278zm-.219-17.764a2.95 2.95 0 0 1-2.082.8 2.981 2.981 0 0 1-2.09-.8 2.565 2.565 0 0 1-.87-1.948 2.591 2.591 0 0 1 .87-1.953A2.96 2.96 0 0 1 21 7.419a2.927 2.927 0 0 1 2.082.812 2.631 2.631 0 0 1 0 3.9z" fill="#fdd625"/></svg>