<svg xmlns="http://www.w3.org/2000/svg" width="395.66" height="383.416"><g data-name="Group 661"><ellipse data-name="Floor" cx="197.83" cy="115.842" rx="197.83" ry="115.842" fill="#fafafa" transform="translate(0 151.731)"/><g transform="translate(18.128 172.831)" fill="#ebebeb"><path d="M98.143.884L1.53 56.664c-2.041 1.178-2.041 3.089 0 4.267l224.108 129.542a11.767 11.767 0 007.82 1.038c42.536-11.647 75.771-31.492 97.11-55.7a3.408 3.408 0 00-.927-5.38L105.534.884a8.166 8.166 0 00-7.391 0z"/><ellipse data-name="Shadow" cx="28.66" cy="16.547" rx="28.66" ry="16.547" transform="translate(39.886 104.525)"/><path data-name="Shadow" d="M299.549 38.307c-10.6 6.118-10.6 16.036 0 22.154s27.777 6.118 38.373 0 10.6-16.036 0-22.154-27.777-6.118-38.373 0z"/></g><g data-name="Tree" transform="translate(288.3 78.436)"><path data-name="Path 87" d="M62.876 80.832l-2.133-1.083-10.181 22.785V75.178h-4v22.018l-10.4-19.536-2.034 1.259 12.433 22.822v41.46a.993.993 0 00.586.817 3.126 3.126 0 002.832 0 1 1 0 00.586-.817v-35.384z" fill="#e0e0e0"/><circle data-name="Ellipse 16" cx="30.703" cy="30.703" r="30.703" transform="rotate(-76.7 65.164 17.642)" fill="#f0f0f0"/><path data-name="Path 88" d="M79.57 46.309c3.959-12.469 8.18-17.345 5.5-18.866A30.7 30.7 0 1093.629 73.7c-9.094 2.655-19.194-11.218-14.059-27.391z" fill="#e0e0e0"/><g data-name="Group 540"><path data-name="Path 89" d="M43.158 62.851a21.579 21.579 0 11-21.579-21.578 21.58 21.58 0 0121.579 21.578z" fill="#f0f0f0"/><path data-name="Path 90" d="M21.579 41.273a21.472 21.472 0 00-12.611 4.073c-.584 13.179 10.606 26.035 7.479 30.355-3.152 4.355-10.835 1.667-13.519-2a21.578 21.578 0 1018.651-32.427z" fill="#e0e0e0"/></g><g data-name="Group 541"><path data-name="Path 91" d="M88.15 39.586A39.586 39.586 0 1148.564 0 39.586 39.586 0 0188.15 39.586z" fill="#f0f0f0"/></g><path data-name="Path 92" d="M87.095 48.631a39.583 39.583 0 11-67.5-36.024c2.753-2.952 2.922-3.077.216-.221a39.587 39.587 0 0038.537 48.626 39.481 39.481 0 0028.747-12.381z" fill="#ebebeb"/></g><g data-name="Clouds" fill="#f0f0f0"><path data-name="Path 93" d="M61.388 19.422l-6.315 3.647a7.7 7.7 0 00.053-.836v-1.834c0-3.256-2.287-4.576-5.106-2.948a9.873 9.873 0 00-3.043 2.926c-.462-4.095-3.674-5.62-7.576-3.367a16.883 16.883 0 00-7.639 13.235v2.737a7.215 7.215 0 00.646 3.171l-5.246 3.03a6.259 6.259 0 00-2.832 4.905c0 1.806 1.268 2.538 2.832 1.636l34.226-19.761a6.26 6.26 0 002.832-4.906c.001-1.806-1.267-2.538-2.832-1.635z"/><path data-name="Path 94" d="M99.91 32.693l-4.767 2.752a5.741 5.741 0 00.04-.631v-1.381c0-2.457-1.725-3.453-3.854-2.225a7.459 7.459 0 00-2.3 2.208c-.348-3.09-2.773-4.241-5.717-2.541a12.743 12.743 0 00-5.759 9.986v2.066a5.442 5.442 0 00.488 2.393l-3.962 2.291a4.726 4.726 0 00-2.137 3.7c0 1.363.957 1.916 2.137 1.234L99.91 37.632a4.726 4.726 0 002.137-3.7c.001-1.368-.956-1.921-2.137-1.239z"/></g><g data-name="Truck"><g data-name="Group 543"><path data-name="Path 95" d="M82.95 233.712a18.078 18.078 0 01-1.411 7.451h-.008a9.24 9.24 0 01-3.643 4.267l-.122.074-.016.016-9.084 5.243c-.008.008-.008.008-.016.008l-3.692-7.328-.246-.492a30.063 30.063 0 01-5.514-5.6c-.4-.517-.787-1.042-1.157-1.592a40.544 40.544 0 01-5.235-10.7 32.751 32.751 0 01-1.583-8.9l-.065-.123-.928-1.846-1.937-3.84-.8-1.6 8.1-4.685h.008l.55-.32.222-.131a8.123 8.123 0 014.1-1.059 13.4 13.4 0 016.614 2c8.758 5.058 15.863 18.112 15.863 29.157z" fill="#263238"/><path data-name="Path 96" d="M41.967 220.713c0 9.521 5.286 20.542 12.364 26.638a.132.132 0 01.029.029 23.338 23.338 0 003.481 2.49c8.768 5.066 15.881.213 15.874-10.828 0-8.342-4.059-17.843-9.821-24.166a.282.282 0 01-.049-.05 25.632 25.632 0 00-6-4.945c-8.772-5.056-15.878-.211-15.878 10.832z" fill="#37474f"/><path data-name="Path 97" d="M57.841 216.549c-5.58-3.221-10.1.135-10.1 7.5s4.523 15.942 10.1 19.163 10.1-.135 10.1-7.5-4.524-15.941-10.1-19.163z" fill="#455a64"/><path data-name="Path 98" d="M41.967 220.713c0 9.521 5.286 20.542 12.364 26.638a45 45 0 01-10.068-19.481c-1.344-6.367-.839-15.5 4.626-17.813 5.42-2.3 12.675 2.558 14.957 4.774a25.632 25.632 0 00-6-4.945c-8.773-5.061-15.879-.216-15.879 10.827z" fill="#455a64"/><g data-name="Group 542"><path data-name="Path 99" d="M57.84 222.962c-2.9-1.672-5.243.07-5.243 3.891s2.348 8.275 5.243 9.946 5.243-.071 5.243-3.891-2.347-8.274-5.243-9.946z" fill="#e0e0e0"/><path data-name="Path 100" d="M56.168 222.894a4.311 4.311 0 00-1.153-.468c-1.452.392-2.418 1.98-2.418 4.427a13.24 13.24 0 002.943 7.91 6.241 6.241 0 00.627.425c2.573 1.485 4.658-.063 4.658-3.457s-2.084-7.351-4.657-8.837z" fill="#f5f5f5"/></g></g><g data-name="Group 548"><path data-name="Path 101" d="M46.765 198.298v3.849l113.324 65.427v-3.849z" fill="#455a64"/><g data-name="Group 544" fill="#f7d400"><path data-name="Path 102" d="M81.739 222.342l-6.2-3.579v21.038c0 1.132.8 1.592 1.777 1.026l4.886-2.822-.465-.27z"/><path data-name="Path 103" d="M81.739 222.342l-6.2-3.579v21.038c0 1.132.8 1.592 1.777 1.026l4.886-2.822-.465-.27z"/></g><g data-name="Group 547"><g data-name="Group 545"><path data-name="Path 104" d="M81.739 222.342v11.546l28.35 16.367v-11.549z" fill="#37474f"/><path data-name="Path 105" d="M110.092 250.255l-28.35-16.367-1.648.977 30 17.3z" fill="#263238"/><path data-name="Path 106" d="M80.098 236.793v-1.916l29.995 17.294v1.938z" fill="#455a64"/></g><g data-name="Group 546"><path data-name="Path 107" d="M110.093 234.861v23.092l23.332 13.471v-23.092z" fill="#37474f"/><path data-name="Path 108" d="M133.424 248.331v23.092l23.332 13.47v-23.092z" fill="#37474f"/><path data-name="Path 109" d="M156.757 284.898l6.666-3.849v-19.245l-3.33 1.926-3.333-1.925z" fill="#263238"/><path data-name="Path 110" d="M132.582 270.937v-23.09l1.665.961V271.9z" fill="#263238"/><path data-name="Path 111" d="M144.252 262.28v-3.849l1.665.958.005 3.851z" fill="#e0e0e0"/><path data-name="Path 112" d="M120.92 248.817v-3.849l1.665.958.005 3.851z" fill="#e0e0e0"/></g><path data-name="Path 113" d="M108.391 233.875v15.4l-1.627.97v1.935l3.327 1.922v-19.241z" opacity=".2"/></g></g><g data-name="Group 556"><g data-name="Group 550"><path data-name="Path 114" d="M40.098 194.449l119.991 69.277.009-7.668-120-69.274z" fill="#f7d400"/><g data-name="Group 549"><path data-name="Path 115" d="M40.098 194.449l119.991 69.277.009-7.668-120-69.274z" fill="#f7d400"/></g></g><g data-name="Group 553"><path data-name="Path 116" d="M160.089 263.725l3.33-1.926v-7.7l-3.33 1.926z" fill="#f7d400"/><g data-name="Group 551"><path data-name="Path 117" d="M160.089 263.725l3.33-1.926v-7.7l-3.33 1.926z" fill="#f7d400"/></g><g data-name="Group 552"><path data-name="Path 118" d="M160.089 263.725l3.33-1.926v-7.7l-3.33 1.926z" opacity=".1"/></g></g><g data-name="Group 555"><path data-name="Path 119" d="M123.424 138.643l-83.322 48.141 119.987 69.245 83.326-48.109z" fill="#f7d400"/><g data-name="Group 554"><path data-name="Path 120" d="M123.424 138.643l-83.322 48.141 119.987 69.245 83.326-48.109z" fill="#f7d400"/></g></g></g><g data-name="Box"><path data-name="Path 121" d="M50.098 92.459l106.657 61.579 76.66-44.26-106.657-61.579z" fill="#2e3e60"/><path data-name="Path 122" d="M156.756 250.255v-96.217L50.097 92.459v96.218z" fill="#2e3e60"/><path data-name="Path 123" d="M156.756 250.256l76.66-44.26v-96.218l-76.661 44.26z" fill="#102043"/></g><g data-name="Group 571"><g data-name="Group 560"><g data-name="Group 557"><path data-name="Path 124" d="M125.968 220.711a4.633 4.633 0 01-1.978-3.741v-5.725l4.012 2.366.262-.047v5.512a1.913 1.913 0 01-.786 1.739 1.242 1.242 0 01-.629.166 1.79 1.79 0 01-.881-.27zm.447-6.168l-.294 2.008h-1.487v.419a4.06 4.06 0 001.656 3.183.892.892 0 00.87.1 1.313 1.313 0 00.464-1.18v-4.743zm-.571-.554l1.186-.211-2.4-1.407v3.54h.93z" fill="#e0e0e0"/></g><g data-name="Group 558"><path data-name="Path 125" d="M126.129 225.061a.322.322 0 00.322-.322v-4.3a.322.322 0 00-.644 0v4.3a.322.322 0 00.322.322z" fill="#e0e0e0"/></g><g data-name="Group 559"><path data-name="Path 126" d="M128 226.14a.318.318 0 00.278-.161.321.321 0 00-.117-.44l-3.747-2.156a.317.317 0 00-.44.117.321.321 0 00.117.44l3.742 2.159a.307.307 0 00.167.041z" fill="#e0e0e0"/></g></g><g data-name="Group 563"><g data-name="Group 561"><path data-name="Path 127" d="M139.211 232.79a.711.711 0 00.352-.091.851.851 0 00.386-.775v-.883a.322.322 0 00-.644 0v.883c0 .133-.037.2-.061.216s-.1.009-.21-.055a1.9 1.9 0 01-.6-1.456v-5.724a.322.322 0 10-.644 0v5.724a2.451 2.451 0 00.915 2.009 1 1 0 00.506.152z" fill="#e0e0e0"/></g><g data-name="Group 562"><path data-name="Path 128" d="M134.042 222.841v-.186a2.727 2.727 0 014.443-2.565 9.123 9.123 0 014.119 7.138v.558zm1.642-2.469a2.386 2.386 0 00-1 2.1l7.24 4.181a8.512 8.512 0 00-3.767-6 3.287 3.287 0 00-1.608-.5 1.716 1.716 0 00-.865.218z" fill="#e0e0e0"/></g></g><g data-name="Group 570"><g data-name="Group 566"><g data-name="Group 564"><path data-name="Path 129" d="M152.159 240.016a.322.322 0 00.322-.322v-10.957a.322.322 0 10-.644 0v10.961a.322.322 0 00.322.318z" fill="#e0e0e0"/></g><g data-name="Group 565"><path data-name="Path 130" d="M153.1 231.232a.317.317 0 00.127-.026.322.322 0 00.168-.424l-1.146-2.647-1.278 1.477a.322.322 0 10.486.421l.608-.7.74 1.708a.322.322 0 00.295.191z" fill="#e0e0e0"/></g></g><g data-name="Group 569"><g data-name="Group 567"><path data-name="Path 131" d="M149.179 238.32a.322.322 0 00.322-.322v-10.965a.322.322 0 10-.644 0v10.962a.322.322 0 00.322.325z" fill="#e0e0e0"/></g><g data-name="Group 568"><path data-name="Path 132" d="M150.122 229.533a.309.309 0 00.128-.027.321.321 0 00.167-.423l-1.146-2.647-1.278 1.477a.322.322 0 10.487.421l.607-.7.74 1.708a.322.322 0 00.295.191z" fill="#e0e0e0"/></g></g></g></g><g data-name="Group 588"><g data-name="Group 572"><path data-name="Path 133" d="M84.493 181.96v17.647c0 .68-.476.955-1.065.615l-27.552-15.905a2.358 2.358 0 01-1.065-1.85v-17.656c0-.68.477-.955 1.065-.615l27.55 15.916a2.358 2.358 0 011.067 1.848z" fill="#fafafa"/></g><g data-name="Group 587"><g data-name="Group 573"><path data-name="Path 134" d="M56.518 166.724l.89.514v16.042l-.889-.514z" fill="#455a64"/></g><g data-name="Group 574"><path data-name="Path 135" d="M60.138 168.814l1.534.9v16.043l-1.533-.9z" fill="#455a64"/></g><g data-name="Group 575"><path data-name="Path 136" d="M63.76 170.904l.89.514v16.043l-.889-.514z" fill="#455a64"/></g><g data-name="Group 576"><path data-name="Path 137" d="M66.49 172.451l1.781 1.056v16.043l-1.78-1.056z" fill="#455a64"/></g><g data-name="Group 577"><path data-name="Path 138" d="M71.002 175.083l.89.514v16.043l-.889-.513z" fill="#455a64"/></g><g data-name="Group 578"><path data-name="Path 139" d="M73.61 176.555l1.9 1.132v16.042l-1.9-1.132z" fill="#455a64"/></g><g data-name="Group 579"><path data-name="Path 140" d="M78.245 179.263l.89.514v16.042l-.889-.514z" fill="#455a64"/></g><g data-name="Group 580"><path data-name="Path 141" d="M80.312 180.438l.445.257v16.042l-.445-.257z" fill="#455a64"/></g><g data-name="Group 581"><path data-name="Path 142" d="M76.594 178.389l.445.257v16.043l-.444-.257z" fill="#455a64"/></g><g data-name="Group 582"><path data-name="Path 143" d="M69.3 174.116l.445.257v16.042l-.444-.256z" fill="#455a64"/></g><g data-name="Group 583"><path data-name="Path 144" d="M65.304 171.824l.445.257v16.042l-.445-.257z" fill="#455a64"/></g><g data-name="Group 584"><path data-name="Path 145" d="M62.436 170.239l.445.257v16.042l-.445-.257z" fill="#455a64"/></g><g data-name="Group 585"><path data-name="Path 146" d="M58.544 167.877l.445.257v16.042l-.444-.257z" fill="#455a64"/></g><g data-name="Group 586"><path data-name="Path 147" d="M81.867 181.353l.889.514v16.042l-.889-.513z" fill="#455a64"/></g></g></g><g data-name="Group 590"><path data-name="Path 148" d="M110.093 223.315v-96.218l-13.332-7.7v96.221z" fill="#f7d400"/><g data-name="Group 589"><path data-name="Path 149" d="M110.093 223.315v-96.218l-13.332-7.7v96.221z" opacity=".3"/></g></g><g data-name="Group 592"><path data-name="Path 150" d="M188.428 231.969v-96.217l13.332-7.7v96.218z" fill="#f7d400"/><g data-name="Group 591"><path data-name="Path 151" d="M188.428 231.969v-96.217l13.332-7.7v96.218z" opacity=".45"/></g></g><g data-name="Group 598"><g data-name="Group 595"><path data-name="Path 152" d="M96.76 119.4l76.66-44.26 13.329 7.701-76.662 44.259z" fill="#f7d400"/><g data-name="Group 593"><path data-name="Path 153" d="M96.76 119.4l76.66-44.26 13.329 7.701-76.662 44.259z" opacity=".15"/></g><g data-name="Group 594"><path data-name="Path 154" d="M125.996 102.521l13.4 7.661 2.365-1.365-13.332-7.7z" opacity=".15"/></g></g><g data-name="Group 597"><path data-name="Path 155" d="M201.761 128.054L95.087 66.484l-13.334 7.7 106.676 61.571z" fill="#f7d400"/><g data-name="Group 596"><path data-name="Path 156" d="M201.761 128.054L95.087 66.484l-13.334 7.7 106.676 61.571z" opacity=".15"/></g></g></g><g data-name="Ribbon"><g data-name="Group 606"><path data-name="Path 157" d="M147.609 100.156s18.93 16.526 49.839 12.946c0 0-12.617 9-28.678 7.058 0 0 2.028 8.892 14.527 13.7 0 0-35.491-.517-41.712-29.669z" opacity=".2"/><g data-name="Group 605"><g data-name="Group 599"><path data-name="Path 158" d="M146.815 98.48s18.93 15.713 49.839 12.133c0 0-13.12 8.59-29.181 6.648 0 0 2.3 5.859 15.823 12.992 0 0-33.782.309-42.506-27.738z" fill="#f7d400"/><path data-name="Path 159" d="M146.815 98.48s18.93 15.713 49.839 12.133c0 0-13.12 8.59-29.181 6.648 0 0 2.3 5.859 15.823 12.992 0 0-33.782.309-42.506-27.738z" fill="#f7d400"/><path data-name="Path 160" d="M145.484 106.404c6.658 1.772 13.262-1.1 13.262-1.1a65.078 65.078 0 01-1.241-.552l-.19-.085a78.393 78.393 0 01-1.1-.518l-.245-.117a49.028 49.028 0 01-1-.5l-.249-.126a58.362 58.362 0 01-.92-.482l-.247-.132c-.29-.157-.569-.31-.841-.463l-.236-.132c-.267-.151-.523-.3-.772-.444l-.211-.125q-.365-.215-.7-.421l-.195-.121q-.327-.2-.624-.391l-.182-.116a38.99 38.99 0 01-.55-.359l-.159-.105c-.166-.112-.327-.219-.476-.321l-.145-.1c-.139-.1-.274-.19-.4-.277l-.126-.091-.321-.232-.108-.08-.238-.179-.107-.082-.144-.11-.1-.077-.055-.044-.051-.042-1.972 1.321-4.052 2.713c8.723 28.046 42.5 27.738 42.506 27.738-17.379-.803-35.637-13.993-37.811-23.848z" opacity=".1"/></g><g data-name="Group 604"><g data-name="Group 600" fill="#f7d400"><path data-name="Path 161" d="M188.78 77.924s-3.754-4.394-15.282-2.411c-6.96 1.2-18.78 9.309-24.611 22.815-.738 1.711-2.4 2.28-3.281 3.431a6.815 6.815 0 01-.672.726l-3.648.036c0-12.614 7.076-25.352 13.769-32.719 6.624-7.278 17.717-10.969 25.58-11.27a17.671 17.671 0 018.111 1.558c2.141 5.987 3.026 11.904.034 17.834z"/><path data-name="Path 162" d="M188.78 77.924s-3.754-4.394-15.282-2.411c-6.96 1.2-18.78 9.309-24.611 22.815-.738 1.711-2.4 2.28-3.281 3.431a6.815 6.815 0 01-.672.726l-3.648.036c0-12.614 7.076-25.352 13.769-32.719 6.624-7.278 17.717-10.969 25.58-11.27a17.671 17.671 0 018.111 1.558c2.141 5.987 3.026 11.904.034 17.834z"/></g><g data-name="Group 601"><path data-name="Path 163" d="M149.685 96.633h-.018s-6.567-2.221-3.861-12.736a44.853 44.853 0 00-4.52 18.628l3.648-.036a6.9 6.9 0 00.673-.726c.885-1.151 2.542-1.721 3.28-3.431.25-.583.526-1.14.798-1.699z" fill="#f7d400"/><path data-name="Path 164" d="M149.685 96.633h-.018s-6.567-2.221-3.861-12.736a44.853 44.853 0 00-4.52 18.628l3.648-.036a6.9 6.9 0 00.673-.726c.885-1.151 2.542-1.721 3.28-3.431.25-.583.526-1.14.798-1.699z" opacity=".1"/></g><g data-name="Group 602"><path data-name="Path 165" d="M188.78 77.924s.584-13.9-8.146-19.391a17.671 17.671 0 018.111 1.558c2.142 5.986 3.027 11.903.035 17.833z" fill="#f7d400"/><path data-name="Path 166" d="M188.78 77.924s.584-13.9-8.146-19.391a17.671 17.671 0 018.111 1.558c2.142 5.986 3.027 11.903.035 17.833z" opacity=".1"/></g><g data-name="Group 603" fill="#f7d400"><path data-name="Path 167" d="M182.053 86.01a26.368 26.368 0 006.729-8.093c2.993-5.933 2.107-11.847-.035-17.833 6.765 2.992 10.8 11.776 12.343 18.86.849 3.966.92 7.42.247 9.014-1.894 4.462-13 22.5-60.546 14.557l.051-5c11.898-.711 32.691-4.339 41.211-11.505z"/><path data-name="Path 168" d="M182.053 86.01a26.368 26.368 0 006.729-8.093c2.993-5.933 2.107-11.847-.035-17.833 6.765 2.992 10.8 11.776 12.343 18.86.849 3.966.92 7.42.247 9.014-1.894 4.462-13 22.5-60.546 14.557l.051-5c11.898-.711 32.691-4.339 41.211-11.505z"/></g></g></g></g><g data-name="Group 614"><path data-name="Path 169" d="M135.934 100.156s-18.929 16.526-49.839 12.946c0 0 12.617 9 28.678 7.058 0 0-2.027 8.892-14.527 13.7 0 0 35.491-.517 41.712-29.669z" opacity=".2"/><g data-name="Group 613"><g data-name="Group 607"><path data-name="Path 170" d="M136.728 98.48s-18.93 15.713-49.839 12.133c0 0 13.12 8.59 29.182 6.648 0 0-2.3 5.859-15.824 12.992 0 0 33.782.309 42.506-27.738z" fill="#f7d400"/><path data-name="Path 171" d="M136.728 98.48s-18.93 15.713-49.839 12.133c0 0 13.12 8.59 29.182 6.648 0 0-2.3 5.859-15.824 12.992 0 0 33.782.309 42.506-27.738z" fill="#f7d400"/><path data-name="Path 172" d="M138.061 106.404c-6.658 1.772-13.261-1.1-13.261-1.1.426-.184.836-.367 1.241-.552l.191-.085c.377-.174.74-.346 1.1-.518l.246-.117c.345-.168.676-.334 1-.5l.25-.126c.317-.162.621-.323.919-.482l.248-.132c.29-.157.569-.31.841-.463l.235-.132c.267-.151.523-.3.772-.444l.211-.125c.244-.144.476-.284.7-.421l.2-.121q.326-.2.624-.391l.181-.116c.193-.124.376-.243.551-.359l.158-.105c.166-.112.327-.219.476-.321l.145-.1c.14-.1.274-.19.4-.277l.126-.091.321-.232.108-.08.238-.179.107-.082.144-.11.1-.077.055-.044.051-.042 1.971 1.321 4.052 2.713c-8.723 28.046-42.5 27.738-42.506 27.738 17.371-.803 35.629-13.993 37.805-23.848z" opacity=".1"/></g><g data-name="Group 612"><g data-name="Group 608" fill="#f7d400"><path data-name="Path 173" d="M94.764 77.924s3.754-4.394 15.282-2.411c6.96 1.2 18.78 9.309 24.611 22.815.738 1.711 2.4 2.28 3.281 3.431a6.731 6.731 0 00.673.726l3.647.036c0-12.614-7.076-25.352-13.769-32.719-6.624-7.278-17.717-10.969-25.58-11.27a17.671 17.671 0 00-8.111 1.558c-2.141 5.987-3.027 11.904-.034 17.834z"/><path data-name="Path 174" d="M94.764 77.924s3.754-4.394 15.282-2.411c6.96 1.2 18.78 9.309 24.611 22.815.738 1.711 2.4 2.28 3.281 3.431a6.731 6.731 0 00.673.726l3.647.036c0-12.614-7.076-25.352-13.769-32.719-6.624-7.278-17.717-10.969-25.58-11.27a17.671 17.671 0 00-8.111 1.558c-2.141 5.987-3.027 11.904-.034 17.834z"/></g><g data-name="Group 609"><path data-name="Path 175" d="M133.859 96.633h.018s6.568-2.221 3.861-12.736a44.841 44.841 0 014.52 18.628l-3.647-.036a6.728 6.728 0 01-.673-.726c-.886-1.151-2.543-1.721-3.281-3.431-.251-.583-.526-1.14-.798-1.699z" fill="#f7d400"/><path data-name="Path 176" d="M133.859 96.633h.018s6.568-2.221 3.861-12.736a44.841 44.841 0 014.52 18.628l-3.647-.036a6.728 6.728 0 01-.673-.726c-.886-1.151-2.543-1.721-3.281-3.431-.251-.583-.526-1.14-.798-1.699z" opacity=".1"/></g><g data-name="Group 610"><path data-name="Path 177" d="M94.764 77.924s-.584-13.9 8.146-19.391a17.671 17.671 0 00-8.111 1.558c-2.142 5.986-3.028 11.903-.035 17.833z" fill="#f7d400"/><path data-name="Path 178" d="M94.764 77.924s-.584-13.9 8.146-19.391a17.671 17.671 0 00-8.111 1.558c-2.142 5.986-3.028 11.903-.035 17.833z" opacity=".1"/></g><g data-name="Group 611" fill="#f7d400"><path data-name="Path 179" d="M101.492 86.01a26.371 26.371 0 01-6.73-8.093c-2.992-5.933-2.107-11.847.035-17.833-6.765 2.992-10.8 11.776-12.342 18.86-.85 3.966-.921 7.42-.248 9.014 1.894 4.462 13 22.5 60.546 14.557l-.051-5c-11.898-.711-32.691-4.339-41.21-11.505z"/><path data-name="Path 180" d="M101.492 86.01a26.371 26.371 0 01-6.73-8.093c-2.992-5.933-2.107-11.847.035-17.833-6.765 2.992-10.8 11.776-12.342 18.86-.85 3.966-.921 7.42-.248 9.014 1.894 4.462 13 22.5 60.546 14.557l-.051-5c-11.898-.711-32.691-4.339-41.21-11.505z"/></g></g></g></g><g data-name="Group 615"><path data-name="Path 181" d="M148.28 99.222a2.736 2.736 0 00-1.666-2.218 12.756 12.756 0 00-4.864-.708 12.133 12.133 0 00-5.038.786 2.659 2.659 0 00-1.49 2.133c-.171 1.5-.272 4.028.712 5.458a8.7 8.7 0 005.833 2.1 8.55 8.55 0 005.8-2.1c.983-1.429.883-3.95.713-5.451z" fill="#f7d400"/><path data-name="Path 182" d="M148.28 99.222a2.736 2.736 0 00-1.666-2.218 12.756 12.756 0 00-4.864-.708 12.133 12.133 0 00-5.038.786 2.659 2.659 0 00-1.49 2.133c-.171 1.5-.272 4.028.712 5.458a8.7 8.7 0 005.833 2.1 8.55 8.55 0 005.8-2.1c.983-1.429.883-3.95.713-5.451z" fill="#f7d400"/><path data-name="Path 183" d="M148.372 101.583a4.043 4.043 0 01-1.92 2.423 8.166 8.166 0 01-7.137.5 5.928 5.928 0 01-4.158-4.6c-.113 1.5-.069 3.537.777 4.765a8.7 8.7 0 005.833 2.1 8.55 8.55 0 005.8-2.1 6.023 6.023 0 00.805-3.088z" fill="#f7d400"/><path data-name="Path 184" d="M148.372 101.583a4.043 4.043 0 01-1.92 2.423 8.166 8.166 0 01-7.137.5 5.928 5.928 0 01-4.158-4.6c-.113 1.5-.069 3.537.777 4.765a8.7 8.7 0 005.833 2.1 8.55 8.55 0 005.8-2.1 6.023 6.023 0 00.805-3.088z" opacity=".1"/></g></g><g data-name="Group 619"><g data-name="Group 618"><g data-name="Percentage Box"><g data-name="Group 616"><path data-name="Path 185" d="M317.098 191.04l6.14-3.565a1.413 1.413 0 011.434-.137c.361.213 1.083.653 1.448.859a1.413 1.413 0 01.6 1.309v14.734a4.459 4.459 0 01-2.017 3.493l-6.14 3.565a1.416 1.416 0 01-1.426.141c-.365-.21-1.093-.657-1.457-.864a1.414 1.414 0 01-.6-1.309V194.54a4.458 4.458 0 012.018-3.5z" fill="#fafafa"/><path data-name="Path 186" d="M315.08 194.532v14.737a1.414 1.414 0 00.6 1.309c.354.2.906.545 1.415.839a1.454 1.454 0 01-.545-1.281V195.4a4.082 4.082 0 01.591-1.984l-1.466-.867a4.122 4.122 0 00-.595 1.983z" fill="#e0e0e0"/><path data-name="Path 187" d="M324.7 207.736l-6.14 3.565c-1.114.643-2.017.122-2.017-1.164v-14.735a4.459 4.459 0 012.017-3.493l6.14-3.565c1.114-.643 2.017-.122 2.017 1.164v14.736a4.458 4.458 0 01-2.017 3.492z" fill="#f0f0f0"/></g></g><g data-name="Group 617"><path data-name="Path 188" d="M316.745 219.971a.51.51 0 01-.255-.951l4.274-2.468a.511.511 0 00.255-.44v-16.141a.51.51 0 011.02 0v16.142a1.529 1.529 0 01-.765 1.323l-4.273 2.468a.509.509 0 01-.256.067z" fill="#263238"/></g></g></g><g data-name="Group 628"><g data-name="Group 621"><path data-name="Path 189" d="M189.538 303.524l17.342-8.012s-1.362-16.306-12.8-12.413-4.542 20.425-4.542 20.425z" fill="#f7d400"/><g data-name="Group 620"><path data-name="Path 190" d="M189.538 303.524l17.342-8.012s-1.362-16.306-12.8-12.413-4.542 20.425-4.542 20.425z" opacity=".5"/></g></g><g data-name="Group 623"><path data-name="Path 191" d="M199.075 301.482l-3.731-7.411 8.877-5.137c2.824-1.623 6.583-1.439 10.712.945 8.767 5.061 15.873 18.117 15.874 29.161 0 5.783-1.95 9.862-5.065 11.715l-.126.072-.017.011-9.1 5.255-3.935-7.816c-7.447-5.701-13.2-16.944-13.489-26.795z" fill="#263238"/><path data-name="Path 192" d="M189.822 306.04c0 9.521 5.286 20.541 12.364 26.639a.046.046 0 01.021.02 23.484 23.484 0 003.489 2.5c8.768 5.066 15.881.214 15.873-10.828 0-8.342-4.057-17.842-9.819-24.166a.374.374 0 01-.051-.051 25.586 25.586 0 00-6-4.945c-8.771-5.056-15.877-.211-15.877 10.831z" fill="#37474f"/><path data-name="Path 193" d="M205.696 301.876c-5.579-3.222-10.1.136-10.1 7.5s4.523 15.943 10.1 19.164 10.1-.136 10.1-7.5-4.521-15.943-10.1-19.164z" fill="#455a64"/><g data-name="Group 622"><path data-name="Path 194" d="M205.696 308.288c-2.9-1.672-5.243.07-5.243 3.891s2.348 8.274 5.243 9.946 5.243-.071 5.243-3.891-2.347-8.275-5.243-9.946z" fill="#e0e0e0"/><path data-name="Path 195" d="M204.024 308.222a4.312 4.312 0 00-1.153-.468c-1.453.392-2.418 1.98-2.418 4.427a13.241 13.241 0 002.943 7.91 6.227 6.227 0 00.627.424c2.573 1.486 4.658-.062 4.658-3.457s-2.084-7.352-4.657-8.836z" fill="#f5f5f5"/></g><path data-name="Path 196" d="M189.822 306.04c0 9.521 5.286 20.541 12.364 26.639a45.018 45.018 0 01-10.068-19.484c-1.344-6.367-.839-15.5 4.625-17.813 5.422-2.3 12.677 2.558 14.957 4.774a25.586 25.586 0 00-6-4.945c-8.772-5.058-15.878-.213-15.878 10.829z" fill="#455a64"/></g><g data-name="Group 625"><path data-name="Path 197" d="M251.119 339.047l-15.705-9.075-2.06-1.189-3.963-2.3h-.008l-1.871-1.091a1.33 1.33 0 00.082-.558 3.141 3.141 0 00.074-.87c0-12.152-8.525-26.923-19.1-32.995a22.739 22.739 0 00-3.094-1.5h-.008c-.459-.181-.9-.337-1.345-.468h-.008c-8.354-2.527-14.573 2.552-14.573 12.94v1.575l-26.121-15.081v-119l.008-.008 32.444 18.726 28.328 20.862 12.866 62.452 9.962 14.63.533.779 6.08 8.927v.009l.008.008 1.978 24.279.492 5.317.2 2.182v.008l.493 5.251.23 2.478a3.933 3.933 0 01-5.922 3.712z" fill="#f7d400"/><g data-name="Group 624"><path data-name="Path 198" d="M251.119 339.047l-15.705-9.075-2.06-1.189-3.963-2.3h-.008l-1.871-1.091a1.33 1.33 0 00.082-.558 3.141 3.141 0 00.074-.87c0-12.152-8.525-26.923-19.1-32.995a22.739 22.739 0 00-3.094-1.5h-.008c-.459-.181-.9-.337-1.345-.468h-.008c-8.354-2.527-14.573 2.552-14.573 12.94v1.575l-26.121-15.081v-119l.008-.008 32.444 18.726 28.328 20.862 12.866 62.452 9.962 14.63.533.779 6.08 8.927v.009l.008.008 1.978 24.279.492 5.317.2 2.182v.008l.493 5.251.23 2.478a3.933 3.933 0 01-5.922 3.712z" opacity=".15"/></g></g><g data-name="Group 626" fill="#455a64"><path data-name="Path 199" d="M208.602 210.985v38.465c0 1.415-.993 1.987-2.217 1.281l-31.931-18.426a4.9 4.9 0 01-2.217-3.84v-40.48c0-1.415.993-1.987 2.217-1.28l19.2 11.085a54.713 54.713 0 014.281 2.8l8.607 6.323a5.686 5.686 0 012.06 4.072z"/><path data-name="Path 200" d="M218.861 257.932a8.167 8.167 0 01-3.7-6.4V217.49c0-2.357.873-3.612 1.95-2.8l1.951 1.464a8.878 8.878 0 012.936 4.685l7.868 40.872c.316 1.6-.58 2.244-2 1.425z"/></g><g data-name="Group 627"><path data-name="Path 201" d="M210.222 205.077l-12.9-9.4c-.96-.7-2.585-1.756-3.611-2.346l-22.885-13.211a1.541 1.541 0 00-2.486 1.436v103.812a4.481 4.481 0 002.059 3.569l15.016 8.665a2.032 2.032 0 001.051.312 1.461 1.461 0 00.649-.139 1.657 1.657 0 00.68-.582 2.37 2.37 0 00.361-.919c.534-2.741 2.2-7.647 7.344-9.715a13.266 13.266 0 018.386-.246h.008a22.8 22.8 0 014.193 1.576c.591.287 1.132.574 1.6.844a1.722 1.722 0 001.731.157 1.186 1.186 0 00.419-.41 1.985 1.985 0 00.287-1.108V208.81a5.105 5.105 0 00-1.902-3.733zm.615 83.113a.916.916 0 01-.583-.123.008.008 0 00-.008-.008 1.031 1.031 0 01-.14-.066 24.2 24.2 0 00-7-2.74 13.6 13.6 0 00-7.926.509c-4.947 1.986-6.884 6.376-7.631 9.362v.016c-.1.352-.172.664-.229.968a1.178 1.178 0 01-.558.894 1 1 0 01-.919-.139l-15.017-8.665a3.663 3.663 0 01-1.632-2.831V181.553a.94.94 0 01.328-.829.554.554 0 01.271-.065 1.243 1.243 0 01.607.2l22.887 13.207a46.999 46.999 0 013.528 2.3l12.907 9.4a4.274 4.274 0 011.551 3.045v78.559a.9.9 0 01-.279.779.376.376 0 01-.139.042z" opacity=".15"/></g></g><g data-name="Group 634"><path data-name="Path 202" d="M339.124 285.265s-11.839 16.368-37.661 31.8c-21.428 12.807-44.79 15.8-44.79 15.8l-3.051-37.056 82.451-47.606z" fill="#f7d400"/><g data-name="Group 629"><path data-name="Path 203" d="M339.124 285.265s-11.839 16.368-37.661 31.8c-21.428 12.807-44.79 15.8-44.79 15.8l-3.051-37.056 82.451-47.606z" opacity=".3"/></g><path data-name="Path 204" d="M336.072 248.21s-11.84 16.368-37.662 31.8c-21.426 12.807-44.789 15.8-44.789 15.8l-16.523-24.345 82.456-47.6z" fill="#f7d400"/><path data-name="Path 205" d="M340.59 279.807c-.145-.153-.281-.128-.435.136 0 0-11.838 16.361-37.664 31.8-21.431 12.81-44.79 15.806-44.79 15.806-10.02.914-22.284-9.661-22.284-9.661l1.681-1.238s11.641 8.816 17.555 8.816c5.1 0 23.317-2.322 48.05-16.284s35.905-30.929 35.905-30.929a2.576 2.576 0 011.982 1.554z" fill="#37474f"/><path data-name="Path 206" d="M340.153 279.94s-11.841 16.368-37.662 31.8c-21.427 12.808-44.79 15.8-44.79 15.8-10.021.915-22.285-9.658-22.285-9.658v14.133s12.264 10.572 22.285 9.658c0 0 23.362-3 44.79-15.8 25.821-15.433 37.662-31.8 37.662-31.8 2.04-3.494 1.197-16.233 0-14.133z" fill="#455a64"/><path data-name="Path 207" d="M264.539 303.229c3.689-.874 7.022 1.623 7.443 5.578a8.2 8.2 0 01-6.039 8.729 6 6 0 01-7.444-5.577 8.354 8.354 0 016.04-8.73z" fill="#f7d400"/><path data-name="Path 208" d="M330.144 265.682c-2.241 2.233-3.678 7.025-3.209 10.7s2.568 4.835 4.69 2.585 3.558-7.041 3.209-10.7-2.449-4.818-4.69-2.585z" fill="#f7d400"/><g data-name="Group 630" fill="#37474f"><path data-name="Path 209" d="M278.291 298.393a96.483 96.483 0 0020.385-9.135c1.019-.592 1.836-.132 1.836 1.046v1.494a4.119 4.119 0 01-1.836 3.222 96.754 96.754 0 01-20.384 9.132 1.52 1.52 0 01-2.053-1.548v-1.494a3.012 3.012 0 012.052-2.717z"/><path data-name="Path 210" d="M322.675 274.167v1.494a5.19 5.19 0 01-1.629 3.51 173.378 173.378 0 01-15.281 11.437c-.983.651-1.787.21-1.787-.969v-1.493a4.418 4.418 0 011.787-3.3 175.539 175.539 0 0015.282-11.438c.902-.755 1.628-.421 1.628.759z"/><path data-name="Path 211" d="M278.291 308.856a96.481 96.481 0 0020.385-9.135c1.019-.593 1.836-.132 1.836 1.046v1.494a4.119 4.119 0 01-1.836 3.221 96.718 96.718 0 01-20.384 9.133 1.52 1.52 0 01-2.053-1.549v-1.494a3.011 3.011 0 012.052-2.716z"/><path data-name="Path 212" d="M322.675 284.63v1.493a5.19 5.19 0 01-1.629 3.511 173.4 173.4 0 01-15.281 11.438c-.983.65-1.787.21-1.787-.969v-1.498a4.418 4.418 0 011.787-3.3 175.533 175.533 0 0015.282-11.438c.902-.75 1.628-.416 1.628.763z"/></g><g data-name="Group 633"><g data-name="Group 631"><path data-name="Path 213" d="M281.362 256.461a275.326 275.326 0 01-33.987 15.482 1.611 1.611 0 00-.81 2.519l.056.083a3.419 3.419 0 003.28 1.358c5.013-1.093 18.554-4.619 35.38-13.662a1.9 1.9 0 00.675-2.788l-1.533-2.261a2.38 2.38 0 00-3.061-.731z" opacity=".15"/></g><g data-name="Group 632"><path data-name="Path 214" d="M316.568 232.049a203.85 203.85 0 01-28.042 20.286 1.991 1.991 0 00-.635 2.858l1.548 2.281a2.289 2.289 0 003.032.675c15.26-9.193 23.413-17.289 27.153-21.688a3.023 3.023 0 00.154-3.427l-.419-.623a1.826 1.826 0 00-2.791-.362z" opacity=".15"/></g></g></g><g data-name="Group 639"><path data-name="Path 215" d="M319.561 223.859s-13.626 13.7-36.081 26.768a270.037 270.037 0 01-46.38 20.831l-12.89-62.467 51.531-29.736 23.7-13.676 7.231-4.186z" fill="#455a64"/><g data-name="Group 635"><path data-name="Path 216" d="M306.673 161.392l-7.229 4.184-23.7 13.679-51.53 29.736 12.891 62.468a.059.059 0 00.024-.009c.082-.024.386-.122.878-.3.057-.016.115-.041.18-.057.255-.091.558-.188.9-.312.123-.042.237-.082.369-.131l.082-.024a.534.534 0 00.082-.033l.615-.213c.3-.107.615-.222.951-.337.3-.114.616-.229.944-.344.206-.073.41-.148.624-.23.271-.1.541-.2.828-.3.853-.312 1.773-.664 2.757-1.042.2-.074.41-.156.623-.238a272.783 272.783 0 007.434-2.987c.87-.361 1.764-.738 2.675-1.132.148-.057.287-.123.435-.189s.32-.139.484-.206c.566-.254 1.149-.5 1.74-.763.164-.073.336-.148.508-.222.386-.172.78-.352 1.173-.525.444-.2.895-.4 1.346-.608q1.465-.664 2.978-1.378c1-.468 2.01-.952 3.036-1.445.764-.377 1.526-.755 2.3-1.141.623-.312 1.238-.623 1.862-.935.065-.033.123-.066.188-.1.631-.32 1.264-.648 1.9-.985a1.494 1.494 0 00.156-.082c.558-.287 1.116-.583 1.673-.879.452-.237.895-.484 1.338-.722a294.97 294.97 0 003.175-1.756c.707-.4 1.411-.8 2.109-1.215.64-.369 1.264-.738 1.888-1.116.542-.32 1.083-.648 1.624-.976.206-.123.41-.246.608-.378.615-.37 1.23-.746 1.829-1.124.074-.049.148-.1.222-.14.3-.188.582-.37.87-.558.386-.238.755-.485 1.132-.722s.73-.476 1.092-.714.722-.468 1.074-.706q.678-.443 1.33-.886c.886-.608 1.756-1.2 2.6-1.789l.172-.123c.329-.229.657-.451.977-.681q1.932-1.366 3.709-2.675l.879-.656c.279-.214.566-.427.845-.64s.558-.419.828-.631q.825-.628 1.6-1.231a.268.268 0 01.065-.049c.222-.172.443-.353.657-.517.517-.41 1.026-.813 1.51-1.207.328-.262.64-.516.951-.763.2-.164.386-.32.574-.467.189-.164.378-.321.558-.459.181-.157.361-.3.542-.452a.186.186 0 01.041-.041c.419-.344.813-.681 1.2-1.009a135.494 135.494 0 003.824-3.348c.139-.131.271-.254.4-.361l.082-.082c.148-.139.3-.271.427-.394l.016-.016c1.2-1.1 1.855-1.756 1.945-1.846l.008-.008zm-27.788 87.275a.105.105 0 01-.008.049 2.905 2.905 0 01-.074.377l-.024.1c-.033.1-.065.206-.107.3a.879.879 0 01-.057.131 1.971 1.971 0 01-.164.353 3.375 3.375 0 01-.87 1.017 2.19 2.19 0 01-.37.237 221.753 221.753 0 01-9.034 4.662c-.525.254-1.042.508-1.559.763q-1.871.9-3.692 1.731c-.574.263-1.141.525-1.7.78-.985.443-1.953.878-2.905 1.3-.484.213-.951.418-1.419.615s-.927.4-1.378.6c-1.83.78-3.577 1.5-5.219 2.167h-.008c-.878.361-1.731.7-2.552 1.017-.41.164-.8.32-1.2.467-1.96.764-3.692 1.411-5.153 1.945a2.124 2.124 0 01-2.626-.894 2.629 2.629 0 01-.271-.731l-7.926-39.5a3.763 3.763 0 011.673-3.758l33.438-19.308a1.805 1.805 0 012.8 1.215l7.918 33.076 2.4 10.018.042.165.024.123a.337.337 0 01.025.13.737.737 0 01.016.14 1.758 1.758 0 01.016.3 2.421 2.421 0 01-.036.413zm29.474-18.339c-.008.008-.008.008-.016.008l-.016.016c-.188.164-.394.328-.591.492a225.817 225.817 0 01-6.606 5.121 269.22 269.22 0 01-2.576 1.879l-.96.689q-1.944 1.39-4.037 2.815c-.46.3-.919.615-1.387.927s-.944.632-1.428.944-.968.64-1.461.952q-2.633 1.7-5.448 3.389a1.767 1.767 0 01-2.766-1.2l-.057-.238v-.008l-2.38-10-7.852-32.994a3.632 3.632 0 011.624-3.758l6.343-3.652 25.8-14.925 1.149-.657a.554.554 0 01.1-.049 1.717 1.717 0 012.609 1.272l7.886 39.189a4.954 4.954 0 01-.755 3.446 4.995 4.995 0 01-.287.4l-.016.016a3.859 3.859 0 01-.312.32c-.132.123-.271.246-.419.378-.188.172-.377.344-.574.517-.533.459-1.124.976-1.764 1.534s-1.321 1.132-2.06 1.748c-.492.41-1.009.837-1.542 1.272-.066.049-.123.1-.181.148a.025.025 0 01-.02.006z" fill="#f7d400"/></g><g data-name="Group 636"><path data-name="Path 217" d="M306.673 161.392l-7.229 4.184-23.7 13.679-51.53 29.736 12.891 62.468a.059.059 0 00.024-.009c.082-.024.386-.122.878-.3.057-.016.115-.041.18-.057.255-.091.558-.188.9-.312.123-.042.237-.082.369-.131l.082-.024a.534.534 0 00.082-.033l.615-.213c.3-.107.615-.222.951-.337.3-.114.616-.229.944-.344.206-.073.41-.148.624-.23.271-.1.541-.2.828-.3.853-.312 1.773-.664 2.757-1.042.2-.074.41-.156.623-.238a272.783 272.783 0 007.434-2.987c.87-.361 1.764-.738 2.675-1.132.148-.057.287-.123.435-.189s.32-.139.484-.206c.566-.254 1.149-.5 1.74-.763.164-.073.336-.148.508-.222.386-.172.78-.352 1.173-.525.444-.2.895-.4 1.346-.608q1.465-.664 2.978-1.378c1-.468 2.01-.952 3.036-1.445.764-.377 1.526-.755 2.3-1.141.623-.312 1.238-.623 1.862-.935.065-.033.123-.066.188-.1.631-.32 1.264-.648 1.9-.985a1.494 1.494 0 00.156-.082c.558-.287 1.116-.583 1.673-.879.452-.237.895-.484 1.338-.722a294.97 294.97 0 003.175-1.756c.707-.4 1.411-.8 2.109-1.215.64-.369 1.264-.738 1.888-1.116.542-.32 1.083-.648 1.624-.976.206-.123.41-.246.608-.378.615-.37 1.23-.746 1.829-1.124.074-.049.148-.1.222-.14.3-.188.582-.37.87-.558.386-.238.755-.485 1.132-.722s.73-.476 1.092-.714.722-.468 1.074-.706q.678-.443 1.33-.886c.886-.608 1.756-1.2 2.6-1.789l.172-.123c.329-.229.657-.451.977-.681q1.932-1.366 3.709-2.675l.879-.656c.279-.214.566-.427.845-.64s.558-.419.828-.631q.825-.628 1.6-1.231a.268.268 0 01.065-.049c.222-.172.443-.353.657-.517.517-.41 1.026-.813 1.51-1.207.328-.262.64-.516.951-.763.2-.164.386-.32.574-.467.189-.164.378-.321.558-.459.181-.157.361-.3.542-.452a.186.186 0 01.041-.041c.419-.344.813-.681 1.2-1.009a135.494 135.494 0 003.824-3.348c.139-.131.271-.254.4-.361l.082-.082c.148-.139.3-.271.427-.394l.016-.016c1.2-1.1 1.855-1.756 1.945-1.846l.008-.008zm-27.788 87.275a.105.105 0 01-.008.049 2.905 2.905 0 01-.074.377l-.024.1c-.033.1-.065.206-.107.3a.879.879 0 01-.057.131 1.971 1.971 0 01-.164.353 3.375 3.375 0 01-.87 1.017 2.19 2.19 0 01-.37.237 221.753 221.753 0 01-9.034 4.662c-.525.254-1.042.508-1.559.763q-1.871.9-3.692 1.731c-.574.263-1.141.525-1.7.78-.985.443-1.953.878-2.905 1.3-.484.213-.951.418-1.419.615s-.927.4-1.378.6c-1.83.78-3.577 1.5-5.219 2.167h-.008c-.878.361-1.731.7-2.552 1.017-.41.164-.8.32-1.2.467-1.96.764-3.692 1.411-5.153 1.945a2.124 2.124 0 01-2.626-.894 2.629 2.629 0 01-.271-.731l-7.926-39.5a3.763 3.763 0 011.673-3.758l33.438-19.308a1.805 1.805 0 012.8 1.215l7.918 33.076 2.4 10.018.042.165.024.123a.337.337 0 01.025.13.737.737 0 01.016.14 1.758 1.758 0 01.016.3 2.421 2.421 0 01-.036.413zm29.474-18.339c-.008.008-.008.008-.016.008l-.016.016c-.188.164-.394.328-.591.492a225.817 225.817 0 01-6.606 5.121 269.22 269.22 0 01-2.576 1.879l-.96.689q-1.944 1.39-4.037 2.815c-.46.3-.919.615-1.387.927s-.944.632-1.428.944-.968.64-1.461.952q-2.633 1.7-5.448 3.389a1.767 1.767 0 01-2.766-1.2l-.057-.238v-.008l-2.38-10-7.852-32.994a3.632 3.632 0 011.624-3.758l6.343-3.652 25.8-14.925 1.149-.657a.554.554 0 01.1-.049 1.717 1.717 0 012.609 1.272l7.886 39.189a4.954 4.954 0 01-.755 3.446 4.995 4.995 0 01-.287.4l-.016.016a3.859 3.859 0 01-.312.32c-.132.123-.271.246-.419.378-.188.172-.377.344-.574.517-.533.459-1.124.976-1.764 1.534s-1.321 1.132-2.06 1.748c-.492.41-1.009.837-1.542 1.272-.066.049-.123.1-.181.148a.025.025 0 01-.02.006z" opacity=".3"/></g><path data-name="Path 218" d="M231.044 219.098l74.39-42.97a2.935 2.935 0 001.32-2.922l-1.349-6.707a1.33 1.33 0 00-2.1-.947l-74.386 42.97a2.932 2.932 0 00-1.319 2.921l1.349 6.706a1.33 1.33 0 002.095.949z" fill="#455a64"/><g data-name="Group 637" fill="#37474f"><path data-name="Path 219" d="M278.842 247.555a3.488 3.488 0 01-1.63 3.678 273.26 273.26 0 01-35.82 16.036 2.121 2.121 0 01-2.893-1.622l-.521-2.6c7.23-5.257 24.785-17.794 38.261-25.578.051-.033.111-.06.162-.094z"/><path data-name="Path 220" d="M315.532 223.983a3.538 3.538 0 01-.614.742 206.8 206.8 0 01-31.083 22.83 1.765 1.765 0 01-2.766-1.2l-2.44-10.25a234.784 234.784 0 0132.687-14.893z"/></g><g data-name="Group 638" fill="#f7d400"><path data-name="Path 221" d="M310.342 215.508l-9.012-5.2a8.174 8.174 0 01-3.7-6.4v-19.125l6.913-3.994 1.144-.666a.548.548 0 01.1-.051l6.545 34.01c.323 1.605-.573 2.245-1.99 1.426z" opacity=".1"/><path data-name="Path 222" d="M291.067 188.581v13.247c0 1.417-.99 1.989-2.219 1.28l-11.461-6.614 1.357-.786z" opacity=".1"/></g></g><path data-name="Path 223" d="M306.669 161.383l-82.456 47.6-28.341-20.825-32.445-18.733 82.456-47.6 32.444 18.733z" fill="#f7d400"/><g data-name="Group 642"><g data-name="Percentage Box"><g data-name="Group 640"><path data-name="Path 224" d="M215.753 248.705l6.141-3.565a1.412 1.412 0 011.433-.137c.361.213 1.083.653 1.448.859a1.413 1.413 0 01.6 1.309v14.735a4.46 4.46 0 01-2.017 3.493l-6.14 3.565a1.418 1.418 0 01-1.426.141c-.365-.211-1.092-.657-1.457-.864a1.415 1.415 0 01-.6-1.309v-14.734a4.458 4.458 0 012.018-3.493z" fill="#fafafa"/><path data-name="Path 225" d="M213.739 252.196v14.737a1.413 1.413 0 00.6 1.309c.354.2.906.546 1.415.839a1.454 1.454 0 01-.545-1.281v-14.737a4.082 4.082 0 01.591-1.984l-1.466-.867a4.119 4.119 0 00-.595 1.984z" fill="#e0e0e0"/><path data-name="Path 226" d="M223.355 265.399l-6.14 3.565c-1.114.643-2.017.122-2.017-1.164v-14.735a4.458 4.458 0 012.017-3.493l6.141-3.565c1.114-.643 2.017-.122 2.017 1.164v14.735a4.46 4.46 0 01-2.018 3.493z" fill="#f0f0f0"/></g></g><path data-name="Path 227" d="M228.833 267.845a4.588 4.588 0 012.066 3.588c0 1.32-.927 1.855-2.071 1.2a4.564 4.564 0 01-2.065-3.588c.002-1.326.934-1.861 2.07-1.2z" fill="#37474f"/><g data-name="Group 641"><path data-name="Path 228" d="M221.57 274.782a1.535 1.535 0 01-1.529-1.531v-14.965a.51.51 0 111.02 0v14.965a.508.508 0 00.764.441l6.752-3.9a.51.51 0 01.51.883l-6.752 3.9a1.521 1.521 0 01-.765.207z" fill="#263238"/></g></g></g><g data-name="Label"><g data-name="Group 643"><path data-name="Path 229" d="M141.749 97.116a.821.821 0 01-.812-.708c-3.8-27.293 16.126-43.943 36.035-50.424 20.764-6.762 35.437 2.242 36.052 2.628a.82.82 0 11-.873 1.389c-.144-.09-14.669-8.969-34.671-2.457-19.278 6.276-38.575 22.348-34.918 48.638a.821.821 0 01-.7.926.776.776 0 01-.113.008z" fill="#37474f"/></g><g data-name="Label"><path data-name="Path 230" d="M268.081 0l-52.36 30.232-13.334 26.946 13.334 11.546 1.5.87 52.359-30.232V.87zm-54.189 52.2a7.07 7.07 0 013.2-5.547 2.876 2.876 0 011.376-.42 2.878 2.878 0 01.321 1.4 7.082 7.082 0 01-3.2 5.547 2.957 2.957 0 01-1.393.426 2.914 2.914 0 01-.304-1.408z" fill="#f7d400"/><path data-name="Path 231" d="M217.223 31.102l-13.334 26.946 13.334 11.545 52.359-30.232V.87zm-.131 22.942c-1.773 1.025-3.2.2-3.2-1.846a7.07 7.07 0 013.2-5.547c1.764-1.017 3.2-.189 3.2 1.846a7.082 7.082 0 01-3.2 5.548z" fill="#f7d400"/><path data-name="Path 232" d="M220.292 48.497a7.082 7.082 0 01-3.2 5.547c-1.286.739-2.384.513-2.9-.444a2.939 2.939 0 001.393-.426 7.08 7.08 0 003.2-5.547 2.856 2.856 0 00-.321-1.387 1.647 1.647 0 011.207.451 2.479 2.479 0 01.621 1.806z" opacity=".3"/><path data-name="Path 233" d="M269.583.87l-1.5-.87-52.362 30.232 1.5.87z" fill="#f7d400"/><path data-name="Path 234" d="M217.223 31.102l-13.334 26.946-1.5-.87 13.332-26.946z" opacity=".15"/><path data-name="Path 235" d="M203.889 58.048l13.334 11.547-1.5-.87-13.336-11.547z" opacity=".3"/></g><g data-name="Group 644" fill="#fafafa"><path data-name="Path 236" d="M221.932 38.954l.573 4.828-1.117.5-.456-3.817-1.037.736-.372-.689 1.437-1.12z"/><path data-name="Path 237" d="M228.105 41.258l-1.659-.9.186 1.566-1.044.471-.572-4.828 1.044-.471.343 2.9 1.212-2.145 1.246-.562-1.424 2.437 1.882.99z"/><path data-name="Path 238" d="M233.248 35.304l.573 4.829-1.043.471-.212-1.787a2.616 2.616 0 01-1.251 1.094c-1.084.489-2.068.1-2.19-.931a2.907 2.907 0 011.759-2.711 1.5 1.5 0 011.37-.087l-.048-.407zm-.839 2.195c-.069-.579-.593-.757-1.233-.468a1.553 1.553 0 00-1.008 1.479c.069.58.591.759 1.239.467a1.553 1.553 0 001.002-1.478z"/><path data-name="Path 239" d="M240.352 32.355a2.742 2.742 0 01-1.741 2.494l-1 .449.188 1.586-1.116.5-.573-4.828 2.112-.952c1.097-.49 2.023-.152 2.13.751zm-1.108.5c-.051-.421-.435-.574-.913-.359l-.994.449.174 1.462.994-.449a1.171 1.171 0 00.74-1.102z"/><path data-name="Path 240" d="M241.227 33.676l-.384-3.249 1.108-.5.377 3.173c.055.467.388.688 1.149.345s1.01-.826.954-1.294l-.376-3.174 1.116-.5.386 3.249a2.868 2.868 0 01-1.97 2.65c-1.238.56-2.236.342-2.36-.7z"/><path data-name="Path 241" d="M249.92 30.462l.107.91-3.276 1.477-.573-4.828 1.117-.5.464 3.918z"/><path data-name="Path 242" d="M250.134 30.171l.9-.907c.255.357.686.467 1.39.15.671-.3.877-.649.845-.919-.042-.359-.439-.326-1.305-.153-.89.176-1.769.246-1.878-.672a2.538 2.538 0 011.691-2.274 1.775 1.775 0 012.151.171l-.884.885c-.246-.274-.584-.392-1.158-.132-.469.211-.72.543-.687.818.035.3.272.357 1.156.191.928-.163 1.912-.339 2.029.647.107.9-.677 1.839-1.882 2.383-1.158.522-1.975.388-2.368-.188z"/><path data-name="Path 243" d="M255.039 27.449l-.385-3.249 1.109-.5.377 3.174c.055.467.388.688 1.149.346s1.01-.827.954-1.295l-.376-3.173 1.116-.5.386 3.249a2.868 2.868 0 01-1.969 2.654c-1.239.554-2.238.336-2.361-.706z"/><path data-name="Path 244" d="M264.047 24.093l.108.91-3.828 1.725-.09-.759 1.981-4.22-2.3 1.036-.108-.91 3.722-1.678.089.751-1.978 4.228z"/><path data-name="Path 245" d="M225.655 51.388l1.019.042a4.581 4.581 0 01-1.835 2l.031.248c.281-.069.591-.034.629.282.05.414-.337.894-1.705 1.437l-.074-.627c.6-.232.872-.414.858-.533s-.213-.064-.53.057l-.057-.475c-1.53.537-2.705-.03-2.859-1.334a4.119 4.119 0 012.647-3.838 2.473 2.473 0 012.57.04l-.906.909a1.43 1.43 0 00-1.555-.024 2.5 2.5 0 00-1.649 2.414c.11.924.916 1.251 2.024.752a2.694 2.694 0 001.392-1.35z"/><path data-name="Path 246" d="M230.662 49.808l-2.257 1.017-.237 1.023-1.206.543 1.41-5.722 1.384-.623 2.563 3.931-1.214.547zm-.454-.733l-1.01-1.623-.543 2.323z"/><path data-name="Path 247" d="M235.742 44.306l-1.53.689.465 3.918-1.116.5-.464-3.918-1.522.686-.108-.911 4.167-1.878z"/><path data-name="Path 248" d="M241.522 43.288a3.891 3.891 0 01-2.441 3.643l-2.249 1.014-.574-4.828 2.25-1.014c1.561-.703 2.851-.173 3.014 1.185zm-1.068.481c-.105-.89-.858-1.2-1.837-.756l-1.133.511.357 3.007 1.133-.511a2.308 2.308 0 001.48-2.251z"/><path data-name="Path 249" d="M243.15 40.012l.573 4.828-1.117.5-.573-4.828z"/><path data-name="Path 250" d="M246.541 41.803l-.85.383.2 1.676-1.117.5-.573-4.828 2.266-1.021c1.043-.471 1.97-.133 2.075.751a2.407 2.407 0 01-.926 1.9l1.47 1.256-1.2.543zm-.949-.452l1.149-.518a1.141 1.141 0 00.684-1.063c-.047-.4-.432-.553-.853-.364l-1.149.518z"/><path data-name="Path 251" d="M250.288 36.798l.573 4.828-1.117.5-.573-4.828z"/><path data-name="Path 252" d="M255.082 38.758l.109.91-3.277 1.477-.573-4.828 1.116-.5.465 3.917z"/><path data-name="Path 253" d="M261.366 36.885l-1.11.5-.372-3.131-1.327 2.96-.13.058-1.861-1.516.37 3.125-1.117.5-.573-4.828 1.15-.518 1.9 1.55 1.348-3.013 1.15-.518z"/><path data-name="Path 254" d="M265.62 34.052l-2.26 1.015-.237 1.022-1.2.543 1.409-5.721 1.384-.624 2.563 3.931-1.219.549zm-.454-.733l-1.01-1.623-.543 2.323z"/></g><g data-name="Text"><g data-name="Group 645" fill="#162366"><path data-name="Path 255" d="M222.257 39.13l.573 4.828-1.117.5-.453-3.82-1.038.736-.365-.687 1.437-1.119z"/><path data-name="Path 256" d="M228.436 41.432l-1.659-.9.186 1.566-1.043.471-.573-4.828 1.044-.471.343 2.9 1.211-2.145 1.246-.562-1.424 2.428 1.882.99z"/><path data-name="Path 257" d="M233.579 35.48l.573 4.829-1.043.471-.217-1.785a2.616 2.616 0 01-1.251 1.094c-1.084.489-2.068.1-2.19-.932a2.9 2.9 0 011.758-2.71 1.5 1.5 0 011.371-.087l-.049-.407zm-.839 2.195c-.069-.579-.593-.757-1.233-.468a1.553 1.553 0 00-1.008 1.479c.069.58.591.758 1.239.467a1.551 1.551 0 001.003-1.478z"/><path data-name="Path 258" d="M240.683 32.531a2.742 2.742 0 01-1.74 2.494l-1 .449.188 1.586-1.116.5-.573-4.828 2.112-.952c1.096-.49 2.022-.152 2.129.751zm-1.108.5c-.051-.421-.434-.574-.912-.359l-1 .449.174 1.462 1-.449a1.172 1.172 0 00.738-1.102z"/><path data-name="Path 259" d="M241.559 33.851l-.385-3.248 1.108-.5.377 3.173c.056.468.388.689 1.149.346s1.011-.826.954-1.294l-.376-3.173 1.117-.5.385 3.248a2.867 2.867 0 01-1.969 2.655c-1.238.554-2.237.336-2.36-.707z"/><path data-name="Path 260" d="M250.251 30.638l.108.91-3.277 1.477-.573-4.828 1.117-.5.464 3.917z"/><path data-name="Path 261" d="M250.466 30.347l.9-.907c.255.357.686.467 1.39.15.671-.3.877-.649.845-.919-.042-.36-.439-.326-1.3-.153-.891.176-1.769.246-1.879-.672a2.538 2.538 0 011.691-2.274 1.774 1.774 0 012.151.171l-.883.885c-.246-.274-.584-.392-1.158-.132-.469.211-.72.543-.687.818.035.3.272.357 1.156.191.928-.163 1.912-.339 2.03.647.106.9-.678 1.839-1.883 2.383-1.164.522-1.98.388-2.373-.188z"/><path data-name="Path 262" d="M255.37 27.625l-.384-3.249 1.108-.5.377 3.174c.055.467.388.688 1.149.345s1.01-.826.955-1.294l-.376-3.174 1.116-.5.386 3.249a2.868 2.868 0 01-1.969 2.654c-1.24.555-2.238.337-2.362-.705z"/><path data-name="Path 263" d="M264.378 24.268l.108.911-3.825 1.727-.091-.759 1.981-4.22-2.3 1.036-.109-.91 3.722-1.679.09.751-1.978 4.228z"/><path data-name="Path 264" d="M225.987 51.559l1.019.042a4.58 4.58 0 01-1.835 2l.03.249c.281-.069.591-.034.629.282.05.414-.337.894-1.705 1.437l-.073-.627c.595-.233.871-.414.857-.533s-.212-.064-.53.057l-.056-.475c-1.53.537-2.706-.031-2.86-1.334a4.12 4.12 0 012.647-3.838 2.473 2.473 0 012.57.039l-.906.91a1.428 1.428 0 00-1.554-.024 2.5 2.5 0 00-1.65 2.414c.11.924.916 1.251 2.025.752a2.7 2.7 0 001.392-1.351z"/><path data-name="Path 265" d="M230.993 49.988l-2.257 1.017-.237 1.023-1.207.543 1.411-5.722 1.383-.624 2.564 3.931-1.215.547zm-.453-.733l-1.011-1.623-.543 2.323z"/><path data-name="Path 266" d="M236.072 44.486l-1.53.689.465 3.918-1.116.5-.464-3.918-1.522.685-.108-.91 4.166-1.879z"/><path data-name="Path 267" d="M241.853 43.464a3.892 3.892 0 01-2.44 3.643l-2.25 1.014-.573-4.828 2.25-1.014c1.562-.703 2.851-.173 3.013 1.185zm-1.069.482c-.105-.89-.857-1.2-1.837-.756l-1.132.511.357 3.007 1.133-.511a2.308 2.308 0 001.479-2.251z"/><path data-name="Path 268" d="M243.475 40.188l.573 4.828-1.117.5-.573-4.828z"/><path data-name="Path 269" d="M246.872 41.978l-.85.383.2 1.676-1.117.5-.573-4.828 2.266-1.021c1.044-.471 1.97-.133 2.075.751a2.408 2.408 0 01-.925 1.9l1.469 1.256-1.2.543zm-.949-.451l1.149-.518a1.143 1.143 0 00.684-1.063c-.047-.4-.432-.554-.853-.364l-1.149.518z"/><path data-name="Path 270" d="M250.619 36.969l.573 4.828-1.117.5-.573-4.828z"/><path data-name="Path 271" d="M255.413 38.934l.109.91-3.277 1.477-.572-4.827 1.116-.5.466 3.917z"/><path data-name="Path 272" d="M261.698 37.06l-1.109.5-.372-3.131-1.326 2.959-.13.059-1.86-1.519.37 3.125-1.117.5-.573-4.828 1.15-.518 1.9 1.55 1.348-3.013 1.149-.518z"/><path data-name="Path 273" d="M265.951 34.227l-2.257 1.017-.237 1.022-1.2.544 1.409-5.721 1.384-.624 2.562 3.93-1.213.547zm-.454-.733l-1.01-1.623-.543 2.323z"/></g></g><g data-name="Group 646"><path data-name="Path 274" d="M209.956 63.449a9.663 9.663 0 01-2.314-.29.82.82 0 11.39-1.593 6.653 6.653 0 007.98-3.811 5.135 5.135 0 00-1.786-6.614.821.821 0 11.881-1.384 6.78 6.78 0 012.415 8.643 8.186 8.186 0 01-7.566 5.049z" fill="#37474f"/></g></g><g data-name="Character"><path data-name="Path 275" d="M73.485 289.616a4.581 4.581 0 00-.392 2.368 11.09 11.09 0 01.392 3.223c-.134 1.612-.479 2.128-.607 3.266a4.693 4.693 0 00.693 3.289c.7 1.052 2.27 1.889 5.153 1.677 2.331-.171 3.316-1.479 3.316-2.855z" fill="#263238"/><path data-name="Path 276" d="M74.624 288.247c1.469.788 3.869-.138 5.655-1.091l1.88-11.1-8.121-1.8z" fill="#ffa8a7"/><path data-name="Path 277" d="M74.041 286.271a5.75 5.75 0 00-.107.912c-.066.543-.209 1.067-.317 1.6-.029.142-.055.284-.081.426a17.217 17.217 0 00.108 3.274 18.414 18.414 0 01-.533 3.842c-.439 2.286-.432 3.714 1.61 5.212a5.353 5.353 0 003.518.855 4.742 4.742 0 002.9-.816 2.446 2.446 0 00.8-1.386c-.012-2.414-.985-5.184-1.251-7.584a11.679 11.679 0 01-.118-1.95c.051-.8.3-1.6.357-2.411a1.369 1.369 0 00-.144-.879 1.419 1.419 0 00-1.089-.443q-1.592-.148-3.19-.2a.964.964 0 00-.716.171 1.315 1.315 0 00-.237.78c-.044.273-.235.589-.509.547a.458.458 0 01-.337-.388 31.097 31.097 0 01-.162-1.753c-.01.002-.386-.044-.502.191z" fill="#37474f"/><path data-name="Path 278" d="M82.161 299.789a2.966 2.966 0 00-.386-1.459c-1.185-2.121-7.124-1.972-8.9.259a3.251 3.251 0 001.495 3.028 6.851 6.851 0 003.982.852 5.178 5.178 0 002.908-.9 1.973 1.973 0 00.901-1.78z" fill="#455a64"/><path data-name="Path 279" d="M89.915 288.572c1.241 2.682 3.188 1.6 5.712-.117l1.233-16.058-7.782 2.1z" fill="#ffa8a7"/><g data-name="Group 647"><path data-name="Path 280" d="M105.89 294.695a1.806 1.806 0 01-.074 1.325c-.185.387-2.209 1.529-4.94 1.345a11.371 11.371 0 01-5.647-1.974 6.538 6.538 0 00-3.477-.895c-1.352-.078-3.127-.751-3.424-1.384a3 3 0 01.045-1.722z" fill="#263238"/><path data-name="Path 281" d="M96.338 286.224a5.34 5.34 0 01.26.612 4.841 4.841 0 001.424 1.935 15.553 15.553 0 002.952 1.749c.658.326 1.359.44 2.029.706a11.563 11.563 0 012.172 1.061 1.969 1.969 0 01-.011 3.253 9.641 9.641 0 01-6.73.464c-1.583-.448-3.341-2.14-5.419-2.3-1.322-.1-3.82-.475-4.671-1.478-.268-1.459.105-1.856.45-3.074a9.922 9.922 0 00.334-2.1c.024-.374-.188-1.459.6-1.557l.048.808s.136.279.948.456c.262.057.456.412.587.736.1.249.2.565.472.57a.5.5 0 00.423-.3 4.318 4.318 0 00.174-.52 2.064 2.064 0 011.287-1.176 6.24 6.24 0 011.461-.245c.379-.043.693-.192 1.013.14a1.232 1.232 0 01.197.26z" fill="#37474f"/><path data-name="Path 282" d="M88.989 288.262a8.38 8.38 0 01-.193.888c-.345 1.218-.719 1.615-.45 3.074.653.771 2.279 1.168 3.6 1.358a5.009 5.009 0 00-2.957-5.32z" fill="#455a64"/></g><path data-name="Path 283" d="M75.225 224.492c-.343 10.4-.2 14.569-.159 33.7a33.067 33.067 0 00-1.4 9.043c-.131 4.787.376 14.692.376 14.692s3.962 2.452 7.319.5c0 0 2.694-14.561 3.727-21.238.908-5.867 1.838-14.453 1.838-14.453l1.3 12.2a48.609 48.609 0 00-.221 9.266c.222 3.138 1.082 14.183 1.082 14.183s3.585 2.507 7.369.494c0 0 1.765-21.978 1.819-24.823.062-3.244-1.2-36.231-1.2-36.231z" fill="#455a64"/><path data-name="Path 284" d="M86.921 246.736l1.962-11.354s4.273-.374 6.633-2.757c0 0-.421 2.336-5.792 3.737l-1.962 11.456.454 11.115z" fill="#263238"/><path data-name="Path 285" d="M105.227 292.191a10.458 10.458 0 00-1.925-.844 4.666 4.666 0 00-4.316 4.8 8.93 8.93 0 006.208-.529 2.135 2.135 0 00.033-3.427z" fill="#455a64"/><path data-name="Path 286" d="M90.243 197.841c1.838-.053 5.26-.09 7.647 2.994 1.677 2.167 6.268 7.394 8.857 10.834 1.833-1.82 6.278-6.231 7.019-7.533a20.842 20.842 0 001.712-3.847 13.509 13.509 0 00.627-2.408 13.21 13.21 0 00.123-3.035c0-.919 1.353-.416 1.84 1.054a7.954 7.954 0 01.341 2.5c.512-.23 2-.917 2.227-1.017.808-.352 3.368-1.185 3.577.252.047.321-.063.669.07.965a2.1 2.1 0 00.269.379 1.638 1.638 0 01.159 1.66 1.3 1.3 0 00-.156.755 2.093 2.093 0 01.015.824 3.338 3.338 0 01-.335.584 2.577 2.577 0 00-.24.838 3.147 3.147 0 01-.212.847c-.294.628-1.065.755-1.659.953-.791.263-1.847.605-2.671.981-1.437.9-5.414 7.709-9.38 12.04-1.358 1.484-2.568 2.4-3.82 2.208h.011c-1.015-.047-2.25-1-3.436-2.073-3.772-3.415-9.875-9.8-9.875-9.8-2.533-3.192-3.057-8.862-2.71-10.955z" fill="#ffa8a7"/><path data-name="Path 287" d="M90.241 197.842a9.053 9.053 0 015.175.784c1.6.789 1.954 1.335 3.495 3.143s3.692 4.538 3.692 4.538-1.216 5.154-6.234 6.434l-6.609-7.67z" fill="#455a64"/><path data-name="Path 288" d="M119.425 198.561c-.792.259-1.006.787-.974 1.929a3.1 3.1 0 01-.9 2.439 1.751 1.751 0 00.954-.424c.345-.361.44-.4.635-.2a1.263 1.263 0 00.511.288.88.88 0 00-.072 1.049c.359.582 1.945.582 3.239-.1 0 0-2.1.675-2.6.008s.616-1.517 1.446-1.752c0 0-2.033.5-2.35-.162s.52-1.18 1.717-1.5c0 0-1.683.32-1.976-.249a1.046 1.046 0 01.37-1.326z" fill="#f28f8f"/><path data-name="Path 289" d="M96.697 205.785c-.46-3.337-.9-7.822-6.073-8.028l-6.723-.321c-1.643.427-8.957 2.553-8.957 2.553V210.6s.243 4.432.547 10.018c0 0-.6 6.515-.547 9.064 4.779 3.03 17.464 2.167 22.513-.875.194-4.61-.304-19.717-.76-23.022z" fill="#f7d400"/><g data-name="Group 657"><g data-name="Group 650"><g data-name="Group 648"><path data-name="Path 290" d="M88.422 186.845l-10.539-.552c-2 1.583-5.716 4.906-5.694 5.8l.014.623a.232.232 0 00.023.077c.388.7 1.738 1.108 3.83 1.1 2.48-.011 6.323-.319 7.315-1.209 1.5-1.34 5.064-5.251 5.064-5.251l-.531-.028z" fill="#f7d400"/><path data-name="Path 291" d="M88.422 186.845l-10.539-.552c-2 1.583-5.716 4.906-5.694 5.8l.014.623a.232.232 0 00.023.077c.388.7 1.738 1.108 3.83 1.1 2.48-.011 6.323-.319 7.315-1.209 1.5-1.34 5.064-5.251 5.064-5.251l-.531-.028z" opacity=".2"/><path data-name="Path 292" d="M77.894 186.882c-2.091 1.655-6.057 5.212-5.669 5.914s1.738 1.108 3.83 1.1c2.48-.011 6.323-.319 7.315-1.209 1.5-1.34 5.064-5.251 5.064-5.251z" fill="#f7d400"/><path data-name="Path 293" d="M77.894 186.882c-2.091 1.655-6.057 5.212-5.669 5.914s1.738 1.108 3.83 1.1c2.48-.011 6.323-.319 7.315-1.209 1.5-1.34 5.064-5.251 5.064-5.251z" opacity=".4"/></g><g data-name="Group 649"><path data-name="Path 294" d="M77.895 186.883c-.027.307 1.061.919 1.061.919l-.339-1.841z" fill="#f7d400"/><path data-name="Path 295" d="M77.895 186.883c-.027.307 1.061.919 1.061.919l-.339-1.841z" opacity=".3"/></g></g><g data-name="Group 652"><g data-name="Group 651"><path data-name="Path 296" d="M94.509 179.982a6.987 6.987 0 00-2.119-2.373 8.9 8.9 0 00-5.472-1.179 13.617 13.617 0 00-3.567.545 7.2 7.2 0 00-4.724 4.612 9.722 9.722 0 00.99 8.167c.657 1.037 1.088 2.158 1.644 3.248.461.9.8 1.663.8 1.663l-.153-2.859 2.719-.244a10.588 10.588 0 012.374-.126 3.142 3.142 0 002.077-.657 33.128 33.128 0 003.676-2.72 10.4 10.4 0 001.986-2.106 5.467 5.467 0 00.338-.579 3.443 3.443 0 00.36-1.095 6.143 6.143 0 00.077-1.627 7.887 7.887 0 00-.483-1.627 10.626 10.626 0 00-.523-1.043z" fill="#263238"/><path data-name="Path 297" d="M87.432 182.347a14.767 14.767 0 01-1.834-.367l-.169-.044a4.119 4.119 0 01-3.032 2.74 10.272 10.272 0 01.082 3.466 1.9 1.9 0 01-.261.694.846.846 0 01-.609.387c-.334.024-.472-.179-.576-.441a8.437 8.437 0 00-.508-.974 1.936 1.936 0 00-.3-.375 1.64 1.64 0 00-2.714.56 3.449 3.449 0 001.823 4.2c2.093.583 2.546-.84 2.546-.84l.4 7.465c1.134 1.187 5.444 2.817 6.681 4.221.556-.956 2.149-3.3.05-4.637l-.079-2.274a13.071 13.071 0 002.8.052c1.515-.285 2.266-1.572 2.675-3.236a38.268 38.268 0 00.366-9.774 16.168 16.168 0 00-.312-2.142c.064.2-1.436.8-1.6.857a9.5 9.5 0 01-2.088.44 19.067 19.067 0 01-2.479.089 8.323 8.323 0 01-.862-.067z" fill="#ffa8a7"/></g><path data-name="Path 298" d="M88.934 196.124a26.042 26.042 0 01-4.631-1.168 3.914 3.914 0 01-1.7-1.572 5.35 5.35 0 001 1.887c.9 1.083 5.357 1.575 5.357 1.575z" fill="#f28f8f"/></g><g data-name="Group 655"><path data-name="Path 299" d="M87.477 187.275a.635.635 0 11-.656-.64.645.645 0 01.656.64z" fill="#263238"/><path data-name="Path 300" d="M86.618 184.146l-1.593.487a.874.874 0 01.572-1.065.813.813 0 011.021.578z" fill="#263238"/><g data-name="Group 653"><path data-name="Path 301" d="M87.722 191.708l2.345.795a1.215 1.215 0 01-1.548.818 1.3 1.3 0 01-.797-1.613z" fill="#b16668"/><path data-name="Path 302" d="M87.969 192.201a1.076 1.076 0 00-.3.046 1.275 1.275 0 00.844 1.074 1.183 1.183 0 00.527.051c0-.029.009-.057.009-.087a1.084 1.084 0 00-1.08-1.084z" fill="#f28f8f"/></g><path data-name="Path 303" d="M94.247 184.498l-1.526-.579a.788.788 0 011.03-.466.83.83 0 01.496 1.045z" fill="#263238"/><path data-name="Path 304" d="M84.316 185.105l-5.345 1.831a1.947 1.947 0 011.54.782l3.785-1.437z" fill="#37474f"/><path data-name="Path 305" d="M93.309 187.168a.639.639 0 11-.66-.645.649.649 0 01.66.645z" fill="#263238"/><g data-name="Group 654"><path data-name="Path 306" d="M96.182 184.84a13.972 13.972 0 00-.349-.037 10.142 10.142 0 00-3.494.179c-1.121.366-1.521.76-2.138.774-.66.009-1.07-.37-2.253-.693a11.515 11.515 0 00-3.731-.045c-.13.016-.255.033-.375.051a.63.63 0 00-.427.638 1.381 1.381 0 00.345.728.88.88 0 01.117.294 12.75 12.75 0 00.419 2.018 2.473 2.473 0 00.465.72 1.981 1.981 0 00.24.21c.045.032.091.063.139.094a2.15 2.15 0 00.415.195l.07.022.111.032c.038.01.076.018.116.027a2.845 2.845 0 00.369.052c.051 0 .1.008.158.011s.13 0 .2 0a2.642 2.642 0 002.581-1.552c.4-.774.317-1.858 1.024-1.868a.591.591 0 01.067 0 .485.485 0 01.063.009c.52.115.437 1.11.754 1.822a2.806 2.806 0 00.486.774c.038.041.076.081.117.118a.808.808 0 00.063.056c.021.018.043.036.066.053l.06.046.065.045.052.033a.383.383 0 00.036.023 2.145 2.145 0 00.605.238l.056.012a3.23 3.23 0 00.746.063 2.249 2.249 0 002.19-1.446 13.414 13.414 0 00.475-2.035.645.645 0 01.135-.268 1.45 1.45 0 00.337-.754c.022-.324-.182-.616-.375-.639zm-7.408 3a2.388 2.388 0 01-.551 1.079 2.2 2.2 0 01-1.682.641 1.792 1.792 0 01-1.592-.751l-.049-.076c-.015-.025-.032-.05-.046-.075a.74.74 0 01-.038-.071.631.631 0 01-.031-.064.466.466 0 01-.024-.051.442.442 0 01-.02-.046 1.773 1.773 0 01-.032-.077q-.044-.115-.076-.223v-.006l-.038-.134c-.02-.078-.035-.152-.048-.216l-.008-.041-.009-.04c-.109-.534-.229-1.587.038-1.829a3.009 3.009 0 012.109-.41c.038 0 .079 0 .122.01a4.85 4.85 0 01.52.082c.068.014.135.03.2.047a4.467 4.467 0 01.5.158q.081.031.154.064c.059.024.114.051.167.078l.033.018a.61.61 0 01.06.033 1.016 1.016 0 01.337.275 2.451 2.451 0 01.004 1.626zm6.66-.35a2.415 2.415 0 01-1.109 1.739 2 2 0 01-.853.2 1.782 1.782 0 01-1.691-.773v-.007l-.03-.049c-.009-.016-.024-.038-.033-.056l-.017-.03-.042-.084c-.013-.028-.03-.064-.044-.1l-.02-.048-.01-.027-.015-.04c0-.011-.007-.022-.011-.032a2.876 2.876 0 01-.1-.4 2.639 2.639 0 01.066-1.622 3.23 3.23 0 011.882-.828 4.9 4.9 0 01.525-.049h.377l.086.006c.049 0 .1.008.142.014.094.011.182.025.263.043l.062.015h.015c.014 0 .028.006.042.011l.063.018.075.024c.044.016.085.031.123.048l.021.01a.956.956 0 01.278.176c.235.247.077 1.304-.045 1.847z" fill="#263238"/></g><path data-name="Path 307" d="M89.985 186.726l.122 4.443 2.479-.715-2.311-3.764a.644.644 0 00-.29.036z" fill="#f28f8f"/></g><g data-name="Group 656"><path data-name="Path 308" d="M77.39 184.332a9.215 9.215 0 00.5 2.6 3.26 3.26 0 01.628-.746 15.553 15.553 0 014.675-2.809h.007a18.439 18.439 0 0112.31-.729 8.32 8.32 0 00-.542-2.214c-1.428-3.495-4.2-5.283-8.554-4.737-5.105.645-9.267 3.577-9.024 8.635z" fill="#f7d400"/><path data-name="Path 309" d="M86.696 181.013a13.416 13.416 0 015.1-.465 5.454 5.454 0 001.04-1.2c.4-.667.241-1.493-.151-1.654s-.408.351-1.9 1.13a2.491 2.491 0 00.091-1.525c-.258-.607-.753.5-1.859 1.234s-2.208 1.124-2.321 2.48z" fill="#263238"/></g></g><g data-name="Group 658" fill="#455a64"><path data-name="Path 310" d="M88.965 203.034c-.851-.515-2.627-1.406-3.55-.414s-1.42 1.267-2.035 1.088a11.844 11.844 0 01-3.25-3.287c-.784-1.247-.621-1.75-.621-1.75s1-1.316 1.523-2.009c.427-.562.563-.629 1.1-.67l.077 1.489a2.789 2.789 0 001.149 1.827c1.506 1.059 4.496 1.338 5.607 3.726z"/><path data-name="Path 311" d="M88.965 203.034c.5-.463 1.592-1.614 2.418-1.383s1.188.731 1.21.289a8.863 8.863 0 00-1.348-2.962 5.119 5.119 0 00-2.28-1.95l.05 1.369s.979 1.241.87 1.987-.82 1.925-.92 2.65z"/></g><g data-name="Arm"><g data-name="Group 660"><path data-name="Path 312" d="M110.241 215.76l-17.708 3.032-7 21.028 16.875-3.329z" fill="#263238"/><path data-name="Path 313" d="M95.167 231.359a4.056 4.056 0 01-2.924 2.872 8.926 8.926 0 01-4.72-.388l.585-1.759z" opacity=".15"/><path data-name="Path 314" d="M104.901 218.425l.2-.648c.111-.358-.9-.463-2.266-.235l-2.608.436c-1.362.228-2.557.7-2.668 1.061l-.2.648z" opacity=".15"/><g data-name="Group 659"><path data-name="Path 315" d="M106.32 216.04c.07-.223-.336-.32-.907-.215l-1.034.19s.427-1.4-1.858-1.1a3.525 3.525 0 00-2.917 1.88l-1.105.211a2.034 2.034 0 00-1.269.61l-.163.4 9.122-1.561.131-.415z" fill="#f7d400"/><path data-name="Path 316" d="M106.32 216.04c.07-.223-.336-.32-.907-.215l-1.034.19s.427-1.4-1.858-1.1a3.525 3.525 0 00-2.917 1.88l-1.105.211a2.034 2.034 0 00-1.269.61l-.163.4 9.122-1.561.131-.415z" opacity=".3"/><path data-name="Path 317" d="M97.664 219.111c.092-.3.936-.674 2-.923.011-.038.022-.075.031-.1.089-.312-.029-.514-.671-.4l-.031-.256 6.322-1.03-.284.25c-.835.125-1.183.2-1.355.755l-.037.126c.99-.09 1.657.03 1.566.322l-.2.648-7.541 1.263z" fill="#f7d400"/><path data-name="Path 318" d="M97.664 219.111c.092-.3.936-.674 2-.923.011-.038.022-.075.031-.1.089-.312-.029-.514-.671-.4l-.031-.256 6.322-1.03-.284.25c-.835.125-1.183.2-1.355.755l-.037.126c.99-.09 1.657.03 1.566.322l-.2.648-7.541 1.263z" opacity=".4"/></g></g><path data-name="Path 319" d="M89.398 228.211c2.141.774 4.548.577 6.788.649.216.007.478.043.562.243a.472.472 0 01-.2.507 2.062 2.062 0 00-.439.378c-.17.253-.106.59-.156.891a2.317 2.317 0 01-.7 1.128 5.364 5.364 0 01-1.132 1.009 7.845 7.845 0 01-5.043.595 16.934 16.934 0 01-3.081-.99c-.941-.373-6.681-2.212-7.363-2.468-5.061-1.9-12.028-4.249-12.384-6.677s1.738-10.4 2.8-16.525c1.008-5.818 3.172-6.516 6.45-7.12a10.935 10.935 0 01.8 11.331l-2.128 9.452a110.22 110.22 0 0010.211 5.855 4.07 4.07 0 002.027-.167 8.8 8.8 0 013.712-.289" fill="#ffa8a7"/><path data-name="Path 320" d="M75.65 199.781c-3.475.394-5.064 1.242-5.942 4.011-.871 2.745-2.149 9.362-2.149 9.362 2.255 2.085 5.31 2.491 7.877 2.5l1.145-4.626c.893-1.852 2.447-7.193-.931-11.247z" fill="#455a64"/></g></g></g></svg>