<svg data-name="mail-black-envelope-symbol (1)" xmlns="http://www.w3.org/2000/svg" width="24.721" height="18.54"><path data-name="Path 297" d="M24.72 15.449a3.063 3.063 0 01-.4 1.486l-7.805-8.733 7.724-6.753a3.067 3.067 0 01.481 1.641v12.359zm-12.36-5.66L23.1.389A3.052 3.052 0 0021.627 0H3.09a3.041 3.041 0 00-1.472.389zm3-.569l-2.487 2.177a.775.775 0 01-1.017 0L9.364 9.22l-7.9 8.845a3.053 3.053 0 001.629.475H21.63a3.053 3.053 0 001.629-.475zM.481 1.449A3.068 3.068 0 000 3.09v12.359a3.053 3.053 0 00.4 1.486l7.8-8.734z" fill="#f8be1c"/></svg>