<svg data-name="old-typical-phone (1)" xmlns="http://www.w3.org/2000/svg" width="22.286" height="18.348"><g data-name="Group 97" fill="#f8be1c"><path data-name="Path 298" d="M11.271 3.352c3.755.037 6.108-.2 6.425 3.965h4.575C22.271.869 16.648 0 11.147 0S.023.869.023 7.317h4.548c.347-4.241 2.971-4.002 6.7-3.965z"/><path data-name="Path 299" d="M2.294 9.39c1.115 0 2.043.067 2.25-1.03a2.8 2.8 0 00.044-.514H0C0 9.478 1.027 9.39 2.294 9.39z"/><path data-name="Path 300" d="M17.721 7.846h-.043a2.45 2.45 0 00.049.514c.218 1.012 1.144.949 2.256.949 1.273 0 2.3.084 2.3-1.463z"/><path data-name="Path 301" d="M15.483 6.735v-.648c0-.29-.334-.308-.747-.308h-.674c-.412 0-.746.018-.746.308v.992H8.547v-.992c0-.29-.334-.308-.746-.308h-.675c-.412 0-.746.018-.746.308v1.215a48.056 48.056 0 00-4.77 6.516V17.7a.651.651 0 00.65.65h17.341a.651.651 0 00.65-.65v-3.9a48.914 48.914 0 00-4.768-6.5zm-7.171 7.6a.632.632 0 11.632-.632.632.632 0 01-.632.636zm0-2.167a.632.632 0 11.632-.632.632.632 0 01-.632.635zm0-2.167a.632.632 0 11.632-.632.632.632 0 01-.632.638zm2.6 4.334a.632.632 0 11.632-.632.632.632 0 01-.631.636zm0-2.167a.632.632 0 11.632-.632.632.632 0 01-.631.635zm0-2.167a.632.632 0 11.632-.632.632.632 0 01-.631.638zm2.6 4.334a.632.632 0 11.632-.632.632.632 0 01-.63.636zm0-2.167a.632.632 0 11.632-.632.632.632 0 01-.63.635zm0-2.167a.632.632 0 11.632-.632.632.632 0 01-.63.638z"/></g></svg>