<svg xmlns="http://www.w3.org/2000/svg" xmlns:xlink="http://www.w3.org/1999/xlink" width="303.452" height="207.168"><defs><radialGradient id="a" cx=".5" cy=".5" r="6.27" gradientTransform="matrix(.084 0 0 .088 .458 .456)" gradientUnits="objectBoundingBox"><stop offset=".408" stop-color="#9c9c9c"/><stop offset="1" stop-color="#fff" stop-opacity="0"/></radialGradient><radialGradient id="c" cx=".5" cy=".5" r="6.034" gradientTransform="matrix(.084 0 0 .071 .458 .464)" xlink:href="#a"/><linearGradient id="b" x1=".499" y1=".081" x2=".501" y2="1.303" gradientUnits="objectBoundingBox"><stop offset=".235" stop-color="#9c9c9c"/><stop offset="1" stop-color="#fff" stop-opacity="0"/></linearGradient></defs><g data-name="Group 599"><g data-name="Group 471"><g data-name="Group 470" fill="#d6edf1"><path data-name="Path 5595" d="M88.241 191.605h188.11a160.4 160.4 0 0020.36-99.55c-1.427-11.478-4.2-23.029-10.351-32.826s-16.075-17.685-27.533-19.261c-14.733-2.026-28.628 6.245-42.724 10.984-21.062 7.081-44.294 6.314-65.649.173-23.352-6.714-45.644-19.763-69.929-18.956-22.091.735-42.814 13.512-55.875 31.345S5.681 103.716 5.103 125.816s3.9 44.044 10.023 65.282z"/><path data-name="Path 5596" d="M46.112 37.812c6.8-4.389 14.454-7.66 22.5-8.572 2.689-.3 5.848-.6 7.248-2.913 1.166-1.928.464-4.563-1.1-6.185a12.1 12.1 0 00-5.975-2.958c-11.1-2.728-23.1.079-32.835 6.058a34.82 34.82 0 00-9.584 8.265 20.23 20.23 0 00-4.4 11.717 12.214 12.214 0 001.486 6.373c.933 1.605 2.667 3.718 4.691 2.934 2-.774 4-3.614 5.58-5.046a96.825 96.825 0 0112.389-9.673z"/></g><path data-name="Line 38" fill="none" stroke="#1c484f" stroke-miterlimit="10" d="M2.632 191.437h292.374"/></g><g data-name="Group 483"><path data-name="Path 5597" d="M201.885 398.792l-27.492 16.415h-41.842l31.381-17.782z" transform="translate(-132.551 -208.039)" opacity=".5" fill="url(#b)" style="mix-blend-mode:multiply;isolation:isolate"/><g data-name="Group 482"><g data-name="Group 476"><path data-name="Path 5598" d="M69.334 152.052v3.165H22.068l7.667-2.585 1.714-.579z" fill="#c7762f"/><g data-name="Group 474"><path data-name="Rectangle 174" fill="#f5ad49" d="M22.068 155.216h41.045v39.137H22.068z"/><g data-name="Group 473"><g data-name="Group 472" fill="#c7762f"><path data-name="Rectangle 175" d="M23.922 188.185h17.249v2.402H23.922z"/><path data-name="Rectangle 176" d="M23.922 185.401h11.572v1.747H23.922z"/></g></g><path data-name="Path 5599" d="M59.947 160.866a3.139 3.139 0 11-3.139-3.139 3.139 3.139 0 013.139 3.139z" fill="#c7762f"/><path data-name="Rectangle 177" fill="#f5ad49" opacity=".5" style="mix-blend-mode:screen;isolation:isolate" d="M23.922 194.353h-1.854v-39.137h1.854z"/></g><g data-name="Group 475" fill="#e38c3b"><path data-name="Path 5600" d="M69.335 152.052v38.7l-6.221 3.6v-39.135l1.662-.843z"/><path data-name="Path 5601" d="M69.335 183.495v7.257l-6.221 3.6v-39.135l1.662-.843a126.625 126.625 0 00.777 17.824 28.089 28.089 0 001.879 8.175 13.319 13.319 0 001.903 3.122z" opacity=".5" style="mix-blend-mode:multiply;isolation:isolate"/></g><path data-name="Path 5602" d="M69.335 152.052v.438a161.642 161.642 0 01-39.6.141l1.714-.58z" fill="#c7762f" opacity=".5" style="mix-blend-mode:multiply;isolation:isolate"/></g><g data-name="Group 481"><path data-name="Path 5603" d="M63.114 124.102v2.332H28.289l5.649-1.9 1.263-.427z" fill="#c7762f"/><g data-name="Group 479"><path data-name="Rectangle 178" fill="#f5ad49" d="M28.289 126.433H58.53v28.835H28.289z"/><g data-name="Group 478"><g data-name="Group 477" fill="#c7762f"><path data-name="Rectangle 179" d="M29.655 150.724h12.708v1.77H29.655z"/><path data-name="Rectangle 180" d="M29.655 148.673h8.526v1.287h-8.526z"/></g></g><path data-name="Path 5604" d="M56.198 130.596a2.312 2.312 0 11-2.313-2.313 2.312 2.312 0 012.313 2.313z" fill="#c7762f"/><path data-name="Rectangle 181" fill="#f5ad49" opacity=".5" style="mix-blend-mode:screen;isolation:isolate" d="M29.655 155.268h-1.366v-28.835h1.366z"/></g><g data-name="Group 480" fill="#e38c3b"><path data-name="Path 5605" d="M63.114 124.102v28.513l-4.583 2.654v-28.835l1.225-.621z"/><path data-name="Path 5606" d="M63.114 147.268v5.347l-4.584 2.654v-28.836l1.225-.621a93.23 93.23 0 00.573 13.133 20.683 20.683 0 001.384 6.023 9.811 9.811 0 001.402 2.3z" opacity=".5" style="mix-blend-mode:multiply;isolation:isolate"/></g><path data-name="Path 5607" d="M63.114 124.102v.323a119.083 119.083 0 01-29.177.1l1.264-.427z" fill="#c7762f" opacity=".5" style="mix-blend-mode:multiply;isolation:isolate"/></g></g></g><g data-name="Group 496"><g data-name="Group 485"><g data-name="Group 484"><path data-name="Path 5608" d="M242.469 99.99a82.706 82.706 0 016.48 7.752 93.945 93.945 0 015.518 8.483 115.016 115.016 0 018.426 18.4 167.336 167.336 0 015.546 19.47q1.1 4.939 2 9.918a412.84 412.84 0 011.637 9.977l-.93.147c-.544-3.319-1.118-6.632-1.744-9.933s-1.27-6.6-2-9.876a174.306 174.306 0 00-5.392-19.389 118.052 118.052 0 00-8.057-18.421 94.277 94.277 0 00-5.28-8.573 82.537 82.537 0 00-6.204-7.955z" fill="#1c2540"/></g></g><g data-name="Group 487"><g data-name="Group 486"><path data-name="Path 5609" d="M261.156 76.658a238.923 238.923 0 018.565 22.86 98.266 98.266 0 011.586 5.9c.244.99.449 1.988.659 2.985.193 1 .358 2.006.539 3.009a112.906 112.906 0 011.327 12.151c.482 8.139.314 16.292.279 24.425-.012 4.067.007 8.132.15 12.19.161 4.057.456 8.1.946 12.127l-.935.115c-.456-4.062-.713-8.139-.835-12.215-.1-4.077-.084-8.152-.033-12.223.114-8.139.36-16.274-.043-24.393a112.445 112.445 0 00-1.205-12.119c-.17-1-.326-2-.507-3a100.964 100.964 0 00-2.155-8.881 238.713 238.713 0 00-8.338-22.931z" fill="#1c2540"/></g></g><g data-name="Group 489"><g data-name="Group 488"><path data-name="Path 5610" d="M299.39 101.501a101 101 0 00-21.7 70.029l-.939.065a101.462 101.462 0 0122.639-70.094z" fill="#1c2540"/></g></g><g data-name="Group 491"><g data-name="Group 490"><path data-name="Path 5611" d="M280.746 193.069h-15.883a2.911 2.911 0 01-2.9-2.637l-1.789-18.858h25.26l-1.789 18.858a2.912 2.912 0 01-2.899 2.637z" fill="#ff4846"/><path data-name="Path 5612" d="M284.905 177.159l.53-5.584h-25.26l.53 5.584z" fill="#871a1a" opacity=".5" style="mix-blend-mode:multiply;isolation:isolate"/><path data-name="Rectangle 182" fill="#ff4846" d="M258.606 167.809h28.398v5.177h-28.398z"/></g></g><g data-name="Group 493"><g data-name="Group 492"><path data-name="Path 5613" d="M302.678 105.633a20.081 20.081 0 01-3.607 4.172 35.594 35.594 0 00-1.86 2.025 38.036 38.036 0 00-5.769 9.126 37.362 37.362 0 00-2.462 7.53l-.127.617c-.692 3.527-.956 7.148-2 10.591a21.61 21.61 0 01-1.229 3.056c-1.313 2.689-3.428 5.642-5.844 5.01a3.017 3.017 0 01-.914-.4 5.019 5.019 0 01-1.516-1.535c-1.455-2.237-1.7-5.708-1.5-8.335.038-.518.094-1 .16-1.432a38.882 38.882 0 012.633-8.59c.476-1.187.971-2.373 1.432-3.565.862-2.223 1.639-4.483 2.467-6.721a63.4 63.4 0 012.91-6.866 30.6 30.6 0 013.137-4.973 19.7 19.7 0 016.607-5.6 8.657 8.657 0 013.946-1.06 4.514 4.514 0 013.593 1.7 5.031 5.031 0 01-.057 5.25z" fill="#80d4a9"/></g><path data-name="Path 5614" d="M302.678 105.633a20.081 20.081 0 01-3.607 4.172 35.594 35.594 0 00-1.86 2.025 24.44 24.44 0 00-1.507.8c-1.921 1.116-3.734 2.736-4.238 4.9a10.106 10.106 0 00-.024 3.428 37.362 37.362 0 00-2.462 7.53l-.127.617c-1.464 1.686-3.1 3.31-3.735 5.406a11.16 11.16 0 00-.037 5.114c.179 1.041.405 2.082.546 3.127-1.313 2.689-3.428 5.642-5.844 5.01a3.017 3.017 0 01-.914-.4 5.019 5.019 0 01-1.516-1.535c-1.455-2.237-1.7-5.708-1.5-8.335 1.041-1.121 2.35-2.044 3.028-3.41 1.017-2.039.363-4.314-.235-6.612.476-1.187.971-2.373 1.432-3.565.862-2.223 1.639-4.483 2.467-6.721 1.747-1.182 3.556-2.354 4.563-4.135 1.121-2 1.031-4.417 1.324-6.687.042-.339.1-.678.16-1.017a19.7 19.7 0 016.607-5.6 8.657 8.657 0 013.946-1.06 4.514 4.514 0 013.593 1.7 5.031 5.031 0 01-.06 5.248z" fill="#80d4a9" opacity=".19" style="mix-blend-mode:screen;isolation:isolate"/></g><g data-name="Group 494" fill="#80d4a9"><path data-name="Path 5615" d="M278.618 115.749a77.02 77.02 0 00.438 8.265c.028.523.052 1.045.052 1.568v.005a15 15 0 01-1.2 6.541c-1.2 2.548-4.714 6.085-7.389 3.546a9.163 9.163 0 01-2.218-3.451 19.032 19.032 0 01-1.022-7.205c.1-3.137.64-6.287.6-9.409a19.536 19.536 0 00-.217-2.816 18.879 18.879 0 00-.772-3.117c-1.86-5.5-5.953-10.242-8.288-15.667a26.627 26.627 0 01-1.271-3.654 27.952 27.952 0 01-.551-12.056c.1-.556.212-1.107.344-1.653.579-2.4 1.879-5.062 4.233-5.618a2.583 2.583 0 01.278-.056c2.6-.415 4.78 1.907 6.254 4.092a85.838 85.838 0 014.681 7.93c.64 1.191 1.262 2.388 1.884 3.584a57.321 57.321 0 014.945 11.561 22.211 22.211 0 01.787 6.131v.132c-.103 3.821-1.37 7.532-1.568 11.347z"/><path data-name="Path 5616" d="M278.783 124.366q.169.6.325 1.215v.005a15 15 0 01-1.2 6.541c-1.2 2.548-4.714 6.085-7.389 3.546a9.163 9.163 0 01-2.218-3.451 3.177 3.177 0 001.912-.848 5.366 5.366 0 001.488-3.391c.457-4.346-2.3-8.226-3.824-12.376a19.536 19.536 0 00-.217-2.816 18.879 18.879 0 00-.772-3.117c.061-4.05 1.064-8.255-1-11.655-2-3.3-6.259-4.6-8.561-7.666a27.952 27.952 0 01-.551-12.056q.142-.424.3-.834a16.438 16.438 0 012.585-4.884 8.445 8.445 0 011.7-1.554 2.583 2.583 0 01.278-.056c2.6-.415 4.78 1.907 6.254 4.092a85.838 85.838 0 014.681 7.93c.014.513.024 1.027.043 1.535.1 3.155.48 6.48 2.35 9.023a45.561 45.561 0 003.814 3.871c.217.226.424.466.622.716a22.211 22.211 0 01.787 6.131c-.335.65-.744 1.276-1.107 1.907a17.18 17.18 0 00-2.228 9.838 43.836 43.836 0 001.928 8.354z" opacity=".19" style="mix-blend-mode:screen;isolation:isolate"/></g><g data-name="Group 495" fill="#80d4a9"><path data-name="Path 5617" d="M270.174 139.422q-.021.389-.056.777c-.193 2.138-.645 7.139-3.4 7.63-1.949.344-4.785-3.08-6.339-4.158-.871-.6-1.766-1.206-2.618-1.851a14.131 14.131 0 01-3.56-3.612 12.587 12.587 0 01-1.652-4.337c-.5-2.439-.589-5.044-1.046-7.5a24.832 24.832 0 00-.824-3.231 37.887 37.887 0 00-5.877-10.732h-.005a85.808 85.808 0 00-3.857-4.771 48.242 48.242 0 01-1.379-1.653c-1.563-1.987-2.882-4.191-2.642-6.635.315-3.164 3.433-5.589 6.612-5.736a10.659 10.659 0 018.293 4.018 16.408 16.408 0 011.582 2.2 30.421 30.421 0 012.722 6.249c.509 1.54.965 3.1 1.474 4.639a36.689 36.689 0 001.7 4.351 34.15 34.15 0 002.388 4.125c1.808 2.736 3.856 5.335 5.477 8.157a25.186 25.186 0 011.615 3.3 20.815 20.815 0 011.392 8.77z"/><path data-name="Path 5618" d="M270.174 139.421q-.021.389-.056.777c-.193 2.138-.645 7.139-3.4 7.63-1.949.344-4.785-3.08-6.339-4.158-.871-.6-1.766-1.206-2.618-1.851.33-1.625.631-3.348-.132-4.79-.946-1.794-3.094-2.4-5.081-3.16-.5-2.439-.589-5.044-1.046-7.5a24.837 24.837 0 00-.824-3.231 19.5 19.5 0 001.441-3.367c.7-2.359.4-5.293-1.611-6.715-1.469-1.041-3.437-1-5.218-.73-.16.023-.325.052-.489.08h-.005a86.178 86.178 0 00-3.857-4.771 48.242 48.242 0 01-1.379-1.653 30.906 30.906 0 018.08-4.582 30.241 30.241 0 015.52-1.531l.244-.042a30.416 30.416 0 012.722 6.249c.509 1.54.965 3.1 1.474 4.639a14.967 14.967 0 00-.6 1.6c-.622 2.039-.457 4.582 1.234 5.877a6.1 6.1 0 003.457 1c1.808 2.736 3.856 5.335 5.477 8.157-.514 1.149-1.13 2.256-1.592 3.428-.688 1.761-.975 3.861.023 5.463.982 1.57 2.923 2.254 4.575 3.181z" opacity=".19" style="mix-blend-mode:screen;isolation:isolate"/></g></g><g data-name="Group 511"><g data-name="Group 509"><g data-name="Group 499"><g data-name="Group 497"><path data-name="Path 5619" d="M61.246 59.216v1.45h-1.295v-1.411a6.136 6.136 0 01-3.224-1.036l.712-1.579a5.235 5.235 0 002.512.919v-2.158c-1.437-.35-3.043-.829-3.043-2.681 0-1.372 1-2.551 3.043-2.783V48.5h1.295v1.401a5.856 5.856 0 012.628.79l-.647 1.593a5.29 5.29 0 00-1.981-.674v2.2c1.438.337 3.017.816 3.017 2.641 0 1.35-.984 2.519-3.017 2.765zm-1.295-5.723v-1.839c-.686.155-.958.531-.958.958 0 .453.388.7.958.881zm2.227 3.12c0-.452-.376-.7-.932-.892v1.786c.648-.143.932-.48.932-.894z" fill="#fff"/></g><g data-name="Group 498"><path data-name="Path 5620" d="M55.588 50.498v.713h-.636v-.693a3.014 3.014 0 01-1.584-.509l.35-.776a2.566 2.566 0 001.234.452v-1.062c-.706-.172-1.5-.408-1.5-1.317 0-.674.49-1.253 1.5-1.368v-.706h.636v.693a2.881 2.881 0 011.292.388l-.318.782a2.606 2.606 0 00-.974-.331v1.076c.706.166 1.482.4 1.482 1.3 0 .664-.483 1.237-1.482 1.358zm-.636-2.812v-.9c-.337.076-.471.26-.471.471s.191.339.471.429zm1.094 1.533c0-.223-.184-.344-.458-.439v.878c.318-.07.458-.236.458-.439z" fill="#fff"/></g></g><g data-name="Group 500"><path data-name="Path 5621" d="M130.988 19.802c0 2.871-3.893 8.816-5.848 11.621a1.332 1.332 0 01-2.187 0c-1.955-2.8-5.849-8.75-5.849-11.621a6.942 6.942 0 0113.884 0z" fill="#d6edf1"/><path data-name="Path 5622" d="M126.932 19.802a2.886 2.886 0 11-2.886-2.885 2.886 2.886 0 012.886 2.885z" fill="#fff"/></g><g data-name="Group 501" fill="#f5ad49"><path data-name="Path 5623" d="M217.07 16.543l1.479 3 3.307.48-2.393 2.332.565 3.293-2.958-1.555-2.958 1.555.565-3.293-2.393-2.332 3.307-.48z"/><path data-name="Path 5624" d="M228.315 16.543l1.479 3 3.307.48-2.393 2.332.565 3.293-2.958-1.555-2.958 1.555.565-3.293-2.393-2.332 3.307-.48z"/><path data-name="Path 5625" d="M239.561 16.543l1.479 3 3.307.48-2.393 2.332.565 3.293-2.958-1.555-2.958 1.555.565-3.293-2.393-2.332 3.307-.48z"/><path data-name="Path 5626" d="M250.805 16.543l1.479 3 3.307.48-2.393 2.332.565 3.293-2.958-1.554-2.958 1.555.565-3.293-2.393-2.332 3.307-.48z"/><path data-name="Path 5627" d="M262.052 16.543l1.479 3 3.307.48-2.393 2.332.565 3.293-2.958-1.554-2.958 1.555.565-3.293-2.393-2.332 3.307-.48z"/></g><g data-name="Group 503"><path data-name="Path 5628" d="M21.089 14.465H1.594a.789.789 0 00-.789.789v12.332a.79.79 0 00.789.789h13.118l6.231 2.486a.68.68 0 00.932-.632V15.253a.789.789 0 00-.786-.788z" fill="#f5ad49"/><g data-name="Group 502" fill="#fff"><path data-name="Path 5629" d="M6.464 21.372a.919.919 0 11-.919-.919.919.919 0 01.919.919z"/><path data-name="Path 5630" d="M12.262 21.372a.919.919 0 11-.919-.919.919.919 0 01.919.919z"/><path data-name="Path 5631" d="M18.06 21.372a.919.919 0 11-.919-.919.919.919 0 01.919.919z"/></g></g><g data-name="Group 506"><g data-name="Group 504"><path data-name="Path 5632" d="M83.842 0h-14.8a.789.789 0 00-.789.789v12.332a.789.789 0 00.789.789h8.429l6.231 2.487a.681.681 0 00.933-.632V.789A.789.789 0 0083.842 0z" fill="#ff4846"/></g><g data-name="Group 505"><path data-name="Path 5633" d="M73.058 5.51a1.434 1.434 0 111.43 1.587 1.432 1.432 0 01-1.43-1.587zm2.031 0c0-.617-.238-.912-.6-.912s-.6.3-.6.912.246.913.6.913.6-.297.6-.913zm2.829-1.521h.978l-3.93 5.756h-.979zm-.946 4.235a1.434 1.434 0 111.422 1.587 1.43 1.43 0 01-1.422-1.588zm2.022 0c0-.609-.238-.913-.6-.913s-.6.3-.6.913.246.912.6.912.6-.304.6-.913z" fill="#fff"/></g></g><g data-name="Group 508"><path data-name="Path 5634" d="M28.28 79.666c-2.682 8.109-.618 17.368 4.4 24.278s12.71 11.591 20.9 14.029 16.871 2.769 25.391 2.181c11.986-.828 23.77-3.426 35.66-5.145s24.125-2.545 35.832.15 22.933 9.309 29.008 19.674" fill="none" stroke="#fff" stroke-miterlimit="10" stroke-dasharray="9"/><g data-name="Group 507"><path data-name="Path 5635" d="M45.811 71.361l-18.037 5.971-4.355-4.379z" fill="#80c8d4" opacity=".5" style="mix-blend-mode:multiply;isolation:isolate"/><path data-name="Path 5636" d="M29.306 79.245l-1.735 1.951 2.944-.957z" fill="#577bb5"/><path data-name="Path 5637" d="M29.306 79.245l4.879 6.832s11.659-14.8 11.626-14.716-16.505 7.884-16.505 7.884z" fill="#80c8d4" opacity=".5" style="mix-blend-mode:multiply;isolation:isolate"/><path data-name="Path 5638" d="M27.571 81.196l.2-3.863 18.037-5.971-16.505 7.884z" fill="#4e6fa3"/></g></g></g><g data-name="Group 510" transform="translate(5.055 1.686)"><path data-name="Path 5639" d="M9.447 60.969a3.158 3.158 0 11-3.158-3.158 3.158 3.158 0 013.158 3.158z" fill="#d6edf1"/><circle data-name="Ellipse 13" cx="2.219" cy="2.219" r="2.219" transform="translate(0 68.749)" fill="#d6edf1"/><path data-name="Path 5640" d="M49.646 67.91a2.583 2.583 0 11-2.583-2.583 2.583 2.583 0 012.583 2.583z" fill="#fff"/><path data-name="Path 5641" d="M55.767 79.04a2.007 2.007 0 11-2.007-2.007 2.007 2.007 0 012.007 2.007z" fill="#fff"/><path data-name="Path 5642" d="M154.936 85.765a.879.879 0 11-.878-.878.879.879 0 01.878.878z" fill="#fff"/><path data-name="Path 5643" d="M23.672 109.896a1.45 1.45 0 11-1.45-1.45 1.45 1.45 0 011.45 1.45z" fill="#fff"/><circle data-name="Ellipse 14" cx="1.332" cy="1.332" r="1.332" transform="translate(125.475 140.798)" fill="#fff"/><path data-name="Path 5644" d="M277.765 33.091a1.312 1.312 0 11-1.312-1.311 1.312 1.312 0 011.312 1.311z" fill="#d6edf1"/><circle data-name="Ellipse 15" cx="1.443" cy="1.443" r="1.443" transform="translate(279.062 70.131)" fill="#fff"/><path data-name="Path 5645" d="M288.836 48.762a1.62 1.62 0 11-1.62-1.62 1.62 1.62 0 011.62 1.62z" fill="#d6edf1"/><circle data-name="Ellipse 16" cx="1.396" cy="1.396" r="1.396" transform="translate(158.886)" fill="#d6edf1"/><path data-name="Path 5646" d="M56.899 3.793a1 1 0 11-1-1 1 1 0 011 1z" fill="#d6edf1"/></g></g><g data-name="Group 560" transform="translate(133.497 21.095)"><ellipse data-name="Ellipse 17" cx="32.644" cy="2.757" rx="32.644" ry="2.757" transform="translate(24.737 171.839)" opacity=".5" fill="url(#a)" style="mix-blend-mode:multiply;isolation:isolate"/><g data-name="Group 559"><g data-name="Group 520"><g data-name="Group 515"><g data-name="Group 513"><g data-name="Group 512"><path data-name="Path 5647" d="M51.075 121.238a151.768 151.768 0 01.25 18.088c-.876 18.46-5.006 29.009-5.006 29.009l-6.207-.141-3.889-56.215-.438-6.329c1.286-.113 2.567-.24 3.824-.353 5-.438 9.974-1.1 14.933-1.851a169.9 169.9 0 01-3.467 17.792z" fill="#c7683c"/></g><path data-name="Path 5648" d="M51.075 121.238a151.768 151.768 0 01.25 18.088l-1.386-14.847a13.776 13.776 0 00-13.716-12.5l-.438-6.329c1.286-.113 2.567-.24 3.824-.353 5-.438 9.974-1.1 14.933-1.851a169.9 169.9 0 01-3.467 17.792z" fill="#c7683c" opacity=".5" style="mix-blend-mode:multiply;isolation:isolate"/></g><g data-name="Group 514"><path data-name="Path 5649" d="M47.087 168.052s1.2 3.664.443 5.7H31.58s-1.045-2.934 3.485-2.614l4.568-2.8-.56-9.338a3.264 3.264 0 014.488.72l5.571.48z" fill="#e6e6e6"/><path data-name="Path 5650" d="M43.56 159.717s-1.121 7.653-1.46 8.618-2.025 3.485-3.867 3.5a7.077 7.077 0 01-3.169-.7l4.568-2.8-.56-9.338a3.264 3.264 0 014.488.72z" fill="#a9c0c4"/></g></g><g data-name="Group 519"><g data-name="Group 517"><g data-name="Group 516"><path data-name="Path 5651" d="M64.146 101.799a172.4 172.4 0 01-7.617 1.345c-2.995.465-6 .905-9 1.292 6.685 19.4 15.653 42.935 23.627 58.869 2.505.8 3.955-1.575 6.051-2.011-.408-14.832-6.219-30.093-11.682-43.6-.282-4.634-.676-10.131-1.379-15.895z" fill="#d4774c"/></g></g><g data-name="Group 518"><path data-name="Path 5652" d="M78.373 160.827s2.641 2.809 2.817 4.973l-14.447 6.764s-2.19-2.214 2.048-3.845l2.949-4.474-4.467-8.22a3.263 3.263 0 014.37-1.25l5.249-1.927z" fill="#e6e6e6"/><path data-name="Path 5653" d="M71.644 154.773s2.229 7.406 2.332 8.424-.356 4.014-2.016 4.812a7.073 7.073 0 01-3.17.708l2.949-4.474-4.467-8.22a3.263 3.263 0 014.372-1.25z" fill="#a9c0c4"/></g></g></g><g data-name="Group 541"><g data-name="Group 525"><g data-name="Group 524"><g data-name="Group 523"><g data-name="Group 522"><g data-name="Group 521"><path data-name="Path 5654" d="M71.493 83.856c-1.606.5-3.132 1.192-4.756 1.6-3.052-8.787-6.273-18.257-10.256-26.249a201.35 201.35 0 00-2.666-5.157 266.228 266.228 0 00-3.668-6.635c2.6-1.055 5.157-2.242 7.709-3.423l2.548-1.173c.96 2.133 1.822 4.3 2.613 6.484.654 1.8 1.262 3.612 1.832 5.411a206.368 206.368 0 016.644 29.142z" fill="#d4774c"/></g><path data-name="Path 5655" d="M68.629 81.237a7.767 7.767 0 012.346 1.622c1.208 1.182 1.357 3.556 2.058 4.589s1.363 1.889 1.125 2.176-.657-.122-1.9-1.641c0 0-.779-.585-.425.3s1.721 2.706 1.3 3.164c-.345.372-2.114-2.485-2.324-2.529s1.435 3.749.75 4.28-1.384-4.026-1.887-4.081.369 3.165-.078 3.329c-.977.358-1.3-4.925-1.732-4.815s-.773 2.07-1.365 1.954.178-2.12.145-2.523-.884-5.064 1.987-5.825z" fill="#d4774c"/></g><path data-name="Path 5656" d="M63.016 49.3l-9.2 4.747a266.228 266.228 0 00-3.668-6.635c2.6-1.055 5.157-2.242 7.709-3.423l2.548-1.173a94.464 94.464 0 012.611 6.484z" fill="#bf6237"/></g><path data-name="Path 5657" d="M62.31 45.372s-7.455 5.11-10.822 5.349L42.126 33.65a14.748 14.748 0 01.075-2.251 5.659 5.659 0 019.187-3.8l.1.085a16.971 16.971 0 012.581 3.178c2.59 3.81 5.726 9.654 7.276 12.626.602 1.164.965 1.884.965 1.884z" fill="#d99434"/></g><path data-name="Path 5658" d="M62.31 45.372s-7.455 5.11-10.822 5.349L42.126 33.65a14.748 14.748 0 01.075-2.251 5.659 5.659 0 019.187-3.8l.1.085a16.971 16.971 0 012.581 3.178l-.933 10.855a4.427 4.427 0 00.278 2.529 3.327 3.327 0 002.844 1.464 6.483 6.483 0 005.086-2.222c.603 1.164.966 1.884.966 1.884z" fill="#d99434" opacity=".5" style="mix-blend-mode:multiply;isolation:isolate"/></g><g data-name="Group 530"><g data-name="Group 526"><path data-name="Path 5659" d="M46.019 24.79V14.112h-7.1v11.213a8.627 8.627 0 00-4.271 3.384c-.576.878-1.108 1.617-1.585 2.3a17.915 17.915 0 002.062.843c.258-.03.5-.059.713-.081a18.327 18.327 0 006.028-1.54 11.19 11.19 0 003.9-2.816 2.087 2.087 0 01.07-.305 11.64 11.64 0 011.029-2.236l-.846-.084z" fill="#d4774c"/><path data-name="Path 5660" d="M45.913 16.75a11.8 11.8 0 01-2.425 4.243 7.857 7.857 0 01-2.971 1.921 6.422 6.422 0 01-1.6.339v-1.865a5.869 5.869 0 002.4-.339 7.88 7.88 0 002.976-1.917 8.91 8.91 0 001.62-2.382z" fill="#bf6237"/></g><g data-name="Group 529"><path data-name="Path 5661" d="M67.755 104.535c-.494.127-1.37.329-2.528.589-6.226 1.375-20.641 4.266-28.392 4.657-.928.047-1.766.061-2.477.029l-.72-52.174s-.706-4.285-1.441-8.7c-.711-4.233-1.45-8.585-1.624-9.395-.363-1.653-.692-2.708 2.194-8.42s6.193-5.82 6.193-5.82c-2.505.509-5.223 5-5.223 5s5.793-1.6 7.94-3.843a5.592 5.592 0 014.747-1.771 6.607 6.607 0 014.5 3.033 8.735 8.735 0 011.182 6.324 71.72 71.72 0 00-.885 9.093c-.244 5.2-.164 9.9-.164 9.9 8.646 8.505 6.988 21.875 6.988 21.875z" fill="#f5ad49"/><g data-name="Group 528"><g data-name="Group 527"><path data-name="Path 5662" d="M45.471 43.653c-.385 2.672-.713 5.353-.913 8.042a55.555 55.555 0 00-.176 4.035c0 .336 0 .672.017 1.007s.022.67.058 1l.044.5c.022.166.054.33.08.5.057.33.106.66.169.99 1.07 5.284 2.291 10.547 3.51 15.8l3.634 15.785 1.808 7.895 1.775 7.9c-1.359-5.227-2.656-10.469-3.936-15.715s-2.511-10.5-3.741-15.763l-1.769-7.906c-.566-2.641-1.165-5.273-1.636-7.939-.059-.334-.1-.672-.156-1.009-.024-.168-.054-.336-.073-.5l-.036-.511c-.031-.34-.038-.679-.042-1.019s-.01-.679 0-1.018c.024-1.355.113-2.706.244-4.051.275-2.687.649-5.364 1.139-8.023z" fill="#c2612d"/></g></g><path data-name="Path 5663" d="M49.045 35.126l-5.524 16.935a56.309 56.309 0 00-7.653 30.333l.967 27.386c-.928.047-1.766.061-2.477.029l-.72-52.174s-.706-4.285-1.441-8.7l14.665-15.988z" fill="#f5ad49" opacity=".5" style="mix-blend-mode:screen;isolation:isolate"/><path data-name="Path 5664" d="M67.756 104.535c-.494.127-1.37.329-2.528.589l-9.75-30.478c2.124-9.442-6.433-20.118-6.433-20.118l2.175-11.392c-.244 5.2-.164 9.9-.164 9.9 8.646 8.505 6.988 21.875 6.988 21.875z" fill="#f5ad49" opacity=".5" style="mix-blend-mode:multiply;isolation:isolate"/></g></g><g data-name="Group 540"><g data-name="Group 534"><g data-name="Group 532"><g data-name="Group 531"><path data-name="Path 5665" d="M5.364 43.43a9.31 9.31 0 00-3.815-.66c.15-4.34.332-8.6.911-12.932 1.974.268 3.931.647 5.911.878-.648 4.61-.786 8.519-3.007 12.714z" fill="#f7f7f7"/><path data-name="Path 5666" d="M2.21 41.571c-.343-3.453.463-6.988.774-10.427a.548.548 0 00.6-.459c1.164.191 2.324.394 3.492.557a.554.554 0 00.461.6c-.338 3.513-.372 7.07-2.111 10.239a.593.593 0 00-.692.295 3.7 3.7 0 00-2.1-.3c-.016-.277-.134-.479-.424-.505z" fill="#e8f9f0"/></g></g><g data-name="Group 533"><path data-name="Path 5667" d="M42.861 47.629a76.52 76.52 0 01-3.037 3.937c-.075.1-.16.2-.24.3-1.017 1.233-2.774 3.169-4.318 4.836a6.24 6.24 0 01-7.158 1.455 234.72 234.72 0 01-4.545-2.1 102.045 102.045 0 01-9.1-5.171c-2.981-1.855-5.938-3.791-8.985-5.623-.871-.495-2.119-1.3-2.119-1.3a1.175 1.175 0 01-.923-1.135c-.7-.033-.678-.781-.678-.781a.855.855 0 01-.537-1.234s1.2.475 1.239.334-3.089-2.1-2.341-2.368 4.092 1.714 5.359 1.817a1.337 1.337 0 001.484-1.055l.273-1.031a2.485 2.485 0 01.7.871 7.51 7.51 0 01-.132 2.171c6.724 2.623 13.807 5.4 20.664 7.482.867-1.3 1.686-2.576 2.487-3.828 1.073-1.681 2.1-3.339 3.151-5.02.9.862 1.836 1.7 2.778 2.524q2.915 2.548 5.978 4.919z" fill="#d4774c"/><path data-name="Path 5668" d="M42.861 47.629a76.52 76.52 0 01-3.037 3.937c-4.111-.914-7.181-4.144-8.872-6.362 1.073-1.681 2.1-3.339 3.151-5.02.9.862 1.836 1.7 2.778 2.524q2.917 2.55 5.98 4.921z" fill="#bf6237"/></g></g><g data-name="Group 539"><path data-name="Path 5669" d="M32.132 41.977L41.45 28.36s7.381-3.366 9.191 4.99l-8.516 15.995a15.5 15.5 0 01-9.993-7.368z" fill="#f5ad49"/><g data-name="Group 538"><g data-name="Group 537"><g data-name="Group 535"><path data-name="Path 5670" d="M32.577 42.628a26.158 26.158 0 01-.491-.62l-.022-.028.022-.036c.589-.962 1.221-1.893 1.84-2.834s1.275-1.855 1.931-2.77 1.316-1.826 2.006-2.717 1.372-1.786 2.1-2.65a69.11 69.11 0 01-1.816 2.852 125.747 125.747 0 01-3.894 5.517c-.673.904-1.359 1.8-2.075 2.667v-.064c.141.225.269.45.399.683z" fill="#c2612d"/></g><g data-name="Group 536"><path data-name="Path 5671" d="M41.592 49.34c.283.13.569.258.849.395l-.072.023c.575-1.327 1.2-2.631 1.8-3.941q.933-1.954 1.9-3.891c.65-1.289 1.3-2.577 1.985-3.849s1.362-2.547 2.089-3.8c-.562 1.333-1.164 2.645-1.776 3.953s-1.242 2.608-1.88 3.9-1.3 2.579-1.963 3.86c-.682 1.273-1.35 2.553-2.064 3.81l-.028.049-.044-.026a24.087 24.087 0 01-.796-.483z" fill="#c2612d"/></g></g></g></g></g></g><g data-name="Group 558"><g data-name="Group 556"><path data-name="Path 5672" d="M30.475 13.189a5.79 5.79 0 01.985-1.73 5.594 5.594 0 00.634-1.082 25.613 25.613 0 011.454-7.06c.688-1.359 4.4-2.583 8.049-1.9 3.654.66 6.68 3.13 6.84 4.646.06.576.333 2.876-1.616 8.53a12.323 12.323 0 01-2.53 4.536 7.914 7.914 0 01-2.972 1.92 5.439 5.439 0 01-3.029.246l-.7-.129a5.7 5.7 0 01-3.265-1.8A8.37 8.37 0 0132.755 17a8.71 8.71 0 01-.633-2.466 2.277 2.277 0 01-1.389-.491.826.826 0 01-.258-.854z" fill="#d4774c"/><g data-name="Group 555" transform="translate(32.577 8.005)"><g data-name="Group 554"><g data-name="Group 544"><g data-name="Group 542"><path data-name="Path 5673" d="M11.6 4.985a2.1 2.1 0 00.121-.708 1.58 1.58 0 00-.078-.665.649.649 0 00-1-.2 2.485 2.485 0 00-.887 1 4.8 4.8 0 00-.285 1.391 3.079 3.079 0 01.025-1.492 2.38 2.38 0 01.963-1.2 1.159 1.159 0 01.82-.164.805.805 0 01.625.574 1.564 1.564 0 01-.012.78 1.766 1.766 0 01-.292.684z" fill="#bf6237"/></g><g data-name="Group 543"><path data-name="Path 5674" d="M10.382 5.945a1.845 1.845 0 00.186-.608 2.916 2.916 0 00.017-.606 1.065 1.065 0 00-.154-.526.617.617 0 00-.5-.276.577.577 0 01.7.086 1.017 1.017 0 01.307.69 1.65 1.65 0 01-.1.707.98.98 0 01-.456.533z" fill="#bf6237"/></g></g><g data-name="Group 547"><g data-name="Group 545"><path data-name="Path 5675" d="M2.502 7.719a1.036 1.036 0 01-.448.391 1.022 1.022 0 01-.588.092c.176-.106.348-.165.512-.253.174-.071.331-.163.524-.23z" fill="#bf6237"/></g><g data-name="Group 546"><path data-name="Path 5676" d="M2.966 6.189a2.5 2.5 0 01-1.171 1.38 2.369 2.369 0 01-.883.294A2.18 2.18 0 010 7.795a4.93 4.93 0 001.622-.537 5.871 5.871 0 001.344-1.069z" fill="#bf6237"/></g></g><g data-name="Group 549"><g data-name="Group 548"><path data-name="Path 5677" d="M1.051 6.115a.4.4 0 01-.159.288.391.391 0 01-.328.024.309.309 0 01.487-.312z" fill="#bf6237"/></g></g><g data-name="Group 551"><g data-name="Group 550"><path data-name="Path 5678" d="M1.532 3.472c0 .511.309.925.691.925s.692-.415.692-.925-.31-.926-.692-.926-.691.415-.691.926z" fill="#5e2b13"/><path data-name="Path 5679" d="M1.16 2.454s.077.352 1.037.371" fill="none" stroke="#5e2b13" stroke-linecap="round" stroke-linejoin="round" stroke-width=".871"/></g></g><g data-name="Group 553"><g data-name="Group 552" fill="#5e2b13"><path data-name="Path 5680" d="M1.25.779a6.387 6.387 0 01.771-.027 5.772 5.772 0 01.791.067 4.788 4.788 0 01.78.191 6.743 6.743 0 01.763.312l.012.005a.18.18 0 00.2-.3 3.583 3.583 0 00-.741-.538 3.716 3.716 0 00-.86-.349 3.639 3.639 0 00-.924-.143 3.168 3.168 0 00-.951.113.342.342 0 00.124.669z"/><path data-name="Path 5681" d="M.64.182a.415.415 0 00.116.393.824.824 0 00.357.2h.01a.183.183 0 10.04-.356.56.56 0 01-.262-.032.243.243 0 01-.1-.072A.254.254 0 01.75.198V.186A.056.056 0 00.685.139.056.056 0 00.64.182z"/></g></g></g><circle data-name="Ellipse 18" cx="3.167" cy="3.167" r="3.167" transform="translate(3.215 5.693)" fill="#d46c46"/></g></g><g data-name="Group 557" fill="#1a223b"><path data-name="Path 5682" d="M37.592 21.166a5.7 5.7 0 01-3.263-1.8 7.87 7.87 0 01-1.215-1.663 36.34 36.34 0 003.551 8.552 4.964 4.964 0 012.256-.951v-3.918a3.391 3.391 0 01-.631-.094z"/><path data-name="Path 5683" d="M55.982 25.505c-1.823-2.082-4.008-3.979-5.02-6.555-1.5-3.824-.09-8.26-1.286-12.187a9.663 9.663 0 00-6.061-6.24A11.166 11.166 0 0037.87.25a7.616 7.616 0 00-4.71 2.642 9.242 9.242 0 00-1.333 5.674c.01.72.038 1.446.094 2.166a2.648 2.648 0 00.169-.353 33.971 33.971 0 01.509-3.654 8.73 8.73 0 006.547-.788 4.978 4.978 0 001.816 6.184 5.974 5.974 0 011.715-1.526 1.958 1.958 0 012.116.322 1.907 1.907 0 01.2 2.083 4.654 4.654 0 01-1.484 1.626 4.983 4.983 0 001.125 2.73 4.856 4.856 0 001.377 1.137v6.153a3.057 3.057 0 01.4.038 6.465 6.465 0 013.895 2.223 5.567 5.567 0 011.073.7l.1.085c1.432 1.205 3.659 4.681 5.717 8.241a5.929 5.929 0 001.635-2.943c.574-2.715-1.022-5.399-2.849-7.485z"/></g></g></g></g><g data-name="Group 598"><path data-name="Path 5684" d="M303.613 404.647c0 1.523-14.615 2.757-32.644 2.757s-32.644-1.234-32.644-2.757 14.615-2.757 32.644-2.757 32.644 1.234 32.644 2.757z" transform="translate(-170.657 -209.648)" opacity=".5" fill="url(#c)" style="mix-blend-mode:multiply;isolation:isolate"/><g data-name="Group 597"><g data-name="Group 566"><g data-name="Group 563"><g data-name="Group 561" fill="#1c2540"><path data-name="Path 5685" d="M121.502 188.486h-10.911l-20.819-60.97.961-38.441 13.186-4.149 4.394 25.887z"/><path data-name="Path 5686" d="M113.435 188.486h-2.844l-20.82-60.97.961-38.441 13.186-4.149 4.394 25.886a79.434 79.434 0 00-2.415 52.637z" opacity=".5" style="mix-blend-mode:multiply;isolation:isolate"/></g><g data-name="Group 562"><path data-name="Path 5687" d="M111.374 189.287a5.77 5.77 0 000 5.348h17.524s.571-.989 0-1.5-6.369-.67-8.956-4.648h-8.688z" fill="#e6e6e6"/><path data-name="Rectangle 183" fill="#a9c0c4" d="M111.084 194.296h18.069v.701h-18.069z"/></g></g><g data-name="Group 565"><path data-name="Path 5688" d="M80.052 86.005s-1.844 7.245-.5 12.82l.441 43.72-3.307 45.942h10.279l13.885-88.955 3.068-14.608z" fill="#28365d"/><g data-name="Group 564"><path data-name="Path 5689" d="M77.647 189.287a5.77 5.77 0 000 5.348h17.524s.571-.989 0-1.5-6.369-.67-8.956-4.648h-8.689z" fill="#e6e6e6"/><path data-name="Rectangle 184" fill="#a9c0c4" d="M77.357 194.296h18.069v.701H77.357z"/></g></g></g><g data-name="Group 583"><g data-name="Group 570"><g data-name="Group 567"><path data-name="Path 5690" d="M92.101 50.028c1.837 1.548 4.325 3.714 6.8 4.078a3.334 3.334 0 002.975-.907c.063-.168.13-.336.194-.5-.342-.515-.7-1.063-1.081-1.673-1.016-1.636-1.857-2.911-3.214-3.65V35.928h-6.78v10.623c-.639.037-1.32.1-2.035.187a22.083 22.083 0 003.141 3.29z" fill="#ebaf7f"/><path data-name="Path 5691" d="M97.772 43.205v1.9a5.972 5.972 0 01-.758-.217 7.962 7.962 0 01-4.2-3.551 7.648 7.648 0 002.557 1.526 5.893 5.893 0 002.401.342z" fill="#e48855"/></g><g data-name="Group 569"><path data-name="Path 5692" d="M104.812 78.674c-.311 4.38-.574 7.672-.574 7.672s-2.421.5-6.075.862c-.16.014-.32.033-.485.047-4.922.457-11.858.631-18.126-.908l3.245-13.586 1.069-9.729 1.738-15.842a14.38 14.38 0 015.392-.688s5.251 4.281 6.758 3.918h.019a.823.823 0 00.433-.259c.457-.513.123-1.554-.155-2.208-.146-.339-.278-.575-.278-.575a2.31 2.31 0 01.24.066 3.475 3.475 0 011.342.659 107.781 107.781 0 016.207 9.07c.578 1.096-.166 13.232-.75 21.501z" fill="#ff4846"/><path data-name="Path 5693" d="M90.784 46.688s-.361-3.236.03-3.266 5.771 2.219 6.162 3.029a28.359 28.359 0 01.967 3.9s-1.649 1.196-7.159-3.663z" fill="#ff814f"/><path data-name="Path 5694" d="M97.942 50.347l-.209-4.05.038-1.19a5.954 5.954 0 011.969 1.04c.391.511.261 2.772.261 2.772a1.959 1.959 0 01-2.059 1.428z" fill="#ff814f"/><g data-name="Group 568"><path data-name="Path 5695" d="M98.163 87.208c-.16.014-.321.033-.485.047 1.681-9.075.579-29.187.076-36.835h.019a.823.823 0 00.433-.259c.494 7.436 1.629 27.751-.043 37.047z" fill="#ff814f"/></g><path data-name="Path 5696" d="M104.812 78.675c-.311 4.38-.574 7.672-.574 7.672s-2.421.5-6.075.862c-.16.014-.32.033-.485.047-4.922.457-11.858.631-18.126-.908l3.245-13.586 1.069-9.729a15.476 15.476 0 014.172-.885 17.293 17.293 0 0016.774 16.529z" fill="#871a1a" opacity=".5" style="mix-blend-mode:multiply;isolation:isolate"/></g></g><g data-name="Group 582"><g data-name="Group 575"><path data-name="Path 5697" d="M131.992 71.544v2.332H97.168l5.649-1.9 1.263-.427z" fill="#c7762f"/><g data-name="Group 573"><path data-name="Rectangle 185" fill="#f5ad49" d="M97.168 73.875h30.241v28.835H97.168z"/><g data-name="Group 572"><g data-name="Group 571" fill="#c7762f"><path data-name="Rectangle 186" d="M98.534 98.166h12.708v1.769H98.534z"/><path data-name="Rectangle 187" d="M98.534 96.115h8.526v1.287h-8.526z"/></g></g><path data-name="Path 5698" d="M125.076 78.038a2.313 2.313 0 11-2.313-2.313 2.313 2.313 0 012.313 2.313z" fill="#c7762f"/><path data-name="Rectangle 188" fill="#f5ad49" opacity=".5" style="mix-blend-mode:screen;isolation:isolate" d="M98.534 102.71h-1.366V73.875h1.366z"/></g><g data-name="Group 574" fill="#e38c3b"><path data-name="Path 5699" d="M131.992 71.544v28.513l-4.583 2.654V73.875l1.225-.621z"/><path data-name="Path 5700" d="M131.992 94.71v5.349l-4.583 2.654V73.875l1.224-.621a93.3 93.3 0 00.573 13.133 20.737 20.737 0 001.384 6.024 9.831 9.831 0 001.402 2.299z" opacity=".5" style="mix-blend-mode:multiply;isolation:isolate"/></g><path data-name="Path 5701" d="M131.992 71.544v.322a119.12 119.12 0 01-29.176.1l1.263-.427z" fill="#c7762f" opacity=".5" style="mix-blend-mode:multiply;isolation:isolate"/></g><g data-name="Group 581"><path data-name="Path 5702" d="M102.148 99.974s2.373.178 2.514-.162-2.219-1.1-2.219-1.1l-2.048-1.352c-1.366-1.629-2.756-3.284-4.144-4.956l-.279.187a28.635 28.635 0 01-3.38 2.4c-.431.4-.875.793-1.328 1.18q2.655 2.354 5.409 4.685c.627.9 2.135 2.691 2.135 2.691a5.012 5.012 0 001.587.035 6.77 6.77 0 001.654-.148 1.562 1.562 0 001.24-.413 3.61 3.61 0 002.895-.36h-1.369z" fill="#ebaf7f"/><g data-name="Group 580"><path data-name="Path 5703" d="M100.31 95.685l-1.017.848-3.6 2.986-.853.706S75.118 82.641 74.28 79.632c-.353-1.248-.127-3.687.25-6.108a65.312 65.312 0 012.679-10.732c1.545-4.568 4.13-11.721 5.91-13.963.081-.1.161-.2.236-.278.1-.1.2-.193.3-.283 3.721-3.343 9.588-.141 9.136 4.836a7.152 7.152 0 01-.335 1.7l-.466 1.46-.015.033-1.057 3.307-5.152 17.627z" fill="#ff4846"/><path data-name="Path 5704" d="M100.31 95.684l-1.017.848-16.657-19.887 1.286-.881-1.926-3.056 3.207 1.168 6.772-17.579-1.06 3.306-5.152 17.627z" fill="#871a1a" opacity=".5" style="mix-blend-mode:multiply;isolation:isolate"/><path data-name="Path 5705" d="M95.695 99.514l-.853.706S75.12 82.635 74.282 79.627c-.353-1.248-.127-3.687.25-6.108a65.313 65.313 0 012.679-10.732c1.545-4.568 4.13-11.721 5.91-13.963-1.7 5.265-8.876 27.756-8.118 30.267.782 2.583 17.641 17.704 20.692 20.423z" fill="#ff7a46" opacity=".5" style="mix-blend-mode:screen;isolation:isolate"/><g data-name="Group 579"><g data-name="Group 578"><g data-name="Group 576"><path data-name="Path 5706" d="M93.92 87.575c-.856-.924-1.672-1.88-2.481-2.84s-1.6-1.938-2.383-2.918-1.551-1.976-2.3-2.986l-1.118-1.517c-.36-.516-.731-1.022-1.079-1.548.432.459.839.937 1.26 1.4l1.221 1.436c.814.958 1.6 1.938 2.382 2.919s1.551 1.975 2.3 2.987 1.494 2.023 2.198 3.067z" fill="#911b1a"/></g><g data-name="Group 577"><path data-name="Path 5707" d="M91.985 56.265c-.415 1.773-.88 3.531-1.353 5.286s-.983 3.5-1.473 5.251c-.527 1.74-1.033 3.486-1.578 5.221l-.826 2.6c-.292.862-.568 1.728-.874 2.586.2-.887.436-1.766.653-2.65l.7-2.636c.472-1.756.983-3.5 1.474-5.251.527-1.74 1.033-3.486 1.578-5.221s1.099-3.468 1.699-5.186z" fill="#911b1a"/></g></g></g></g></g></g></g><g data-name="Group 596"><g data-name="Group 594"><g data-name="Group 593"><path data-name="Path 5708" d="M106.217 35.005a5.786 5.786 0 00-.985-1.729 5.574 5.574 0 01-.633-1.082 25.637 25.637 0 00-1.455-7.06c-.688-1.359-4.4-2.583-8.049-1.9-3.654.66-6.68 3.129-6.84 4.646-.06.576-.333 2.876 1.616 8.53a12.323 12.323 0 002.53 4.536 7.921 7.921 0 002.972 1.92 5.441 5.441 0 003.029.246l.7-.128a5.7 5.7 0 003.265-1.8 8.34 8.34 0 001.57-2.366 8.708 8.708 0 00.633-2.466 2.275 2.275 0 001.389-.49.826.826 0 00.258-.857z" fill="#ebaf7f"/><g data-name="Group 592"><g data-name="Group 591"><g data-name="Group 584" fill="none" stroke="#e48855" stroke-miterlimit="10" stroke-width=".558"><path data-name="Path 5709" d="M92.515 34.805a1.848 1.848 0 01-.2-.673 1.151 1.151 0 01.216-1.037.792.792 0 01.736-.141 1.6 1.6 0 01.655.413 2.326 2.326 0 01.548.764 3.622 3.622 0 01.177 1.5"/><path data-name="Path 5710" d="M93.733 35.765a1.481 1.481 0 01-.385-1.033 1.213 1.213 0 01.175-.729.6.6 0 01.661-.255"/></g><g data-name="Group 585" fill="none" stroke="#e48855" stroke-linecap="round" stroke-linejoin="round"><path data-name="Path 5711" d="M101.613 37.539a2.175 2.175 0 001.036.483" stroke-width=".279"/><path data-name="Path 5712" d="M101.149 36.009a3.254 3.254 0 002.966 1.606" stroke-width=".558"/></g><g data-name="Group 586"><path data-name="Path 5713" d="M103.065 35.933a1.917 1.917 0 01.486.312" fill="none" stroke="#e48855" stroke-linecap="round" stroke-linejoin="round" stroke-width=".558"/></g><g data-name="Group 588"><g data-name="Group 587"><path data-name="Path 5714" d="M102.584 33.292c0 .511-.31.926-.692.926s-.692-.415-.692-.926.31-.925.692-.925.692.416.692.925z" fill="#5e2b13"/></g></g><g data-name="Group 590"><g data-name="Group 589" fill="#5e2b13"><path data-name="Path 5715" d="M102.865 30.6a6.257 6.257 0 00-.771-.027 5.778 5.778 0 00-.791.067 4.855 4.855 0 00-.78.19 6.764 6.764 0 00-.763.312l-.012.005a.18.18 0 01-.2-.3 3.535 3.535 0 01.741-.538 3.738 3.738 0 01.86-.35 3.629 3.629 0 01.923-.142 3.167 3.167 0 01.951.113.342.342 0 01-.124.669z"/><path data-name="Path 5716" d="M103.474 30.002a.417.417 0 01-.115.393.833.833 0 01-.358.2h-.009a.183.183 0 01-.107-.349.2.2 0 01.067-.008.561.561 0 00.262-.031.243.243 0 00.148-.189v-.012a.057.057 0 01.111-.006z"/></g></g></g><path data-name="Path 5717" d="M100.896 38.681a3.167 3.167 0 11-3.167-3.167 3.167 3.167 0 013.167 3.167z" fill="#e9a770"/></g></g><path data-name="Path 5718" d="M97.14 28.558a8.291 8.291 0 01-1.792 6.043 2.754 2.754 0 00-1.855-2.2 1.571 1.571 0 00-1.422.145 1.669 1.669 0 00-.453 1.652 3.351 3.351 0 001.851 2.366 9.761 9.761 0 01-.8 1.931 2.957 2.957 0 01-1.338 1.42 11.025 11.025 0 01-2.663-7.477c.058-1.44-.343-3.006.23-4.329a7.534 7.534 0 012.8-3.217 12.184 12.184 0 013.982-1.627 4.658 4.658 0 011.326-.159 1.9 1.9 0 011.218.486 2.219 2.219 0 01.56 1.571 4.1 4.1 0 01-1.644 3.395z" fill="#5e2b13"/></g><g data-name="Group 595"><path data-name="Path 5719" d="M92.697 22.662s-.571-.361-.08-.762 1.413-.31 1.273.321z" fill="#ff814f"/><path data-name="Path 5720" d="M88.649 33.722s-2.886-5.971 1.844-9.818 12.264-2.6 13.622 2.605l-5.326 2.926z" fill="#ff4846"/><path data-name="Path 5721" d="M93.465 22.242s5.644 2.954 5.193 7.222l6.583-2.705s-2.902-7.621-11.776-4.517z" fill="#c42c2b"/><path data-name="Path 5722" d="M87.854 30.848a.877.877 0 01.971-.106 1.21 1.21 0 01.612.8l.173.662-1.322.581a6.375 6.375 0 01-.434-1.937z" fill="#5e2b13"/><path data-name="Path 5723" d="M95.093 30.997s9.588-3.911 9.6-5.312c0 0 4.539-1.841 6.1.143s-17.027 5.731-17.027 5.731z" fill="#ff814f"/></g></g></g></g></g></svg>