<svg data-name="online-shop (1)" xmlns="http://www.w3.org/2000/svg" width="115.655" height="97.548"><g data-name="Group 45"><g data-name="Group 44"><path data-name="Path 184" d="M108.529 0H7.127A7.134 7.134 0 0 0 0 7.126v68.809a7.134 7.134 0 0 0 7.127 7.126h34.3l-1.387 11.1h-5.752a1.694 1.694 0 0 0 0 3.388h47.08a1.694 1.694 0 0 0 0-3.388H75.62l-1.387-11.1h34.3a7.135 7.135 0 0 0 7.127-7.126V7.126A7.134 7.134 0 0 0 108.529 0zM43.45 94.16l1.387-11.1h6.235l.612 2.446a6.333 6.333 0 0 0 12.287 0l.612-2.446h6.235l1.387 11.1zm11.115-11.1h6.525l-.406 1.625a2.944 2.944 0 0 1-5.713 0zm57.7-7.126a3.742 3.742 0 0 1-3.738 3.738H7.127a3.742 3.742 0 0 1-3.738-3.738V7.126a3.742 3.742 0 0 1 3.738-3.738h101.4a3.742 3.742 0 0 1 3.738 3.738z" fill="#f8c91c"/></g></g><g data-name="Group 47"><g data-name="Group 46"><path data-name="Path 185" d="M95.854 7.243H8.937a1.694 1.694 0 0 0-1.694 1.694v65.187a1.694 1.694 0 0 0 1.694 1.694h3.622a1.694 1.694 0 0 0 0-3.388h-1.927v-61.8h85.222a1.694 1.694 0 0 0 0-3.388z" fill="#f8c91c"/></g></g><g data-name="Group 49"><g data-name="Group 48"><path data-name="Path 186" d="M106.719 7.243h-3.622a1.694 1.694 0 0 0 0 3.388h1.928v61.8H19.802a1.694 1.694 0 0 0 0 3.388h86.916a1.694 1.694 0 0 0 1.694-1.694V8.937a1.694 1.694 0 0 0-1.693-1.694z" fill="#f8c91c"/></g></g><g data-name="Group 51"><g data-name="Group 50"><path data-name="Path 187" d="M80.891 26a1.694 1.694 0 0 0-1.257-.648l-39.837-1.811h-.093a3.511 3.511 0 0 0-1.409-1.9l-4.879-3.252a1.694 1.694 0 0 0-1.879 2.819l4.878 3.252a.118.118 0 0 1 .048.065l6.214 21.749a5.334 5.334 0 0 0 .922 1.814l-2.274 4.547a3.482 3.482 0 0 0 .153 3.41 3.519 3.519 0 0 0 .869.956 5.315 5.315 0 1 0 9.567.706H67.36a5.316 5.316 0 1 0 9.71-.44 1.692 1.692 0 0 0-1.136-2.949H44.46a.116.116 0 0 1-.1-.169l2.094-4.189a5.319 5.319 0 0 0 1.325.169 5.464 5.464 0 0 0 .634-.037l23.806-2.8a7.109 7.109 0 0 0 6.156-5.68l2.848-14.239A1.694 1.694 0 0 0 80.891 26zm-8.577 31.711a1.927 1.927 0 1 1-1.927 1.927 1.93 1.93 0 0 1 1.926-1.927zm-25.35 0a1.927 1.927 0 1 1-1.927 1.927 1.929 1.929 0 0 1 1.926-1.927zm-4.157-23.307l-2.123-7.431 6.773.308 1.174 7.123zm5.2 12.327a1.919 1.919 0 0 1-2.078-1.385l-2.158-7.554h5.415l1.423 8.633zm9.931-1.168l-3.96.466-1.358-8.236h5.318zm0-11.159h-5.871l-1.148-6.965 7.025.319zm8.58 10.149l-5.191.611v-7.372h5.8zm.919-10.149h-6.11v-6.492l6.67.3zm7.6 6.547a3.729 3.729 0 0 1-3.229 2.979l-1.856.218.575-6.356h5.141zm1.309-6.547h-5.512l.546-6.035 6.117.278z" fill="#f8c91c"/></g></g></svg>