<svg xmlns="http://www.w3.org/2000/svg" width="18.377" height="22.95"><g data-name="Group 387" fill="#bebebe"><path data-name="Path 489" d="M12.483 4.014H1.814A1.815 1.815 0 000 5.828v15.308a1.815 1.815 0 001.814 1.814h10.669a1.815 1.815 0 001.814-1.814V5.828a1.821 1.821 0 00-1.814-1.814zm.541 17.117a.546.546 0 01-.545.545H1.81a.546.546 0 01-.545-.545v-15.3a.546.546 0 01.545-.545h10.669a.546.546 0 01.545.545z"/><path data-name="Path 490" d="M16.563 0H5.894A1.815 1.815 0 004.08 1.814a.635.635 0 001.269 0 .546.546 0 01.545-.545h10.669a.546.546 0 01.545.545v15.308a.546.546 0 01-.545.545.635.635 0 100 1.269 1.815 1.815 0 001.814-1.814V1.814A1.815 1.815 0 0016.563 0z"/></g></svg>