<svg xmlns="http://www.w3.org/2000/svg" viewBox="0 0 1992.177 2059.33"><path data-name="Path 24" d="M1708.816 252.375c-63.8-54.346-159.494-87.426-271.73-98.059-246.92-23.629-577.721 50.8-841.18 197.3-88.607 48.439-168.944 106.329-236.286 168.949 38.987 10.633 79.156 21.266 120.506 30.717 525.738 95.692 967.594 18.899 1228.69-298.907zm-316.624 603.713c-318.987-118.144-802.193-180.76-1112.909-250.464-51.983 63.8-89.789 133.5-111.055 207.932q-21.266 74.43-17.722 155.949c2.363 42.531 18.9 101.6 46.076 171.308 140.591 219.746 769.113 3.544 1195.61-284.725zm441.856-321.35c-38.987 87.427-118.143 189.027-224.472 290.632 83.882 38.987 150.042 87.426 191.392 150.042 15.359-62.616 27.173-125.232 34.262-186.666 9.451-89.789 9.451-176.034-1.182-254.008zM854.643 643.43c236.286 41.35 464.3 77.974 642.7 138.228 172.489-132.321 294.177-274.092 301.265-389.873-3.544-8.27-5.907-15.359-9.451-23.629-8.27-18.9-16.54-35.443-27.173-51.983-7.088-11.814-16.54-23.629-25.991-35.443-218.569 278.818-539.919 369.788-881.35 362.7zm-298.9 1036.117c15.359 15.359 29.536 30.717 46.076 44.894 76.793 69.7 160.675 125.232 245.738 157.131 83.882 30.717 170.126 37.806 255.19 11.814 98.059-30.717 191.392-88.607 275.274-164.219 20.084-17.721 37.806-36.625 56.709-55.527 81.519-86.245 154.768-190.211 215.021-302.447-197.308 237.472-723.043 467.846-1094.013 308.353zm960.5-770.295c-340.253 289.451-857.72 551.729-1199.154 463.122 5.907 9.452 11.814 18.9 17.721 29.536l1.181 1.181c336.708 541.1 1271.222 127.595 1377.551-216.2 23.629-116.964-57.89-205.572-197.299-277.639z" fill="#994dc9" opacity=".1"/></svg>