<svg xmlns="http://www.w3.org/2000/svg" width="41.952" height="51"><g data-name="Group 184"><g data-name="Group 173"><g data-name="Group 172"><path data-name="Path 23" d="M40.028 9.634H35.9l-2.086-8.181a1.926 1.926 0 00-2.34-1.389l-4.756 1.213a.6.6 0 10.3 1.162l4.756-1.213a.726.726 0 01.882.523l.231.906-31.434 8.011-.231-.906a.725.725 0 01.523-.882l21.62-5.513a.6.6 0 00-.3-1.162L1.449 7.716a1.926 1.926 0 00-1.389 2.34l4.434 17.386a1.923 1.923 0 002.339 1.392l.284-.072v.738a1.926 1.926 0 001.924 1.924h30.987a1.926 1.926 0 001.924-1.924V11.554a1.926 1.926 0 00-1.924-1.92zM7.117 27.521l-.58.148a.726.726 0 01-.882-.523L2.942 16.504l4.175-1.07zm0-15.968v2.648l-4.472 1.14-.9-3.514 5.792-1.477a1.915 1.915 0 00-.42 1.204zm27.547-1.919H29.9l4.474-1.141zm-1.483-5.817l.9 3.514-9.03 2.3H10.368zm6.847 26.409H9.041a.726.726 0 01-.725-.725V11.554a.726.726 0 01.725-.725h30.987a.726.726 0 01.725.725v17.942a.726.726 0 01-.725.725z" fill="#676767"/></g></g><g data-name="Group 175"><g data-name="Group 174"><path data-name="Path 24" d="M23.872 24.387H10.81a.6.6 0 000 1.2h13.062a.6.6 0 000-1.2z" fill="#676767"/></g></g><g data-name="Group 177"><g data-name="Group 176"><path data-name="Path 25" d="M33.861 13.846a3.924 3.924 0 00-2.31.751 3.946 3.946 0 100 6.4 3.945 3.945 0 102.307-7.145zm-3.942 4.133v.046q0 .075.012.15v.035a3.89 3.89 0 00.746 1.922 2.747 2.747 0 110-4.681 3.891 3.891 0 00-.746 1.922v.035l-.012.15v.233c0 .062-.002.126.001.188zm3.942 2.56a2.738 2.738 0 01-1.927-.791l-.03-.03-.068-.071-.018-.02a3.195 3.195 0 01-.076-.088 2.742 2.742 0 010-3.493l.076-.088.018-.02.068-.071.03-.03a2.747 2.747 0 111.927 4.7z" fill="#676767"/></g></g><g data-name="Group 179"><g data-name="Group 178"><path data-name="Path 26" d="M15.082 14.236h-2.629a2.245 2.245 0 00-2.242 2.242v2.629a2.245 2.245 0 002.242 2.242h2.629a2.245 2.245 0 002.242-2.242v-2.629a2.245 2.245 0 00-2.242-2.242zm1.043 3.879h-1.279a.6.6 0 000 1.2h1.258a1.045 1.045 0 01-1.023.837h-2.629a1.045 1.045 0 01-1.023-.837h1.262a.6.6 0 000-1.2h-1.279v-.519h1.279a.6.6 0 000-1.2h-1.275a1.044 1.044 0 011.039-.961h2.629a1.044 1.044 0 011.039.961h-1.275a.6.6 0 100 1.2h1.279z" fill="#676767"/></g></g><g data-name="Group 181"><g data-name="Group 180"><path data-name="Path 27" d="M37.947 27.024H17.074a.6.6 0 100 1.2h20.872a.6.6 0 000-1.2z" fill="#676767"/></g></g><g data-name="Group 183"><g data-name="Group 182"><path data-name="Path 28" d="M13.253 27.024H10.81a.6.6 0 000 1.2h2.443a.6.6 0 100-1.2z" fill="#676767"/></g></g><text transform="translate(7 48)" fill="#676767" font-size="15" font-family="Helvetica-Bold, Helvetica" font-weight="700"><tspan x="0" y="0">Ödə</tspan></text></g></svg>