<svg xmlns="http://www.w3.org/2000/svg" width="19.341" height="19.341"><path data-name="pencil (3)" d="M18.42.921a3.155 3.155 0 00-4.456 0L1.34 13.545c-.006.006-.009.013-.015.02l-.02.027a.34.34 0 00-.044.084c0 .009-.008.017-.01.026v.011L.009 18.91a.347.347 0 00-.009.071v.013a.348.348 0 00.023.116c0 .009.007.016.011.025a.349.349 0 00.069.1.352.352 0 00.115.076.348.348 0 00.133.026.352.352 0 00.081-.009l5.2-1.237a.253.253 0 00.027-.011l.035-.014a.345.345 0 00.07-.043l.025-.019.006-.004L18.419 5.377A3.154 3.154 0 0018.42.921zm-.495.495a2.453 2.453 0 01.228 3.2l-3.427-3.428a2.453 2.453 0 013.199.228zm-1.733 5.2l-3.466-3.467.495-.495 3.466 3.466zM1.737 17.6a.35.35 0 00-.495 0l-.265.265.894-3.755 1.548-.172-.2 1.793a.35.35 0 000 .039.358.358 0 000 .039c0 .012.007.021.01.032a.356.356 0 00.018.058.341.341 0 00.033.063.331.331 0 00.035.044.351.351 0 00.055.047.356.356 0 00.048.029.364.364 0 00.072.023.366.366 0 00.038.012h.076l1.793-.2-.169 1.553-3.756.894.265-.265a.35.35 0 000-.499zm4.393-1.914l7.834-7.834a.35.35 0 00-.495-.495l-7.834 7.834-1.671.186.186-1.671 7.834-7.834a.35.35 0 10-.495-.495l-7.834 7.834-1.114.124 9.691-9.691L15.7 7.109 6.006 16.8zM17.182 5.624l-3.466-3.465.5-.5 3.466 3.466z" fill="#fcd626"/></svg>