<svg data-name="rubbish-bin (2)" xmlns="http://www.w3.org/2000/svg" width="16.453" height="22.075"><g data-name="Group 35" fill="#fcd626"><path data-name="Path 140" d="M1.931 21.007a1.111 1.111 0 001.11 1.065h10.371a1.111 1.111 0 001.11-1.065l.741-15.635H1.19zm8.642-11.752a.451.451 0 01.451-.451h.723a.451.451 0 01.451.451v8.933a.451.451 0 01-.451.451h-.722a.451.451 0 01-.451-.451zm-3.158 0a.451.451 0 01.451-.451h.722a.451.451 0 01.451.451v8.933a.451.451 0 01-.451.451h-.722a.451.451 0 01-.451-.451V9.255zm-3.158 0a.451.451 0 01.451-.451h.722a.451.451 0 01.451.451v8.933a.451.451 0 01-.451.451h-.723a.451.451 0 01-.451-.451z"/><path data-name="Path 141" d="M15.756 1.137h-4.785v-.9A.233.233 0 0010.739 0H5.714a.233.233 0 00-.23.233v.9H.697a.7.7 0 00-.7.7v2.19h16.456V1.834a.7.7 0 00-.697-.697z"/></g></svg>