<svg xmlns="http://www.w3.org/2000/svg" width="108.427" height="101.199"><g data-name="Group 53"><g data-name="Group 52"><path data-name="Path 188" d="M103.006 48.792V9.036A9.046 9.046 0 0093.97 0H14.457a9.046 9.046 0 00-9.036 9.036v27.106A5.428 5.428 0 000 41.564v54.214a5.428 5.428 0 005.421 5.422h39.757a5.428 5.428 0 005.421-5.421h15.146a5.421 5.421 0 005.23-6.847L67.422 75.9h10.284v19.878a5.428 5.428 0 005.421 5.421h19.878a5.428 5.428 0 005.421-5.421V54.214a5.428 5.428 0 00-5.42-5.422zM46.985 95.777a1.81 1.81 0 01-1.807 1.807H5.421a1.81 1.81 0 01-1.807-1.807v-3.614h43.371zm0-7.228H3.614V48.792h43.371zm0-43.371H3.614v-3.614a1.81 1.81 0 011.807-1.807h39.757a1.81 1.81 0 011.807 1.807zm20.5 44.7a1.807 1.807 0 01-1.744 2.282H50.6v-3.614h16.525zM50.6 84.935V75.9h13.076l2.465 9.036zm27.107-12.65H50.6V61.442h27.106zm0-18.071v3.614H50.6V41.564a5.428 5.428 0 00-5.421-5.421H9.036V9.036a5.428 5.428 0 015.421-5.421H93.97a5.428 5.428 0 015.421 5.421v39.756H83.127a5.428 5.428 0 00-5.421 5.422zm27.107 41.564a1.81 1.81 0 01-1.807 1.807h-19.88a1.81 1.81 0 01-1.807-1.807v-3.614h23.493zm0-7.228H81.32V61.442h23.493zm0-30.721H81.32v-3.615a1.81 1.81 0 011.807-1.807h19.878a1.81 1.81 0 011.807 1.807z" fill="#f8c91c"/></g></g><g data-name="Group 55"><g data-name="Group 54"><path data-name="Rectangle 56" fill="#f8c91c" d="M9.564 74.62l7.229-7.229 2.555 2.556-7.229 7.228z"/></g></g><g data-name="Group 57"><g data-name="Group 56"><path data-name="Rectangle 57" fill="#f8c91c" d="M16.792 80.042l21.686-21.686 2.555 2.556-21.686 21.685z"/></g></g><g data-name="Group 59"><g data-name="Group 58"><path data-name="Rectangle 58" fill="#f8c91c" d="M20.406 63.779l10.842-10.842 2.556 2.555L22.96 66.334z"/></g></g><g data-name="Group 61"><g data-name="Group 60"><path data-name="Rectangle 59" fill="#f8c91c" d="M85.46 74.622l9.034-9.034 2.555 2.555-9.034 9.034z"/></g></g><g data-name="Group 63"><g data-name="Group 62"><path data-name="Rectangle 60" fill="#f8c91c" d="M89.074 81.859l9.034-9.034 2.555 2.555-9.034 9.034z"/></g></g><g data-name="Group 65"><g data-name="Group 64"><path data-name="Rectangle 61" fill="#f8c91c" d="M47.512 31.251l10.842-10.842 2.556 2.555-10.843 10.842z"/></g></g><g data-name="Group 67"><g data-name="Group 66"><path data-name="Rectangle 62" fill="#f8c91c" d="M63.777 27.636l10.842-10.842 2.556 2.555-10.843 10.842z"/></g></g><g data-name="Group 69"><g data-name="Group 68"><path data-name="Rectangle 63" fill="#f8c91c" d="M52.933 38.482l7.229-7.229 2.555 2.556-7.229 7.228z"/></g></g><g data-name="Group 71"><g data-name="Group 70"><path data-name="Rectangle 64" fill="#f8c91c" d="M61.958 16.816l7.246-7.246 2.556 2.555-7.247 7.246z"/></g></g><g data-name="Group 73"><g data-name="Group 72"><path data-name="Rectangle 65" fill="#f8c91c" d="M12.65 7.228h3.614v3.614H12.65z"/></g></g><g data-name="Group 75"><g data-name="Group 74"><path data-name="Rectangle 66" fill="#f8c91c" d="M19.878 7.228h3.614v3.614h-3.614z"/></g></g><g data-name="Group 77"><g data-name="Group 76"><path data-name="Rectangle 67" fill="#f8c91c" d="M27.107 7.228h3.614v3.614h-3.614z"/></g></g></svg>