<svg xmlns="http://www.w3.org/2000/svg" width="24.707" height="22.656"><g data-name="shopping-basket (1)"><g data-name="Group 11" fill="#fcd626"><path data-name="Path 22" d="M17.362 5.978h2.168L16.319.47a.934.934 0 10-1.613.943z"/><path data-name="Path 23" d="M10.013 1.407A.934.934 0 108.4.464L5.189 5.978h2.166z"/><path data-name="Path 24" d="M23.114 7.662H1.588A1.587 1.587 0 000 9.25v1.76a1.587 1.587 0 001.588 1.588h.5l1.532 8.3a2.176 2.176 0 002.014 1.755h13.123a2.176 2.176 0 002.014-1.755l1.542-8.308h.806a1.587 1.587 0 001.588-1.588v-1.76a1.593 1.593 0 00-1.593-1.58zm-14.349 8.3v3.581a.9.9 0 01-1.8 0v-5.022a.9.9 0 111.8 0zm2.881 0v3.581a.9.9 0 01-1.8 0v-5.022a.9.9 0 01.9-.9.916.916 0 01.9.9zm2.9 2.08v1.5a.9.9 0 01-1.8 0V14.52a.916.916 0 01.9-.9.9.9 0 01.9.9zm2.881 0v1.5a.9.9 0 01-1.8 0V14.52a.9.9 0 111.8 0z"/></g></g></svg>