<svg xmlns="http://www.w3.org/2000/svg" xmlns:xlink="http://www.w3.org/1999/xlink" width="783.559" height="739.601"><defs><linearGradient id="a" x1=".5" y1=".204" x2=".5" y2="1.339" gradientUnits="objectBoundingBox"><stop offset="0" stop-color="#fff"/><stop offset=".123" stop-color="#dadada"/><stop offset=".448" stop-color="#7d7d7d"/><stop offset=".713" stop-color="#3a3a3a"/><stop offset=".903" stop-color="#101010"/><stop offset="1"/></linearGradient><linearGradient id="g" x1="0" y1=".5" x2="1" y2=".5" xlink:href="#a"/><linearGradient id="d" x1="-.157" y1="1.012" x2="1.312" y2=".218" xlink:href="#a"/><linearGradient id="e" x1=".5" y1="1.963" x2=".5" y2=".035" xlink:href="#a"/><linearGradient id="f" x1=".5" y1="1.283" x2=".5" y2=".229" xlink:href="#a"/><linearGradient id="b" x1="1.026" y1="1.202" x2="-.305" y2=".172" gradientUnits="objectBoundingBox"><stop offset="0" stop-color="#fff"/><stop offset=".102" stop-color="#cfcfcf"/><stop offset=".234" stop-color="#999"/><stop offset=".368" stop-color="#6a6a6a"/><stop offset=".5" stop-color="#444"/><stop offset=".63" stop-color="#262626"/><stop offset=".758" stop-color="#111"/><stop offset=".883" stop-color="#040404"/><stop offset="1"/></linearGradient><linearGradient id="c" x1="-.102" y1=".5" x2="1.321" y2=".5" gradientUnits="objectBoundingBox"><stop offset="0" stop-color="#fff"/><stop offset=".123" stop-color="#eee6a9"/><stop offset=".448" stop-color="#cbbf68"/><stop offset=".903" stop-color="#a49420"/><stop offset="1" stop-color="#b8a200"/></linearGradient><linearGradient id="h" x1=".569" y1=".418" x2=".512" y2=".901" xlink:href="#a"/><linearGradient id="i" x1="1.011" y1=".907" x2="-.953" y2="-.398" gradientUnits="objectBoundingBox"><stop offset="0" stop-color="#fff"/><stop offset=".123" stop-color="#dadada"/><stop offset=".448" stop-color="#7d7d7d"/><stop offset=".713" stop-color="#3a3a3a"/><stop offset=".903" stop-color="#6a89c5"/><stop offset="1" stop-color="#284c94"/></linearGradient><linearGradient id="j" x1=".5" y1="1.456" x2=".5" y2="-1.212" xlink:href="#b"/><linearGradient id="k" x1=".223" y1=".97" x2="1.175" y2="-1.037" xlink:href="#b"/><linearGradient id="l" x1=".338" y1="1.35" x2=".6" y2="-.333" xlink:href="#b"/><linearGradient id="m" x1=".733" y1="1.903" x2=".189" y2="-1.147" xlink:href="#b"/></defs><g data-name="Group 706"><path data-name="Path 1023" d="M326.19 35.596c222.8 150.6 454.059 88.836 454.059 279.374s30.905 24.038-96.151 228.358c-42.925 379.453-341.236 96.391-468.401 71.268-54.707 87.532-277.322-157.454-199.285-234.45C145.19 253.089 103.39-115.004 326.19 35.596z" fill="#ffeb56" opacity=".15"/><path data-name="Line 71" fill="none" stroke="#343947" stroke-miterlimit="10" stroke-width=".504" d="M150.26 638.267h143.18"/><path data-name="Line 72" fill="none" stroke="#343947" stroke-miterlimit="10" stroke-width=".504" d="M309.069 638.267h118.262"/><g data-name="Group 671" fill="#c0cbcc"><path data-name="Path 911" d="M91.196 273.89c-4.16-4.037 9.94-13.4 16.423-18.8s20.1-5.709 33.495-4.15 25.933 1.993 32.846-.82 9.077-1.6 8.861.82-16.856 6.742-16.207 11.928 6.265 1.081 8.859 4.105 3.24 7.132 8.426 4.97 4.756-5.618 5.835-7.346 5.4-2.81 6.916 3.24 11.805 4.754 13.143 8-2.122 4.115-7.74 3.137-11.67 3.777-16.423 13.933-12.318 25.714-21.609 28.093-20.046-.608-25.5 1.727c-4.656 1.993-6.267 9.078 1.511 12.1s13.3 1.071 15.777 2.594c4.213 2.592-.216 5.51 2.268 8.643s5.186 3.027 4.862 4.754-1.619 3.135-1.405 5.078-2.268 3.351-3.781 0-2.808-4.862-4.754-5.294-4.213.54-5.835-4.213-7.24-5.943-12.426-4.321-10.372.541-12.532-5.078-6.591-21.393-10.913-28.093-10.375-11.777-8.969-15.342 10.913-9.294 12.858-17.828-4-9.834-8.969-6.808-11.342 8.535-15.017 4.971z"/><path data-name="Path 912" d="M161.788 379.92c6.493 5.259 3.17 11.237 5.186 18.728s11.237 10.086 12.677 19.882 2.305 31.981 2.881 40.338 8.643 19.593 12.966 18.15-2.019-6.626 3.167-13.253 8.934-8.932 8.934-14.693 4.321-3.746 8.067-7.78 3.168-7.491 7.2-14.4 9.8-5.189 12.1-17.866 6.916-25.355 0-29.1-10.661-.329-14.694-8.233-8.932-7.9-15.561-7.612-7.778-2.305-12.1-7.491-15.561-10.086-19.882-8.07-3.839 10.284-7.2 16.137-9.792 10.366-3.741 15.263z"/><path data-name="Path 913" d="M257.685 281.022c6.016 3.24-.432 7.778 2.376 10.8s5.835 4.754 10.588 2.159 8.861-5.681 13.183 1.267 12.967 16.237 19.018 23.153 10.372 12.1 15.126 12.1 6.483-4.97 10.372-3.457 3.457 9.291 1.946 12.315-14.264 22.258-14.48 28.741 1.513 12.318-1.3 17.288-14.636 10.588-19.2 14.477-8.437 13.615-10.066 17.72-11.788 12.318-17.839 11.886-5.835-8.21-5.618-15.558 1.513-13.4-1.081-17.288-3.889-4.105-3.024-8.643 2.592-6.267 1.078-9.294-5.618-7.346-5.618-14.477-1.511-7.763-3.889-8.959-5.835-4.359-6.267-7.207-11.388 1.038-15.724-1.986-11.936-18.8-9.99-26.363 34.79-41.701 40.409-38.674z"/><path data-name="Path 914" d="M479.614 214.392c0-3.6-5.043-8.5-12.966-6.627s-17.288 5.186-23.2 2.162-4.9-5.908-8.786-6.051-3.6 4.465-7.348 3.6-5.618-2.448-12.534-3.024-26.506 1.3-34.573 2.305-20.6 17.864-27.085 19.593-8.932.432-13.256.287-8.932 2.594-13.54 2.305-9.077-2.881-14.407-2.016-20.89 22.927-25.355 21.476 5.619-12.687 5.186-13.552-4.754 3.457-10.086 2.881-9.651-2.167-14.118 1.151-11.091 11.725-13.11 12.057-4.61-.82-6.916 1.342-3.457 5.619-2.592 5.619 4.754-4.9 7.348-3.17c2.373 1.581-4.324 5.332-1.873 6.483s7.635-5.908 10.083-9.075 9.354-7.924 13.681-2.738-5.613 14.983-7.341 16.566-10.229 5.908-7.2 8.789 3.17-1.44 9.078-2.162 6.051 0 9.364-1.295 5.329-3.6 7.924-2.738.287 4.754 3.6 5.329 4.321-2.305 7.637-5.186 3.313-4.321 10.226-.289 7.637 6.627 6.627 8.213-7.2 2.821-11.523 2.345-5.993-.131-7.247 1.86 1.918 2.853 2.637 7.031-.354 7.2 2.594 11.38 15.269 13.975 18.15 18.3 6.34 2.738 10.086.576 5.618-1.727 6.915-3.457 2.881-8.789 1.295-10.083-3.889 1.44-8.21-3.316-7.635-9.507-5.332-10.8 8.356 7.2 16.712 10.95 15.126 7.059 16.712 15.415-.146 17.142 2.305 18.15 7.345-9.075 13.686-12.245 12.1-5.043 12.821 5.043 0 12.534 5.618 15.558 10.8 4.321 15.991 8.932 6.483 7.635 8.213 6.916-1.154-4.61 0-8.5a33.37 33.37 0 001.584-13.4c-.576-4.9-8.932-12.1-7.924-17.142s9.078-7.78 16.423-12.534 9.8-8.067 9.653-14.118-10.8-17.864-5.186-21.609 6.916 17.431 12.389 17.431-2.159-8.932 3.17-13.686 12.245-7.924 13.4-15.847-4.9-11.958-4.178-16.855 2.592-6.627 6.627-4.61 5.186.146 8.21-5.762 8.645-5.475 10.661-9.075-.72-5.481-.72-9.083zm-148.783 63.5c-3.024 2.486-7.238-3.673-9.508-7.346a36.121 36.121 0 00-7.454-8.645c-2.27-1.835-2.029-2.755-.865-3.781 2.426-2.142 12.424-2.054 13.288 0s-1.727 8 .757 11.345 5.322 7.157 3.781 8.422z"/><path data-name="Path 915" d="M421.591 366.813c1.652 2.391 14.048-3.024 15.126-5.186s-1.4-4.538-.865-6.483 1.081-4.97-1.511-6.481c-3.891-2.273-16.855 12.204-12.75 18.15z"/><path data-name="Path 916" d="M443.304 357.715c1.785.161.327 2.237 2.725 4.759s3.459 4.15 2.4 5.329-5.329.568-6.752-1.709-1.546-8.663 1.627-8.379z"/><path data-name="Path 917" d="M447.413 352.926c1.649-2.474 5.4-1.35 11.453 1.081s14.264 10.048 13.94 11.669-4.429 1.566-6.159 2.431-7.833 1.73-10.372-2.215-1.782-6.488-4.213-8.188-6.049-2.671-4.649-4.778z"/><path data-name="Path 918" d="M405.852 369.907c3.776-2.758 13.831 4.683 21.106 5.116s24.633.143 24.779 2.232-16.28 5.978-26.149 3.962-23.482-8.572-19.736-11.31z"/><path data-name="Path 919" d="M416.946 401.17c8.082-11.124 18.5-5.186 27.834-9.291s13.871 8.859 21.652 9.291 7.582-6.051 6.385-11.237 2.157-6.267 8.258 1.729 12.368 17.288 16.69 20.1 6.051 1.73 5.835 9.075-.216 23.123-7.129 23.123-11.453-10.123-21.4-14.462-28.522 10.141-36.951 7.982-18.15-19.671-21.174-24.426-2.079-9.023 0-11.884z"/></g><path data-name="Path 924" d="M429.483 240.245c25.745 0 114.838 31.148 114.838 98.364s-64.775 77.809-111.216 62.329-149.1-79.6-220.8-95.2-120.15 3.23-115.766 50.765c2.119 22.957 31.564 58.04 81.671 59.083" fill="none" stroke="#001c54" stroke-miterlimit="10" stroke-width=".688"/><g data-name="Group 673" transform="translate(138.75 235.548)"><ellipse data-name="Ellipse 42" cx="12.916" cy="4.9" rx="12.916" ry="4.9" transform="translate(4.79 50.33)" fill="#fff"/><path data-name="Path 925" d="M17.707 0C8.798 0 0 6.621 0 16.659c0 9.692 3.054 22.878 16.255 36.657a2.024 2.024 0 002.9 0c13.2-13.779 16.257-26.966 16.257-36.657C35.414 6.621 26.614 0 17.707 0zm0 24.835a7.129 7.129 0 117.128-7.128 7.129 7.129 0 01-7.128 7.128z" fill="#ffe051"/><path data-name="Path 926" d="M561.882 225.339a7.13 7.13 0 017.129-7.129v-10.578c-8.909 0-17.707 6.622-17.707 16.659 0 9.692 3.054 22.878 16.255 36.657a2 2 0 001.451.613v-29.094a7.129 7.129 0 01-7.128-7.128z" transform="translate(-551.304 -207.632)" fill="url(#c)"/></g><g data-name="Group 705" transform="translate(300.742 237.117)"><ellipse data-name="Ellipse 42" cx="7.087" cy="2.689" rx="7.087" ry="2.689" transform="translate(2.628 27.614)" fill="#fff"/><path data-name="Path 925" d="M9.715 0C4.827 0 0 3.633 0 9.14c0 5.317 1.675 12.552 8.919 20.112a1.111 1.111 0 001.592 0c7.243-7.56 8.92-14.795 8.92-20.112C19.43 3.633 14.602 0 9.715 0zm0 13.626a3.911 3.911 0 113.911-3.911 3.911 3.911 0 01-3.911 3.911z" fill="#ffe051"/><path data-name="Path 926" d="M557.107 217.347a3.912 3.912 0 013.912-3.912v-5.8c-4.888 0-9.715 3.633-9.715 9.14 0 5.317 1.675 12.552 8.919 20.112a1.1 1.1 0 00.8.336v-15.965a3.911 3.911 0 01-3.916-3.911z" transform="translate(-551.304 -207.632)" fill="url(#c)"/></g><g data-name="Group 679"><path data-name="Path 927" d="M539.587 263a33.055 33.055 0 10-49.745-17.771 4.654 4.654 0 01-.48 3.957l-6.88 10.526a1.224 1.224 0 001.237 1.875l12.383-2.174a4.65 4.65 0 013.826 1.116A33.051 33.051 0 00539.587 263z" transform="translate(-222.231 101.98)" opacity=".3" fill="url(#a)"/><path data-name="Path 928" d="M315.853 360.505a32.187 32.187 0 10-48.44-17.3 4.531 4.531 0 01-.468 3.854l-6.7 10.246a1.193 1.193 0 001.2 1.828l12.059-2.119a4.53 4.53 0 013.726 1.089 32.187 32.187 0 0038.623 2.402z" fill="#fff"/><g data-name="Group 678"><path data-name="Path 929" d="M303.523 346.108h-24.694a2.386 2.386 0 01-2.356-2.773l3.268-19.947h29.533l-3.4 20.719a2.387 2.387 0 01-2.351 2.001z" fill="#eedb4b"/><path data-name="Path 930" d="M308.277 329.473h-29.533l1-6.085h29.533z" fill="#ffb600"/><g data-name="Group 677"><g data-name="Group 674"><path data-name="Path 931" d="M322.253 328.989h-8.859a1.73 1.73 0 110-3.459h8.859a1.73 1.73 0 110 3.459z" fill="#eedb4b"/></g><g data-name="Group 675"><path data-name="Path 932" d="M321.026 336.478h-8.861a1.73 1.73 0 010-3.459h8.861a1.73 1.73 0 010 3.459z" fill="#eedb4b"/></g><g data-name="Group 676"><path data-name="Path 933" d="M319.797 343.967h-8.856a1.73 1.73 0 010-3.459h8.856a1.73 1.73 0 010 3.459z" fill="#eedb4b"/></g></g><path data-name="Path 934" d="M294.154 346.109h-6.742l3.723-22.721h6.742z" fill="#3c4b6a"/><path data-name="Path 935" d="M308.063 331.103H278.53l.287-1.629h29.533z" opacity=".4"/></g></g><g data-name="Group 697"><path data-name="Path 975" d="M339.534 595.049l1.85 27.225a4.774 4.774 0 01-1.385 3.7l-4.01 4.01a9.194 9.194 0 01-4.786 2.539c-3.628.686-9.694 2.343-9.769 5.749h32.1a2.722 2.722 0 002.534-3.715l-4.268-10.873.7-28.63z" fill="#ff9c87"/><path data-name="Path 976" d="M382.247 595.049l6.084 26.551a5.262 5.262 0 01-1.408 4.895l-3.484 3.484a9.193 9.193 0 01-4.786 2.539c-3.628.686-9.693 2.343-9.769 5.749h32.1a2.72 2.72 0 002.532-3.715l-4.268-10.873-4.03-28.63z" fill="#ff9c87"/><path data-name="Path 977" d="M348.582 461.379s-16.37 70.18-12.778 136.385h20.745s.219-22.444-1.642-41.519c0 0 11.245-50.215 13.862-59.471s9.141-20.86 6.42-35.4z" fill="#7893c9"/><path data-name="Path 978" d="M548.834 275.249l-35.868 65.117a409.734 409.734 0 00-.239 45.111h20.743s.219-22.444-1.642-41.519c0 0 11.244-50.215 13.862-59.471.81-2.852 1.983-5.924 3.144-9.238z" transform="translate(-176.917 212.289)" opacity=".3" fill="url(#d)"/><path data-name="Path 979" d="M361.474 461.379s-.724 71.748 17.627 139.429h20.745s-4.784-22.942-10.9-42.444c0 0 .05-51.336.6-60.8s4.49-21.323-1.471-36.185z" fill="#7893c9"/><path data-name="Path 980" d="M383.76 461.379s2.808 21.3 1.511 31.024-3.24 65.26-3.24 65.26 9.508 30.541 12.1 43.146" fill="none" stroke="#bababa" stroke-miterlimit="10" stroke-width=".271"/><path data-name="Path 981" d="M372.809 461.379s-2.27 16.184 12.7 19.787" fill="none" stroke="#bababa" stroke-miterlimit="10" stroke-width=".271"/><path data-name="Path 982" d="M403.51 634.552l-2.587-6.594a13.972 13.972 0 01-14.661-.807l-2.826 2.828a9.194 9.194 0 01-4.786 2.539c-3.628.686-9.693 2.343-9.769 5.749h32.1a2.72 2.72 0 002.529-3.715z" fill="#001c54"/><path data-name="Path 983" d="M356.062 634.552l-2.358-6c-7.288 2.132-12.5.314-15.149-1.139l-2.569 2.569a9.2 9.2 0 01-4.786 2.54c-3.628.686-9.694 2.343-9.769 5.749h32.1a2.722 2.722 0 002.531-3.719z" fill="#001c54"/><path data-name="Path 984" d="M559.038 264.842h-39.5s-1.453 6.247-3.394 16.72c16.049 5.091 36-2.7 45.526-7.233a44.55 44.55 0 00-2.632-9.487z" transform="translate(-170.957 196.537)" opacity=".3" fill="url(#e)"/><path data-name="Path 985" d="M361.573 470.572s.89 27.064 2.419 41.992" fill="none" stroke="#bababa" stroke-miterlimit="10" stroke-width=".271"/><path data-name="Path 986" d="M361.095 398.679l-19.834 19.674 8.644 9.757 16.571-19.984z" fill="#ff9c87"/><path data-name="Path 987" d="M352.209 353.466c-2.484 2.69-5.618 8.092 0 14.575s.865 14.8-.865 17.61-4.646 10.229 2.378 10.229h20.853s6.7-20.061.865-30.109-23.231-12.305-23.231-12.305z" fill="#33353a"/><path data-name="Path 988" d="M354.08 360.802s-.649 8.067-4.178 9.291c.578 1.44 2.667 1.657 2.667 1.657s.5 7.2 2.232 9.148 7.275.721 9.075 2.378 1.657 8.932 1.657 8.932 5.691 1.873 10.734 0c.001-13.794.577-31.406-22.187-31.406z" fill="#ff9c87"/><path data-name="Path 989" d="M538.5 229.489c-.108.128-.216.214-.324.362-4.452 6.189-14.052 9.3-17.67 8.806 2.35.787 6.259.254 7.722 1.6a6.415 6.415 0 011.29 3.406l10.9-4.1a35.678 35.678 0 00-1.918-10.074z" transform="translate(-164.355 143.017)" opacity=".3" fill="url(#f)"/><path data-name="Path 990" d="M365.535 392.207s-11.41 15.088-12.318 24.274c-1.008 10.229 2.775 15.272-6.77 46.964 0 0 16.712 7.2 45.235 0-2.881-10.083-3.409-17.72-.913-29.387s3.218-31.119-4.274-41.851z" fill="#fefefe"/><path data-name="Path 991" d="M561.885 290.5c-5.281-17.665-38.57-33.382-38.641-41.24.143 7.554 1.053 15.832-6.6 41.238.004.002 16.716 7.202 45.241.002z" transform="translate(-170.201 172.946)" opacity=".6" fill="url(#b)"/><path data-name="Rectangle 490" fill="#fff" d="M287.351 414.369h64.21v45.179h-64.21z"/><path data-name="Rectangle 491" transform="translate(287.351 414.369)" opacity=".3" fill="url(#g)" d="M0 0h19.357v45.179H0z"/><path data-name="Rectangle 492" fill="#ffa600" d="M324.596 414.369h9.076v45.179h-9.076z"/><path data-name="Path 992" d="M500.43 282.261l45.884-30.129v30.121z" transform="translate(-194.753 177.295)" opacity=".3" fill="url(#h)"/><path data-name="Path 993" d="M352.208 353.466a21.947 21.947 0 001.873 7.335c1.8 4.213 11.3 7.381 14.442 11.345 3.459 4.357 3.135 10.407 3.351 15.234s-.432 7.564 4.97 8.213 9.508 0 13.072 0 4.324-3.892 1.838-9.4a49.352 49.352 0 01-4.646-19.015c-.216-10.8-5.186-20.35-16.207-20.35-15.091-.001-18.693 6.638-18.693 6.638z" fill="#33353a"/><path data-name="Path 994" d="M325.197 464.906a247.18 247.18 0 0039.131-7.592 19.8 19.8 0 0013.19-12.456l12.758-36.026a8.535 8.535 0 00-5.425-10.973 6.586 6.586 0 00-8.243 4.113l-15.126 43.678-38.583 13.293s-9.156-4-10.307-3.708 3.313 4.321 3.313 4.321h-10.228s3.313 10.264 19.52 5.35z" fill="#ff9c87"/><path data-name="Line 67" fill="none" stroke="#343947" stroke-miterlimit="10" stroke-width=".261" d="M351.561 423.372h-64.21"/><path data-name="Line 68" fill="none" stroke="#343947" stroke-miterlimit="10" stroke-width=".261" d="M306.708 417.259v37.434"/></g><path data-name="Path 995" d="M242.538 621.699h12.1a8.247 8.247 0 004.646 5.332c3.122 1.194 16 2.7 19.8 8.034a2.106 2.106 0 01-1.843 3.2h-34.384a2.368 2.368 0 01-2.32-2.9c.827-3.563 2.074-9.634 2.001-13.666z" fill="#001c54"/><path data-name="Path 996" d="M179.226 620.548h12.424s-2.069 5.078 1.606 6.483c3.122 1.194 16 2.7 19.8 8.034a2.106 2.106 0 01-1.843 3.2h-32.884a2.977 2.977 0 01-2.755-4.1c1.608-3.959 3.717-9.884 3.652-13.617z" fill="#001c54"/><path data-name="Path 997" d="M247.947 455.163l14.601 91.631a35.762 35.762 0 01.317 9.1l-6.518 66.942h-16.138s-3.318-10.151-3.155-15.953.978-11.315-1.737-20.307-.4-18.565.412-24.075 1.285-15.521 1.285-15.521-13.867-52.764-15.38-59.435-6.265-28.178-1.923-32.376z" fill="#001c54"/><path data-name="Path 998" d="M468.914 285.685c1.513 6.672 15.38 59.436 15.38 59.436s-.468 10.008-1.285 15.521-3.13 15.083-.412 24.075 1.9 14.505 1.737 20.307 3.155 15.953 3.155 15.953h16.137l6.519-66.942a35.765 35.765 0 00-.317-9.1l-1.875-11.77-42.218-64.813c.824 6.802 2.412 13.962 3.179 17.333z" transform="translate(-247.279 201.854)" opacity=".3" fill="url(#i)"/><path data-name="Path 999" d="M223.935 487.32l20.5 53.04a42.474 42.474 0 012.846 16.3l-1.534 66.17" fill="none" stroke="#eedb4b" stroke-miterlimit="10" stroke-width=".271"/><path data-name="Path 1000" d="M229.897 455.163l-10.141 91.01a38.246 38.246 0 01-2.142 9.035l-24.6 66.492h-16.132s-.576-10.083 1.154-15.845 4.032-11.237 3.746-20.169 4.61-18.442 6.913-23.917 5.475-15.413 5.475-15.413.382-52.407.671-59.036 1.345-27.987 6.82-32.158z" fill="#001c54"/><path data-name="Path 1001" d="M204.832 456.603s-6.546 31.434-3.715 84.81a19.612 19.612 0 01-1.37 8.391c-4.314 10.649-15.812 41.554-17.388 71.894" fill="none" stroke="#eedb4b" stroke-miterlimit="10" stroke-width=".271"/><path data-name="Path 1002" d="M210.307 457.827s-.083 14.53-7.966 16.664" fill="none" stroke="#eedb4b" stroke-miterlimit="10" stroke-width=".271"/><path data-name="Path 1003" d="M236.095 457.827s1.443 18.64-8.716 19.945" fill="none" stroke="#eedb4b" stroke-miterlimit="10" stroke-width=".271"/><path data-name="Path 1024" d="M229.311 460.475l-4.1 36.761" fill="none" stroke="#eedb4b" stroke-width=".271"/><path data-name="Path 1004" d="M507.663 262.369h-46.285c-1.659 1.265-2.908 4.12-3.859 7.657l52.261 5.623z" transform="translate(-259.716 192.794)" opacity=".6" fill="url(#j)"/><path data-name="Path 1005" d="M192.793 423.058s-5.8 13.947-12.416 21.566-36.222 15.944-36.222 15.944-19.012 4.9-20.287 2.627a10.679 10.679 0 01-1.413-3.58l6.941-.241 5.958-3.761-5.221-1.39.757-1.833s8.557-1.948 12.655 1.971l28.032-16.534 9.11-20.571z" fill="#ff9c87"/><path data-name="Path 1006" d="M464.552 253.09l-12.107-5.8-2.881 6.506 10.086 9.442c2.938-5.438 4.902-10.148 4.902-10.148z" transform="translate(-271.758 169.968)" opacity=".6" fill="url(#k)"/><path data-name="Path 1007" d="M256.89 388.563s3.839 3.5 9.025 14.593l-10.8 14.1-8.21-9.947z" fill="#eedb4b"/><path data-name="Path 1008" d="M239.192 352.302s-.721 6.77 5.4 8.786l-3.746 1.549.392 8.137a3.61 3.61 0 01-3.6 3.786h-2.577a1.808 1.808 0 00-1.795 2.044l1.244 11.586h-18.08l.071-14.261.287-21.627z" fill="#ff9c87"/><path data-name="Path 1009" d="M481.719 237.135a1.808 1.808 0 011.795-2.044h2.577a3.563 3.563 0 001.466-.314 39.865 39.865 0 01-15.468-7.632c-1.6.935-4.228 1.27-7.051 1.3l-.081 6.018c11.139 11.672 17.185 6.609 17.185 6.609z" transform="translate(-248.456 139.469)" opacity=".2" fill="url(#l)"/><path data-name="Path 1010" d="M238.518 383.567l-1.631-3.029-9.223 2.426-1.8 5.6-1.8-5.6-9.224-2.426-1.631 3.029c-11.9 2.19-18.371 5-18.371 5 2.232 17.1 3.763 58.274 4.082 67.437a1.9 1.9 0 001.913 1.828h44.639a4.494 4.494 0 004.48-4.06c1.2-12.293 4.849-49.244 6.933-65.2.004-.01-6.471-2.818-18.367-5.005z" fill="#eedb4b"/><path data-name="Path 1011" d="M222.336 384.896l-2.485 5.943-5.51-5.4" fill="none" stroke="#343947" stroke-miterlimit="10" stroke-width=".688"/><path data-name="Path 1012" d="M229.416 384.896l2.485 5.943 5.51-5.4" fill="none" stroke="#343947" stroke-miterlimit="10" stroke-width=".688"/><path data-name="Path 1013" d="M194.842 388.563c-4.92 1.843-17.994 30.621-17.994 30.621l16.315 6.878 8-15.126z" fill="#eedb4b"/><path data-name="Path 1014" d="M236.886 380.538l-9.223 2.426-1.8 5.6-1.8-5.6-9.224-2.426-1.631 3.029c-11.9 2.19-18.371 5-18.371 5 1 7.68 1.863 20.214 2.536 32.529h55.863c1.28-12.315 2.645-24.85 3.648-32.529 0 0-6.476-2.806-18.371-5z" fill="#001c54"/><path data-name="Path 1015" d="M271.511 446.355h-35.346l10.162-51.381h35.346z" opacity=".4"/><path data-name="Path 1016" d="M274.468 443.371h-35.344l10.162-51.38h35.346z" fill="#fff"/><path data-name="Path 1017" d="M276.164 406.009s3.394 2.632 4.118 5.671a29.977 29.977 0 00-4.708-3.484l-1.667 5.45 1.956 2.738s.8 4.349 3.7 4.276 4.274-4.392 4.492-7.014-2.175-7.737-2.175-7.737l-.523 2.637a16.322 16.322 0 00-4.671-4.666z" fill="#ff9c87"/><path data-name="Line 70" fill="none" stroke="#343947" stroke-miterlimit="10" stroke-width=".261" d="M225.865 388.561v69.267"/><path data-name="Path 1018" d="M224.065 382.964l-2.57 7.189-8.284-6.584" fill="none" stroke="#343947" stroke-miterlimit="10" stroke-width=".261"/><path data-name="Path 1019" d="M227.656 382.964l2.57 7.189 8.284-6.584" fill="none" stroke="#343947" stroke-miterlimit="10" stroke-width=".261"/><path data-name="Path 1020" d="M220.636 365.482c-1.048-2.016.759-6.121 2.848-6.121 2.051 0 2.511 3.142 2.526 3.255a42.64 42.64 0 003.924-11.27h-17.97s-2 10.669 1.151 17.522a23.335 23.335 0 003.386 5.06 28.158 28.158 0 007.132-7.315 2.273 2.273 0 01-2.997-1.131z" fill="#33353a"/><path data-name="Path 1021" d="M490.72 222.027h-9.445c.133-.608.191-.955.191-.955h-17.973a44.532 44.532 0 00-.566 5.262l29.37 1.732a9.765 9.765 0 01-1.577-6.039z" transform="translate(-251.529 130.275)" opacity=".6" fill="url(#m)"/><path data-name="Path 1022" d="M210.667 354.103h40.3s0-4-10.913-4c0 0-4.324-12.21-13.4-12.21-11.774.003-15.987 7.567-15.987 16.21z" fill="#eedb4b"/><g data-name="Group 703"><g data-name="Group 474"><path data-name="Path 683" d="M397.309 254.111l14.744-23.078 8.89-3.51 2.873 8.483z" fill="#ffe051"/><path data-name="Path 684" d="M424.099 239.775l-.283-3.767-26.507 18.103z" fill="#ffb600"/><path data-name="Path 685" d="M427.335 241.842l-3.236-2.067-26.79 14.338z" fill="#fdc526"/><path data-name="Path 686" d="M424.624 254.155l-27.315-.044 30.026-12.269 4.568 6.88z" fill="#ffe051"/></g><g data-name="Group 475"><path data-name="Path 687" d="M406.186 271.415l7.507-11.744 4.522-1.787 1.463 4.318z" fill="#ffe051"/><path data-name="Path 688" d="M419.821 264.118l-.143-1.916-13.492 9.213z" fill="#ffb600"/><path data-name="Path 689" d="M421.469 265.172l-1.648-1.053-13.635 7.297z" fill="#fdc526"/><path data-name="Path 690" d="M420.084 271.436l-13.898-.02 15.283-6.245 2.322 3.5z" fill="#ffe051"/></g><g data-name="Group 476"><path data-name="Path 691" d="M370.579 289.824l17.03-26.656 10.266-4.052 3.32 9.804z" fill="#ffe051"/><path data-name="Path 692" d="M401.521 273.266l-.326-4.35-30.616 20.909z" fill="#ffb600"/><path data-name="Path 693" d="M405.259 275.653l-3.738-2.388-30.942 16.559z" fill="#fdc526"/><path data-name="Path 694" d="M402.127 289.874l-31.548-.05 34.68-14.17 5.278 7.945z" fill="#ffe051"/></g></g></g></svg>