<svg xmlns="http://www.w3.org/2000/svg" width="24.209" height="10.176"><g fill="#f8ca1c"><path data-name="Path 606" d="M5.689.475a.44.44 0 0 0-.4-.249h-.525a.439.439 0 0 0-.4.25L.037 9.546a.439.439 0 0 0 .4.629h.649a.44.44 0 0 0 .4-.25l1.132-2.373h4.857L8.62 9.927a.44.44 0 0 0 .4.249h.648a.44.44 0 0 0 .381-.658zM3.315 6.088l1.718-3.6 1.736 3.6z"/><path data-name="Path 607" d="M24.162.713l-.234-.47a.44.44 0 0 0-.393-.244h-6.559a.439.439 0 0 0-.439.439v.586a.439.439 0 0 0 .439.439h5.1l-5.608 7.53a.439.439 0 0 0-.041.458l.234.47a.44.44 0 0 0 .393.244h6.522a.439.439 0 0 0 .439-.439V9.14a.439.439 0 0 0-.439-.439h-5.059l5.608-7.53a.44.44 0 0 0 .037-.458z"/><path data-name="Path 608" d="M15.925 6.027l-.461-.361a.439.439 0 0 0-.617.075l-1.068 1.364V.439A.439.439 0 0 0 13.34 0h-.586a.439.439 0 0 0-.439.439v6.666l-1.068-1.364a.439.439 0 0 0-.617-.075l-.461.361a.439.439 0 0 0-.075.617l2.608 3.331a.439.439 0 0 0 .692 0l2.608-3.331a.44.44 0 0 0-.077-.617z"/></g></svg>