<svg data-name="storage (1)" xmlns="http://www.w3.org/2000/svg" width="103.632" height="103.631"><path data-name="Path 189" d="M102.468 17.366L52.379.099a1.731 1.731 0 0 0-1.127 0L1.164 17.366A1.728 1.728 0 0 0 0 18.999v82.906a1.727 1.727 0 0 0 1.727 1.727h8.636a1.727 1.727 0 0 0 1.727-1.727V41.452h79.452v60.452a1.727 1.727 0 0 0 1.727 1.727h8.631a1.727 1.727 0 0 0 1.727-1.727V18.999a1.728 1.728 0 0 0-1.159-1.633zM91.542 37.999H12.09v-3.456h79.452zm0-6.909H12.09v-3.456h79.452zm8.636 69.088H95V25.907a1.727 1.727 0 0 0-1.727-1.727h-82.91a1.727 1.727 0 0 0-1.727 1.727v74.27H3.454V20.23L51.816 3.554l48.362 16.676zm0 0" fill="#f8c91c"/><path data-name="Path 190" d="M79.452 65.633h-19V50.088a1.727 1.727 0 0 0-1.727-1.723H17.272a1.727 1.727 0 0 0-1.727 1.723v51.817a1.727 1.727 0 0 0 1.727 1.727h62.179a1.727 1.727 0 0 0 1.727-1.727v-34.54a1.727 1.727 0 0 0-1.726-1.732zM25.908 51.816h3.454v3.449h-3.454zm10.363 48.362H18.999V86.36h3.454v5.182a1.727 1.727 0 0 0 1.727 1.727h6.909a1.727 1.727 0 0 0 1.727-1.727V86.36h3.454zM25.908 89.814V86.36h3.454v3.454zm10.363-6.909H18.999V69.088h3.454v5.177a1.727 1.727 0 0 0 1.727 1.727h6.909a1.727 1.727 0 0 0 1.727-1.727v-5.182h3.454zM25.908 72.542v-3.454h3.454v3.454zm10.363-6.909H18.999V51.816h3.454v5.182a1.727 1.727 0 0 0 1.727 1.727h6.909a1.727 1.727 0 0 0 1.727-1.727v-5.182h3.454zm10.363-13.818h3.454v3.45h-3.453zm10.363 48.362H39.726V86.36h3.454v5.182a1.727 1.727 0 0 0 1.727 1.727h6.909a1.727 1.727 0 0 0 1.729-1.728v-5.182h3.454zM46.635 89.814V86.36h3.454v3.454zm10.363-6.909H39.726V69.088h3.454v5.177a1.727 1.727 0 0 0 1.727 1.727h6.909a1.727 1.727 0 0 0 1.729-1.727v-5.182h3.454zM46.635 72.542v-3.454h3.454v3.454zm10.363-6.909H39.726V51.816h3.454v5.182a1.727 1.727 0 0 0 1.727 1.727h6.909a1.727 1.727 0 0 0 1.729-1.728v-5.182h3.454zm10.363 3.454h3.454v3.454h-3.454zm10.363 31.09H60.452V86.36h3.454v5.182a1.727 1.727 0 0 0 1.727 1.727h6.912a1.727 1.727 0 0 0 1.727-1.727V86.36h3.454zM67.361 89.814V86.36h3.454v3.454zm10.363-6.909H60.452V69.088h3.454v5.177a1.727 1.727 0 0 0 1.727 1.727h6.912a1.727 1.727 0 0 0 1.727-1.727v-5.182h3.454zm0 0" fill="#f8c91c"/></svg>