<svg xmlns="http://www.w3.org/2000/svg" width="50" height="37.373"><g data-name="Group 23"><text data-name="təcili sifariş" transform="translate(25 34.373)" fill="#707070" font-size="10" font-family="Helvetica"><tspan x="-24.448" y="0">təcili sifariş</tspan></text><g fill="#fcd626" fill-rule="evenodd"><path data-name="Path 3" d="M32.493 7.253l.613-.613.78.78a.483.483 0 1 0 .681-.683l-2.241-2.243a.484.484 0 0 0-.684.684l.78.78-.613.613a10.366 10.366 0 0 0-6.557-2.716v-.786h1.891a.483.483 0 0 0 .483-.483V.483A.483.483 0 0 0 27.143 0h-4.749a.483.483 0 0 0-.483.483v2.1a.483.483 0 0 0 .483.483h1.891v.785a10.452 10.452 0 0 0-8.148 16.337.484.484 0 0 0 .8-.546 9.484 9.484 0 1 1 2.61 2.569.483.483 0 0 0-.533.806A10.452 10.452 0 0 0 32.493 7.253zM22.878.967h3.782V2.1h-3.782z"/><path data-name="Path 4" d="M24.769 22.462a8.168 8.168 0 1 0-8.168-8.168 8.177 8.177 0 0 0 8.168 8.168zm-.483-15.353v1.276a.483.483 0 1 0 .967 0V7.109a7.2 7.2 0 0 1 0 14.37v-1.276a.483.483 0 1 0-.967 0v1.273a7.212 7.212 0 0 1-6.7-6.7h1.275a.483.483 0 1 0 0-.967h-1.277a7.212 7.212 0 0 1 6.702-6.7z"/><path data-name="Path 5" d="M24.769 16.282a1.991 1.991 0 0 0 1.928-1.5h3.654a.483.483 0 0 0 0-.967h-3.654a1.988 1.988 0 1 0-1.928 2.471zm0-3.009a1.021 1.021 0 1 1-1.021 1.021 1.022 1.022 0 0 1 1.021-1.02z"/><path data-name="Path 6" d="M17.775 20.915a.483.483 0 1 0 .483.483.484.484 0 0 0-.483-.483z"/></g></g></svg>