<svg xmlns="http://www.w3.org/2000/svg" width="46.792" height="46.792"><g data-name="Group 87" fill="#eee"><path data-name="Path 223" d="M.092 13.564a5 5 0 01.085-.849 4.74 4.74 0 00-.085.849"/><path data-name="Path 224" d="M.785 11.064a.013.013 0 000 .006z"/><path data-name="Path 225" d="M.252 12.369c.031-.128.075-.249.115-.371a5.7 5.7 0 00-.115.371"/></g><g data-name="united-states-of-america (1)"><g data-name="Group 89" fill="#c42126"><path data-name="Rectangle 111" d="M.887 25.342h44.712v.001H.887z"/><path data-name="Rectangle 112" d="M3.215 13.083h40.053v.001H3.215z"/><path data-name="Rectangle 113" d="M1.623 17.169H44.86v.001H1.623z"/><path data-name="Path 246" d="M23.24.785c-.441 0-.879.016-1.313.041h2.626c-.432-.025-.87-.041-1.313-.041z"/><path data-name="Rectangle 114" d="M.878 21.255h44.727v.001H.878z"/></g><path data-name="Path 247" d="M29.879 8.997h10.723a22.571 22.571 0 00-4.394-4.085h-8.052a21.348 21.348 0 011.723 4.085z" fill="#e7e7e7"/><path data-name="Path 248" d="M28.156 4.912h8.052A22.333 22.333 0 0024.554.826h-.687c2.033.256 2.969 1.764 4.289 4.086z" fill="#dc3027"/><path data-name="Path 249" d="M44.86 17.174a22.308 22.308 0 00-1.593-4.085H30.931c.25 1.312.447 2.682.593 4.085z" fill="#e7e7e7"/><path data-name="Path 250" d="M30.233 13.085h13.03a22.47 22.47 0 00-2.666-4.086H29.219a36.063 36.063 0 011.014 4.086z" fill="#dc3027"/><path data-name="Path 251" d="M31.997 25.341h13.6c.065-.691.1-1.391.1-2.1 0-.67-.035-1.331-.093-1.986H32c.044 1.36.044 2.728-.003 4.086z" fill="#e7e7e7"/><path data-name="Path 252" d="M45.606 21.255a22.363 22.363 0 00-.745-4.085H30.952c.14 1.338.232 2.706.277 4.085z" fill="#dc3027"/><path data-name="Path 253" d="M30.697 33.513h12.512a22.279 22.279 0 001.619-4.086H31.302a48.297 48.297 0 01-.605 4.086z" fill="#e7e7e7"/><path data-name="Path 254" d="M44.829 29.427a22.319 22.319 0 00.769-4.085H31.573a57.78 57.78 0 01-.285 4.085z" fill="#dc3027"/><path data-name="Path 255" d="M36.048 41.684a22.585 22.585 0 004.459-4.085H29.971a20.869 20.869 0 01-1.756 4.085z" fill="#e7e7e7"/><g data-name="Group 90" fill="#dc3027"><path data-name="Path 256" d="M29.574 37.599h10.933a22.492 22.492 0 002.7-4.086h-12.6a35.546 35.546 0 01-1.033 4.086z"/><path data-name="Path 257" d="M22.427 45.682h-.136z"/><path data-name="Path 258" d="M23.241 45.698a22.352 22.352 0 0012.805-4.012h-8.127c-1.442 2.485-2.394 4.012-4.678 4.012z"/></g><path data-name="Path 260" d="M28.899 4.912H10.275a22.572 22.572 0 00-4.394 4.085h24.741a21.347 21.347 0 00-1.723-4.085z" fill="#f3f4f5"/><path data-name="Path 261" d="M10.275 4.912h18.624c-1.32-2.322-3-3.83-5.036-4.086h-1.935a22.33 22.33 0 00-11.653 4.086z" fill="#e73625"/><path data-name="Path 262" d="M1.623 17.174h30.61a49.1 49.1 0 00-.593-4.085H3.216a22.3 22.3 0 00-1.593 4.085z" fill="#f3f4f5"/><path data-name="Path 263" d="M5.879 8.997a22.486 22.486 0 00-2.665 4.086H31.64a36.005 36.005 0 00-1.018-4.086z" fill="#e73625"/><path data-name="Path 264" d="M.783 23.242c0 .708.037 1.408.1 2.1h31.624a58.57 58.57 0 000-4.085H.878a22.437 22.437 0 00-.095 1.985z" fill="#f3f4f5"/><path data-name="Path 265" d="M.878 21.255H32.51a57.887 57.887 0 00-.277-4.085H1.623a22.338 22.338 0 00-.745 4.085z" fill="#e73625"/><path data-name="Path 266" d="M32.222 29.427H1.655a22.293 22.293 0 001.619 4.086h28.343c.254-1.31.456-2.68.605-4.086z" fill="#f3f4f5"/><path data-name="Path 267" d="M1.655 29.427h30.563a57.23 57.23 0 00.285-4.085H.886a22.345 22.345 0 00.769 4.085z" fill="#e73625"/><path data-name="Path 268" d="M10.435 41.684h18.4a20.861 20.861 0 001.756-4.085H5.976a22.574 22.574 0 004.459 4.085z" fill="#f3f4f5"/><g data-name="Group 91" fill="#e73625"><path data-name="Path 269" d="M3.274 33.513a22.494 22.494 0 002.7 4.086h24.61a35.621 35.621 0 001.03-4.086z"/><path data-name="Path 270" d="M22.291 45.678h.136c.27.01.541.016.814.016 2.284 0 4.146-1.527 5.589-4.012H10.436a22.338 22.338 0 0011.855 3.996z"/></g><path data-name="Path 271" d="M22.772.797a22.45 22.45 0 00-21.9 20.422h21.9V.797z" fill="#283991"/><g data-name="Group 92" fill="#efefef"><path data-name="Path 272" d="M5.279 13.508l.342 1.053h1.108l-.9.651.342 1.054-.9-.652-.9.652.342-1.054-.9-.651h1.124z"/><path data-name="Path 273" d="M5.279 17.23l.342 1.054h1.108l-.9.651.342 1.054-.9-.652-.9.652.342-1.054-.9-.651h1.124z"/><path data-name="Path 274" d="M9.005 7.928l.342 1.054h1.108l-.9.652.342 1.053-.9-.651-.9.651.35-1.059-.9-.652h1.108z"/><path data-name="Path 275" d="M9.005 11.647l.342 1.054h1.108l-.9.651.342 1.054-.9-.651-.9.651.342-1.054-.9-.651h1.108z"/><path data-name="Path 276" d="M9.005 15.369l.342 1.054h1.108l-.9.651.342 1.054-.9-.652-.9.652.342-1.054-.9-.651h1.108z"/><path data-name="Path 277" d="M2.453 18.131l-.342-1.054.9-.651H1.899l-.025-.077c-.122.376-.232.757-.333 1.142l.016-.012z"/><path data-name="Path 278" d="M4.387 12.544l.9-.652.9.652-.342-1.054.9-.652H5.621l-.342-1.053-.342 1.053h-.408c-.076.115-.149.23-.223.347l.42.3z"/><path data-name="Path 279" d="M9.001 6.31l.9.651-.346-1.058.9-.652h-.64q-.815.61-1.572 1.29l-.135.415z"/><path data-name="Path 280" d="M11.827 5.1l.9-.652.9.652-.342-1.054.9-.651h-1.12l-.046-.142a25.69 25.69 0 00-1.11.6l.26.189z"/><path data-name="Path 281" d="M12.723 6.063l.342 1.053h1.108l-.9.652.342 1.054-.9-.652-.9.652.342-1.054-.9-.652h1.108z"/><path data-name="Path 282" d="M12.723 9.786l.342 1.053h1.108l-.9.652.342 1.054-.9-.652-.9.652.342-1.054-.9-.652h1.108z"/><path data-name="Path 283" d="M12.723 13.508l.342 1.053h1.108l-.9.651.342 1.054-.9-.652-.9.652.342-1.054-.9-.651h1.108z"/><path data-name="Path 284" d="M12.723 17.23l.342 1.054h1.108l-.9.651.342 1.054-.9-.652-.9.652.342-1.054-.9-.651h1.108z"/><path data-name="Path 285" d="M16.446 4.202l.342 1.054h1.108l-.9.652.342 1.053-.9-.651-.9.651.342-1.053-.9-.652h1.108z"/><path data-name="Path 286" d="M16.446 7.928l.342 1.054h1.108l-.9.652.342 1.053-.9-.651-.9.651.354-1.059-.9-.652H16.1z"/><path data-name="Path 287" d="M16.446 11.647l.342 1.054h1.108l-.9.651.342 1.054-.9-.651-.9.651.342-1.054-.9-.651h1.108z"/><path data-name="Path 288" d="M16.446 15.369l.342 1.054h1.108l-.9.651.342 1.054-.9-.652-.9.652.342-1.054-.9-.651h1.108z"/><path data-name="Path 289" d="M20.168 2.341l.342 1.054h1.108l-.9.651.342 1.054-.9-.652-.9.652.342-1.054-.9-.651h1.108z"/><path data-name="Path 290" d="M20.168 6.063l.342 1.053h1.108l-.9.652.342 1.054-.9-.652-.9.652.342-1.054-.9-.652h1.108z"/><path data-name="Path 291" d="M20.168 9.786l.342 1.053h1.108l-.9.652.342 1.054-.9-.652-.9.652.342-1.054-.9-.652h1.108z"/><path data-name="Path 292" d="M20.168 13.508l.342 1.053h1.108l-.9.651.342 1.054-.9-.652-.9.652.342-1.054-.9-.651h1.108z"/><path data-name="Path 293" d="M20.168 17.23l.342 1.054h1.108l-.9.651.342 1.054-.9-.652-.9.652.342-1.054-.9-.651h1.108z"/></g></g><g data-name="Ellipse 16" fill="none" stroke="#fff" stroke-width="3"><circle cx="23.396" cy="23.396" r="23.396" stroke="none"/><circle cx="23.396" cy="23.396" r="21.896"/></g></svg>