<svg xmlns="http://www.w3.org/2000/svg" width="18.613" height="18.614"><g data-name="link (2)"><path data-name="Path 339" d="M17.53 1.842l-.759-.759a3.706 3.706 0 0 0-5.237 0l-2.08 2.08a3.71 3.71 0 0 0-.167 5.057l.013.015L10.436 7.1l-.01-.013a2.1 2.1 0 0 1 .161-2.794l2.08-2.08a2.111 2.111 0 0 1 2.975 0l.759.759a2.1 2.1 0 0 1 0 2.975l-2.079 2.08a2.1 2.1 0 0 1-2.792.162l-.013-.01-1.137 1.133.015.013a3.709 3.709 0 0 0 5.057-.167l2.078-2.079a3.707 3.707 0 0 0 0-5.237zm0 0" fill="#f8ca1c"/><path data-name="Path 340" d="M9.326 10.394l-.013-.015-1.134 1.134.01.013a2.1 2.1 0 0 1-.161 2.794l-2.08 2.08a2.11 2.11 0 0 1-2.975 0l-.759-.759a2.106 2.106 0 0 1 0-2.975l2.08-2.08a2.1 2.1 0 0 1 2.794-.161l.013.01 1.134-1.134-.015-.013a3.709 3.709 0 0 0-5.057.167l-2.08 2.08a3.707 3.707 0 0 0 0 5.237l.759.759a3.707 3.707 0 0 0 5.237 0l2.08-2.08a3.71 3.71 0 0 0 .167-5.057zm0 0" fill="#f8ca1c"/><g data-name="Group 117"><path data-name="Path 341" d="M12.1 6.52a.8.8 0 0 0-1.131 0l-4.444 4.444a.8.8 0 0 0 1.131 1.131L12.1 7.651a.8.8 0 0 0 0-1.131zm0 0" fill="#f8ca1c"/><path data-name="Path 342" d="M11.919 9.629a.426.426 0 0 1-.071-.651l.4-.419a2.1 2.1 0 0 1-.725-.373l-.013-.01-1.126 1.136.015.013a3.7 3.7 0 0 0 3 .872 3.681 3.681 0 0 1-1.48-.568zm0 0" fill="#e4e7e7"/><path data-name="Path 343" d="M10.577 3.163l2.08-2.08a3.682 3.682 0 0 1 2.058-1.04 3.7 3.7 0 0 0-3.179 1.04l-2.08 2.08a3.71 3.71 0 0 0-.167 5.057l.013.015.657-.657a3.713 3.713 0 0 1 .618-4.415zm0 0" fill="#e4e7e7"/><path data-name="Path 344" d="M2.964 17.529l-.759-.759a3.707 3.707 0 0 1 0-5.237l2.08-2.08a3.684 3.684 0 0 1 2.062-1.039 3.706 3.706 0 0 0-3.183 1.039l-2.08 2.08a3.707 3.707 0 0 0 0 5.237l.759.759a3.7 3.7 0 0 0 3.179 1.04 3.683 3.683 0 0 1-2.058-1.04zm0 0" fill="#e4e7e7"/></g><path data-name="Path 345" d="M7.641 12.092a.8.8 0 0 1 0-1.131l4.444-4.444a.8.8 0 0 0-1.126 0l-4.444 4.444a.8.8 0 0 0 1.126 1.135zm0 0" fill="#e4e7e7"/></g></svg>