<svg xmlns="http://www.w3.org/2000/svg" width="46.868" height="54.902" viewBox="0 0 46.868 54.902">
  <g id="Group_412" data-name="Group 412" transform="translate(-734.829 -450)">
    <g id="add-documents" transform="translate(729.641 450)">
      <g id="Group_405" data-name="Group 405" transform="translate(5.188)">
        <g id="Path_52" data-name="Path 52" transform="translate(-5.188)" fill="#676767">
          <path d="M 34.07926559448242 54.65200042724609 L 12.2623348236084 54.65200042724609 C 8.499384880065918 54.65200042724609 5.438004970550537 51.59027099609375 5.438004970550537 47.82688903808594 L 5.438004970550537 15.10188007354736 C 5.438004970550537 11.33850002288818 8.499384880065918 8.27677059173584 12.2623348236084 8.27677059173584 L 16.09065437316895 8.27677059173584 L 16.34065437316895 8.27677059173584 L 16.34065437316895 8.02677059173584 L 16.34065437316895 7.07511043548584 C 16.34065437316895 3.311730146408081 19.40238571166992 0.2500002086162567 23.1657657623291 0.2500002086162567 L 33.99603652954102 0.2500002086162567 L 34.05863571166992 0.2595402002334595 L 34.07171630859375 0.2615302205085754 L 34.08494567871094 0.2621302008628845 C 34.20906448364258 0.2677702009677887 34.32805633544922 0.2910102009773254 34.45940399169922 0.3352602124214172 C 34.50690841674805 0.3510979115962982 34.53650283813477 0.3613141477108002 34.56330871582031 0.3720933198928833 C 34.74051666259766 0.4532739520072937 34.86985397338867 0.539156973361969 34.98218536376953 0.6501702070236206 L 51.40248489379883 17.07048034667969 C 51.51151657104492 17.17887115478516 51.59975433349609 17.30899810791016 51.67255401611328 17.46859169006348 L 51.71934509277344 17.59337615966797 C 51.75979614257812 17.71309661865234 51.78334426879883 17.8300666809082 51.79131698608398 17.95086097717285 L 51.79194641113281 17.96035003662109 L 51.79328536987305 17.96976089477539 L 51.80626678466797 18.06060409545898 L 51.80626678466797 39.79933929443359 C 51.80626678466797 43.56272125244141 48.74452590942383 46.62445068359375 44.98114395141602 46.62445068359375 L 41.15360641479492 46.62445068359375 L 40.90360641479492 46.62445068359375 L 40.90360641479492 46.87445068359375 L 40.90360641479492 47.82688903808594 C 40.90360641479492 51.59027099609375 37.84221649169922 54.65200042724609 34.07926559448242 54.65200042724609 Z M 12.26156520843506 11.01737022399902 C 10.01020526885986 11.01737022399902 8.178595542907715 12.84932994842529 8.178595542907715 15.10111045837402 L 8.178595542907715 47.82611083984375 C 8.178595542907715 50.07788848876953 10.01020526885986 51.90985107421875 12.26156520843506 51.90985107421875 L 34.07849502563477 51.90985107421875 C 36.3298454284668 51.90985107421875 38.16145706176758 50.07789993286133 38.16145706176758 47.82611846923828 L 38.16145706176758 27.688720703125 L 38.16145706176758 27.438720703125 L 37.91145706176758 27.438720703125 L 28.56521606445312 27.438720703125 C 24.80183601379395 27.438720703125 21.74010467529297 24.37698936462402 21.74010467529297 20.61360931396484 L 21.74010467529297 11.26737022399902 L 21.74010467529297 11.01737022399902 L 21.49010467529297 11.01737022399902 L 12.26156520843506 11.01737022399902 Z M 40.90359497070312 26.0861759185791 L 40.90359497070312 43.63230895996094 L 40.90359497070312 43.88230895996094 L 41.15359497070312 43.88230895996094 L 44.98114395141602 43.88230895996094 C 47.23250579833984 43.88230895996094 49.06411361694336 42.05035018920898 49.06411361694336 39.79856872558594 L 49.06411361694336 19.66349983215332 L 49.06411361694336 19.41349983215332 L 48.81411361694336 19.41349983215332 L 39.46787643432617 19.41349983215332 C 35.70534515380859 19.41349983215332 32.64430618286133 16.35177040100098 32.64430618286133 12.5883903503418 L 32.64430618286133 3.24215030670166 L 32.64430618286133 2.99215030670166 L 32.39430618286133 2.99215030670166 L 23.1657657623291 2.99215030670166 C 20.91398429870605 2.99215030670166 19.0820255279541 4.82411003112793 19.0820255279541 7.075890064239502 L 19.0820255279541 8.027549743652344 L 19.0820255279541 8.277549743652344 L 19.3320255279541 8.277549743652344 L 23.09099960327148 8.277549743652344 L 23.17838478088379 8.292010307312012 L 23.46919441223145 8.340129852294922 L 23.46919441223145 8.336013793945312 C 23.49980354309082 8.344403266906738 23.53048896789551 8.353902816772461 23.56103515625 8.364470481872559 L 23.56500434875488 8.365850448608398 L 23.56902503967285 8.367090225219727 C 23.61484527587891 8.381230354309082 23.65314483642578 8.396039962768555 23.69710540771484 8.416609764099121 C 23.8428955078125 8.482100486755371 23.97418594360352 8.571300506591797 24.08032608032227 8.676170349121094 L 40.50291442871094 25.10110092163086 C 40.60830688476562 25.20714378356934 40.69478988647461 25.33427619934082 40.76662826538086 25.48907852172852 L 40.81735610961914 25.62224960327148 C 40.85810852050781 25.74563789367676 40.88078689575195 25.85893440246582 40.88865661621094 25.97838973999023 L 40.88930511474609 25.98826026916504 L 40.8907356262207 25.99805068969727 L 40.90359497070312 26.0861759185791 Z M 24.48147583007812 12.95666027069092 L 24.48147583007812 13.5601806640625 L 24.48147583007812 20.6143798828125 C 24.48147583007812 22.86615943908691 26.31378555297852 24.6981201171875 28.56599426269531 24.6981201171875 L 35.62019348144531 24.6981201171875 L 36.22377395629883 24.6981201171875 L 35.79696655273438 24.27133941650391 L 24.90824508666992 13.38339996337891 L 24.48147583007812 12.95666027069092 Z M 35.38406372070312 4.92896032333374 L 35.38413619995117 5.532670021057129 L 35.38490676879883 12.58841991424561 C 35.38490676879883 14.84016990661621 37.21616363525391 16.6721305847168 39.46709442138672 16.6721305847168 L 46.52207565307617 16.6721305847168 L 47.12556457519531 16.6721305847168 L 46.6988639831543 16.24537086486816 L 35.8109245300293 5.355880260467529 L 35.38406372070312 4.92896032333374 Z" stroke="none"/>
          <path d="M 23.165771484375 0.5 C 19.54024505615234 0.5 16.59066390991211 3.449581146240234 16.59066390991211 7.075111389160156 L 16.59066390991211 8.026771545410156 L 16.59066390991211 8.526771545410156 L 16.09066390991211 8.526771545410156 L 12.26233291625977 8.526771545410156 C 8.637233734130859 8.526771545410156 5.688003540039062 11.47634887695312 5.688003540039062 15.10187911987305 L 5.688003540039062 47.82688140869141 C 5.688003540039062 51.45241165161133 8.637233734130859 54.40200042724609 12.26233291625977 54.40200042724609 L 34.07926177978516 54.40200042724609 C 37.70436096191406 54.40200042724609 40.65360260009766 51.45241165161133 40.65360260009766 47.82688140869141 L 40.65360260009766 46.87445068359375 L 40.65360260009766 46.37445068359375 L 41.15360260009766 46.37445068359375 L 44.98114395141602 46.37445068359375 C 48.60667419433594 46.37445068359375 51.5562629699707 43.42486953735352 51.5562629699707 39.79933929443359 L 51.5562629699707 18.07832717895508 L 51.54580307006836 18.00511932373047 L 51.54311370849609 17.98630142211914 L 51.54186248779297 17.96733093261719 C 51.53533172607422 17.868408203125 51.51685333251953 17.77604675292969 51.48380279541016 17.67726516723633 L 51.44162750244141 17.56478500366211 C 51.38161087036133 17.43498992919922 51.31304550170898 17.33407974243164 51.22571182250977 17.24724197387695 L 34.80646514892578 0.8279800415039062 C 34.71699523925781 0.7395706176757812 34.61128997802734 0.6695976257324219 34.46472549438477 0.6019325256347656 C 34.44695281982422 0.5949745178222656 34.42421722412109 0.5870513916015625 34.37961578369141 0.5721817016601562 C 34.27098083496094 0.5355911254882812 34.17374420166016 0.5164299011230469 34.07358551025391 0.511871337890625 L 34.04713439941406 0.5106697082519531 L 34.02096557617188 0.5066795349121094 L 33.97713088989258 0.5 L 23.165771484375 0.5 M 44.98114395141602 44.13230133056641 L 41.15359497070312 44.13230133056641 L 40.65359497070312 44.13230133056641 L 40.65359497070312 43.63230133056641 L 40.65359497070312 26.10432243347168 L 40.64335250854492 26.03415107727051 L 40.64049530029297 26.01457977294922 L 40.63919067382812 25.99484062194824 C 40.63277053833008 25.89736557006836 40.61498260498047 25.80784034729004 40.58169555664062 25.70590782165527 L 40.53620910644531 25.58650779724121 C 40.47756958007812 25.46209335327148 40.40843963623047 25.36069679260254 40.32612609863281 25.27787017822266 L 23.90460205078125 8.854011535644531 C 23.81948471069336 8.769901275634766 23.71352386474609 8.69805908203125 23.59819412231445 8.646259307861328 L 23.59469223022461 8.644691467285156 L 23.59121322631836 8.643058776855469 C 23.55778503417969 8.627429962158203 23.52999496459961 8.616680145263672 23.49529266357422 8.605968475341797 L 23.48725509643555 8.603488922119141 L 23.47929382324219 8.600730895996094 C 23.46807861328125 8.596851348876953 23.45686721801758 8.593151092529297 23.44566345214844 8.589626312255859 L 23.1375846862793 8.538650512695312 L 23.07049560546875 8.527549743652344 L 19.33203506469727 8.527549743652344 L 18.83203506469727 8.527549743652344 L 18.83203506469727 8.027549743652344 L 18.83203506469727 7.075881958007812 C 18.83203506469727 4.686248779296875 20.7761344909668 2.742141723632812 23.16576385498047 2.742141723632812 L 32.39430236816406 2.742141723632812 L 32.89430236816406 2.742141723632812 L 32.89430236816406 3.242141723632812 L 32.89430236816406 12.5883903503418 C 32.89430236816406 16.21392059326172 35.84319305419922 19.16350173950195 39.46787261962891 19.16350173950195 L 48.81411361694336 19.16350173950195 L 49.31411361694336 19.16350173950195 L 49.31411361694336 19.66350173950195 L 49.31411361694336 39.79856872558594 C 49.31411361694336 42.18820190429688 47.37035369873047 44.13230133056641 44.98114395141602 44.13230133056641 M 47.72905349731445 16.9221305847168 L 46.52207183837891 16.9221305847168 L 39.46709442138672 16.9221305847168 C 37.07831573486328 16.9221305847168 35.13490295410156 14.97801971435547 35.13490295410156 12.58843994140625 L 35.13413238525391 5.532680511474609 L 35.13400268554688 4.325271606445312 L 35.98771286010742 5.179100036621094 L 46.87565231323242 16.06859970092773 L 47.72905349731445 16.9221305847168 M 34.0784912109375 52.15985107421875 L 12.26156234741211 52.15985107421875 C 9.872352600097656 52.15985107421875 7.928592681884766 50.21574020385742 7.928592681884766 47.82611083984375 L 7.928592681884766 15.10110855102539 C 7.928592681884766 12.71147918701172 9.872352600097656 10.76736831665039 12.26156234741211 10.76736831665039 L 21.49010467529297 10.76736831665039 L 21.99010467529297 10.76736831665039 L 21.99010467529297 11.26736831665039 L 21.99010467529297 20.61360931396484 C 21.99010467529297 24.23913955688477 24.93968200683594 27.188720703125 28.56521415710449 27.188720703125 L 37.91145324707031 27.188720703125 L 38.41145324707031 27.188720703125 L 38.41145324707031 27.688720703125 L 38.41145324707031 47.82611083984375 C 38.41145324707031 50.21574020385742 36.46769332885742 52.15985107421875 34.0784912109375 52.15985107421875 M 36.82736206054688 24.9481201171875 L 35.62019348144531 24.9481201171875 L 28.56599235534668 24.9481201171875 C 26.17593383789062 24.9481201171875 24.23147201538086 23.0040111541748 24.23147201538086 20.6143798828125 L 24.23147201538086 13.5601806640625 L 24.23147201538086 12.35313034057617 L 25.08501434326172 13.20661163330078 L 35.97373199462891 24.09455108642578 L 36.82736206054688 24.9481201171875 M 23.165771484375 0 L 34.01499176025391 0 L 34.09629058837891 0.01239013671875 C 34.24961090087891 0.01935958862304688 34.39209365844727 0.04877853393554688 34.53922271728516 0.09833908081054688 C 34.594970703125 0.1169204711914062 34.62827301025391 0.1285400390625 34.66233062744141 0.1424789428710938 C 34.87141418457031 0.2377204895019531 35.02628326416016 0.3422584533691406 35.15791320800781 0.4723396301269531 L 51.57926177978516 16.89369201660156 C 51.71322250366211 17.02687835693359 51.81853485107422 17.1840705871582 51.90371322631836 17.37300872802734 L 51.95481491088867 17.5092887878418 C 52.00437164306641 17.65486907958984 52.03147125244141 17.79347991943359 52.040771484375 17.93439865112305 L 52.0562629699707 18.04280853271484 L 52.0562629699707 39.79933929443359 C 52.0562629699707 43.70122146606445 48.88225555419922 46.87445068359375 44.98114395141602 46.87445068359375 L 41.15360260009766 46.87445068359375 L 41.15360260009766 47.82688140869141 C 41.15360260009766 51.72721862792969 37.97959136962891 54.90200042724609 34.07926177978516 54.90200042724609 L 12.26233291625977 54.90200042724609 C 8.362003326416016 54.90200042724609 5.188003540039062 51.72721862792969 5.188003540039062 47.82688140869141 L 5.188003540039062 15.10187911987305 C 5.188003540039062 11.2015495300293 8.362003326416016 8.026771545410156 12.26233291625977 8.026771545410156 L 16.09066390991211 8.026771545410156 L 16.09066390991211 7.075111389160156 C 16.09066390991211 3.173229217529297 19.26466369628906 0 23.165771484375 0 Z M 44.98114395141602 43.63230133056641 C 47.09431457519531 43.63230133056641 48.81411361694336 41.91250991821289 48.81411361694336 39.79856872558594 L 48.81411361694336 19.66350173950195 L 39.46787261962891 19.66350173950195 C 35.56754302978516 19.66350173950195 32.39430236816406 16.49026107788086 32.39430236816406 12.5883903503418 L 32.39430236816406 3.242141723632812 L 23.16576385498047 3.242141723632812 C 21.05183410644531 3.242141723632812 19.33203506469727 4.961948394775391 19.33203506469727 7.075881958007812 L 19.33203506469727 8.027549743652344 L 23.11156463623047 8.027549743652344 L 23.21920394897461 8.045360565185547 L 23.21920394897461 8.042259216308594 C 23.35393142700195 8.049221038818359 23.49950408935547 8.078651428222656 23.64276504516602 8.128211975097656 C 23.70548248291016 8.147571563720703 23.75504302978516 8.167701721191406 23.80304336547852 8.190151214599609 C 23.97030258178711 8.265270233154297 24.12594223022461 8.369800567626953 24.25603485107422 8.498340606689453 L 40.67970275878906 24.92433929443359 C 40.80669403076172 25.05211067199707 40.91123199462891 25.20465087890625 40.99718475341797 25.39204025268555 L 41.05293273925781 25.53839111328125 C 41.10249328613281 25.68705940246582 41.12882232666016 25.82102012634277 41.13811492919922 25.96195030212402 L 41.15359497070312 26.06802940368652 L 41.15359497070312 43.63230133056641 L 44.98114395141602 43.63230133056641 Z M 35.63413238525391 5.532630920410156 L 35.63490295410156 12.5883903503418 C 35.63490295410156 14.70232009887695 37.35393524169922 16.4221305847168 39.46709442138672 16.4221305847168 L 46.52207183837891 16.4221305847168 L 35.63413238525391 5.532630920410156 Z M 34.0784912109375 51.65985107421875 C 36.19165420532227 51.65985107421875 37.91145324707031 49.94004821777344 37.91145324707031 47.82611083984375 L 37.91145324707031 27.688720703125 L 28.56521415710449 27.688720703125 C 24.66410446166992 27.688720703125 21.49010467529297 24.51548957824707 21.49010467529297 20.61360931396484 L 21.49010467529297 11.26736831665039 L 12.26156234741211 11.26736831665039 C 10.14840316772461 11.26736831665039 8.428592681884766 12.9871711730957 8.428592681884766 15.10110855102539 L 8.428592681884766 47.82611083984375 C 8.428592681884766 49.94004821777344 10.14840316772461 51.65985107421875 12.26156234741211 51.65985107421875 L 34.0784912109375 51.65985107421875 Z M 35.62019348144531 24.4481201171875 L 24.73147201538086 13.5601806640625 L 24.73147201538086 20.6143798828125 C 24.73147201538086 22.72832107543945 26.45050239562988 24.4481201171875 28.56599235534668 24.4481201171875 L 35.62019348144531 24.4481201171875 Z" stroke="none" fill="#fff"/>
        </g>
        <g id="Path_53" data-name="Path 53" transform="translate(-7.736 -8.292)" fill="#676767">
          <path d="M 25.12888526916504 53.79877853393555 C 24.41279411315918 53.79877853393555 23.83021354675293 53.2161979675293 23.83021354675293 52.50010681152344 L 23.83021354675293 46.94656753540039 L 23.83021354675293 46.69656753540039 L 23.58021354675293 46.69656753540039 L 18.02667427062988 46.69656753540039 C 17.31058502197266 46.69656753540039 16.72800445556641 46.11397933959961 16.72800445556641 45.39788818359375 C 16.72800445556641 44.68179702758789 17.31058502197266 44.09921646118164 18.02667427062988 44.09921646118164 L 23.58021354675293 44.09921646118164 L 23.83021354675293 44.09921646118164 L 23.83021354675293 43.84921646118164 L 23.83021354675293 38.29567718505859 C 23.83021354675293 37.57958984375 24.41279411315918 36.99699783325195 25.12888526916504 36.99699783325195 C 25.84497451782227 36.99699783325195 26.42755508422852 37.57958984375 26.42755508422852 38.29567718505859 L 26.42755508422852 43.84921646118164 L 26.42755508422852 44.09921646118164 L 26.67755508422852 44.09921646118164 L 32.23187255859375 44.09921646118164 C 32.94796371459961 44.09921646118164 33.53054428100586 44.68179702758789 33.53054428100586 45.39788818359375 C 33.53054428100586 46.11397933959961 32.94796371459961 46.69656753540039 32.23187255859375 46.69656753540039 L 26.67756462097168 46.69656753540039 L 26.42756462097168 46.69656753540039 L 26.42756462097168 46.94656753540039 L 26.42756462097168 52.50010681152344 C 26.42756462097168 53.2161979675293 25.84497451782227 53.79877853393555 25.12888526916504 53.79877853393555 Z" stroke="none"/>
          <path d="M 25.12888526916504 37.24699783325195 C 24.55064392089844 37.24699783325195 24.08021354675293 37.71742630004883 24.08021354675293 38.29566955566406 L 24.08021354675293 43.84921646118164 L 24.08021354675293 44.34921646118164 L 23.58021354675293 44.34921646118164 L 18.02667617797852 44.34921646118164 C 17.44843292236328 44.34921646118164 16.97800445556641 44.81964874267578 16.97800445556641 45.39788818359375 C 16.97800445556641 45.97612762451172 17.44843292236328 46.44656753540039 18.02667617797852 46.44656753540039 L 23.58021354675293 46.44656753540039 L 24.08021354675293 46.44656753540039 L 24.08021354675293 46.94656753540039 L 24.08021354675293 52.50009918212891 C 24.08021354675293 53.07833862304688 24.55064392089844 53.54877853393555 25.12888526916504 53.54877853393555 C 25.70712471008301 53.54877853393555 26.17756462097168 53.07833862304688 26.17756462097168 52.50009918212891 L 26.17756462097168 46.94656753540039 L 26.17756462097168 46.44656753540039 L 26.67756462097168 46.44656753540039 L 32.23187255859375 46.44656753540039 C 32.81011199951172 46.44656753540039 33.28054428100586 45.97612762451172 33.28054428100586 45.39788818359375 C 33.28054428100586 44.81964874267578 32.81011199951172 44.34921646118164 32.23187255859375 44.34921646118164 L 26.67755508422852 44.34921646118164 L 26.17755508422852 44.34921646118164 L 26.17755508422852 43.84921646118164 L 26.17755508422852 38.29566955566406 C 26.17755508422852 37.71742630004883 25.70712471008301 37.24699783325195 25.12888526916504 37.24699783325195 M 25.12888526916504 36.74699783325195 C 25.98375511169434 36.74699783325195 26.67755508422852 37.4408073425293 26.67755508422852 38.29566955566406 L 26.67755508422852 43.84921646118164 L 32.23187255859375 43.84921646118164 C 33.08674621582031 43.84921646118164 33.78054428100586 44.54301834106445 33.78054428100586 45.39788818359375 C 33.78054428100586 46.2535285949707 33.08674621582031 46.94656753540039 32.23187255859375 46.94656753540039 L 26.67756462097168 46.94656753540039 L 26.67756462097168 52.50009918212891 C 26.67756462097168 53.35573959350586 25.98375511169434 54.04877853393555 25.12888526916504 54.04877853393555 C 24.27401351928711 54.04877853393555 23.58021354675293 53.35573959350586 23.58021354675293 52.50009918212891 L 23.58021354675293 46.94656753540039 L 18.02667617797852 46.94656753540039 C 17.17180252075195 46.94656753540039 16.47800445556641 46.2535285949707 16.47800445556641 45.39788818359375 C 16.47800445556641 44.54301834106445 17.17180252075195 43.84921646118164 18.02667617797852 43.84921646118164 L 23.58021354675293 43.84921646118164 L 23.58021354675293 38.29566955566406 C 23.58021354675293 37.4408073425293 24.27401351928711 36.74699783325195 25.12888526916504 36.74699783325195 Z" stroke="none" fill="#fff"/>
        </g>
      </g>
    </g>
  </g>
</svg>
