<svg xmlns="http://www.w3.org/2000/svg" width="18.627" height="18.625" viewBox="0 0 18.627 18.625">
  <g id="airplane_1_" data-name="airplane (1)" transform="translate(0 -0.006)">
    <path id="Path_315" data-name="Path 315" d="M3.826,325.544l2.936,2.922a7.408,7.408,0,0,1,.291,2.631l-.581.581a.412.412,0,0,1-.581,0l-.305-.305L3.26,329.047c-.945-.945-1.9-1.89-2.355-2.355L.614,326.4a.412.412,0,0,1,0-.581l.581-.581A7.421,7.421,0,0,1,3.826,325.544Z" transform="translate(-0.476 -313.186)" fill="#d8dbdb"/>
    <path id="Path_316" data-name="Path 316" d="M99.459,47.571a.8.8,0,1,0,.8.8A.807.807,0,0,0,99.459,47.571Zm2.471.872a.8.8,0,1,0,.8.8A.807.807,0,0,0,101.93,48.443Zm9.085,8.94a.8.8,0,1,0-.8.8A.8.8,0,0,0,111.015,57.383Zm.073,1.672a.8.8,0,1,0,.8.8A.807.807,0,0,0,111.088,59.055Z" transform="translate(-95.017 -45.81)" fill="#676767"/>
    <path id="Path_317" data-name="Path 317" d="M10.9,48.573l2.878,2.878c.32.32,3.489,9.172,3.169,9.492l-1.148,1.148a.807.807,0,0,1-1.148,0L8.293,54.024.24,47.7a.807.807,0,0,1,0-1.148L1.388,45.4C1.708,45.085,10.575,48.253,10.9,48.573Z" transform="translate(0 -43.701)" fill="#d8dbdb"/>
    <path id="Path_318" data-name="Path 318" d="M61.708.661c.8.8.087,2.791-.858,3.75L50.457,14.79c-.959.959-4.39,3.111-5.189,2.311s1.352-4.23,2.311-5.189L57.958,1.518C58.917.559,60.909-.139,61.708.661Z" transform="translate(-43.428 -0.295)" fill="#e4e7e7"/>
    <path id="Path_319" data-name="Path 319" d="M48.414,12.315,58.793,1.936A3.9,3.9,0,0,1,62.093.8a1.267,1.267,0,0,0-.262-.451c-.8-.8-2.791-.087-3.75.872L47.7,11.6c-.959.959-3.1,4.39-2.311,5.189a.748.748,0,0,0,.538.174C45.943,15.716,47.6,13.129,48.414,12.315Z" transform="translate(-43.551 0)" fill="#dde0e0"/>
    <path id="Path_320" data-name="Path 320" d="M138.044,112.031l1.643,1.279,4.2-4.2-.044-.044a15.878,15.878,0,0,0-2.006-.843Z" transform="translate(-132.949 -104.222)" fill="#c7caca"/>
    <path id="Path_321" data-name="Path 321" d="M9.79,89.243l5.059,6.44a.819.819,0,0,0,1.076.058l-5.582-7.05ZM7.464,85.813.371,80.26a.814.814,0,0,0,.087,1.032l6.454,5.059Z" transform="translate(-0.218 -77.292)" fill="#f8ca1c"/>
    <path id="Path_322" data-name="Path 322" d="M139.643,198.626l.552-.538-1.6-1.25-.552.538Z" transform="translate(-132.949 -189.568)" fill="#deb51a"/>
  </g>
</svg>
