<svg id="building" xmlns="http://www.w3.org/2000/svg" width="107.505" height="107.505" viewBox="0 0 107.505 107.505">
  <g id="Group_43" data-name="Group 43">
    <g id="Group_42" data-name="Group 42">
      <path id="Path_166" data-name="Path 166" d="M171.428,477.867H121.259a1.792,1.792,0,0,0-1.792,1.792v3.584a1.792,1.792,0,0,0,3.583,0v-1.792h48.377a1.792,1.792,0,0,0,0-3.584Z" transform="translate(-94.382 -377.529)" fill="#f8c91c"/>
      <path id="Path_167" data-name="Path 167" d="M187.733,166.142a1.792,1.792,0,0,0,1.792,1.792h7.167a1.792,1.792,0,0,0,1.792-1.792V155.392a1.792,1.792,0,0,0-1.792-1.792h-7.167a1.792,1.792,0,0,0-1.792,1.792v10.751Zm3.584-8.959H194.9v7.167h-3.584Z" transform="translate(-148.315 -121.348)" fill="#f8c91c"/>
      <path id="Path_168" data-name="Path 168" d="M23.293,102.4H1.792A1.792,1.792,0,0,0,0,104.192v35.835a1.792,1.792,0,1,0,3.583,0V105.984H23.293a1.792,1.792,0,0,0,0-3.584Z" transform="translate(0 -80.899)" fill="#f8c91c"/>
      <path id="Path_169" data-name="Path 169" d="M409.6,370.942a1.792,1.792,0,0,0,1.792,1.792h7.167a1.792,1.792,0,0,0,1.792-1.792v-10.75a1.792,1.792,0,0,0-1.792-1.792h-7.167a1.792,1.792,0,0,0-1.792,1.792Zm3.584-8.959h3.584v7.167h-3.584Z" transform="translate(-323.596 -283.146)" fill="#f8c91c"/>
      <path id="Path_170" data-name="Path 170" d="M8.959,307.2C.1,307.2,0,330.26,0,330.493a8.974,8.974,0,0,0,7.167,8.778v9.14a1.792,1.792,0,0,0,3.583,0v-9.14a8.974,8.974,0,0,0,7.167-8.778C17.917,330.26,17.815,307.2,8.959,307.2Zm0,28.668a5.382,5.382,0,0,1-5.375-5.375c0-8.926,2.4-19.709,5.375-19.709s5.375,10.783,5.375,19.709A5.382,5.382,0,0,1,8.959,335.868Z" transform="translate(0 -242.697)" fill="#f8c91c"/>
      <path id="Path_171" data-name="Path 171" d="M60.159,256H52.992a1.792,1.792,0,0,0-1.792,1.792v3.584a1.792,1.792,0,0,0,3.583,0v-1.792h3.584v8.959a1.792,1.792,0,0,0,3.583,0V257.792A1.792,1.792,0,0,0,60.159,256Z" transform="translate(-40.45 -202.247)" fill="#f8c91c"/>
      <path id="Path_172" data-name="Path 172" d="M411.392,167.935h7.167a1.792,1.792,0,0,0,1.792-1.792V155.393a1.792,1.792,0,0,0-1.792-1.792h-7.167a1.792,1.792,0,0,0-1.792,1.792v10.751A1.792,1.792,0,0,0,411.392,167.935Zm1.792-10.751h3.584v7.167h-3.584Z" transform="translate(-323.596 -121.349)" fill="#f8c91c"/>
      <path id="Path_173" data-name="Path 173" d="M60.159,153.6H52.992a1.792,1.792,0,0,0-1.792,1.792v10.751a1.792,1.792,0,0,0,1.792,1.792h7.167a1.792,1.792,0,0,0,1.792-1.792V155.392A1.792,1.792,0,0,0,60.159,153.6Zm-1.792,10.751H54.784v-7.167h3.584v7.167Z" transform="translate(-40.45 -121.348)" fill="#f8c91c"/>
      <path id="Path_174" data-name="Path 174" d="M273.067,166.142a1.792,1.792,0,0,0,1.792,1.792h7.167a1.792,1.792,0,0,0,1.792-1.792V155.392a1.792,1.792,0,0,0-1.792-1.792h-7.167a1.792,1.792,0,0,0-1.792,1.792Zm3.583-8.959h3.584v7.167H276.65Z" transform="translate(-215.731 -121.348)" fill="#f8c91c"/>
      <path id="Path_175" data-name="Path 175" d="M415.827,102.4h-21.5a1.792,1.792,0,1,0,0,3.583h19.709v72a5.119,5.119,0,0,0-2.713-.249,7.156,7.156,0,0,0-12.492,0,5.267,5.267,0,0,0-.921-.081,5.375,5.375,0,0,0,0,10.751h14.334a5.382,5.382,0,0,0,5.375-5.375V104.192A1.792,1.792,0,0,0,415.827,102.4Zm-3.584,82.421H397.909a1.792,1.792,0,1,1,0-3.583,1.771,1.771,0,0,1,.971.292,1.792,1.792,0,0,0,2.716-1.1,3.569,3.569,0,0,1,6.959,0,1.792,1.792,0,0,0,2.716,1.1,1.827,1.827,0,0,1,2.763,1.5A1.8,1.8,0,0,1,412.243,184.821Z" transform="translate(-310.113 -80.899)" fill="#f8c91c"/>
      <path id="Path_176" data-name="Path 176" d="M274.859,65.535h7.167a1.792,1.792,0,0,0,1.792-1.792V52.993a1.792,1.792,0,0,0-1.792-1.792h-7.167a1.792,1.792,0,0,0-1.792,1.792V63.743A1.792,1.792,0,0,0,274.859,65.535Zm1.792-10.751h3.584v7.167H276.65V54.784Z" transform="translate(-215.731 -40.45)" fill="#f8c91c"/>
      <path id="Path_177" data-name="Path 177" d="M273.067,268.542a1.792,1.792,0,0,0,1.792,1.792h7.167a1.792,1.792,0,0,0,1.792-1.792V257.792A1.792,1.792,0,0,0,282.026,256h-7.167a1.792,1.792,0,0,0-1.792,1.792Zm3.583-8.959h3.584v7.167H276.65Z" transform="translate(-215.731 -202.247)" fill="#f8c91c"/>
      <path id="Path_178" data-name="Path 178" d="M189.526,65.535h7.167a1.792,1.792,0,0,0,1.792-1.792V52.993a1.792,1.792,0,0,0-1.792-1.792h-7.167a1.792,1.792,0,0,0-1.792,1.792V63.743A1.792,1.792,0,0,0,189.526,65.535Zm1.792-10.751H194.9v7.167h-3.584Z" transform="translate(-148.315 -40.45)" fill="#f8c91c"/>
      <path id="Path_179" data-name="Path 179" d="M247.986,410.2a1.792,1.792,0,1,0,2.544,0A1.884,1.884,0,0,0,247.986,410.2Z" transform="translate(-195.505 -323.68)" fill="#f8c91c"/>
      <path id="Path_180" data-name="Path 180" d="M187.733,268.542a1.792,1.792,0,0,0,1.792,1.792h7.167a1.792,1.792,0,0,0,1.792-1.792V257.792A1.792,1.792,0,0,0,196.692,256h-7.167a1.792,1.792,0,0,0-1.792,1.792v10.751Zm3.584-8.959H194.9v7.167h-3.584Z" transform="translate(-148.315 -202.247)" fill="#f8c91c"/>
      <path id="Path_181" data-name="Path 181" d="M170.667,360.192a1.792,1.792,0,0,0,1.792,1.792h5.375v16.126a1.792,1.792,0,0,0,3.583,0V361.983h14.334v16.126a1.792,1.792,0,0,0,3.583,0V361.983h5.375a1.792,1.792,0,0,0,0-3.583H172.459A1.792,1.792,0,0,0,170.667,360.192Z" transform="translate(-134.832 -283.146)" fill="#f8c91c"/>
      <path id="Path_182" data-name="Path 182" d="M409.6,268.542a1.792,1.792,0,0,0,1.792,1.792h7.167a1.792,1.792,0,0,0,1.792-1.792V257.792A1.792,1.792,0,0,0,418.559,256h-7.167a1.792,1.792,0,0,0-1.792,1.792Zm3.584-8.959h3.584v7.167h-3.584Z" transform="translate(-323.596 -202.247)" fill="#f8c91c"/>
      <path id="Path_183" data-name="Path 183" d="M184.911,0H138.326a1.792,1.792,0,0,0-1.792,1.792V94.963a1.792,1.792,0,1,0,3.583,0V3.583h43v91.38a1.792,1.792,0,1,0,3.583,0V1.792A1.792,1.792,0,0,0,184.911,0Z" transform="translate(-107.866)" fill="#f8c91c"/>
    </g>
  </g>
</svg>
