<svg id="call-answer_4_" data-name="call-answer (4)" xmlns="http://www.w3.org/2000/svg" width="22.209" height="22.159" viewBox="0 0 22.209 22.159">
  <g id="Group_96" data-name="Group 96" transform="translate(0 0)">
    <g id="Group_95" data-name="Group 95">
      <path id="Path_296" data-name="Path 296" d="M21.711,17.92l-3.43-3.43a1.788,1.788,0,0,0-2.521.047l-1.728,1.728-.341-.19a17.2,17.2,0,0,1-4.156-3.006A17.292,17.292,0,0,1,6.522,8.906c-.064-.116-.125-.227-.186-.333L7.5,7.415l.57-.571a1.787,1.787,0,0,0,.046-2.522L4.682.891A1.787,1.787,0,0,0,2.161.939l-.967.972.026.026a5.59,5.59,0,0,0-.8,1.405A5.825,5.825,0,0,0,.07,4.767C-.383,8.522,1.333,11.953,5.989,16.61c6.436,6.436,11.623,5.95,11.847,5.926a5.8,5.8,0,0,0,1.429-.359,5.571,5.571,0,0,0,1.4-.793l.021.019.979-.959A1.79,1.79,0,0,0,21.711,17.92Z" transform="translate(0 -0.394)" fill="#f8be1c"/>
    </g>
  </g>
</svg>
