<svg xmlns="http://www.w3.org/2000/svg" width="23.539" height="9.732" viewBox="0 0 23.539 9.732">
  <g id="descending-alphabet-sort" transform="translate(0 -123.19)">
    <path id="Path_603" data-name="Path 603" d="M252.967,127.288a.42.42,0,0,0-.379-.238h-.506a.42.42,0,0,0-.378.239l-4.138,8.674a.42.42,0,0,0,.379.6h.621a.42.42,0,0,0,.379-.239l1.083-2.27h4.647l1.1,2.271a.42.42,0,0,0,.379.238h.623a.42.42,0,0,0,.365-.63Zm-2.27,5.368,1.643-3.444,1.66,3.444Z" transform="translate(-233.654 -3.644)" fill="#f8ca1c"/>
    <path id="Path_604" data-name="Path 604" d="M7.446,123.872l-.224-.449a.42.42,0,0,0-.376-.233H.573a.42.42,0,0,0-.42.42v.56a.42.42,0,0,0,.42.42H5.446l-5.363,7.2a.42.42,0,0,0-.039.438l.224.449a.42.42,0,0,0,.376.233H6.882a.42.42,0,0,0,.42-.42v-.56a.42.42,0,0,0-.42-.42H2.044l5.363-7.2A.42.42,0,0,0,7.446,123.872Z" transform="translate(0 0)" fill="#f8ca1c"/>
    <path id="Path_605" data-name="Path 605" d="M149.176,128.954l-.441-.345a.42.42,0,0,0-.59.072l-1.022,1.3V123.61a.42.42,0,0,0-.42-.42h-.56a.42.42,0,0,0-.42.42v6.375l-1.022-1.3a.42.42,0,0,0-.59-.072l-.441.345a.42.42,0,0,0-.072.59l2.494,3.186a.42.42,0,0,0,.662,0l2.494-3.186A.42.42,0,0,0,149.176,128.954Z" transform="translate(-135.466 0)" fill="#f8ca1c"/>
  </g>
</svg>
