<svg xmlns="http://www.w3.org/2000/svg" width="21.285" height="21.285" viewBox="0 0 21.285 21.285">
  <g id="Group_323" data-name="Group 323" transform="translate(-1001.708 -406)">
    <g id="resume" transform="translate(1001.701 406)">
      <g id="Group_283" data-name="Group 283" transform="translate(0.007)">
        <g id="Group_282" data-name="Group 282">
          <path id="Path_41" data-name="Path 41" d="M17.218,6.184a.416.416,0,0,0,.416-.416V1.247A1.249,1.249,0,0,0,16.387,0H1.254A1.249,1.249,0,0,0,.007,1.247V20.038a1.249,1.249,0,0,0,1.247,1.247H16.387a1.249,1.249,0,0,0,1.247-1.247V16.975a.416.416,0,1,0-.831,0v3.063a.416.416,0,0,1-.416.416H1.254a.416.416,0,0,1-.416-.416V1.247A.416.416,0,0,1,1.254.831H16.387a.416.416,0,0,1,.416.416V5.768A.416.416,0,0,0,17.218,6.184Z" transform="translate(-0.007 0)" fill="#30cc71"/>
        </g>
      </g>
      <g id="Group_287" data-name="Group 287" transform="translate(8.405 18.209)">
        <g id="Group_286" data-name="Group 286">
          <path id="Path_43" data-name="Path 43" d="M204.668,438h-2.245a.416.416,0,1,0,0,.831h2.245a.416.416,0,1,0,0-.831Z" transform="translate(-202.007 -438)" fill="#30cc71"/>
        </g>
      </g>
      <g id="Group_289" data-name="Group 289" transform="translate(4.746 15.881)">
        <g id="Group_288" data-name="Group 288">
          <path id="Path_44" data-name="Path 44" d="M120.326,382h-5.9a.416.416,0,1,0,0,.831h5.9a.416.416,0,1,0,0-.831Z" transform="translate(-114.007 -382)" fill="#30cc71"/>
        </g>
      </g>
      <g id="Group_291" data-name="Group 291" transform="translate(4.746 13.553)">
        <g id="Group_290" data-name="Group 290">
          <path id="Path_45" data-name="Path 45" d="M120.326,326h-5.9a.416.416,0,1,0,0,.831h5.9a.416.416,0,1,0,0-.831Z" transform="translate(-114.007 -326)" fill="#30cc71"/>
        </g>
      </g>
      <g id="Group_293" data-name="Group 293" transform="translate(2.97 11.225)">
        <g id="Group_292" data-name="Group 292">
          <path id="Path_46" data-name="Path 46" d="M72,270.122a.415.415,0,1,0,.122.294A.419.419,0,0,0,72,270.122Z" transform="translate(-71.287 -270)" fill="#30cc71"/>
        </g>
      </g>
      <g id="Group_303" data-name="Group 303" transform="translate(2.97 8.897)">
        <g id="Group_292-2" data-name="Group 292">
          <path id="Path_46-2" data-name="Path 46" d="M72,270.122a.415.415,0,1,0,.122.294A.419.419,0,0,0,72,270.122Z" transform="translate(-71.287 -270)" fill="#30cc71"/>
        </g>
      </g>
      <g id="Group_305" data-name="Group 305" transform="translate(2.97 6.568)">
        <g id="Group_292-3" data-name="Group 292">
          <path id="Path_46-3" data-name="Path 46" d="M72,270.122a.415.415,0,1,0,.122.294A.419.419,0,0,0,72,270.122Z" transform="translate(-71.287 -270)" fill="#30cc71"/>
        </g>
      </g>
      <g id="Group_295" data-name="Group 295" transform="translate(2.97 13.553)">
        <g id="Group_294" data-name="Group 294">
          <path id="Path_47" data-name="Path 47" d="M72,326.122a.415.415,0,1,0,.122.294A.42.42,0,0,0,72,326.122Z" transform="translate(-71.287 -326)" fill="#30cc71"/>
        </g>
      </g>
      <g id="Group_297" data-name="Group 297" transform="translate(2.97 15.881)">
        <g id="Group_296" data-name="Group 296">
          <path id="Path_48" data-name="Path 48" d="M72,382.122a.415.415,0,1,0,.122.294A.42.42,0,0,0,72,382.122Z" transform="translate(-71.287 -382)" fill="#30cc71"/>
        </g>
      </g>
      <g id="Group_299" data-name="Group 299" transform="translate(4.746 11.225)">
        <g id="Group_298" data-name="Group 298">
          <path id="Path_49" data-name="Path 49" d="M120.326,270h-5.9a.416.416,0,1,0,0,.831h5.9a.416.416,0,1,0,0-.831Z" transform="translate(-114.007 -270)" fill="#30cc71"/>
        </g>
      </g>
      <g id="Group_302" data-name="Group 302" transform="translate(4.746 8.897)">
        <g id="Group_298-2" data-name="Group 298">
          <path id="Path_49-2" data-name="Path 49" d="M120.326,270h-5.9a.416.416,0,1,0,0,.831h5.9a.416.416,0,1,0,0-.831Z" transform="translate(-114.007 -270)" fill="#30cc71"/>
        </g>
      </g>
      <g id="Group_304" data-name="Group 304" transform="translate(4.746 6.568)">
        <g id="Group_298-3" data-name="Group 298">
          <path id="Path_49-3" data-name="Path 49" d="M120.326,270h-5.9a.416.416,0,1,0,0,.831h5.9a.416.416,0,1,0,0-.831Z" transform="translate(-114.007 -270)" fill="#30cc71"/>
        </g>
      </g>
      <g id="Group_301" data-name="Group 301" transform="translate(12.378 5.183)">
        <g id="Group_300" data-name="Group 300">
          <path id="Path_50" data-name="Path 50" d="M305.63,124.91a1.746,1.746,0,0,0-2.385.639l-5.232,9.061a.416.416,0,0,0-.053.162l-.368,3.3a.416.416,0,0,0,.66.381l2.672-1.968a.414.414,0,0,0,.113-.127l5.232-9.061A1.748,1.748,0,0,0,305.63,124.91Zm-7.106,12.309.192-1.722,1.2.695Zm2-1.638-1.584-.915,4.2-7.271,1.584.915Zm5.024-8.7-.41.71-1.584-.915.41-.71a.915.915,0,0,1,1.584.915Z" transform="translate(-297.589 -124.675)" fill="#30cc71"/>
        </g>
      </g>
    </g>
  </g>
</svg>
