<svg id="exclamation-mark-in-a-circle" xmlns="http://www.w3.org/2000/svg" width="60.48" height="60.48" viewBox="0 0 60.48 60.48">
  <path id="Path_5680" data-name="Path 5680" d="M30.24,0A30.24,30.24,0,1,0,60.48,30.24,30.242,30.242,0,0,0,30.24,0Zm0,49.544a3.955,3.955,0,0,1-3.982-4.183,3.955,3.955,0,0,1,3.982-4.183,3.882,3.882,0,0,1,3.982,4.183A3.917,3.917,0,0,1,30.24,49.544Zm1.567-15.974c-.6,2.054-2.5,2.089-3.132,0-.728-2.409-3.316-11.554-3.316-17.494,0-7.837,9.805-7.875,9.805,0C35.162,22.05,32.435,31.432,31.808,33.569Z" fill="#ad0000"/>
</svg>
