<svg id="Group_340" data-name="Group 340" xmlns="http://www.w3.org/2000/svg" width="16.38" height="20.28" viewBox="0 0 16.38 20.28">
  <g id="Group_339" data-name="Group 339">
    <path id="Path_481" data-name="Path 481" d="M22.632,20.28H9.726a1.739,1.739,0,0,1-1.737-1.737V1.737A1.739,1.739,0,0,1,9.726,0h9.452a.347.347,0,0,1,0,.695H9.726A1.043,1.043,0,0,0,8.684,1.737V18.543a1.043,1.043,0,0,0,1.042,1.042H22.632a1.043,1.043,0,0,0,1.042-1.042V5.323a.347.347,0,1,1,.695,0V18.543A1.738,1.738,0,0,1,22.632,20.28Z" transform="translate(-7.989)" fill="#fff"/>
    <path id="Path_482" data-name="Path 482" d="M28.784,5.727H23.94a.348.348,0,0,1-.347-.347V.535a.347.347,0,1,1,.695,0v4.5h4.5a.347.347,0,0,1,0,.695Z" transform="translate(-12.752 -0.057)" fill="#fff"/>
    <path id="Path_483" data-name="Path 483" d="M28.784,5.67a.348.348,0,0,1-.249-.1L23.692.59a.347.347,0,0,1,.5-.484l4.844,4.975a.347.347,0,0,1-.249.589Z" transform="translate(-12.752 0)" fill="#fff"/>
  </g>
</svg>
