<svg xmlns="http://www.w3.org/2000/svg" xmlns:xlink="http://www.w3.org/1999/xlink" viewBox="0 0 92.706 23.489">
  <defs>
    <style>
      .cls-1 {
        fill: #fff;
      }

      .cls-2 {
        clip-path: url(#clip-path);
      }
    </style>
    <clipPath id="clip-path">
      <path id="Path_75" data-name="Path 75" class="cls-1" d="M55.269,11a6.557,6.557,0,0,0-3.628-1.309,20.886,20.886,0,0,0-11.23,2.634,15.761,15.761,0,0,0-3.155,2.256c.521.142,1.057.284,1.609.41C45.884,16.27,51.783,15.244,55.269,11Zm-4.227,8.06c-4.259-1.577-10.71-2.413-14.858-3.344A7.781,7.781,0,0,0,34.7,18.494a6.5,6.5,0,0,0-.237,2.082,8.172,8.172,0,0,0,.615,2.287C36.956,25.8,45.347,22.91,51.042,19.062Zm5.9-4.29a13.407,13.407,0,0,1-3,3.88,5.963,5.963,0,0,1,2.555,2,20.253,20.253,0,0,0,.457-2.492A14.291,14.291,0,0,0,56.941,14.771ZM43.865,16.222a62.6,62.6,0,0,1,8.581,1.845c2.3-1.767,3.928-3.659,4.022-5.205-.047-.11-.079-.205-.126-.315a4.809,4.809,0,0,0-.363-.694,4.514,4.514,0,0,0-.347-.473C52.713,15.1,48.423,16.317,43.865,16.222ZM39.874,30.055c.205.205.394.41.615.6a10.507,10.507,0,0,0,3.281,2.1,5.264,5.264,0,0,0,3.407.158,10.088,10.088,0,0,0,3.675-2.192c.268-.237.5-.489.757-.741a18.994,18.994,0,0,0,2.871-4.038C51.846,29.109,44.827,32.185,39.874,30.055ZM52.7,19.771c-4.543,3.864-11.451,7.366-16.01,6.183.079.126.158.252.237.394l.016.016c4.5,7.224,16.972,1.7,18.392-2.886C55.647,21.916,54.559,20.733,52.7,19.771Z" transform="translate(-34.457 -9.635)"/>
    </clipPath>
  </defs>
  <g id="Group_117" data-name="Group 117" transform="translate(-782.042 -228)">
    <g id="Group_116" data-name="Group 116" transform="translate(782.042 228)">
      <g id="Group_115" data-name="Group 115" class="cls-2">
        <rect id="Rectangle_141" data-name="Rectangle 141" class="cls-1" width="22.638" height="23.508" transform="translate(-0.022 -0.005)"/>
      </g>
    </g>
    <path id="Path_76" data-name="Path 76" class="cls-1" d="M513.806,68.6a4.513,4.513,0,0,0-4.606,4.763c0,2.24,1.278,4.732,4.606,4.732a4.021,4.021,0,0,0,4.227-3.013h-1.577a1.035,1.035,0,0,0-.868.442,2.209,2.209,0,0,1-1.688.726,2.064,2.064,0,0,1-2.224-2.287h6.514C518.364,71.345,516.976,68.6,513.806,68.6Zm-2.129,3.786a1.961,1.961,0,0,1,2.066-1.924c1.278,0,1.735.726,1.972,1.924Z" transform="translate(347.723 168.701)"/>
    <path id="Path_77" data-name="Path 77" class="cls-1" d="M347.106,68.6a4.513,4.513,0,0,0-4.606,4.763c0,2.24,1.278,4.732,4.606,4.732a4.021,4.021,0,0,0,4.227-3.013h-1.577a1.035,1.035,0,0,0-.868.442,2.209,2.209,0,0,1-1.688.726,2.064,2.064,0,0,1-2.224-2.287h6.514C351.664,71.345,350.292,68.6,347.106,68.6Zm-2.129,3.786a1.961,1.961,0,0,1,2.066-1.924c1.278,0,1.735.726,1.972,1.924Z" transform="translate(488.13 168.701)"/>
    <path id="Path_78" data-name="Path 78" class="cls-1" d="M578.361,50.6V61.061c-2.129,0-2.445-.6-2.461-2.3V48.6C578.014,48.6,578.345,48.915,578.361,50.6Z" transform="translate(291.544 185.546)"/>
    <path id="Path_79" data-name="Path 79" class="cls-1" d="M609.061,50.6V61.061c-2.129,0-2.445-.6-2.461-2.3V48.6C608.714,48.6,609.045,48.915,609.061,50.6Z" transform="translate(265.687 185.546)"/>
    <path id="Path_80" data-name="Path 80" class="cls-1" d="M214.953,60.792h2.887s-3.912-10.379-4.227-11.2a1.717,1.717,0,0,0-1.7-1.293h-1.5L205.6,60.792h2.729l1.009-2.808h4.669ZM210.1,55.855l1.625-4.574,1.562,4.574Z" transform="translate(603.436 185.799)"/>
    <path id="Path_81" data-name="Path 81" class="cls-1" d="M292.627,73.093h-4.464V71.2h5.946c1.688,0,1.656,1.861.9,2.65-.757.773-3.975,4.4-3.975,4.4H295.5V80.1h-7.7v-1.94Z" transform="translate(534.202 166.511)"/>
    <path id="Path_82" data-name="Path 82" class="cls-1" d="M408.2,70.442v8.9h2.445V74.306c0-1.073,1.593-1.987,2.555-1.814a2.791,2.791,0,0,1,.678.205V70.3h-.71a2.687,2.687,0,0,0-2,.868,4.788,4.788,0,0,0-.71,1.025V70.442Z" transform="translate(432.793 167.269)"/>
    <path id="Path_83" data-name="Path 83" class="cls-1" d="M455.7,72.023h-1.814c-.584,0-.82-1.656-2.334-1.656-1.53,0-2.24,1.309-2.24,2.792s.442,3.044,2.129,3.044,1.656-1.861,2.634-1.861H455.7a3.769,3.769,0,0,1-4.1,3.754,4.446,4.446,0,0,1-4.7-4.637,4.57,4.57,0,0,1,4.811-4.858A3.7,3.7,0,0,1,455.7,72.023Z" transform="translate(400.197 168.701)"/>
  </g>
</svg>
