<svg xmlns="http://www.w3.org/2000/svg" xmlns:xlink="http://www.w3.org/1999/xlink" viewBox="0 0 22.592 23.489">
  <defs>
    <style>
      .cls-1 {
        fill: #6a2c91;
      }

      .cls-2 {
        clip-path: url(#clip-path);
      }
    </style>
    <clipPath id="clip-path">
      <path id="Path_5" data-name="Path 5" class="cls-1" d="M55.269,11a6.557,6.557,0,0,0-3.628-1.309,20.886,20.886,0,0,0-11.23,2.634,15.761,15.761,0,0,0-3.155,2.256c.521.142,1.057.284,1.609.41C45.884,16.27,51.783,15.244,55.269,11Zm-4.227,8.06c-4.259-1.577-10.71-2.413-14.858-3.344A7.781,7.781,0,0,0,34.7,18.494a6.5,6.5,0,0,0-.237,2.082,8.172,8.172,0,0,0,.615,2.287C36.956,25.8,45.347,22.91,51.042,19.062Zm5.9-4.29a13.407,13.407,0,0,1-3,3.88,5.963,5.963,0,0,1,2.555,2,20.253,20.253,0,0,0,.457-2.492A14.291,14.291,0,0,0,56.941,14.771ZM43.865,16.222a62.6,62.6,0,0,1,8.581,1.845c2.3-1.767,3.928-3.659,4.022-5.205-.047-.11-.079-.205-.126-.315a4.809,4.809,0,0,0-.363-.694,4.514,4.514,0,0,0-.347-.473C52.713,15.1,48.423,16.317,43.865,16.222ZM39.874,30.055c.205.205.394.41.615.6a10.507,10.507,0,0,0,3.281,2.1,5.264,5.264,0,0,0,3.407.158,10.088,10.088,0,0,0,3.675-2.192c.268-.237.5-.489.757-.741a18.994,18.994,0,0,0,2.871-4.038C51.846,29.109,44.827,32.185,39.874,30.055ZM52.7,19.771c-4.543,3.864-11.451,7.366-16.01,6.183.079.126.158.252.237.394l.016.016c4.5,7.224,16.972,1.7,18.392-2.886C55.647,21.916,54.559,20.733,52.7,19.771Z" transform="translate(-34.457 -9.635)"/>
    </clipPath>
  </defs>
  <g id="Group_355" data-name="Group 355" transform="translate(-782.042 -228)">
    <g id="Group_2" data-name="Group 2" transform="translate(782.042 228)">
      <g id="Group_1" data-name="Group 1" class="cls-2">
        <rect id="Rectangle_3" data-name="Rectangle 3" class="cls-1" width="22.638" height="23.508" transform="translate(-0.022 -0.005)"/>
      </g>
    </g>
  </g>
</svg>
