<svg xmlns="http://www.w3.org/2000/svg" width="92" height="92" viewBox="0 0 92 92">
  <g id="Group_451" data-name="Group 451" transform="translate(-552 -320)">
    <circle id="Ellipse_79" data-name="Ellipse 79" cx="46" cy="46" r="46" transform="translate(552 320)" fill="#f8ca1c"/>
    <g id="atm" transform="translate(576.475 346)">
      <path id="Path_510" data-name="Path 510" d="M37.386,0H5.405a3.885,3.885,0,0,0-3.88,3.88v6.665a3.885,3.885,0,0,0,3.88,3.88H6.667V38.657a1.362,1.362,0,0,0,1.362,1.362H34.763a1.362,1.362,0,0,0,1.362-1.362V14.426h1.262a3.885,3.885,0,0,0,3.88-3.88V3.88A3.885,3.885,0,0,0,37.386,0Zm-28,8.121H33.4V32.665a6.162,6.162,0,0,0-4.637,4.63H14.027a6.162,6.162,0,0,0-4.636-4.63V8.121Zm0,26.426A4.347,4.347,0,0,1,12.145,37.3H9.39ZM30.647,37.3A4.347,4.347,0,0,1,33.4,34.546V37.3Zm7.9-26.75A1.159,1.159,0,0,1,37.386,11.7H35.192V8.121h1.452a.908.908,0,1,0,0-1.815H6.147a.908.908,0,1,0,0,1.815H7.6V11.7H5.405a1.159,1.159,0,0,1-1.157-1.157V3.88A1.159,1.159,0,0,1,5.405,2.723H37.386A1.159,1.159,0,0,1,38.543,3.88v6.665Z" fill="#fff"/>
      <path id="Path_511" data-name="Path 511" d="M165.328,169.63a2.643,2.643,0,0,0,2.549-1.958h2.445a1.276,1.276,0,0,1-1.078.6.681.681,0,1,0,0,1.361,2.643,2.643,0,0,0,2.549-1.958h.316a.681.681,0,0,0,0-1.361h-.316a2.638,2.638,0,0,0-5.1,0h-2.445a1.276,1.276,0,0,1,1.078-.6.681.681,0,0,0,0-1.362,2.643,2.643,0,0,0-2.549,1.958h-.316a.681.681,0,0,0,0,1.361h.316A2.643,2.643,0,0,0,165.328,169.63Zm0-1.361a1.276,1.276,0,0,1-1.078-.6h2.157A1.276,1.276,0,0,1,165.328,168.269Zm3.915-2.554a1.276,1.276,0,0,1,1.078.6h-2.157A1.276,1.276,0,0,1,169.243,165.715Z" transform="translate(-145.711 -149.435)" fill="#fff"/>
      <path id="Path_512" data-name="Path 512" d="M138.526,117.91a8.374,8.374,0,1,0-8.374-8.374A8.384,8.384,0,0,0,138.526,117.91Zm0-14.933a6.559,6.559,0,1,1-6.559,6.559A6.566,6.566,0,0,1,138.526,102.977Z" transform="translate(-116.952 -91.98)" fill="#fff"/>
    </g>
  </g>
</svg>
