<svg id="Group_78" data-name="Group 78" xmlns="http://www.w3.org/2000/svg" width="187.52" height="127.724" viewBox="0 0 187.52 127.724">
  <g id="Group_8" data-name="Group 8">
    <path id="Path_5" data-name="Path 5" d="M28.989,10.3H9.9V63.176h13.08v9.9H9.9v28.989H0V.4H28.989Z" transform="translate(0 -0.198)" fill="#fcd626"/>
    <path id="Path_6" data-name="Path 6" d="M87.7,101.512H77.8V0h9.9Z" transform="translate(-38.508)" fill="#fcd626"/>
    <path id="Path_7" data-name="Path 7" d="M158.455,1.1,135.273,92.714h21.919v9.9H122.9L146.081,11H124.87V1.1Z" transform="translate(-60.831 -0.544)" fill="#fcd626"/>
    <path id="Path_8" data-name="Path 8" d="M244.255,1.1,221.073,92.714h21.919v9.9H208.7L231.881,11H210.67V1.1Z" transform="translate(-103.299 -0.544)" fill="#fcd626"/>
    <path id="Path_9" data-name="Path 9" d="M333.435,102.563h-9.242l-4.242-29.545H308.436l-4.444,29.545H294.8q1.742-12.348,3.636-25.3c1.263-8.586,2.474-17.171,3.737-25.656s2.475-16.818,3.737-25.05c1.263-8.182,2.374-16.01,3.434-23.434,0-.253.05-.606.1-1.061a1.733,1.733,0,0,0-.1-1.061h9.394v.909Zm-15.05-39.09-4.242-29.7-4.444,29.7Z" transform="translate(-145.915 -0.495)" fill="#fcd626"/>
  </g>
  <g id="Group_9" data-name="Group 9" transform="translate(3.182 118.28)">
    <path id="Path_10" data-name="Path 10" d="M7.159,240.412a.268.268,0,0,0-.3-.3H6.3v-.757h.909c.556,0,.808.253.808.757v.3a2.082,2.082,0,0,1-.051.454h.051a2.724,2.724,0,0,1,2.424-1.667,1.852,1.852,0,0,1,2.071,1.667h.051a2.668,2.668,0,0,1,2.424-1.667c1.616,0,2.222.96,2.222,2.576v3.131a.268.268,0,0,0,.3.3h.556v.758h-.96a.7.7,0,0,1-.808-.808v-3.182c0-1.061-.2-1.97-1.414-1.97a2.465,2.465,0,0,0-2.121,1.869,2.952,2.952,0,0,0-.1.96v3.131H11.7v-3.99c0-1.01-.152-1.97-1.414-1.97a2.513,2.513,0,0,0-2.172,1.97,2.362,2.362,0,0,0-.1.859v3.131H7.159Z" transform="translate(-6.3 -236.675)" fill="#adadad"/>
    <path id="Path_11" data-name="Path 11" d="M47.592,241.778h.354v-.1c0-1.364-.505-1.869-1.717-1.869-.354,0-1.313.1-1.313.555v.4h-.859v-.657c0-.909,1.566-1.111,2.172-1.111,2.121,0,2.576,1.111,2.576,2.525v3.182a.268.268,0,0,0,.3.3h.556v.758h-.909a.7.7,0,0,1-.808-.808v-.505h-.051a2.4,2.4,0,0,1-2.222,1.414A2.075,2.075,0,0,1,43.4,243.9C43.5,241.828,46.43,241.778,47.592,241.778Zm-1.667,3.485a2.307,2.307,0,0,0,2.02-2.475v-.3h-.4c-1.061,0-3.131.05-3.131,1.515A1.357,1.357,0,0,0,45.925,245.262Z" transform="translate(-24.663 -236.576)" fill="#adadad"/>
    <path id="Path_12" data-name="Path 12" d="M73.028,236.675a2.35,2.35,0,0,1,2.172,1.263h.05a2.292,2.292,0,0,1-.05-.505V235.26a.268.268,0,0,0-.3-.3h-.556V234.2h.96a.7.7,0,0,1,.808.808v7.374a.268.268,0,0,0,.3.3h.555v.758h-.909c-.556,0-.808-.253-.808-.758a1.4,1.4,0,0,1,.051-.4H75.25a2.417,2.417,0,0,1-2.273,1.313c-1.768,0-2.879-1.414-2.879-3.485C70.048,238.038,71.311,236.675,73.028,236.675Zm2.172,3.485c0-1.364-.707-2.677-2.121-2.677-1.162,0-2.121,1.01-2.121,2.677,0,1.616.859,2.677,2.121,2.677C74.189,242.836,75.2,242.028,75.2,240.159Z" transform="translate(-37.877 -234.2)" fill="#adadad"/>
    <path id="Path_13" data-name="Path 13" d="M101.083,239.1a2.788,2.788,0,0,1,2.778,3.081,3.92,3.92,0,0,1-.05.454H98.76a2.533,2.533,0,0,0,2.576,2.626,2.889,2.889,0,0,0,1.97-.808l.455.657a3.744,3.744,0,0,1-2.475.96,3.369,3.369,0,0,1-3.485-3.485A3.267,3.267,0,0,1,101.083,239.1Zm1.869,2.828a1.871,1.871,0,0,0-1.869-2.02,2.238,2.238,0,0,0-2.273,2.02Z" transform="translate(-51.589 -236.625)" fill="#adadad"/>
    <path id="Path_14" data-name="Path 14" d="M144.206,240.561a.393.393,0,0,0-.455-.3H143.6V239.5h.454c.657,0,.859.1,1.061.758l1.364,4.192c.1.3.2.707.2.707h.051s.1-.4.2-.707l1.616-4.9h.909l1.616,4.9c.1.3.2.707.2.707h.051s.1-.4.2-.707l1.364-4.192c.2-.606.4-.758,1.061-.758h.454v.758h-.2c-.2,0-.4.05-.454.3l-1.919,5.555h-1.01l-1.616-4.7-.2-.707h-.05s-.1.4-.2.707l-1.616,4.7h-1.01Z" transform="translate(-74.258 -236.823)" fill="#adadad"/>
    <path id="Path_15" data-name="Path 15" d="M179.158,237.937a.268.268,0,0,0-.3-.3H178.3v-.758h.96a.7.7,0,0,1,.808.808v4.747a.268.268,0,0,0,.3.3h.556v.758h-.96a.7.7,0,0,1-.808-.808Zm-.05-3.737h.859v1.111h-.859Z" transform="translate(-91.434 -234.2)" fill="#adadad"/>
    <path id="Path_16" data-name="Path 16" d="M198.258,238.376H197.4v-.757h.858V235.8h.859v1.818h1.667v.757h-1.667v3.384c0,1.566,1.01,1.768,1.515,1.768a.732.732,0,0,0,.3-.051v.808a1.4,1.4,0,0,1-.4.051,2.171,2.171,0,0,1-2.323-2.475v-3.485Z" transform="translate(-100.887 -234.992)" fill="#adadad"/>
    <path id="Path_17" data-name="Path 17" d="M219.159,235.26a.268.268,0,0,0-.3-.3H218.3V234.2h.96c.556,0,.808.252.808.758v2.828a3.158,3.158,0,0,1-.051.556h.051a2.786,2.786,0,0,1,2.626-1.667c1.667,0,2.222.96,2.222,2.576v3.131a.268.268,0,0,0,.3.3h.556v.758h-.96a.7.7,0,0,1-.808-.808v-3.182c0-1.061-.151-1.969-1.465-1.969a2.531,2.531,0,0,0-2.424,1.868,2.363,2.363,0,0,0-.1.859v3.182h-.858Z" transform="translate(-111.232 -234.2)" fill="#adadad"/>
    <path id="Path_18" data-name="Path 18" d="M267.158,235.26a.268.268,0,0,0-.3-.3H266.3V234.2h.959a.7.7,0,0,1,.808.808v7.374a.268.268,0,0,0,.3.3h.556v.758h-.96a.7.7,0,0,1-.808-.808Z" transform="translate(-134.99 -234.2)" fill="#adadad"/>
    <path id="Path_19" data-name="Path 19" d="M289.185,239.1a3.46,3.46,0,1,1,0,6.919,3.46,3.46,0,1,1,0-6.919Zm.05,6.161a2.623,2.623,0,0,0,2.576-2.727,2.58,2.58,0,1,0-2.576,2.727Z" transform="translate(-144.593 -236.625)" fill="#adadad"/>
    <path id="Path_20" data-name="Path 20" d="M313.855,240.561a.393.393,0,0,0-.454-.3h-.1V239.5h.354c.656,0,.808.151,1.06.707l1.616,4.141c.1.354.2.757.2.757h.051s.1-.455.2-.757l1.616-4.141c.2-.606.4-.707,1.06-.707h.354v.758h-.1c-.253,0-.4.05-.454.3l-2.172,5.555h-.959Z" transform="translate(-158.254 -236.823)" fill="#adadad"/>
    <path id="Path_21" data-name="Path 21" d="M342.933,239.1a2.788,2.788,0,0,1,2.778,3.081,3.908,3.908,0,0,1-.051.454h-5.1a2.533,2.533,0,0,0,2.576,2.626,2.889,2.889,0,0,0,1.97-.808l.454.657a3.744,3.744,0,0,1-2.474.96,3.369,3.369,0,0,1-3.485-3.485A3.334,3.334,0,0,1,342.933,239.1Zm1.869,2.828a1.871,1.871,0,0,0-1.869-2.02,2.238,2.238,0,0,0-2.273,2.02Z" transform="translate(-171.271 -236.625)" fill="#adadad"/>
  </g>
</svg>
