<svg xmlns="http://www.w3.org/2000/svg" width="414.876" height="64.072" viewBox="0 0 414.876 64.072">
  <g id="Group_441" data-name="Group 441" transform="translate(-947.776 -50.199)">
    <path id="Path_156" data-name="Path 156" d="M5831.152,99.144c-2.2-.057-47.125-47.672-93.389-11.253s-88.319,11.253-88.319,11.253-67.693-41.884-114.989,0-75.64-4.468-75.64-4.468" transform="translate(-4469 -3)" fill="none" stroke="#333" stroke-linecap="round" stroke-width="1" stroke-dasharray="5"/>
    <g id="plane" transform="matrix(0.695, -0.719, 0.719, 0.695, 947.776, 80.197)">
      <g id="Group_41" data-name="Group 41" transform="translate(4.038 1.902)">
        <path id="Path_157" data-name="Path 157" d="M215.809,44.789l.207-9.693.192-8.981a3.711,3.711,0,0,0-1.159-2.76,3.816,3.816,0,0,0-3.166,3.786l.193,8.981.207,9.693.24,11.209-4.032,3.491v.664l3.869-1.333,3.174,1.093.2-.067L219.6,62.2V59.489L215.569,56Zm0,0" transform="translate(-195.549 -23.355)" fill="#f6bd1c" fill-rule="evenodd"/>
        <path id="Path_158" data-name="Path 158" d="M49.582,213.631l4.446-1.1,5.06-1.251,3.858-.954L62.8,203.57l-13.22,7.077Zm0,0" transform="translate(-49.582 -188.892)" fill="#f6bd1c" fill-rule="evenodd"/>
        <path id="Path_159" data-name="Path 159" d="M298.539,167.5l-.207,9.693,3.858.954,5.061,1.251,7.67,1.9v-5.026Zm0,0" transform="translate(-278.072 -155.763)" fill="#f6bd1c" fill-rule="evenodd"/>
      </g>
      <path id="Path_160" data-name="Path 160" d="M41.271,21.694l-15.94-8.533.182-8.481a4.5,4.5,0,0,0-1.305-3.264,4.687,4.687,0,0,0-6.713,0A4.5,4.5,0,0,0,16.189,4.68l.181,8.481L.43,21.694a.814.814,0,0,0-.43.718v5.026a.814.814,0,0,0,1.01.791l6.66-1.647V26.9a.814.814,0,0,0,1.629,0v-.725l3.431-.849v.121a.814.814,0,1,0,1.629,0v-.523l2.251-.557.21,9.809-3.743,3.24a.815.815,0,0,0-.281.616v2.851a.814.814,0,0,0,1.08.77l6.975-2.4,6.975,2.4a.814.814,0,0,0,1.08-.77V38.036a.815.815,0,0,0-.281-.616l-3.743-3.24.21-9.809,2.251.556v.524a.814.814,0,1,0,1.629,0V25.33l3.431.849V26.9a.814.814,0,1,0,1.629,0v-.322l6.66,1.647a.815.815,0,0,0,1.01-.791V22.412A.815.815,0,0,0,41.271,21.694ZM14.359,23.25V22.109a.814.814,0,0,0-1.629,0v1.544L9.3,24.5v-.125a.814.814,0,1,0-1.629,0V24.9L1.629,26.4V22.9l14.78-7.912.165,7.715ZM27.276,38.408v1.337l-6.16-2.122a.817.817,0,0,0-.53,0l-6.16,2.122V38.408l3.751-3.247a.815.815,0,0,0,.281-.633l-.241-11.222v0l-.4-18.658a2.884,2.884,0,0,1,.841-2.09,3.058,3.058,0,0,1,4.385,0,2.883,2.883,0,0,1,.841,2.089l-.64,29.883a.814.814,0,0,0,.281.633ZM40.072,26.4,34.031,24.9v-.528a.814.814,0,1,0-1.629,0V24.5l-3.432-.849V22.109a.814.814,0,0,0-1.629,0V23.25L25.127,22.7l.165-7.715L40.072,22.9Zm0,0"/>
      <path id="Path_161" data-name="Path 161" d="M336.514,234.129a.815.815,0,0,0,.814-.814v-.019a.814.814,0,1,0-1.629,0v.019A.814.814,0,0,0,336.514,234.129Zm0,0" transform="translate(-308.357 -213.545)"/>
      <path id="Path_162" data-name="Path 162" d="M157.115,232.48a.815.815,0,0,0-.814.815v.019a.814.814,0,0,0,1.629,0v-.019A.815.815,0,0,0,157.115,232.48Zm0,0" transform="translate(-143.57 -213.545)"/>
      <path id="Path_163" data-name="Path 163" d="M398.643,261.968a.814.814,0,0,0,.814-.814v-.019a.814.814,0,1,0-1.629,0v.019A.814.814,0,0,0,398.643,261.968Zm0,0" transform="translate(-365.426 -239.118)"/>
      <path id="Path_164" data-name="Path 164" d="M94.982,260.32a.814.814,0,0,0-.814.815v.019a.814.814,0,1,0,1.629,0v-.019A.814.814,0,0,0,94.982,260.32Zm0,0" transform="translate(-86.498 -239.118)"/>
    </g>
  </g>
</svg>
