<svg xmlns="http://www.w3.org/2000/svg" width="193.299" height="61.705" viewBox="0 0 193.299 61.705">
  <g id="Group_334" data-name="Group 334" transform="translate(-562.701 -22)">
    <g id="phone-receiver" transform="translate(593.721 24.874) rotate(48)">
      <g id="Group_331" data-name="Group 331" transform="translate(0 0.188)">
        <path id="Path_477" data-name="Path 477" d="M41.561,32.982a2.01,2.01,0,0,1-.616,1.761l-5.854,5.81a3.3,3.3,0,0,1-1.034.748,4.275,4.275,0,0,1-1.254.4q-.044,0-.264.022t-.572.022a20.292,20.292,0,0,1-2.707-.286,20.559,20.559,0,0,1-4.578-1.409,38.426,38.426,0,0,1-6.141-3.367,45.783,45.783,0,0,1-7.307-6.163,48.235,48.235,0,0,1-5.106-5.81,41.4,41.4,0,0,1-3.257-5.128,27.62,27.62,0,0,1-1.849-4.27,22.653,22.653,0,0,1-.836-3.3A10.9,10.9,0,0,1,.007,9.828q.044-.792.044-.88a4.279,4.279,0,0,1,.4-1.255A3.3,3.3,0,0,1,1.2,6.659L7.05.8A1.939,1.939,0,0,1,8.459.188a1.642,1.642,0,0,1,1.012.33,3.06,3.06,0,0,1,.748.814l4.71,8.936a2.142,2.142,0,0,1,.22,1.541,2.744,2.744,0,0,1-.748,1.409l-2.157,2.157a.734.734,0,0,0-.154.286,1.086,1.086,0,0,0-.066.33,7.948,7.948,0,0,0,.792,2.113,19.4,19.4,0,0,0,1.629,2.575,28.592,28.592,0,0,0,3.125,3.5,29.157,29.157,0,0,0,3.521,3.147,20.336,20.336,0,0,0,2.575,1.651,6.844,6.844,0,0,0,1.585.638l.55.11a1.049,1.049,0,0,0,.286-.066.735.735,0,0,0,.286-.154l2.509-2.553a2.7,2.7,0,0,1,1.849-.7,2.3,2.3,0,0,1,1.188.264h.044l8.5,5.018A2.214,2.214,0,0,1,41.561,32.982Z" transform="translate(0 -0.188)" fill="#fcd626"/>
      </g>
    </g>
    <g id="Group_332" data-name="Group 332" transform="translate(0 -1)">
      <text id="_088_808" data-name="088 808" transform="translate(680 59)" fill="#333" font-size="35" font-family="CirceRounded-Bold, Circe Rounded" font-weight="700" letter-spacing="0.1em"><tspan x="-75.495" y="0">088 808</tspan></text>
      <text id="ödənişsiz_zəng" data-name="ödənişsiz zəng" transform="translate(605 75)" fill="#898989" font-size="15" font-family="CirceRounded, Circe Rounded" letter-spacing="0.28em"><tspan x="0" y="0">ödənişsiz zəng</tspan></text>
    </g>
  </g>
</svg>
