<svg xmlns="http://www.w3.org/2000/svg" xmlns:xlink="http://www.w3.org/1999/xlink" viewBox="0 0 86.227 21.847"><defs><style>.a{fill:#6a2c91;}.b{clip-path:url(#a);}</style><clipPath id="a"><path class="a" d="M53.814,10.906A6.1,6.1,0,0,0,50.44,9.688a19.426,19.426,0,0,0-10.446,2.45,14.66,14.66,0,0,0-2.934,2.1c.484.132.983.264,1.5.381C45.085,15.806,50.572,14.852,53.814,10.906Zm-3.932,7.5c-3.961-1.467-9.962-2.245-13.82-3.11a7.238,7.238,0,0,0-1.379,2.582,6.048,6.048,0,0,0-.22,1.937,7.6,7.6,0,0,0,.572,2.127C36.781,24.667,44.586,21.982,49.883,18.4Zm5.487-3.99a12.47,12.47,0,0,1-2.787,3.609,5.547,5.547,0,0,1,2.377,1.863,18.838,18.838,0,0,0,.425-2.318A13.292,13.292,0,0,0,55.369,14.412Zm-12.162,1.35a58.221,58.221,0,0,1,7.981,1.716c2.142-1.643,3.653-3.4,3.741-4.841-.044-.1-.073-.191-.117-.293a4.474,4.474,0,0,0-.337-.646,4.2,4.2,0,0,0-.323-.44C51.438,14.72,47.447,15.85,43.207,15.762ZM39.5,28.628c.191.191.367.381.572.557a9.773,9.773,0,0,0,3.052,1.951,4.9,4.9,0,0,0,3.169.147,9.383,9.383,0,0,0,3.418-2.039c.249-.22.469-.455.7-.69a17.667,17.667,0,0,0,2.67-3.756C50.631,27.748,44.1,30.609,39.5,28.628Zm11.927-9.565c-4.225,3.594-10.651,6.851-14.891,5.751.073.117.147.235.22.367l.015.015c4.181,6.719,15.786,1.584,17.106-2.685C54.166,21.058,53.154,19.958,51.423,19.063Z" transform="translate(-34.457 -9.635)"/></clipPath></defs><g transform="translate(-782.042 -228)"><g transform="translate(782.042 228)"><g class="b"><rect class="a" width="21.056" height="21.865" transform="translate(-0.02 -0.005)"/></g></g><path class="a" d="M513.484,68.6a4.2,4.2,0,0,0-4.284,4.431,4.1,4.1,0,0,0,4.284,4.4,3.74,3.74,0,0,0,3.932-2.8h-1.467a.962.962,0,0,0-.807.411,2.055,2.055,0,0,1-1.57.675,1.92,1.92,0,0,1-2.069-2.127h6.059C517.724,71.153,516.433,68.6,513.484,68.6Zm-1.98,3.521a1.824,1.824,0,0,1,1.922-1.79c1.188,0,1.614.675,1.834,1.79Z" transform="translate(342.49 168.051)"/><path class="a" d="M346.784,68.6a4.2,4.2,0,0,0-4.284,4.431,4.1,4.1,0,0,0,4.284,4.4,3.74,3.74,0,0,0,3.932-2.8h-1.467a.962.962,0,0,0-.807.411,2.055,2.055,0,0,1-1.57.675,1.92,1.92,0,0,1-2.069-2.127h6.059C351.024,71.153,349.747,68.6,346.784,68.6ZM344.8,72.121a1.824,1.824,0,0,1,1.922-1.79c1.188,0,1.614.675,1.834,1.79Z" transform="translate(484.734 168.051)"/><path class="a" d="M578.189,50.463V60.19c-1.98,0-2.274-.557-2.289-2.142V48.6C577.866,48.6,578.174,48.893,578.189,50.463Z" transform="translate(285.576 185.117)"/><path class="a" d="M608.889,50.463V60.19c-1.98,0-2.274-.557-2.289-2.142V48.6C608.566,48.6,608.874,48.893,608.889,50.463Z" transform="translate(259.38 185.117)"/><path class="a" d="M214.3,59.919h2.685s-3.638-9.653-3.932-10.416a1.6,1.6,0,0,0-1.585-1.2h-1.394L205.6,59.919h2.538l.939-2.611h4.343Zm-4.519-4.592,1.511-4.255,1.452,4.255Z" transform="translate(601.55 185.373)"/><path class="a" d="M292.289,72.96h-4.152V71.2h5.531c1.57,0,1.54,1.731.836,2.465s-3.7,4.093-3.7,4.093h4.152v1.716H287.8v-1.8Z" transform="translate(531.409 165.832)"/><path class="a" d="M408.2,70.432v8.274h2.274v-4.68c0-1,1.482-1.849,2.377-1.687a2.6,2.6,0,0,1,.631.191V70.3h-.66a2.5,2.5,0,0,0-1.863.807,4.455,4.455,0,0,0-.66.954V70.432Z" transform="translate(428.673 166.6)"/><path class="a" d="M455.086,71.784H453.4c-.543,0-.763-1.54-2.171-1.54s-2.083,1.218-2.083,2.6.411,2.831,1.981,2.831,1.54-1.731,2.45-1.731h1.511a3.506,3.506,0,0,1-3.815,3.492,4.135,4.135,0,0,1-4.372-4.313,4.251,4.251,0,0,1,4.475-4.519A3.438,3.438,0,0,1,455.086,71.784Z" transform="translate(395.651 168.051)"/></g></svg>