<svg id="Group_10" data-name="Group 10" xmlns="http://www.w3.org/2000/svg" width="73" height="49.722" viewBox="0 0 73 49.722">
  <g id="Group_8" data-name="Group 8">
    <path id="Path_5" data-name="Path 5" d="M11.285,4.253H3.853V24.838H8.946v3.853H3.853V39.977H0V.4H11.285Z" transform="translate(0 -0.321)" fill="#333"/>
    <path id="Path_6" data-name="Path 6" d="M81.653,39.518H77.8V0h3.853Z" transform="translate(-62.504)" fill="#333"/>
    <path id="Path_7" data-name="Path 7" d="M136.741,1.1l-9.024,35.664h8.533v3.853H122.9l9.024-35.664h-8.257V1.1Z" transform="translate(-98.737 -0.884)" fill="#333"/>
    <path id="Path_8" data-name="Path 8" d="M222.541,1.1l-9.024,35.664h8.533v3.853H208.7l9.024-35.664h-8.258V1.1Z" transform="translate(-167.668 -0.884)" fill="#333"/>
    <path id="Path_9" data-name="Path 9" d="M309.84,40.538h-3.6l-1.651-11.5h-4.483l-1.73,11.5H294.8q.678-4.807,1.416-9.85c.491-3.342.963-6.685,1.455-9.988s.963-6.547,1.455-9.752c.491-3.185.924-6.232,1.337-9.123,0-.1.02-.236.039-.413A.674.674,0,0,0,300.462,1h3.657v.354ZM303.981,25.32,302.33,13.76,300.6,25.32Z" transform="translate(-236.84 -0.803)" fill="#333"/>
  </g>
  <g id="Group_9" data-name="Group 9" transform="translate(1.239 46.045)">
    <path id="Path_10" data-name="Path 10" d="M6.634,239.672a.1.1,0,0,0-.118-.118H6.3v-.295h.354c.216,0,.315.1.315.295v.118a.811.811,0,0,1-.02.177h.02a1.06,1.06,0,0,1,.944-.649.721.721,0,0,1,.806.649h.02a1.038,1.038,0,0,1,.944-.649c.629,0,.865.374.865,1v1.219a.1.1,0,0,0,.118.118h.216v.295h-.374a.273.273,0,0,1-.315-.315v-1.239c0-.413-.079-.767-.55-.767a.959.959,0,0,0-.826.727,1.149,1.149,0,0,0-.039.374v1.219H8.4v-1.553c0-.393-.059-.767-.55-.767a.978.978,0,0,0-.845.767.92.92,0,0,0-.039.334v1.219H6.634Z" transform="translate(-6.3 -238.217)" fill="#adadad"/>
    <path id="Path_11" data-name="Path 11" d="M45.032,240.081h.138v-.039c0-.531-.2-.727-.668-.727-.138,0-.511.039-.511.216v.157h-.334v-.256c0-.354.609-.432.845-.432.826,0,1,.432,1,.983v1.239a.1.1,0,0,0,.118.118h.216v.295h-.354a.273.273,0,0,1-.315-.315v-.2h-.02a.933.933,0,0,1-.865.551.808.808,0,0,1-.885-.767C43.439,240.1,44.58,240.081,45.032,240.081Zm-.649,1.357a.9.9,0,0,0,.786-.963v-.118h-.157c-.413,0-1.219.02-1.219.59A.528.528,0,0,0,44.383,241.438Z" transform="translate(-36.106 -238.056)" fill="#adadad"/>
    <path id="Path_12" data-name="Path 12" d="M71.238,235.163a.915.915,0,0,1,.845.492h.02a.892.892,0,0,1-.02-.2v-.845a.1.1,0,0,0-.118-.118h-.216V234.2h.374a.273.273,0,0,1,.315.315v2.87a.1.1,0,0,0,.118.118h.216v.295h-.354c-.216,0-.315-.1-.315-.295a.544.544,0,0,1,.02-.157H72.1a.941.941,0,0,1-.885.511c-.688,0-1.121-.55-1.121-1.357A1.176,1.176,0,0,1,71.238,235.163Zm.845,1.357c0-.531-.275-1.042-.826-1.042-.452,0-.826.393-.826,1.042,0,.629.334,1.042.826,1.042C71.69,237.562,72.083,237.247,72.083,236.52Z" transform="translate(-57.554 -234.2)" fill="#adadad"/>
    <path id="Path_13" data-name="Path 13" d="M99.078,239.1a1.085,1.085,0,0,1,1.081,1.2,1.526,1.526,0,0,1-.02.177H98.174a.986.986,0,0,0,1,1.022,1.125,1.125,0,0,0,.767-.315l.177.256a1.458,1.458,0,0,1-.963.374,1.312,1.312,0,0,1-1.357-1.357A1.272,1.272,0,0,1,99.078,239.1Zm.727,1.1a.728.728,0,0,0-.727-.786.871.871,0,0,0-.885.786Z" transform="translate(-79.81 -238.137)" fill="#adadad"/>
    <path id="Path_14" data-name="Path 14" d="M143.836,239.913a.153.153,0,0,0-.177-.118H143.6V239.5h.177c.256,0,.334.039.413.295l.531,1.632c.039.118.079.275.079.275h.02s.039-.157.079-.275l.629-1.907h.354l.629,1.907c.039.118.079.275.079.275h.02s.039-.157.079-.275l.531-1.632c.079-.236.157-.295.413-.295h.177v.295h-.079c-.079,0-.157.02-.177.118l-.747,2.163h-.393l-.629-1.828-.079-.275h-.02s-.039.157-.079.275l-.629,1.828h-.393Z" transform="translate(-116.606 -238.458)" fill="#adadad"/>
    <path id="Path_15" data-name="Path 15" d="M178.634,235.655a.1.1,0,0,0-.118-.118H178.3v-.295h.374a.273.273,0,0,1,.315.315V237.4a.1.1,0,0,0,.118.118h.216v.295h-.374a.273.273,0,0,1-.315-.315Zm-.02-1.455h.334v.433h-.334Z" transform="translate(-144.484 -234.2)" fill="#adadad"/>
    <path id="Path_16" data-name="Path 16" d="M197.734,236.8H197.4v-.295h.334V235.8h.334v.708h.649v.295h-.649v1.317c0,.609.393.688.59.688a.285.285,0,0,0,.118-.02v.315a.545.545,0,0,1-.157.02.845.845,0,0,1-.9-.963V236.8Z" transform="translate(-159.828 -235.485)" fill="#adadad"/>
    <path id="Path_17" data-name="Path 17" d="M218.634,234.613a.1.1,0,0,0-.118-.118H218.3V234.2h.374c.216,0,.315.1.315.295v1.1a1.23,1.23,0,0,1-.02.216h.02a1.084,1.084,0,0,1,1.022-.649c.649,0,.865.374.865,1v1.219a.1.1,0,0,0,.118.118h.216v.295h-.374a.273.273,0,0,1-.315-.315v-1.239c0-.413-.059-.767-.57-.767a.985.985,0,0,0-.944.727.92.92,0,0,0-.039.334v1.239h-.334Z" transform="translate(-176.619 -234.2)" fill="#adadad"/>
    <path id="Path_18" data-name="Path 18" d="M266.634,234.613a.1.1,0,0,0-.118-.118H266.3V234.2h.373a.273.273,0,0,1,.315.315v2.87a.1.1,0,0,0,.118.118h.216v.295h-.374a.273.273,0,0,1-.315-.315Z" transform="translate(-215.182 -234.2)" fill="#adadad"/>
    <path id="Path_19" data-name="Path 19" d="M287.057,239.1a1.347,1.347,0,1,1,0,2.694,1.347,1.347,0,1,1,0-2.694Zm.02,2.4a1.021,1.021,0,0,0,1-1.062,1,1,0,1,0-1,1.062Z" transform="translate(-230.768 -238.137)" fill="#adadad"/>
    <path id="Path_20" data-name="Path 20" d="M313.516,239.913a.153.153,0,0,0-.177-.118H313.3V239.5h.138c.256,0,.315.059.413.275l.629,1.612c.039.138.079.295.079.295h.02s.039-.177.079-.295l.629-1.612c.079-.236.157-.275.413-.275h.138v.295H315.8c-.1,0-.157.02-.177.118l-.845,2.163H314.4Z" transform="translate(-252.942 -238.458)" fill="#adadad"/>
    <path id="Path_21" data-name="Path 21" d="M340.9,239.1a1.085,1.085,0,0,1,1.081,1.2,1.521,1.521,0,0,1-.02.177h-1.986a.986.986,0,0,0,1,1.022,1.125,1.125,0,0,0,.767-.315l.177.256a1.457,1.457,0,0,1-.963.374,1.312,1.312,0,0,1-1.357-1.357A1.3,1.3,0,0,1,340.9,239.1Zm.727,1.1a.728.728,0,0,0-.727-.786.871.871,0,0,0-.885.786Z" transform="translate(-274.071 -238.137)" fill="#adadad"/>
  </g>
</svg>
