<svg xmlns="http://www.w3.org/2000/svg" width="92" height="92" viewBox="0 0 92 92">
  <g id="Group_453" data-name="Group 453" transform="translate(-718 -323)">
    <circle id="Ellipse_80" data-name="Ellipse 80" cx="46" cy="46" r="46" transform="translate(718 323)" fill="#f8ca1c"/>
    <g id="credit-cards" transform="translate(735 339.517)">
      <g id="Group_394" data-name="Group 394" transform="translate(0.001 10.483)">
        <path id="Path_492" data-name="Path 492" d="M58.054,24.7l-1.368-.295a3.078,3.078,0,0,1-.006.364l-.066.575-.106.932L54.33,45.3a2.942,2.942,0,0,1-3.259,2.622l-5.853-.671-9.461-1.083L26.3,45.084l26.152,5.633a2.905,2.905,0,0,0,.614.064,2.978,2.978,0,0,0,2.886-2.354L60.3,28.23A2.971,2.971,0,0,0,59.907,26,2.9,2.9,0,0,0,58.054,24.7Z" transform="translate(-2.742 -11.935)" fill="#fff"/>
        <path id="Path_493" data-name="Path 493" d="M49.617,45.534a2.813,2.813,0,0,0,.333.019,3.022,3.022,0,0,0,2.285-1.107,2.977,2.977,0,0,0,.64-1.533l2-17.5.107-.932.106-.932.092-.8.041-.362a3.065,3.065,0,0,0-.056-.967,2.952,2.952,0,0,0-.554-1.215A2.9,2.9,0,0,0,52.643,19.1L51.1,18.92V40.37a2.143,2.143,0,0,1-2.055,2.221H23.918l4.447.508Z" transform="translate(-2.494 -11.363)" fill="#fff"/>
        <path id="Path_494" data-name="Path 494" d="M44.078,38.153l-10.2.948-10.058.932-1.534.142-4.451.414-.077.007-2.071.193-1.122.1-.116.011-.682.064H46a2.96,2.96,0,0,0,2.939-2.975V17.331a2.979,2.979,0,0,0-.89-2.127A2.915,2.915,0,0,0,46,14.356H43.936l.078.841.009.091.087.933.144,1.56.088.95.069.745.019.205.068.744.056.6.031.346.058.629.09.974,1.185,12.774A2.14,2.14,0,0,1,44.078,38.153Z" transform="translate(-1.436 -10.887)" fill="#fff"/>
        <path id="Path_495" data-name="Path 495" d="M21.4,30.857a.33.33,0,0,0-.2.089.4.4,0,0,0-.1.343.447.447,0,0,0,.127.291.319.319,0,0,0,.262.092.281.281,0,0,0,.225-.134.472.472,0,0,0,.057-.3.433.433,0,0,0-.126-.3A.31.31,0,0,0,21.4,30.857Z" transform="translate(-2.2 -12.607)" fill="#fff"/>
        <path id="Path_496" data-name="Path 496" d="M20.788,37.443a.6.6,0,0,0-.175.072.178.178,0,0,0-.077.176.173.173,0,0,0,.07.139.218.218,0,0,0,.142.032.417.417,0,0,0,.23-.1.309.309,0,0,0,.087-.282l-.013-.145a.434.434,0,0,1-.073.045.642.642,0,0,1-.1.036Z" transform="translate(-2.141 -13.283)" fill="#fff"/>
        <path id="Path_497" data-name="Path 497" d="M27.759,30.733a.36.36,0,0,0-.114-.256.325.325,0,0,0-.248-.068.321.321,0,0,0-.231.113.439.439,0,0,0,.048.526.323.323,0,0,0,.25.07A.312.312,0,0,0,27.7,31,.362.362,0,0,0,27.759,30.733Z" transform="translate(-2.825 -12.56)" fill="#fff"/>
        <path id="Path_498" data-name="Path 498" d="M29.3,29.208a.314.314,0,0,0-.191.083.416.416,0,0,0-.1.354.472.472,0,0,0,.111.3.306.306,0,0,0,.263.077.31.31,0,0,0,.169-.07.37.37,0,0,0,.12-.353.474.474,0,0,0-.119-.3A.3.3,0,0,0,29.3,29.208Z" transform="translate(-3.024 -12.435)" fill="#fff"/>
        <path id="Path_499" data-name="Path 499" d="M27.358,29.96a.273.273,0,0,0,.2-.1.322.322,0,0,0-.039-.414.282.282,0,0,0-.219-.056.265.265,0,0,0-.261.314.278.278,0,0,0,.095.2A.29.29,0,0,0,27.358,29.96Z" transform="translate(-2.819 -12.454)" fill="#fff"/>
        <path id="Path_500" data-name="Path 500" d="M32.947,35.748a.347.347,0,0,0-.241-.058.319.319,0,0,0-.227.108.417.417,0,0,0-.083.243l.678-.064A.327.327,0,0,0,32.947,35.748Z" transform="translate(-3.377 -13.111)" fill="#fff"/>
        <path id="Path_501" data-name="Path 501" d="M38.929,29.4l.568-.053-.091-.981Z" transform="translate(-4.058 -12.348)" fill="#fff"/>
        <path id="Path_502" data-name="Path 502" d="M28.147,36.749a.616.616,0,0,0-.176.071.181.181,0,0,0-.077.176.175.175,0,0,0,.07.14.219.219,0,0,0,.143.031.418.418,0,0,0,.23-.1.312.312,0,0,0,.087-.282l-.013-.146a.394.394,0,0,1-.073.045.681.681,0,0,1-.1.037Z" transform="translate(-2.908 -13.21)" fill="#fff"/>
        <path id="Path_503" data-name="Path 503" d="M43.383,28.786a.316.316,0,0,0-.2.089.39.39,0,0,0-.1.342.462.462,0,0,0,.128.291.317.317,0,0,0,.262.092.284.284,0,0,0,.225-.134.461.461,0,0,0,.058-.3.443.443,0,0,0-.127-.3A.309.309,0,0,0,43.383,28.786Z" transform="translate(-4.491 -12.391)" fill="#fff"/>
        <path id="Path_504" data-name="Path 504" d="M17.421,30.44l-.477,1.035.432-.041.138-.013-.041-.435Z" transform="translate(-1.767 -12.564)" fill="#fff"/>
        <path id="Path_505" data-name="Path 505" d="M15.36,37.325a.32.32,0,0,0-.226.108.416.416,0,0,0-.083.243l.678-.063a.333.333,0,0,0-.127-.228A.341.341,0,0,0,15.36,37.325Z" transform="translate(-1.569 -13.281)" fill="#fff"/>
        <path id="Path_506" data-name="Path 506" d="M10.991,38.323a.564.564,0,0,1-.1.036l-.089.025a.583.583,0,0,0-.175.071.205.205,0,0,0-.007.315.218.218,0,0,0,.142.031.413.413,0,0,0,.23-.1.307.307,0,0,0,.087-.281l-.013-.146A.5.5,0,0,1,10.991,38.323Z" transform="translate(-1.1 -13.38)" fill="#fff"/>
        <path id="Path_507" data-name="Path 507" d="M7.724,32.663a2.313,2.313,0,0,0,.006-.607,2.213,2.213,0,0,0-.119-.6.275.275,0,0,0-.527.049A2.907,2.907,0,0,0,7.2,32.712a.271.271,0,0,0,.525-.049Z" transform="translate(-0.736 -12.651)" fill="#fff"/>
        <path id="Path_508" data-name="Path 508" d="M4.608,40.264c.082.007.161.024.245.024s.179,0,.27-.013l2.292-.212.755-.07,1.979-.184.306-.028.929-.087.408-.038.3-.028.236-.021.425-.039.941-.088.97-.09,1.579-.147,5.909-.547L40.494,37a2.961,2.961,0,0,0,2.651-3.235L42.083,22.314l-.09-.974-.047-.505-.045-.468-.044-.482-.068-.744-.019-.205-.069-.744-.088-.95-.131-1.422-.088-.933-.008-.092-.079-.841-.071-.764A2.978,2.978,0,0,0,39.9,10.967a2.873,2.873,0,0,0-1.865-.47L2.665,13.779A2.962,2.962,0,0,0,.013,17.013L1.922,37.585A2.937,2.937,0,0,0,4.608,40.264Zm2-20.1a2.524,2.524,0,0,0-.337.334,2.372,2.372,0,0,0-.171.253,2.458,2.458,0,0,0-.363.962l-.629.06A2,2,0,0,1,6.1,20.362,1.959,1.959,0,0,1,6.608,20.164Zm30.423-5.278a4.036,4.036,0,0,1,1.346,1.986,3.917,3.917,0,0,1,.136.7c.01.085,0,.168,0,.253a3.679,3.679,0,0,1-.047.731c-.011.066-.026.133-.04.2a3.8,3.8,0,0,1-.229.71c-.013.03-.023.062-.039.093a3.818,3.818,0,0,1-.479.786c-.012.015-.02.033-.031.047l-.009.008a4.064,4.064,0,0,1-2.6,1.371,3.621,3.621,0,0,1-.366.018A3.84,3.84,0,0,1,32.8,21.3a3.821,3.821,0,0,1-2.277,1.047c-.123.012-.245.018-.367.018a3.841,3.841,0,0,1-3.811-3.313c-.006-.044-.019-.085-.023-.13,0-.021-.01-.041-.013-.064a3.953,3.953,0,0,1,0-.75c0-.047.019-.092.024-.137a3.967,3.967,0,0,1,.118-.582c.02-.066.052-.129.074-.194.015-.043.036-.083.053-.125a4.388,4.388,0,0,1,.6-1.041c.064-.076.141-.136.208-.206s.121-.126.186-.184a3.815,3.815,0,0,1,1.23-.75c.075-.028.146-.068.224-.091a3.949,3.949,0,0,1,.771-.154,3.845,3.845,0,0,1,1.509.154c.08.024.152.063.23.091a3.962,3.962,0,0,1,.527.235c.088-.082.173-.161.267-.235.044-.034.092-.059.136-.091a3.78,3.78,0,0,1,4.43,0C36.94,14.826,36.989,14.853,37.031,14.886ZM7.58,36.342l-.4.038-.15-1.593-.041-.439.041,0,.4-.039.529.754.146.21.264.376-.133-1.417.4-.037.191,2.032-.425.04-.295-.417-.146-.207L7.441,34.9ZM6.1,30.759a1.864,1.864,0,0,1-.218-.766,1.779,1.779,0,0,1,.093-.888.585.585,0,0,1,.125-.143.68.68,0,0,1,.457-.221.7.7,0,0,1,.476.118.578.578,0,0,1,.165.131,1.783,1.783,0,0,1,.256.853,1.755,1.755,0,0,1-.093.885.572.572,0,0,1-.328.284.78.78,0,0,1-.253.078.649.649,0,0,1-.639-.246A.61.61,0,0,1,6.1,30.759Zm-.367-8.275.137,1.45c0,.012,0,.021.006.032l-.629.059-.141-1.483ZM27.578,32.969a.586.586,0,0,1,.264-.088.528.528,0,0,1,.2.02.439.439,0,0,1,.29.3,1.382,1.382,0,0,1,.035.221l.088.949-.4.038-.09-.957a.306.306,0,0,0-.041-.138.2.2,0,0,0-.2-.087.227.227,0,0,0-.212.157.436.436,0,0,0-.015.176l.083.895-.4.039-.084-.895a.5.5,0,0,0-.047-.192.193.193,0,0,0-.2-.091.231.231,0,0,0-.215.131.4.4,0,0,0-.015.187l.085.9-.4.037-.142-1.5.381-.037.021.219a.61.61,0,0,1,.122-.18.484.484,0,0,1,.288-.116.465.465,0,0,1,.286.049.456.456,0,0,1,.147.168A.54.54,0,0,1,27.578,32.969ZM27.417,27.2a2.136,2.136,0,0,0,.294-.056.385.385,0,0,0,.282-.312A.4.4,0,0,0,28,26.737l.374-.036.214,2.279-.46.043-.149-1.572-.535.051Zm-.3,1.457a.74.74,0,0,1-.69.6.755.755,0,0,1-.475-.108.6.6,0,0,1-.277-.421l.446-.042a.284.284,0,0,0,.1.156.263.263,0,0,0,.19.046.322.322,0,0,0,.288-.274,1.424,1.424,0,0,0,.024-.4.5.5,0,0,1-.119.131.6.6,0,0,1-.3.1.708.708,0,0,1-.5-.142.685.685,0,0,1-.261-.522.833.833,0,0,1,.156-.613.784.784,0,0,1,1.285.115,1.792,1.792,0,0,1,.174.676A1.936,1.936,0,0,1,27.112,28.654ZM25.4,33.465a.4.4,0,0,0-.193-.017.251.251,0,0,0-.193.088.276.276,0,0,0-.043.142l-.379.036a.572.572,0,0,1,.081-.335.651.651,0,0,1,.52-.25.955.955,0,0,1,.449.056.374.374,0,0,1,.228.352l.065.69c0,.048.011.1.019.173a.2.2,0,0,0,.034.1.146.146,0,0,0,.063.04l.005.056-.427.04a.369.369,0,0,1-.033-.082.821.821,0,0,1-.02-.09.8.8,0,0,1-.174.168.555.555,0,0,1-.281.1.5.5,0,0,1-.35-.085.425.425,0,0,1-.166-.319.433.433,0,0,1,.177-.421.986.986,0,0,1,.339-.13l.133-.028A.632.632,0,0,0,25.4,33.7a.118.118,0,0,0,.073-.119A.138.138,0,0,0,25.4,33.465ZM23.407,34.85l-.392.038-.142-1.5.381-.036.02.219a.688.688,0,0,1,.128-.18.49.49,0,0,1,.3-.119.579.579,0,0,1,.391.086.5.5,0,0,1,.186.391l.095,1.013-.4.038-.085-.914a.432.432,0,0,0-.048-.18.222.222,0,0,0-.229-.094.275.275,0,0,0-.257.2.641.641,0,0,0-.017.233Zm.651-5.587a.678.678,0,0,1-.243-.471.7.7,0,0,1,.055-.356.546.546,0,0,1,.231-.258.542.542,0,0,1-.239-.218.673.673,0,0,1-.072-.236.562.562,0,0,1,.147-.441.893.893,0,0,1,1.06-.1.565.565,0,0,1,.228.406.661.661,0,0,1-.028.244.458.458,0,0,1-.193.243.651.651,0,0,1,.279.226.682.682,0,0,1,.117.339.654.654,0,0,1-.168.51.842.842,0,0,1-.577.258A.774.774,0,0,1,24.058,29.264ZM20.5,34.629a2.363,2.363,0,0,0-.423-.08.869.869,0,0,1-.376-.125.348.348,0,0,1-.131-.26.474.474,0,0,1,.13-.374.66.66,0,0,1,.448-.193.854.854,0,0,1,.47.068.483.483,0,0,1,.241.37l-.392.037a.225.225,0,0,0-.054-.116.271.271,0,0,0-.228-.059.334.334,0,0,0-.179.057.116.116,0,0,0-.046.1.107.107,0,0,0,.067.093,2.417,2.417,0,0,0,.421.07.738.738,0,0,1,.367.133.388.388,0,0,1,.143.271.463.463,0,0,1-.133.382,1,1,0,0,1-1.039.09.49.49,0,0,1-.206-.365l.4-.037a.255.255,0,0,0,.067.142.373.373,0,0,0,.279.055.417.417,0,0,0,.183-.054.109.109,0,0,0,.059-.109A.119.119,0,0,0,20.5,34.629ZM18.8,34.086a.415.415,0,0,0-.193-.017.257.257,0,0,0-.193.088.288.288,0,0,0-.043.143L18,34.335A.572.572,0,0,1,18.077,34a.65.65,0,0,1,.519-.249.972.972,0,0,1,.45.056.377.377,0,0,1,.227.352l.065.691c0,.047.011.1.02.173a.212.212,0,0,0,.033.1.144.144,0,0,0,.063.04l.005.057-.427.04A.619.619,0,0,1,19,35.179a.774.774,0,0,1-.019-.09.821.821,0,0,1-.175.168.551.551,0,0,1-.281.1.5.5,0,0,1-.35-.085.419.419,0,0,1-.165-.318.429.429,0,0,1,.176-.422.98.98,0,0,1,.339-.13l.133-.028a.639.639,0,0,0,.154-.05.117.117,0,0,0,.073-.12A.137.137,0,0,0,18.8,34.086Zm-4.254.651a1.875,1.875,0,0,1,.041.3l-.209.02-.886.083a.363.363,0,0,0,.187.3.4.4,0,0,0,.221.036.305.305,0,0,0,.283-.2l.148-.014.253-.023a.489.489,0,0,1-.12.285.639.639,0,0,1-.229.187.9.9,0,0,1-.315.085.824.824,0,0,1-.546-.134c-.027-.019-.041-.054-.064-.076a.768.768,0,0,1-.221-.5.819.819,0,0,1,.15-.618.7.7,0,0,1,.36-.216.792.792,0,0,1,.159-.043.862.862,0,0,1,.36.038.612.612,0,0,1,.28.2.7.7,0,0,1,.079.159A.76.76,0,0,1,14.551,34.738Zm-2.038,1.14-.091-.957a.306.306,0,0,0-.041-.138.2.2,0,0,0-.2-.087.224.224,0,0,0-.211.157.417.417,0,0,0-.016.175l.083.895-.274.026-.121.012-.083-.9a.508.508,0,0,0-.046-.192.181.181,0,0,0-.092-.077.26.26,0,0,0-.113-.014.231.231,0,0,0-.215.131.419.419,0,0,0-.013.187l.084.9-.349.032-.049,0-.142-1.5.365-.035.017,0,.02.219a.6.6,0,0,1,.122-.18.476.476,0,0,1,.288-.116c.01,0,.016,0,.027,0a.476.476,0,0,1,.26.045.438.438,0,0,1,.147.169c.013-.029.037-.04.051-.064a.487.487,0,0,1,.123-.15.589.589,0,0,1,.264-.088.544.544,0,0,1,.2.019.441.441,0,0,1,.291.3,1.626,1.626,0,0,1,.03.19c0,.013,0,.017,0,.03l.087.948-.205.02ZM6.336,23.89,6.2,22.441l.65-.062.14,1.483-.646.06A.122.122,0,0,1,6.336,23.89Zm5.8,6.7a1,1,0,0,1-.228-.021.643.643,0,0,1-.441-.208c-.009-.01-.023-.012-.032-.022a.933.933,0,0,1-.151-.429l.237-.022.2-.02a.517.517,0,0,0,.065.222.274.274,0,0,0,.16.117.345.345,0,0,0,.152.02.334.334,0,0,0,.221-.112.339.339,0,0,0,.073-.27.292.292,0,0,0-.21-.282.6.6,0,0,0-.16-.019,1.661,1.661,0,0,0-.169.006l-.03-.321a1.129,1.129,0,0,0,.242-.05.481.481,0,0,0,.058-.021.265.265,0,0,0,.125-.28.3.3,0,0,0-.1-.205c-.006-.006-.019,0-.027-.007a.279.279,0,0,0-.194-.055.272.272,0,0,0-.224.122.425.425,0,0,0-.046.275l-.041,0-.377.036a1.125,1.125,0,0,1,.028-.327.721.721,0,0,1,.149-.263.6.6,0,0,1,.2-.142.713.713,0,0,1,.086-.021.94.94,0,0,1,.208-.051.894.894,0,0,1,.262.013.689.689,0,0,1,.281.107.534.534,0,0,1,.16.176.612.612,0,0,1,.082.26.5.5,0,0,1-.088.351.439.439,0,0,1-.073.065.369.369,0,0,1-.074.067c.015,0,.044.023.063.03a.319.319,0,0,1,.123.058.563.563,0,0,1,.211.417.729.729,0,0,1-.15.527.655.655,0,0,1-.322.211A1.076,1.076,0,0,1,12.132,30.587Zm-1.743,5.1c0,.049.011.106.019.174a.214.214,0,0,0,.034.1.162.162,0,0,0,.063.04l.005.056-.177.017-.25.023a.375.375,0,0,1-.033-.083.65.65,0,0,1-.019-.09.842.842,0,0,1-.175.168.568.568,0,0,1-.281.1.543.543,0,0,1-.193-.014.463.463,0,0,1-.157-.072.418.418,0,0,1-.165-.318.432.432,0,0,1,.176-.422.86.86,0,0,1,.25-.1c.03-.009.055-.019.089-.026l.133-.029a.6.6,0,0,0,.154-.05.116.116,0,0,0,.074-.119.135.135,0,0,0-.076-.122.419.419,0,0,0-.194-.017.244.244,0,0,0-.144.065c-.013.01-.039.009-.049.022a.284.284,0,0,0-.043.142l-.379.036a.569.569,0,0,1,.082-.335.61.61,0,0,1,.432-.228.769.769,0,0,1,.087-.021.944.944,0,0,1,.449.056.375.375,0,0,1,.228.352l.059.627ZM9.182,21.39l-.382.036.212,2.247-.9.084-.146.014-.214.021-.336-3.563a2.02,2.02,0,0,1,.55-.146l.018,0,.129-.012,1.5-.142c.038,0,.074,0,.111-.005a2,2,0,0,1,1.394,1.044,2.211,2.211,0,0,1,.108.233l-.137.013-1.912.181Zm1.216.655.606-.057.808-.075.063.67.074.78c0,.012,0,.022,0,.034l-.168.016-.951.09-.293.028Zm.345,2.235.95-.09.164-.016a1.959,1.959,0,0,1-.212.435,2.045,2.045,0,0,1-.144.215,1.985,1.985,0,0,1-.785.567l-.045-.474-.058-.626Zm-.738,6.45-.435.041a1.081,1.081,0,0,1,.063-.459,1.275,1.275,0,0,1,.408-.524l.081-.074a2.764,2.764,0,0,0,.289-.282.469.469,0,0,0,.109-.34.364.364,0,0,0-.1-.233.279.279,0,0,0-.191-.06c-.019,0-.029-.017-.047-.015a.284.284,0,0,0-.264.179.76.76,0,0,0-.024.285l-.435.041a1.105,1.105,0,0,1,.061-.48.657.657,0,0,1,.606-.4,1.147,1.147,0,0,1,.149.008.769.769,0,0,1,.447.137.7.7,0,0,1,.264.511.714.714,0,0,1-.109.464,1.524,1.524,0,0,1-.3.322l-.168.144c-.1.09-.176.155-.214.2a.5.5,0,0,0-.093.133l.9-.085.092-.008.038.394-.176.017Zm-2.972-6.1.026,0,.064.671c-.03-.022-.063-.042-.09-.066a1.984,1.984,0,0,1-.456-.559Zm.791-.074.142-.013.146-.014.97-.092L9.2,25.629l-.683.064a1.992,1.992,0,0,1-.4,0c-.05,0-.1-.02-.146-.029-.013,0-.025-.005-.038-.008Zm.142,4.454L8.019,29a.416.416,0,0,0,.095-.063.428.428,0,0,0,.114-.076.414.414,0,0,0,.073-.172.4.4,0,0,0,.008-.093l.374-.036.215,2.28-.46.043L8.29,29.307l-.176.017-.146.014-.213.019-.03-.3A2.369,2.369,0,0,0,7.967,29.008Zm6.91.769-.038-.391.708-1.462.376-.036.126-.013.134,1.424.258-.024.032.351-.257.024.046.491-.438.04-.046-.49-.249.023Zm2.609.309a.806.806,0,0,1-.551-.124.686.686,0,0,1-.279-.474l.448-.041a.421.421,0,0,0,.123.216.282.282,0,0,0,.227.059.3.3,0,0,0,.243-.141.485.485,0,0,0,.058-.3.519.519,0,0,0-.108-.287.287.287,0,0,0-.266-.1.458.458,0,0,0-.14.033.288.288,0,0,0-.146.155l-.4.019L16.7,28.7l.029-.869.162-.015,1.092-.1.036.381-.932.088-.035.505a.9.9,0,0,1,.153-.1.7.7,0,0,1,1.008.619.874.874,0,0,1-.15.583A.734.734,0,0,1,17.486,30.086Zm.4,5.284-1.439.135-.191-2.033.425-.04.157,1.667L17.857,35Zm1.429-5.457a.684.684,0,0,1-.67-.3,1.471,1.471,0,0,1-.227-.711,3.066,3.066,0,0,1-.019-.426,1.3,1.3,0,0,1,.107-.5.76.76,0,0,1,.23-.289.688.688,0,0,1,.368-.136.758.758,0,0,1,.522.115.621.621,0,0,1,.253.413l-.446.041A.225.225,0,0,0,19.384,28a.249.249,0,0,0-.228-.086.327.327,0,0,0-.288.275,1.539,1.539,0,0,0-.032.406.509.509,0,0,1,.181-.164.713.713,0,0,1,.764.09.738.738,0,0,1,.243.509.893.893,0,0,1-.138.58A.693.693,0,0,1,19.32,29.913Zm1.292-.181a2.74,2.74,0,0,1,.282-1.313,3.035,3.035,0,0,1,.36-.611l-1.136.107-.031-.4,1.61-.152.033.351a2.846,2.846,0,0,0-.248.38,3.138,3.138,0,0,0-.251.553,2.944,2.944,0,0,0-.124.535,2.2,2.2,0,0,0-.03.511Zm.59,3.824-.039-.418.39-.037.039.419.245-.023.026.279-.244.023.074.794q.008.093.035.113a.259.259,0,0,0,.145.01l.038-.005.039-.005.028.295-.185.023a.5.5,0,0,1-.39-.06.291.291,0,0,1-.086-.2l-.086-.925-.211.019-.025-.279ZM6.694,20.733l.082.882-.554.053a1.986,1.986,0,0,1,.409-.873C6.65,20.772,6.674,20.755,6.694,20.733Zm-.61,3.985a.3.3,0,0,0,.017.04,2.444,2.444,0,0,0,.933,1.048c.046.028.1.047.145.073l0,.045c-.052,0-.1-.02-.15-.026a1.983,1.983,0,0,1-1.588-1.119Zm24.7,3.656.038.394-1.562.147a1.094,1.094,0,0,1,.064-.459,1.279,1.279,0,0,1,.407-.525,3.37,3.37,0,0,0,.372-.355.474.474,0,0,0,.109-.341.365.365,0,0,0-.1-.233.329.329,0,0,0-.5.1.778.778,0,0,0-.023.284l-.436.041a1.129,1.129,0,0,1,.061-.479.658.658,0,0,1,.606-.4.807.807,0,0,1,.594.147.7.7,0,0,1,.264.511.718.718,0,0,1-.109.464,1.51,1.51,0,0,1-.3.322l-.168.145c-.1.09-.177.155-.215.2a.538.538,0,0,0-.093.134ZM29.3,32.738a.866.866,0,0,1,.361.038.614.614,0,0,1,.279.2.74.74,0,0,1,.15.3,1.986,1.986,0,0,1,.041.3l-1.095.1a.362.362,0,0,0,.187.3.414.414,0,0,0,.222.037.331.331,0,0,0,.211-.09.308.308,0,0,0,.071-.111l.4-.037a.486.486,0,0,1-.12.285.737.737,0,0,1-.545.272.823.823,0,0,1-.548-.134.737.737,0,0,1-.286-.58A.82.82,0,0,1,28.78,33,.73.73,0,0,1,29.3,32.738Zm4.826-5.4a.56.56,0,0,1,.211.417.733.733,0,0,1-.152.528.768.768,0,0,1-.572.275.722.722,0,0,1-.7-.253.947.947,0,0,1-.151-.431l.441-.04a.53.53,0,0,0,.064.222.3.3,0,0,0,.313.137.326.326,0,0,0,.221-.112.336.336,0,0,0,.073-.27.293.293,0,0,0-.209-.282.928.928,0,0,0-.331-.013L33.3,27.2a.845.845,0,0,0,.3-.071.265.265,0,0,0,.123-.28.3.3,0,0,0-.095-.205.282.282,0,0,0-.222-.061.27.27,0,0,0-.223.122.431.431,0,0,0-.046.275l-.419.039a1.133,1.133,0,0,1,.029-.328.715.715,0,0,1,.15-.262.608.608,0,0,1,.2-.143.874.874,0,0,1,.292-.07.8.8,0,0,1,.543.119.567.567,0,0,1,.243.434.507.507,0,0,1-.089.351.391.391,0,0,1-.146.132A.335.335,0,0,1,34.125,27.343Zm1.834.941-.44.041-.046-.491-.9.085-.038-.391.708-1.462.5-.047.134,1.423.257-.024.032.351-.258.024Zm1.38-1.15a.288.288,0,0,0-.267-.1.451.451,0,0,0-.138.034.283.283,0,0,0-.145.155l-.4.019.041-1.275,1.253-.118.036.381-.932.088-.034.505a.958.958,0,0,1,.153-.1.709.709,0,0,1,.233-.058.719.719,0,0,1,.511.143.709.709,0,0,1,.262.534.88.88,0,0,1-.15.583.739.739,0,0,1-.583.3.807.807,0,0,1-.55-.124.686.686,0,0,1-.279-.473l.447-.042a.445.445,0,0,0,.123.217.287.287,0,0,0,.228.058.3.3,0,0,0,.243-.142.483.483,0,0,0,.059-.3A.515.515,0,0,0,37.339,27.134Zm2.242.623a.709.709,0,0,1-.569.3.682.682,0,0,1-.668-.3,1.477,1.477,0,0,1-.228-.71,3.356,3.356,0,0,1-.018-.426,1.339,1.339,0,0,1,.107-.5.787.787,0,0,1,.231-.289A.7.7,0,0,1,38.8,25.7a.758.758,0,0,1,.521.115.62.62,0,0,1,.253.413l-.446.042a.218.218,0,0,0-.055-.116.249.249,0,0,0-.228-.086.324.324,0,0,0-.288.274,1.5,1.5,0,0,0-.032.406.517.517,0,0,1,.179-.163.642.642,0,0,1,.248-.069.657.657,0,0,1,.516.159.727.727,0,0,1,.243.508A.884.884,0,0,1,39.581,27.758Z" transform="translate(-0.001 -10.483)" fill="#fff"/>
        <path id="Path_509" data-name="Path 509" d="M37.139,18.491l-.465.044-.214.021-.248.023-.725.068-.552.053-.238.022-.226.021-.466.044c0-.072,0-.142,0-.214,0-.031,0-.064,0-.095,0-.062,0-.124,0-.184l.092-.008.373-.036.465-.044,1.149-.108.484-.046.472-.046.4-.038c0-.013-.012-.026-.016-.039a3.506,3.506,0,0,0-.208-.524l-.4.038-.486.046-.518.048-.747.07-.245.023-.246.023L34.1,17.7c.011-.049.019-.1.031-.148.034-.127.072-.249.117-.371l.525-.05.539-.051.149-.014.565-.053.529-.051.354-.033.018,0a3.382,3.382,0,0,0-.477-.52.173.173,0,0,1-.018-.019l-.2.019-.107.01-.314.03-.291.027-.383.037-.331.03-.266.025c.023-.041.054-.078.08-.118-.027-.013-.055-.029-.082-.041a2.923,2.923,0,0,0-1.2-.263c-.093,0-.186.005-.28.013a2.965,2.965,0,0,0-.865.231l-.045.019a2.921,2.921,0,0,0-1.068.794.065.065,0,0,0-.008.007,2.955,2.955,0,0,0-.393.645c-.005.013-.009.025-.014.037-.03.064-.057.128-.081.193a2.822,2.822,0,0,0-.164.669c0,.016,0,.032-.005.049a3.117,3.117,0,0,0,0,.556,3.476,3.476,0,0,0,.071.364l.005.029a2.919,2.919,0,0,0,4.653,1.643l.108-.01.635-.06.067-.006.556-.052.041,0c.028-.028.047-.063.073-.09s.057-.073.088-.107a3.3,3.3,0,0,0,.361-.438l-.215.021-.527.049-.4.038-.2.019-.327.031-.066.006-.579.055c-.055-.073-.094-.154-.143-.23s-.086-.129-.124-.2l.525-.049.468-.044.054,0,.463-.044.526-.05.5-.047.014,0,.273-.027a3.218,3.218,0,0,0,.167-.539c0-.021.016-.042.02-.064l-.315.03-.022,0-.483.046-.484.046-.989.093-.072.006-.411.039-.486.046c-.037-.1-.079-.2-.107-.3-.017-.062-.021-.128-.036-.192l.468-.044.2-.019.265-.025,1.226-.116.331-.032.131-.013.467-.044.382-.037c0-.05,0-.1,0-.15,0-.067,0-.134,0-.2,0-.036,0-.069,0-.106s-.019-.082-.023-.125Z" transform="translate(-3.17 -11.073)" fill="#fff"/>
      </g>
    </g>
  </g>
</svg>
