<svg xmlns="http://www.w3.org/2000/svg" width="18.222" height="18.222" viewBox="0 0 18.222 18.222">
  <g id="info-button" transform="translate(0 0)">
    <g id="Group_40" data-name="Group 40" transform="translate(0 0)">
      <path id="Path_10" data-name="Path 10" d="M15.554,2.668a9.111,9.111,0,1,0,0,12.885A9.112,9.112,0,0,0,15.554,2.668ZM10.3,13.072a1.188,1.188,0,0,1-2.377,0V8.319a1.188,1.188,0,0,1,2.377,0ZM9.09,6.287A1.06,1.06,0,0,1,7.963,5.2a1.059,1.059,0,0,1,1.14-1.1A1.093,1.093,0,1,1,9.09,6.287Z" transform="translate(0 0)" fill="#ed1e1e"/>
    </g>
  </g>
</svg>
