<svg xmlns="http://www.w3.org/2000/svg" width="395.66" height="383.416" viewBox="0 0 395.66 383.416">
  <g id="Group_661" data-name="Group 661" transform="translate(-7.505 -16.195)">
    <g id="Floor" transform="translate(7.505 167.926)">
      <ellipse id="Floor-2" data-name="Floor" cx="197.83" cy="115.842" rx="197.83" ry="115.842" fill="#fafafa"/>
    </g>
    <g id="Shadows" transform="translate(25.633 189.026)">
      <path id="Shadow" d="M127.87,228.931,31.257,284.711c-2.041,1.178-2.041,3.089,0,4.267L255.365,418.52a11.767,11.767,0,0,0,7.82,1.038c42.536-11.647,75.771-31.492,97.11-55.7a3.408,3.408,0,0,0-.927-5.38L135.261,228.931A8.166,8.166,0,0,0,127.87,228.931Z" transform="translate(-29.727 -228.047)" fill="#ebebeb"/>
      <ellipse id="Shadow-2" data-name="Shadow" cx="28.66" cy="16.547" rx="28.66" ry="16.547" transform="translate(39.886 104.525)" fill="#ebebeb"/>
      <path id="Shadow-3" data-name="Shadow" d="M395.112,273.967c-10.6,6.118-10.6,16.036,0,22.154s27.777,6.118,38.373,0,10.6-16.036,0-22.154S405.708,267.849,395.112,273.967Z" transform="translate(-95.563 -235.66)" fill="#ebebeb"/>
    </g>
    <g id="Tree" transform="translate(295.805 94.631)">
      <g id="Tree-2" data-name="Tree">
        <path id="Path_87" data-name="Path 87" d="M431.477,210.145l-2.133-1.083-10.181,22.785V204.491h-4v22.018l-10.4-19.536-2.034,1.259,12.433,22.822v41.46a.993.993,0,0,0,.586.817,3.126,3.126,0,0,0,2.832,0,1,1,0,0,0,.586-.817V237.13Z" transform="translate(-368.601 -129.313)" fill="#e0e0e0"/>
        <circle id="Ellipse_16" data-name="Ellipse 16" cx="30.703" cy="30.703" r="30.703" transform="matrix(0.23, -0.973, 0.973, 0.23, 33.011, 76.989)" fill="#f0f0f0"/>
        <path id="Path_88" data-name="Path 88" d="M449.326,163.946c3.959-12.469,8.18-17.345,5.5-18.866a30.7,30.7,0,1,0,8.559,46.257C454.291,193.992,444.191,180.119,449.326,163.946Z" transform="translate(-369.756 -117.637)" fill="#e0e0e0"/>
        <g id="Group_540" data-name="Group 540" transform="translate(0 41.273)">
          <path id="Path_89" data-name="Path 89" d="M404.054,184.51a21.579,21.579,0,1,1-21.579-21.578A21.58,21.58,0,0,1,404.054,184.51Z" transform="translate(-360.896 -162.932)" fill="#f0f0f0"/>
          <path id="Path_90" data-name="Path 90" d="M383.136,162.932a21.472,21.472,0,0,0-12.611,4.073c-.584,13.179,10.606,26.035,7.479,30.355-3.152,4.355-10.835,1.667-13.519-2a21.578,21.578,0,1,0,18.651-32.427Z" transform="translate(-361.557 -162.932)" fill="#e0e0e0"/>
        </g>
        <g id="Group_541" data-name="Group 541" transform="translate(8.978)">
          <path id="Path_91" data-name="Path 91" d="M451.073,151.926a39.586,39.586,0,1,1-39.586-39.586A39.586,39.586,0,0,1,451.073,151.926Z" transform="translate(-371.901 -112.34)" fill="#f0f0f0"/>
        </g>
        <path id="Path_92" data-name="Path 92" d="M450.018,163.3a39.583,39.583,0,1,1-67.5-36.024c2.753-2.952,2.922-3.077.216-.221a39.587,39.587,0,0,0,38.537,48.626A39.481,39.481,0,0,0,450.018,163.3Z" transform="translate(-362.923 -114.669)" fill="#ebebeb"/>
      </g>
    </g>
    <g id="Clouds" transform="translate(31.835 32.167)">
      <g id="Clouds-2" data-name="Clouds">
        <path id="Path_93" data-name="Path 93" d="M74.386,39.223,68.071,42.87a7.7,7.7,0,0,0,.053-.836V40.2c0-3.256-2.287-4.576-5.106-2.948a9.873,9.873,0,0,0-3.043,2.926c-.462-4.095-3.674-5.62-7.576-3.367A16.883,16.883,0,0,0,44.76,50.046v2.737a7.215,7.215,0,0,0,.646,3.171L40.16,58.984a6.259,6.259,0,0,0-2.832,4.905c0,1.806,1.268,2.538,2.832,1.636L74.386,45.764a6.26,6.26,0,0,0,2.832-4.906C77.219,39.052,75.951,38.32,74.386,39.223Z" transform="translate(-37.328 -35.773)" fill="#f0f0f0"/>
        <path id="Path_94" data-name="Path 94" d="M123.657,55.682l-4.767,2.752a5.741,5.741,0,0,0,.04-.631V56.422c0-2.457-1.725-3.453-3.854-2.225a7.459,7.459,0,0,0-2.3,2.208c-.348-3.09-2.773-4.241-5.717-2.541A12.743,12.743,0,0,0,101.3,63.85v2.066a5.442,5.442,0,0,0,.488,2.393L97.826,70.6a4.726,4.726,0,0,0-2.137,3.7c0,1.363.957,1.916,2.137,1.234l25.831-14.913a4.726,4.726,0,0,0,2.137-3.7C125.795,55.553,124.838,55,123.657,55.682Z" transform="translate(-48.077 -38.961)" fill="#f0f0f0"/>
      </g>
    </g>
    <g id="Truck" transform="translate(47.603 64.394)">
      <g id="Truck-2" data-name="Truck" transform="translate(0)">
        <g id="Back" transform="translate(0 90.444)">
          <g id="Group_543" data-name="Group 543" transform="translate(1.869 63.905)">
            <path id="Path_95" data-name="Path 95" d="M101.176,295.638a18.078,18.078,0,0,1-1.411,7.451h-.008a9.24,9.24,0,0,1-3.643,4.267l-.122.074-.016.016-9.084,5.243c-.008.008-.008.008-.016.008l-3.692-7.328-.246-.492a30.063,30.063,0,0,1-5.514-5.6c-.4-.517-.787-1.042-1.157-1.592a40.544,40.544,0,0,1-5.235-10.7,32.751,32.751,0,0,1-1.583-8.9l-.065-.123-.928-1.846-1.937-3.84-.8-1.6,8.1-4.685h.008l.55-.32.222-.131a8.123,8.123,0,0,1,4.1-1.059,13.4,13.4,0,0,1,6.614,2C94.071,271.539,101.176,284.593,101.176,295.638Z" transform="translate(-60.193 -264.474)" fill="#263238"/>
            <path id="Path_96" data-name="Path 96" d="M58.947,283.843c0,9.521,5.286,20.542,12.364,26.638a.132.132,0,0,1,.029.029A23.338,23.338,0,0,0,74.821,313c8.768,5.066,15.881.213,15.874-10.828,0-8.342-4.059-17.843-9.821-24.166a.282.282,0,0,1-.049-.05,25.632,25.632,0,0,0-6-4.945C66.053,267.955,58.947,272.8,58.947,283.843Z" transform="translate(-58.947 -265.678)" fill="#37474f"/>
            <path id="Path_97" data-name="Path 97" d="M76.124,281.36c-5.58-3.221-10.1.135-10.1,7.5s4.523,15.942,10.1,19.163,10.1-.135,10.1-7.5S81.7,284.582,76.124,281.36Z" transform="translate(-60.25 -267.359)" fill="#455a64"/>
            <path id="Path_98" data-name="Path 98" d="M58.947,283.843c0,9.521,5.286,20.542,12.364,26.638A45,45,0,0,1,61.243,291c-1.344-6.367-.839-15.5,4.626-17.813,5.42-2.3,12.675,2.558,14.957,4.774a25.632,25.632,0,0,0-6-4.945C66.053,267.955,58.947,272.8,58.947,283.843Z" transform="translate(-58.947 -265.678)" fill="#455a64"/>
            <g id="Group_542" data-name="Group 542" transform="translate(10.63 19.778)">
              <path id="Path_99" data-name="Path 99" d="M77.22,289.353c-2.9-1.672-5.243.07-5.243,3.891s2.348,8.275,5.243,9.946,5.243-.071,5.243-3.891S80.116,291.025,77.22,289.353Z" transform="translate(-71.977 -288.717)" fill="#e0e0e0"/>
              <path id="Path_100" data-name="Path 100" d="M75.548,289.308a4.311,4.311,0,0,0-1.153-.468c-1.452.392-2.418,1.98-2.418,4.427a13.24,13.24,0,0,0,2.943,7.91,6.241,6.241,0,0,0,.627.425c2.573,1.485,4.658-.063,4.658-3.457S78.121,290.794,75.548,289.308Z" transform="translate(-71.977 -288.74)" fill="#f5f5f5"/>
            </g>
          </g>
          <g id="Group_548" data-name="Group 548" transform="translate(6.666 59.655)">
            <path id="Path_101" data-name="Path 101" d="M64.828,259.264v3.849L178.152,328.54v-3.849Z" transform="translate(-64.827 -259.264)" fill="#455a64"/>
            <g id="Group_544" data-name="Group 544" transform="translate(28.781 20.465)">
              <path id="Path_102" data-name="Path 102" d="M106.3,287.928l-6.2-3.579v21.038c0,1.132.8,1.592,1.777,1.026l4.886-2.822-.465-.27Z" transform="translate(-100.106 -284.349)" fill="#f7d400"/>
              <path id="Path_103" data-name="Path 103" d="M106.3,287.928l-6.2-3.579v21.038c0,1.132.8,1.592,1.777,1.026l4.886-2.822-.465-.27Z" transform="translate(-100.106 -284.349)" fill="#f7d400"/>
            </g>
            <g id="Group_547" data-name="Group 547" transform="translate(33.331 24.044)">
              <g id="Group_545" data-name="Group 545">
                <path id="Path_104" data-name="Path 104" d="M107.7,288.736v11.546l28.35,16.367V305.1Z" transform="translate(-106.056 -288.736)" fill="#37474f"/>
                <path id="Path_105" data-name="Path 105" d="M135.681,319.256l-28.35-16.367-1.648.977,30,17.3Z" transform="translate(-105.684 -291.343)" fill="#263238"/>
                <path id="Path_106" data-name="Path 106" d="M105.687,306.016V304.1l29.995,17.294v1.938Z" transform="translate(-105.684 -291.565)" fill="#455a64"/>
              </g>
              <g id="Group_546" data-name="Group 546" transform="translate(29.998 12.519)">
                <path id="Path_107" data-name="Path 107" d="M142.454,304.081v23.092l23.332,13.471V317.552Z" transform="translate(-142.454 -304.081)" fill="#37474f"/>
                <path id="Path_108" data-name="Path 108" d="M171.053,320.593v23.092l23.332,13.47V334.063Z" transform="translate(-147.722 -307.123)" fill="#37474f"/>
                <path id="Path_109" data-name="Path 109" d="M199.653,360.2l6.666-3.849,0-19.245-3.33,1.926-3.333-1.925Z" transform="translate(-152.989 -310.163)" fill="#263238"/>
                <path id="Path_110" data-name="Path 110" d="M170.02,343.089l0-23.09,1.665.961v23.092Z" transform="translate(-147.531 -307.013)" fill="#263238"/>
                <path id="Path_111" data-name="Path 111" d="M184.324,336.822l0-3.849,1.665.958.005,3.851Z" transform="translate(-150.165 -309.403)" fill="#e0e0e0"/>
                <path id="Path_112" data-name="Path 112" d="M155.725,320.319l0-3.849,1.665.958.005,3.851Z" transform="translate(-144.898 -306.363)" fill="#e0e0e0"/>
              </g>
              <path id="Path_113" data-name="Path 113" d="M140,302.873v15.4l-1.627.97v1.935L141.7,323.1V303.859Z" transform="translate(-111.704 -291.34)" opacity="0.2"/>
            </g>
          </g>
          <g id="Group_556" data-name="Group 556">
            <g id="Group_550" data-name="Group 550" transform="translate(0 48.141)">
              <path id="Path_114" data-name="Path 114" d="M56.656,252.815l119.991,69.277.009-7.668-120-69.274Z" transform="translate(-56.656 -245.15)" fill="#f7d400"/>
              <g id="Group_549" data-name="Group 549">
                <path id="Path_115" data-name="Path 115" d="M56.656,252.815l119.991,69.277.009-7.668-120-69.274Z" transform="translate(-56.656 -245.15)" fill="#f7d400"/>
              </g>
            </g>
            <g id="Group_553" data-name="Group 553" transform="translate(119.991 115.459)">
              <path id="Path_116" data-name="Path 116" d="M203.738,337.291l3.33-1.926v-7.7l-3.33,1.926Z" transform="translate(-203.738 -327.668)" fill="#f7d400"/>
              <g id="Group_551" data-name="Group 551">
                <path id="Path_117" data-name="Path 117" d="M203.738,337.291l3.33-1.926v-7.7l-3.33,1.926Z" transform="translate(-203.738 -327.668)" fill="#f7d400"/>
              </g>
              <g id="Group_552" data-name="Group 552" opacity="0.1">
                <path id="Path_118" data-name="Path 118" d="M203.738,337.291l3.33-1.926v-7.7l-3.33,1.926Z" transform="translate(-203.738 -327.668)"/>
              </g>
            </g>
            <g id="Group_555" data-name="Group 555" transform="translate(0.004)">
              <path id="Path_119" data-name="Path 119" d="M139.983,186.14,56.661,234.281l119.987,69.245,83.326-48.109Z" transform="translate(-56.661 -186.14)" fill="#f7d400"/>
              <g id="Group_554" data-name="Group 554">
                <path id="Path_120" data-name="Path 120" d="M139.983,186.14,56.661,234.281l119.987,69.245,83.326-48.109Z" transform="translate(-56.661 -186.14)" fill="#f7d400"/>
              </g>
            </g>
          </g>
        </g>
        <g id="Gift" transform="translate(9.999)">
          <g id="Box">
            <g id="Box-2" data-name="Box">
              <path id="Path_121" data-name="Path 121" d="M68.914,119.536l106.657,61.579,76.66-44.26L145.574,75.276Z" transform="translate(-68.913 -75.276)" fill="#2e3e60"/>
              <path id="Path_122" data-name="Path 122" d="M175.571,287.325V191.108L68.912,129.529l0,96.218Z" transform="translate(-68.912 -85.269)" fill="#2e3e60"/>
              <path id="Path_123" data-name="Path 123" d="M199.652,291.236l76.66-44.26V150.758l-76.661,44.26Z" transform="translate(-92.993 -89.179)" fill="#102043"/>
            </g>
            <g id="Group_571" data-name="Group 571" transform="translate(73.839 163.049)">
              <g id="Group_560" data-name="Group 560" transform="translate(0)">
                <g id="Group_557" data-name="Group 557" transform="translate(0.054)">
                  <path id="Path_124" data-name="Path 124" d="M161.466,284.6a4.633,4.633,0,0,1-1.978-3.741v-5.725L163.5,277.5l.262-.047v5.512a1.913,1.913,0,0,1-.786,1.739,1.242,1.242,0,0,1-.629.166A1.79,1.79,0,0,1,161.466,284.6Zm.447-6.168-.294,2.008h-1.487v.419a4.06,4.06,0,0,0,1.656,3.183.892.892,0,0,0,.87.1,1.313,1.313,0,0,0,.464-1.18v-4.743Zm-.571-.554,1.186-.211-2.4-1.407V279.8h.93Z" transform="translate(-159.488 -275.137)" fill="#e0e0e0"/>
                </g>
                <g id="Group_558" data-name="Group 558" transform="translate(1.871 8.864)">
                  <path id="Path_125" data-name="Path 125" d="M162.037,290.951a.322.322,0,0,0,.322-.322v-4.3a.322.322,0,0,0-.644,0v4.3A.322.322,0,0,0,162.037,290.951Z" transform="translate(-161.715 -286.002)" fill="#e0e0e0"/>
                </g>
                <g id="Group_559" data-name="Group 559" transform="translate(0 12.086)">
                  <path id="Path_126" data-name="Path 126" d="M163.486,292.757a.318.318,0,0,0,.278-.161.321.321,0,0,0-.117-.44L159.9,290a.317.317,0,0,0-.44.117.321.321,0,0,0,.117.44l3.742,2.159A.307.307,0,0,0,163.486,292.757Z" transform="translate(-159.422 -289.951)" fill="#e0e0e0"/>
                </g>
              </g>
              <g id="Group_563" data-name="Group 563" transform="translate(10.106 8.257)">
                <g id="Group_561" data-name="Group 561" transform="translate(3.748 5.079)">
                  <path id="Path_127" data-name="Path 127" d="M177.824,299.69a.711.711,0,0,0,.352-.091.851.851,0,0,0,.386-.775v-.883a.322.322,0,0,0-.644,0v.883c0,.133-.037.2-.061.216s-.1.009-.21-.055a1.9,1.9,0,0,1-.6-1.456v-5.724a.322.322,0,1,0-.644,0v5.724a2.451,2.451,0,0,0,.915,2.009A1,1,0,0,0,177.824,299.69Z" transform="translate(-176.403 -291.484)" fill="#e0e0e0"/>
                </g>
                <g id="Group_562" data-name="Group 562">
                  <path id="Path_128" data-name="Path 128" d="M171.809,288.595v-.186a2.727,2.727,0,0,1,4.443-2.565,9.123,9.123,0,0,1,4.119,7.138v.558Zm1.642-2.469a2.386,2.386,0,0,0-1,2.1l7.24,4.181a8.512,8.512,0,0,0-3.767-6,3.287,3.287,0,0,0-1.608-.5A1.716,1.716,0,0,0,173.451,286.125Z" transform="translate(-171.809 -285.259)" fill="#e0e0e0"/>
                </g>
              </g>
              <g id="Group_570" data-name="Group 570" transform="translate(23.978 15.187)">
                <g id="Group_566" data-name="Group 566" transform="translate(2.978 1.699)">
                  <g id="Group_564" data-name="Group 564" transform="translate(0.945 0.276)">
                    <path id="Path_129" data-name="Path 129" d="M193.945,307.779a.322.322,0,0,0,.322-.322V296.5a.322.322,0,1,0-.644,0v10.961A.322.322,0,0,0,193.945,307.779Z" transform="translate(-193.623 -296.173)" fill="#e0e0e0"/>
                  </g>
                  <g id="Group_565" data-name="Group 565">
                    <path id="Path_130" data-name="Path 130" d="M194.673,298.933a.317.317,0,0,0,.127-.026.322.322,0,0,0,.168-.424l-1.146-2.647-1.278,1.477a.322.322,0,1,0,.486.421l.608-.7.74,1.708A.322.322,0,0,0,194.673,298.933Z" transform="translate(-192.465 -295.835)" fill="#e0e0e0"/>
                  </g>
                </g>
                <g id="Group_569" data-name="Group 569">
                  <g id="Group_567" data-name="Group 567" transform="translate(0.944 0.276)">
                    <path id="Path_131" data-name="Path 131" d="M190.292,305.7a.322.322,0,0,0,.322-.322V294.413a.322.322,0,1,0-.644,0v10.962A.322.322,0,0,0,190.292,305.7Z" transform="translate(-189.971 -294.091)" fill="#e0e0e0"/>
                  </g>
                  <g id="Group_568" data-name="Group 568">
                    <path id="Path_132" data-name="Path 132" d="M191.022,296.851a.309.309,0,0,0,.128-.027.321.321,0,0,0,.167-.423l-1.146-2.647-1.278,1.477a.322.322,0,1,0,.487.421l.607-.7.74,1.708A.322.322,0,0,0,191.022,296.851Z" transform="translate(-188.814 -293.753)" fill="#e0e0e0"/>
                  </g>
                </g>
              </g>
            </g>
            <g id="Group_588" data-name="Group 588" transform="translate(4.714 115.852)">
              <g id="Group_572" data-name="Group 572">
                <path id="Path_133" data-name="Path 133" d="M104.372,235.193V252.84c0,.68-.476.955-1.065.615L75.755,237.55A2.358,2.358,0,0,1,74.69,235.7V218.044c0-.68.477-.955,1.065-.615l27.55,15.916A2.358,2.358,0,0,1,104.372,235.193Z" transform="translate(-74.69 -217.284)" fill="#fafafa"/>
              </g>
              <g id="Group_587" data-name="Group 587" transform="translate(1.706 2.673)">
                <g id="Group_573" data-name="Group 573">
                  <path id="Path_134" data-name="Path 134" d="M76.782,220.561l.89.514v16.042l-.889-.514Z" transform="translate(-76.781 -220.561)" fill="#455a64"/>
                </g>
                <g id="Group_574" data-name="Group 574" transform="translate(3.621 2.09)">
                  <path id="Path_135" data-name="Path 135" d="M81.22,223.122l1.534.9v16.043l-1.533-.9Z" transform="translate(-81.22 -223.122)" fill="#455a64"/>
                </g>
                <g id="Group_575" data-name="Group 575" transform="translate(7.243 4.18)">
                  <path id="Path_136" data-name="Path 136" d="M85.659,225.684l.89.514v16.043l-.889-.514Z" transform="translate(-85.659 -225.684)" fill="#455a64"/>
                </g>
                <g id="Group_576" data-name="Group 576" transform="translate(9.973 5.727)">
                  <path id="Path_137" data-name="Path 137" d="M89.006,227.581l1.781,1.056V244.68l-1.78-1.056Z" transform="translate(-89.006 -227.581)" fill="#455a64"/>
                </g>
                <g id="Group_577" data-name="Group 577" transform="translate(14.485 8.359)">
                  <path id="Path_138" data-name="Path 138" d="M94.537,230.807l.89.514v16.043l-.889-.513Z" transform="translate(-94.537 -230.807)" fill="#455a64"/>
                </g>
                <g id="Group_578" data-name="Group 578" transform="translate(17.093 9.831)">
                  <path id="Path_139" data-name="Path 139" d="M97.734,232.611l1.9,1.132v16.042l-1.9-1.132Z" transform="translate(-97.734 -232.611)" fill="#455a64"/>
                </g>
                <g id="Group_579" data-name="Group 579" transform="translate(21.728 12.539)">
                  <path id="Path_140" data-name="Path 140" d="M103.415,235.93l.89.514v16.042l-.889-.514Z" transform="translate(-103.415 -235.93)" fill="#455a64"/>
                </g>
                <g id="Group_580" data-name="Group 580" transform="translate(23.794 13.714)">
                  <path id="Path_141" data-name="Path 141" d="M105.948,237.371l.445.257v16.042l-.445-.257Z" transform="translate(-105.947 -237.371)" fill="#455a64"/>
                </g>
                <g id="Group_581" data-name="Group 581" transform="translate(20.077 11.665)">
                  <path id="Path_142" data-name="Path 142" d="M101.391,234.859l.445.257v16.043l-.444-.257Z" transform="translate(-101.391 -234.859)" fill="#455a64"/>
                </g>
                <g id="Group_582" data-name="Group 582" transform="translate(12.783 7.392)">
                  <path id="Path_143" data-name="Path 143" d="M92.45,229.622l.445.257v16.042l-.444-.256Z" transform="translate(-92.45 -229.622)" fill="#455a64"/>
                </g>
                <g id="Group_583" data-name="Group 583" transform="translate(8.787 5.1)">
                  <path id="Path_144" data-name="Path 144" d="M87.553,226.812l.445.257v16.042l-.445-.257Z" transform="translate(-87.553 -226.812)" fill="#455a64"/>
                </g>
                <g id="Group_584" data-name="Group 584" transform="translate(5.918 3.515)">
                  <path id="Path_145" data-name="Path 145" d="M84.036,224.869l.445.257v16.042l-.445-.257Z" transform="translate(-84.035 -224.869)" fill="#455a64"/>
                </g>
                <g id="Group_585" data-name="Group 585" transform="translate(2.027 1.153)">
                  <path id="Path_146" data-name="Path 146" d="M79.267,221.974l.445.257v16.042l-.444-.257Z" transform="translate(-79.267 -221.974)" fill="#455a64"/>
                </g>
                <g id="Group_586" data-name="Group 586" transform="translate(25.349 14.629)">
                  <path id="Path_147" data-name="Path 147" d="M107.855,238.492l.889.514v16.042l-.889-.513Z" transform="translate(-107.854 -238.492)" fill="#455a64"/>
                </g>
              </g>
            </g>
          </g>
          <g id="Ribbon" transform="translate(31.656 10.315)">
            <g id="Group_590" data-name="Group 590" transform="translate(15.007 60.886)">
              <path id="Path_148" data-name="Path 148" d="M139.444,266.467V170.249l-13.332-7.7V258.77Z" transform="translate(-126.111 -162.552)" fill="#f7d400"/>
              <g id="Group_589" data-name="Group 589" opacity="0.3">
                <path id="Path_149" data-name="Path 149" d="M139.444,266.467V170.249l-13.332-7.7V258.77Z" transform="translate(-126.111 -162.552)"/>
              </g>
            </g>
            <g id="Group_592" data-name="Group 592" transform="translate(106.675 69.54)">
              <path id="Path_150" data-name="Path 150" d="M238.476,277.075V180.858l13.332-7.7v96.218Z" transform="translate(-238.476 -173.16)" fill="#f7d400"/>
              <g id="Group_591" data-name="Group 591" opacity="0.45">
                <path id="Path_151" data-name="Path 151" d="M238.476,277.075V180.858l13.332-7.7v96.218Z" transform="translate(-238.476 -173.16)"/>
              </g>
            </g>
            <g id="Group_598" data-name="Group 598" transform="translate(0 7.97)">
              <g id="Group_595" data-name="Group 595" transform="translate(15.007 8.657)">
                <path id="Path_152" data-name="Path 152" d="M126.111,152.559l76.66-44.26L216.1,116l-76.662,44.259Z" transform="translate(-126.111 -108.3)" fill="#f7d400"/>
                <g id="Group_593" data-name="Group 593" opacity="0.15">
                  <path id="Path_153" data-name="Path 153" d="M126.111,152.559l76.66-44.26L216.1,116l-76.662,44.259Z" transform="translate(-126.111 -108.3)"/>
                </g>
                <g id="Group_594" data-name="Group 594" transform="translate(29.236 25.977)" opacity="0.15">
                  <path id="Path_154" data-name="Path 154" d="M161.948,141.545l13.4,7.661,2.365-1.365-13.332-7.7Z" transform="translate(-161.948 -140.142)"/>
                </g>
              </g>
              <g id="Group_597" data-name="Group 597">
                <path id="Path_155" data-name="Path 155" d="M227.724,159.259,121.05,97.689l-13.334,7.7,106.676,61.571Z" transform="translate(-107.716 -97.689)" fill="#f7d400"/>
                <g id="Group_596" data-name="Group 596" opacity="0.15">
                  <path id="Path_156" data-name="Path 156" d="M227.724,159.259,121.05,97.689l-13.334,7.7,106.676,61.571Z" transform="translate(-107.716 -97.689)"/>
                </g>
              </g>
            </g>
            <g id="Ribbon-2" data-name="Ribbon" transform="translate(0)">
              <g id="Group_606" data-name="Group 606" transform="translate(59.038)">
                <path id="Path_157" data-name="Path 157" d="M187.08,138.964s18.93,16.526,49.839,12.946c0,0-12.617,9-28.678,7.058,0,0,2.028,8.892,14.527,13.7,0,0-35.491-.517-41.712-29.669Z" transform="translate(-180.262 -97.322)" opacity="0.2"/>
                <g id="Group_605" data-name="Group 605">
                  <g id="Group_599" data-name="Group 599" transform="translate(0 39.966)">
                    <path id="Path_158" data-name="Path 158" d="M186.107,136.909s18.93,15.713,49.839,12.133c0,0-13.12,8.59-29.181,6.648,0,0,2.3,5.859,15.823,12.992,0,0-33.782.309-42.506-27.738Z" transform="translate(-180.083 -136.909)" fill="#f7d400"/>
                    <path id="Path_159" data-name="Path 159" d="M186.107,136.909s18.93,15.713,49.839,12.133c0,0-13.12,8.59-29.181,6.648,0,0,2.3,5.859,15.823,12.992,0,0-33.782.309-42.506-27.738Z" transform="translate(-180.083 -136.909)" fill="#f7d400"/>
                    <path id="Path_160" data-name="Path 160" d="M184.776,144.833c6.658,1.772,13.262-1.1,13.262-1.1v0h0c-.426-.184-.836-.367-1.241-.552l-.19-.085c-.378-.174-.741-.346-1.1-.518l-.245-.117c-.346-.168-.677-.334-1-.5l-.249-.126c-.317-.162-.622-.323-.92-.482l-.247-.132c-.29-.157-.569-.31-.841-.463l-.236-.132c-.267-.151-.523-.3-.772-.444l-.211-.125q-.365-.215-.7-.421l-.195-.121q-.327-.2-.624-.391l-.182-.116c-.193-.124-.376-.243-.55-.359l-.159-.105c-.166-.112-.327-.219-.476-.321l-.145-.1c-.139-.1-.274-.19-.4-.277l-.126-.091c-.113-.082-.224-.161-.321-.232l-.108-.08c-.085-.064-.169-.126-.238-.179l-.107-.082-.144-.11-.1-.077-.055-.044-.051-.042h0l-1.972,1.321-4.052,2.713c8.723,28.046,42.5,27.738,42.506,27.738h0C205.208,167.878,186.95,154.688,184.776,144.833Z" transform="translate(-180.083 -136.909)" opacity="0.1"/>
                  </g>
                  <g id="Group_604" data-name="Group 604">
                    <g id="Group_600" data-name="Group 600" transform="translate(0.494)">
                      <path id="Path_161" data-name="Path 161" d="M228.183,107.33s-3.754-4.394-15.282-2.411c-6.96,1.2-18.78,9.309-24.611,22.815-.738,1.711-2.4,2.28-3.281,3.431a6.815,6.815,0,0,1-.672.726l-3.648.036c0-12.614,7.076-25.352,13.769-32.719,6.624-7.278,17.717-10.969,25.58-11.27a17.671,17.671,0,0,1,8.111,1.558C230.29,95.483,231.175,101.4,228.183,107.33Z" transform="translate(-180.688 -87.92)" fill="#f7d400"/>
                      <path id="Path_162" data-name="Path 162" d="M228.183,107.33s-3.754-4.394-15.282-2.411c-6.96,1.2-18.78,9.309-24.611,22.815-.738,1.711-2.4,2.28-3.281,3.431a6.815,6.815,0,0,1-.672.726l-3.648.036c0-12.614,7.076-25.352,13.769-32.719,6.624-7.278,17.717-10.969,25.58-11.27a17.671,17.671,0,0,1,8.111,1.558C230.29,95.483,231.175,101.4,228.183,107.33Z" transform="translate(-180.688 -87.92)" fill="#f7d400"/>
                    </g>
                    <g id="Group_601" data-name="Group 601" transform="translate(0.494 25.379)">
                      <path id="Path_163" data-name="Path 163" d="M189.088,131.769l-.018,0s-6.567-2.221-3.861-12.736a44.853,44.853,0,0,0-4.52,18.628l3.648-.036a6.9,6.9,0,0,0,.673-.726c.885-1.151,2.542-1.721,3.28-3.431C188.54,132.885,188.816,132.328,189.088,131.769Z" transform="translate(-180.688 -119.029)" fill="#f7d400"/>
                      <path id="Path_164" data-name="Path 164" d="M189.088,131.769l-.018,0s-6.567-2.221-3.861-12.736a44.853,44.853,0,0,0-4.52,18.628l3.648-.036a6.9,6.9,0,0,0,.673-.726c.885-1.151,2.542-1.721,3.28-3.431C188.54,132.885,188.816,132.328,189.088,131.769Z" transform="translate(-180.688 -119.029)" opacity="0.1"/>
                    </g>
                    <g id="Group_602" data-name="Group 602" transform="translate(39.843)">
                      <path id="Path_165" data-name="Path 165" d="M237.067,107.33s.584-13.9-8.146-19.391a17.671,17.671,0,0,1,8.111,1.558C239.174,95.483,240.059,101.4,237.067,107.33Z" transform="translate(-228.921 -87.92)" fill="#f7d400"/>
                      <path id="Path_166" data-name="Path 166" d="M237.067,107.33s.584-13.9-8.146-19.391a17.671,17.671,0,0,1,8.111,1.558C239.174,95.483,240.059,101.4,237.067,107.33Z" transform="translate(-228.921 -87.92)" opacity="0.1"/>
                    </g>
                    <g id="Group_603" data-name="Group 603" transform="translate(0 1.57)">
                      <path id="Path_167" data-name="Path 167" d="M221.345,115.77a26.368,26.368,0,0,0,6.729-8.093c2.993-5.933,2.107-11.847-.035-17.833,6.765,2.992,10.8,11.776,12.343,18.86.849,3.966.92,7.42.247,9.014-1.894,4.462-13,22.5-60.546,14.557l.051-5C192.032,126.564,212.825,122.936,221.345,115.77Z" transform="translate(-180.083 -89.844)" fill="#f7d400"/>
                      <path id="Path_168" data-name="Path 168" d="M221.345,115.77a26.368,26.368,0,0,0,6.729-8.093c2.993-5.933,2.107-11.847-.035-17.833,6.765,2.992,10.8,11.776,12.343,18.86.849,3.966.92,7.42.247,9.014-1.894,4.462-13,22.5-60.546,14.557l.051-5C192.032,126.564,212.825,122.936,221.345,115.77Z" transform="translate(-180.083 -89.844)" fill="#f7d400"/>
                    </g>
                  </g>
                </g>
              </g>
              <g id="Group_614" data-name="Group 614">
                <path id="Path_169" data-name="Path 169" d="M162.878,138.964s-18.929,16.526-49.839,12.946c0,0,12.617,9,28.678,7.058,0,0-2.027,8.892-14.527,13.7,0,0,35.491-.517,41.712-29.669Z" transform="translate(-108.697 -97.322)" opacity="0.2"/>
                <g id="Group_613" data-name="Group 613">
                  <g id="Group_607" data-name="Group 607" transform="translate(5.136 39.966)">
                    <path id="Path_170" data-name="Path 170" d="M163.851,136.909s-18.93,15.713-49.839,12.133c0,0,13.12,8.59,29.182,6.648,0,0-2.3,5.859-15.824,12.992,0,0,33.782.309,42.506-27.738Z" transform="translate(-114.012 -136.909)" fill="#f7d400"/>
                    <path id="Path_171" data-name="Path 171" d="M163.851,136.909s-18.93,15.713-49.839,12.133c0,0,13.12,8.59,29.182,6.648,0,0-2.3,5.859-15.824,12.992,0,0,33.782.309,42.506-27.738Z" transform="translate(-114.012 -136.909)" fill="#f7d400"/>
                    <path id="Path_172" data-name="Path 172" d="M168.2,144.833c-6.658,1.772-13.261-1.1-13.261-1.1v0h0c.426-.184.836-.367,1.241-.552l.191-.085c.377-.174.74-.346,1.1-.518l.246-.117c.345-.168.676-.334,1-.5l.25-.126c.317-.162.621-.323.919-.482l.248-.132c.29-.157.569-.31.841-.463l.235-.132c.267-.151.523-.3.772-.444l.211-.125c.244-.144.476-.284.7-.421l.2-.121q.326-.2.624-.391l.181-.116c.193-.124.376-.243.551-.359l.158-.105c.166-.112.327-.219.476-.321l.145-.1c.14-.1.274-.19.4-.277l.126-.091c.113-.082.224-.161.321-.232l.108-.08c.085-.064.169-.126.238-.179l.107-.082.144-.11.1-.077.055-.044.051-.042h0l1.971,1.321,4.052,2.713c-8.723,28.046-42.5,27.738-42.506,27.738h0C147.766,167.878,166.024,154.688,168.2,144.833Z" transform="translate(-117.028 -136.909)" opacity="0.1"/>
                  </g>
                  <g id="Group_612" data-name="Group 612">
                    <g id="Group_608" data-name="Group 608" transform="translate(11.088)">
                      <path id="Path_173" data-name="Path 173" d="M123.231,107.33s3.754-4.394,15.282-2.411c6.96,1.2,18.78,9.309,24.611,22.815.738,1.711,2.4,2.28,3.281,3.431a6.731,6.731,0,0,0,.673.726l3.647.036c0-12.614-7.076-25.352-13.769-32.719-6.624-7.278-17.717-10.969-25.58-11.27a17.671,17.671,0,0,0-8.111,1.558C121.124,95.483,120.238,101.4,123.231,107.33Z" transform="translate(-121.308 -87.92)" fill="#f7d400"/>
                      <path id="Path_174" data-name="Path 174" d="M123.231,107.33s3.754-4.394,15.282-2.411c6.96,1.2,18.78,9.309,24.611,22.815.738,1.711,2.4,2.28,3.281,3.431a6.731,6.731,0,0,0,.673.726l3.647.036c0-12.614-7.076-25.352-13.769-32.719-6.624-7.278-17.717-10.969-25.58-11.27a17.671,17.671,0,0,0-8.111,1.558C121.124,95.483,120.238,101.4,123.231,107.33Z" transform="translate(-121.308 -87.92)" fill="#f7d400"/>
                    </g>
                    <g id="Group_609" data-name="Group 609" transform="translate(52.106 25.379)">
                      <path id="Path_175" data-name="Path 175" d="M171.587,131.769l.018,0s6.568-2.221,3.861-12.736a44.841,44.841,0,0,1,4.52,18.628l-3.647-.036a6.728,6.728,0,0,1-.673-.726c-.886-1.151-2.543-1.721-3.281-3.431C172.134,132.885,171.859,132.328,171.587,131.769Z" transform="translate(-171.587 -119.029)" fill="#f7d400"/>
                      <path id="Path_176" data-name="Path 176" d="M171.587,131.769l.018,0s6.568-2.221,3.861-12.736a44.841,44.841,0,0,1,4.52,18.628l-3.647-.036a6.728,6.728,0,0,1-.673-.726c-.886-1.151-2.543-1.721-3.281-3.431C172.134,132.885,171.859,132.328,171.587,131.769Z" transform="translate(-171.587 -119.029)" opacity="0.1"/>
                    </g>
                    <g id="Group_610" data-name="Group 610" transform="translate(11.088)">
                      <path id="Path_177" data-name="Path 177" d="M123.231,107.33s-.584-13.9,8.146-19.391a17.671,17.671,0,0,0-8.111,1.558C121.124,95.483,120.238,101.4,123.231,107.33Z" transform="translate(-121.308 -87.92)" fill="#f7d400"/>
                      <path id="Path_178" data-name="Path 178" d="M123.231,107.33s-.584-13.9,8.146-19.391a17.671,17.671,0,0,0-8.111,1.558C121.124,95.483,120.238,101.4,123.231,107.33Z" transform="translate(-121.308 -87.92)" opacity="0.1"/>
                    </g>
                    <g id="Group_611" data-name="Group 611" transform="translate(0 1.57)">
                      <path id="Path_179" data-name="Path 179" d="M127.455,115.77a26.371,26.371,0,0,1-6.73-8.093c-2.992-5.933-2.107-11.847.035-17.833-6.765,2.992-10.8,11.776-12.342,18.86-.85,3.966-.921,7.42-.248,9.014,1.894,4.462,13,22.5,60.546,14.557l-.051-5C156.767,126.564,135.974,122.936,127.455,115.77Z" transform="translate(-107.716 -89.844)" fill="#f7d400"/>
                      <path id="Path_180" data-name="Path 180" d="M127.455,115.77a26.371,26.371,0,0,1-6.73-8.093c-2.992-5.933-2.107-11.847.035-17.833-6.765,2.992-10.8,11.776-12.342,18.86-.85,3.966-.921,7.42-.248,9.014,1.894,4.462,13,22.5,60.546,14.557l-.051-5C156.767,126.564,135.974,122.936,127.455,115.77Z" transform="translate(-107.716 -89.844)" fill="#f7d400"/>
                    </g>
                  </g>
                </g>
              </g>
              <g id="Group_615" data-name="Group 615" transform="translate(53.358 37.782)">
                <path id="Path_181" data-name="Path 181" d="M186.29,137.158a2.736,2.736,0,0,0-1.666-2.218,12.756,12.756,0,0,0-4.864-.708,12.133,12.133,0,0,0-5.038.786,2.659,2.659,0,0,0-1.49,2.133c-.171,1.5-.272,4.028.712,5.458a8.7,8.7,0,0,0,5.833,2.1,8.55,8.55,0,0,0,5.8-2.1C186.56,141.18,186.46,138.659,186.29,137.158Z" transform="translate(-173.121 -134.232)" fill="#f7d400"/>
                <path id="Path_182" data-name="Path 182" d="M186.29,137.158a2.736,2.736,0,0,0-1.666-2.218,12.756,12.756,0,0,0-4.864-.708,12.133,12.133,0,0,0-5.038.786,2.659,2.659,0,0,0-1.49,2.133c-.171,1.5-.272,4.028.712,5.458a8.7,8.7,0,0,0,5.833,2.1,8.55,8.55,0,0,0,5.8-2.1C186.56,141.18,186.46,138.659,186.29,137.158Z" transform="translate(-173.121 -134.232)" fill="#f7d400"/>
                <path id="Path_183" data-name="Path 183" d="M186.383,140.334a4.043,4.043,0,0,1-1.92,2.423,8.166,8.166,0,0,1-7.137.5,5.928,5.928,0,0,1-4.158-4.6c-.113,1.5-.069,3.537.777,4.765a8.7,8.7,0,0,0,5.833,2.1,8.55,8.55,0,0,0,5.8-2.1A6.023,6.023,0,0,0,186.383,140.334Z" transform="translate(-173.122 -135.047)" fill="#f7d400"/>
                <path id="Path_184" data-name="Path 184" d="M186.383,140.334a4.043,4.043,0,0,1-1.92,2.423,8.166,8.166,0,0,1-7.137.5,5.928,5.928,0,0,1-4.158-4.6c-.113,1.5-.069,3.537.777,4.765a8.7,8.7,0,0,0,5.833,2.1,8.55,8.55,0,0,0,5.8-2.1A6.023,6.023,0,0,0,186.383,140.334Z" transform="translate(-173.122 -135.047)" opacity="0.1"/>
              </g>
            </g>
          </g>
        </g>
        <g id="Cab" transform="translate(123.321 73.626)">
          <g id="Group_619" data-name="Group 619" transform="translate(151.661 65.376)">
            <g id="Group_618" data-name="Group 618">
              <g id="Percentage_Box" data-name="Percentage Box">
                <g id="Group_616" data-name="Group 616">
                  <path id="Path_185" data-name="Path 185" d="M395.74,249.5l6.14-3.565a1.413,1.413,0,0,1,1.434-.137c.361.213,1.083.653,1.448.859a1.413,1.413,0,0,1,.6,1.309V262.7a4.459,4.459,0,0,1-2.017,3.493l-6.14,3.565a1.416,1.416,0,0,1-1.426.141c-.365-.21-1.093-.657-1.457-.864a1.414,1.414,0,0,1-.6-1.309V253A4.458,4.458,0,0,1,395.74,249.5Z" transform="translate(-393.722 -245.661)" fill="#fafafa"/>
                  <path id="Path_186" data-name="Path 186" d="M393.722,254.2v14.737a1.414,1.414,0,0,0,.6,1.309c.354.2.906.545,1.415.839a1.454,1.454,0,0,1-.545-1.281V255.068a4.082,4.082,0,0,1,.591-1.984l-1.466-.867A4.122,4.122,0,0,0,393.722,254.2Z" transform="translate(-393.722 -246.869)" fill="#e0e0e0"/>
                  <path id="Path_187" data-name="Path 187" d="M403.672,266.392l-6.14,3.565c-1.114.643-2.017.122-2.017-1.164V254.058a4.459,4.459,0,0,1,2.017-3.493l6.14-3.565c1.114-.643,2.017-.122,2.017,1.164V262.9A4.458,4.458,0,0,1,403.672,266.392Z" transform="translate(-394.052 -245.857)" fill="#f0f0f0"/>
                </g>
              </g>
              <g id="Group_617" data-name="Group 617" transform="translate(1.154 12.263)">
                <path id="Path_188" data-name="Path 188" d="M395.647,281.2a.51.51,0,0,1-.255-.951l4.274-2.468a.511.511,0,0,0,.255-.44V261.2a.51.51,0,0,1,1.02,0v16.142a1.529,1.529,0,0,1-.765,1.323l-4.273,2.468A.509.509,0,0,1,395.647,281.2Z" transform="translate(-395.136 -260.693)" fill="#263238"/>
              </g>
            </g>
          </g>
          <g id="Group_628" data-name="Group 628" transform="translate(0 47.6)">
            <g id="Group_621" data-name="Group 621" transform="translate(24.056 113.07)">
              <path id="Path_189" data-name="Path 189" d="M239.371,383.5l17.342-8.012s-1.362-16.306-12.8-12.413S239.371,383.5,239.371,383.5Z" transform="translate(-237.308 -362.471)" fill="#f7d400"/>
              <g id="Group_620" data-name="Group 620" opacity="0.5">
                <path id="Path_190" data-name="Path 190" d="M239.371,383.5l17.342-8.012s-1.362-16.306-12.8-12.413S239.371,383.5,239.371,383.5Z" transform="translate(-237.308 -362.471)"/>
              </g>
            </g>
            <g id="Group_623" data-name="Group 623" transform="translate(26.403 118.449)">
              <path id="Path_191" data-name="Path 191" d="M250.684,382.671l-3.731-7.411,8.877-5.137h0c2.824-1.623,6.583-1.439,10.712.945,8.767,5.061,15.873,18.117,15.874,29.161,0,5.783-1.95,9.862-5.065,11.715l0,0-.126.072-.017.011-9.1,5.255-3.935-7.816C256.726,403.765,250.973,392.522,250.684,382.671Z" transform="translate(-241.431 -369.063)" fill="#263238"/>
              <path id="Path_192" data-name="Path 192" d="M240.184,388.433c0,9.521,5.286,20.541,12.364,26.639a.046.046,0,0,1,.021.02,23.484,23.484,0,0,0,3.489,2.5c8.768,5.066,15.881.214,15.873-10.828,0-8.342-4.057-17.842-9.819-24.166a.374.374,0,0,1-.051-.051,25.586,25.586,0,0,0-6-4.945C247.29,372.546,240.184,377.391,240.184,388.433Z" transform="translate(-240.184 -370.267)" fill="#37474f"/>
              <path id="Path_193" data-name="Path 193" d="M257.361,385.95c-5.579-3.222-10.1.136-10.1,7.5s4.523,15.943,10.1,19.164,10.1-.136,10.1-7.5S262.94,389.171,257.361,385.95Z" transform="translate(-241.487 -371.948)" fill="#455a64"/>
              <g id="Group_622" data-name="Group 622" transform="translate(10.631 19.778)">
                <path id="Path_194" data-name="Path 194" d="M258.458,393.943c-2.9-1.672-5.243.07-5.243,3.891s2.348,8.274,5.243,9.946,5.243-.071,5.243-3.891S261.354,395.614,258.458,393.943Z" transform="translate(-253.215 -393.307)" fill="#e0e0e0"/>
                <path id="Path_195" data-name="Path 195" d="M256.786,393.9a4.312,4.312,0,0,0-1.153-.468c-1.453.392-2.418,1.98-2.418,4.427a13.241,13.241,0,0,0,2.943,7.91,6.227,6.227,0,0,0,.627.424c2.573,1.486,4.658-.062,4.658-3.457S259.359,395.384,256.786,393.9Z" transform="translate(-253.215 -393.33)" fill="#f5f5f5"/>
              </g>
              <path id="Path_196" data-name="Path 196" d="M240.184,388.433c0,9.521,5.286,20.541,12.364,26.639a45.018,45.018,0,0,1-10.068-19.484c-1.344-6.367-.839-15.5,4.625-17.813,5.422-2.3,12.677,2.558,14.957,4.774a25.586,25.586,0,0,0-6-4.945C247.29,372.546,240.184,377.391,240.184,388.433Z" transform="translate(-240.184 -370.267)" fill="#455a64"/>
            </g>
            <g id="Group_625" data-name="Group 625">
              <path id="Path_197" data-name="Path 197" d="M295.52,393.494l-15.705-9.075-2.06-1.189-3.963-2.3h-.008l-1.871-1.091a1.33,1.33,0,0,0,.082-.558,3.141,3.141,0,0,0,.074-.87c0-12.152-8.525-26.923-19.1-32.995a22.739,22.739,0,0,0-3.094-1.5h-.008c-.459-.181-.9-.337-1.345-.468h-.008c-8.354-2.527-14.573,2.552-14.573,12.94v1.575L207.82,342.882v-119l.008-.008L240.272,242.6,268.6,263.462l12.866,62.452,9.962,14.63.533.779,6.08,8.927v.009l.008.008,1.978,24.279.492,5.317.2,2.182v.008l.493,5.251.23,2.478A3.933,3.933,0,0,1,295.52,393.494Z" transform="translate(-207.82 -223.872)" fill="#f7d400"/>
              <g id="Group_624" data-name="Group 624" opacity="0.15">
                <path id="Path_198" data-name="Path 198" d="M295.52,393.494l-15.705-9.075-2.06-1.189-3.963-2.3h-.008l-1.871-1.091a1.33,1.33,0,0,0,.082-.558,3.141,3.141,0,0,0,.074-.87c0-12.152-8.525-26.923-19.1-32.995a22.739,22.739,0,0,0-3.094-1.5h-.008c-.459-.181-.9-.337-1.345-.468h-.008c-8.354-2.527-14.573,2.552-14.573,12.94v1.575L207.82,342.882v-119l.008-.008L240.272,242.6,268.6,263.462l12.866,62.452,9.962,14.63.533.779,6.08,8.927v.009l.008.008,1.978,24.279.492,5.317.2,2.182v.008l.493,5.251.23,2.478A3.933,3.933,0,0,1,295.52,393.494Z" transform="translate(-207.82 -223.872)"/>
              </g>
            </g>
            <g id="Group_626" data-name="Group 626" transform="translate(8.817 16.977)">
              <path id="Path_199" data-name="Path 199" d="M254.994,269.264v38.465c0,1.415-.993,1.987-2.217,1.281l-31.931-18.426a4.9,4.9,0,0,1-2.217-3.84v-40.48c0-1.415.993-1.987,2.217-1.28l19.2,11.085c1.225.706,3.141,1.959,4.281,2.8l8.607,6.323A5.686,5.686,0,0,1,254.994,269.264Z" transform="translate(-218.628 -244.681)" fill="#455a64"/>
              <path id="Path_200" data-name="Path 200" d="M274.945,322.542a8.167,8.167,0,0,1-3.7-6.4V282.1c0-2.357.873-3.612,1.95-2.8l1.951,1.464a8.878,8.878,0,0,1,2.936,4.685l7.868,40.872c.316,1.6-.58,2.244-2,1.425Z" transform="translate(-228.32 -251.012)" fill="#455a64"/>
            </g>
            <g id="Group_627" data-name="Group 627" transform="translate(4.923 10.381)" opacity="0.15">
              <path id="Path_201" data-name="Path 201" d="M255.735,261.867l-12.9-9.4c-.96-.7-2.585-1.756-3.611-2.346l-22.885-13.211a1.541,1.541,0,0,0-2.486,1.436V342.158a4.481,4.481,0,0,0,2.059,3.569l15.016,8.665a2.032,2.032,0,0,0,1.051.312,1.461,1.461,0,0,0,.649-.139,1.657,1.657,0,0,0,.68-.582,2.37,2.37,0,0,0,.361-.919c.534-2.741,2.2-7.647,7.344-9.715a13.266,13.266,0,0,1,8.386-.246h.008a22.8,22.8,0,0,1,4.193,1.576c.591.287,1.132.574,1.6.844a1.722,1.722,0,0,0,1.731.157,1.186,1.186,0,0,0,.419-.41,1.985,1.985,0,0,0,.287-1.108V265.6A5.105,5.105,0,0,0,255.735,261.867Zm.615,83.113a.916.916,0,0,1-.583-.123.008.008,0,0,0-.008-.008,1.031,1.031,0,0,1-.14-.066,24.2,24.2,0,0,0-7-2.74,13.6,13.6,0,0,0-7.926.509c-4.947,1.986-6.884,6.376-7.631,9.362v.016c-.1.352-.172.664-.229.968a1.178,1.178,0,0,1-.558.894,1,1,0,0,1-.919-.139l-15.017-8.665a3.663,3.663,0,0,1-1.632-2.831V238.343a.94.94,0,0,1,.328-.829.554.554,0,0,1,.271-.065,1.243,1.243,0,0,1,.607.2L238.8,250.856c1.009.582,2.593,1.616,3.528,2.3l12.907,9.4a4.274,4.274,0,0,1,1.551,3.045V344.16a.9.9,0,0,1-.279.779.376.376,0,0,1-.139.042Z" transform="translate(-213.855 -236.596)"/>
            </g>
          </g>
          <g id="Group_634" data-name="Group 634" transform="translate(71.997 102.042)">
            <path id="Path_202" data-name="Path 202" d="M403.89,357.5s-11.839,16.368-37.661,31.8c-21.428,12.807-44.79,15.8-44.79,15.8l-3.051-37.056,82.451-47.606Z" transform="translate(-300.182 -296.102)" fill="#f7d400"/>
            <g id="Group_629" data-name="Group 629" transform="translate(18.206 24.343)" opacity="0.3">
              <path id="Path_203" data-name="Path 203" d="M403.89,357.5s-11.839,16.368-37.661,31.8c-21.428,12.807-44.79,15.8-44.79,15.8l-3.051-37.056,82.451-47.606Z" transform="translate(-318.388 -320.445)"/>
            </g>
            <path id="Path_204" data-name="Path 204" d="M397.108,314.949s-11.84,16.368-37.662,31.8c-21.426,12.807-44.789,15.8-44.789,15.8l-16.523-24.345,82.456-47.6Z" transform="translate(-296.452 -290.606)" fill="#f7d400"/>
            <path id="Path_205" data-name="Path 205" d="M401.246,358.825c-.145-.153-.281-.128-.435.136,0,0-11.838,16.361-37.664,31.8-21.431,12.81-44.79,15.806-44.79,15.806-10.02.914-22.284-9.661-22.284-9.661l1.681-1.238s11.641,8.816,17.555,8.816c5.1,0,23.317-2.322,48.05-16.284s35.905-30.929,35.905-30.929A2.576,2.576,0,0,1,401.246,358.825Z" transform="translate(-296.072 -302.885)" fill="#37474f"/>
            <path id="Path_206" data-name="Path 206" d="M400.809,359.287s-11.841,16.368-37.662,31.8c-21.427,12.808-44.79,15.8-44.79,15.8-10.021.915-22.285-9.658-22.285-9.658h0v14.133s12.264,10.572,22.285,9.658c0,0,23.362-3,44.79-15.8,25.821-15.433,37.662-31.8,37.662-31.8C402.849,369.926,402.006,357.187,400.809,359.287Z" transform="translate(-296.072 -303.214)" fill="#455a64"/>
            <path id="Path_207" data-name="Path 207" d="M330.4,387.847c3.689-.874,7.022,1.623,7.443,5.578a8.2,8.2,0,0,1-6.039,8.729,6,6,0,0,1-7.444-5.577A8.354,8.354,0,0,1,330.4,387.847Z" transform="translate(-301.277 -308.485)" fill="#f7d400"/>
            <path id="Path_208" data-name="Path 208" d="M411.443,341.605c-2.241,2.233-3.678,7.025-3.209,10.7s2.568,4.835,4.69,2.585,3.558-7.041,3.209-10.7S413.684,339.372,411.443,341.605Z" transform="translate(-316.715 -299.79)" fill="#f7d400"/>
            <g id="Group_630" data-name="Group 630" transform="translate(40.822 49.138)">
              <path id="Path_209" data-name="Path 209" d="M348.164,379.837a96.483,96.483,0,0,0,20.385-9.135c1.019-.592,1.836-.132,1.836,1.046v1.494a4.119,4.119,0,0,1-1.836,3.222,96.754,96.754,0,0,1-20.384,9.132,1.52,1.52,0,0,1-2.053-1.548v-1.494A3.012,3.012,0,0,1,348.164,379.837Z" transform="translate(-346.111 -354.449)" fill="#37474f"/>
              <path id="Path_210" data-name="Path 210" d="M398.81,352v1.494a5.19,5.19,0,0,1-1.629,3.51A173.378,173.378,0,0,1,381.9,368.441c-.983.651-1.787.21-1.787-.969v-1.493a4.418,4.418,0,0,1,1.787-3.3,175.539,175.539,0,0,0,15.282-11.438C398.084,350.486,398.81,350.82,398.81,352Z" transform="translate(-352.373 -350.838)" fill="#37474f"/>
              <path id="Path_211" data-name="Path 211" d="M348.164,392.663a96.481,96.481,0,0,0,20.385-9.135c1.019-.593,1.836-.132,1.836,1.046v1.494a4.119,4.119,0,0,1-1.836,3.221,96.718,96.718,0,0,1-20.384,9.133,1.52,1.52,0,0,1-2.053-1.549v-1.494A3.011,3.011,0,0,1,348.164,392.663Z" transform="translate(-346.111 -356.812)" fill="#37474f"/>
              <path id="Path_212" data-name="Path 212" d="M398.81,364.825v1.493a5.19,5.19,0,0,1-1.629,3.511A173.4,173.4,0,0,1,381.9,381.267c-.983.65-1.787.21-1.787-.969V378.8a4.418,4.418,0,0,1,1.787-3.3,175.533,175.533,0,0,0,15.282-11.438C398.084,363.312,398.81,363.646,398.81,364.825Z" transform="translate(-352.373 -353.2)" fill="#37474f"/>
            </g>
            <g id="Group_633" data-name="Group 633" transform="translate(10.823 7.692)">
              <g id="Group_631" data-name="Group 631" transform="translate(0 24.622)" opacity="0.15">
                <path id="Path_213" data-name="Path 213" d="M344.462,330.495a275.326,275.326,0,0,1-33.987,15.482,1.611,1.611,0,0,0-.81,2.519l.056.083a3.419,3.419,0,0,0,3.28,1.358c5.013-1.093,18.554-4.619,35.38-13.662a1.9,1.9,0,0,0,.675-2.788l-1.533-2.261A2.38,2.38,0,0,0,344.462,330.495Z" transform="translate(-309.339 -330.215)"/>
              </g>
              <g id="Group_632" data-name="Group 632" transform="translate(41.296)" opacity="0.15">
                <path id="Path_214" data-name="Path 214" d="M388.992,300.524A203.85,203.85,0,0,1,360.95,320.81a1.991,1.991,0,0,0-.635,2.858l1.548,2.281a2.289,2.289,0,0,0,3.032.675c15.26-9.193,23.413-17.289,27.153-21.688a3.023,3.023,0,0,0,.154-3.427l-.419-.623A1.826,1.826,0,0,0,388.992,300.524Z" transform="translate(-359.959 -300.034)"/>
              </g>
            </g>
          </g>
          <g id="Group_639" data-name="Group 639" transform="translate(60.791 39.567)">
            <path id="Path_215" data-name="Path 215" d="M377.687,276.492s-13.626,13.7-36.081,26.768a270.037,270.037,0,0,1-46.38,20.831l-12.89-62.467,51.531-29.736,23.7-13.676,7.231-4.186Z" transform="translate(-282.336 -214.025)" fill="#455a64"/>
            <g id="Group_635" data-name="Group 635" transform="translate(0.003)">
              <path id="Path_216" data-name="Path 216" d="M364.8,214.025l-7.229,4.184-23.7,13.679-51.53,29.736,12.891,62.468a.059.059,0,0,0,.024-.009c.082-.024.386-.122.878-.3.057-.016.115-.041.18-.057.255-.091.558-.188.9-.312.123-.042.237-.082.369-.131l.082-.024a.534.534,0,0,0,.082-.033l.615-.213c.3-.107.615-.222.951-.337.3-.114.616-.229.944-.344.206-.073.41-.148.624-.23.271-.1.541-.2.828-.3.853-.312,1.773-.664,2.757-1.042.2-.074.41-.156.623-.238,2.208-.853,4.719-1.846,7.434-2.987.87-.361,1.764-.738,2.675-1.132.148-.057.287-.123.435-.189s.32-.139.484-.206c.566-.254,1.149-.5,1.74-.763.164-.073.336-.148.508-.222.386-.172.78-.352,1.173-.525.444-.2.895-.4,1.346-.608q1.465-.664,2.978-1.378c1-.468,2.01-.952,3.036-1.445.764-.377,1.526-.755,2.3-1.141.623-.312,1.238-.623,1.862-.935.065-.033.123-.066.188-.1.631-.32,1.264-.648,1.9-.985a1.494,1.494,0,0,0,.156-.082c.558-.287,1.116-.583,1.673-.879.452-.237.895-.484,1.338-.722,1.058-.574,2.117-1.165,3.175-1.756.707-.4,1.411-.8,2.109-1.215.64-.369,1.264-.738,1.888-1.116.542-.32,1.083-.648,1.624-.976.206-.123.41-.246.608-.378.615-.37,1.23-.746,1.829-1.124.074-.049.148-.1.222-.14.3-.188.582-.37.87-.558.386-.238.755-.485,1.132-.722s.73-.476,1.092-.714.722-.468,1.074-.706q.678-.443,1.33-.886c.886-.608,1.756-1.2,2.6-1.789l.172-.123c.329-.229.657-.451.977-.681q1.932-1.366,3.709-2.675l.879-.656c.279-.214.566-.427.845-.64s.558-.419.828-.631q.825-.628,1.6-1.231a.268.268,0,0,1,.065-.049c.222-.172.443-.353.657-.517.517-.41,1.026-.813,1.51-1.207.328-.262.64-.516.951-.763.2-.164.386-.32.574-.467.189-.164.378-.321.558-.459.181-.157.361-.3.542-.452a.186.186,0,0,1,.041-.041c.419-.344.813-.681,1.2-1.009,1.526-1.288,2.806-2.421,3.824-3.348.139-.131.271-.254.4-.361l.082-.082c.148-.139.3-.271.427-.394l.016-.016c1.2-1.1,1.855-1.756,1.945-1.846l.008-.008ZM337.012,301.3a.105.105,0,0,1-.008.049,2.905,2.905,0,0,1-.074.377l-.024.1c-.033.1-.065.206-.107.3a.879.879,0,0,1-.057.131,1.971,1.971,0,0,1-.164.353,3.375,3.375,0,0,1-.87,1.017,2.19,2.19,0,0,1-.37.237c-3.036,1.658-6.072,3.217-9.034,4.662-.525.254-1.042.508-1.559.763q-1.871.9-3.692,1.731c-.574.263-1.141.525-1.7.78-.985.443-1.953.878-2.905,1.3-.484.213-.951.418-1.419.615s-.927.4-1.378.6c-1.83.78-3.577,1.5-5.219,2.167h-.008c-.878.361-1.731.7-2.552,1.017-.41.164-.8.32-1.2.467-1.96.764-3.692,1.411-5.153,1.945a2.124,2.124,0,0,1-2.626-.894,2.629,2.629,0,0,1-.271-.731l-7.926-39.5a3.763,3.763,0,0,1,1.673-3.758l33.438-19.308a1.805,1.805,0,0,1,2.8,1.215l7.918,33.076,2.4,10.018.042.165.024.123a.337.337,0,0,1,.025.13.737.737,0,0,1,.016.14,1.758,1.758,0,0,1,.016.3A2.421,2.421,0,0,1,337.012,301.3Zm29.474-18.339c-.008.008-.008.008-.016.008l-.016.016c-.188.164-.394.328-.591.492-1.953,1.576-4.169,3.3-6.606,5.121-.829.615-1.69,1.238-2.576,1.879l-.96.689q-1.944,1.39-4.037,2.815c-.46.3-.919.615-1.387.927s-.944.632-1.428.944-.968.64-1.461.952q-2.633,1.7-5.448,3.389a1.767,1.767,0,0,1-2.766-1.2l-.057-.238v-.008l-2.38-10-7.852-32.994a3.632,3.632,0,0,1,1.624-3.758l6.343-3.652,25.8-14.925,1.149-.657a.554.554,0,0,1,.1-.049,1.717,1.717,0,0,1,2.609,1.272l7.886,39.189a4.954,4.954,0,0,1-.755,3.446c-.091.139-.189.279-.287.4l-.016.016a3.859,3.859,0,0,1-.312.32c-.132.123-.271.246-.419.378-.188.172-.377.344-.574.517-.533.459-1.124.976-1.764,1.534s-1.321,1.132-2.06,1.748c-.492.41-1.009.837-1.542,1.272-.066.049-.123.1-.181.148A.025.025,0,0,1,366.486,282.958Z" transform="translate(-282.34 -214.025)" fill="#f7d400"/>
            </g>
            <g id="Group_636" data-name="Group 636" transform="translate(0.003)" opacity="0.3">
              <path id="Path_217" data-name="Path 217" d="M364.8,214.025l-7.229,4.184-23.7,13.679-51.53,29.736,12.891,62.468a.059.059,0,0,0,.024-.009c.082-.024.386-.122.878-.3.057-.016.115-.041.18-.057.255-.091.558-.188.9-.312.123-.042.237-.082.369-.131l.082-.024a.534.534,0,0,0,.082-.033l.615-.213c.3-.107.615-.222.951-.337.3-.114.616-.229.944-.344.206-.073.41-.148.624-.23.271-.1.541-.2.828-.3.853-.312,1.773-.664,2.757-1.042.2-.074.41-.156.623-.238,2.208-.853,4.719-1.846,7.434-2.987.87-.361,1.764-.738,2.675-1.132.148-.057.287-.123.435-.189s.32-.139.484-.206c.566-.254,1.149-.5,1.74-.763.164-.073.336-.148.508-.222.386-.172.78-.352,1.173-.525.444-.2.895-.4,1.346-.608q1.465-.664,2.978-1.378c1-.468,2.01-.952,3.036-1.445.764-.377,1.526-.755,2.3-1.141.623-.312,1.238-.623,1.862-.935.065-.033.123-.066.188-.1.631-.32,1.264-.648,1.9-.985a1.494,1.494,0,0,0,.156-.082c.558-.287,1.116-.583,1.673-.879.452-.237.895-.484,1.338-.722,1.058-.574,2.117-1.165,3.175-1.756.707-.4,1.411-.8,2.109-1.215.64-.369,1.264-.738,1.888-1.116.542-.32,1.083-.648,1.624-.976.206-.123.41-.246.608-.378.615-.37,1.23-.746,1.829-1.124.074-.049.148-.1.222-.14.3-.188.582-.37.87-.558.386-.238.755-.485,1.132-.722s.73-.476,1.092-.714.722-.468,1.074-.706q.678-.443,1.33-.886c.886-.608,1.756-1.2,2.6-1.789l.172-.123c.329-.229.657-.451.977-.681q1.932-1.366,3.709-2.675l.879-.656c.279-.214.566-.427.845-.64s.558-.419.828-.631q.825-.628,1.6-1.231a.268.268,0,0,1,.065-.049c.222-.172.443-.353.657-.517.517-.41,1.026-.813,1.51-1.207.328-.262.64-.516.951-.763.2-.164.386-.32.574-.467.189-.164.378-.321.558-.459.181-.157.361-.3.542-.452a.186.186,0,0,1,.041-.041c.419-.344.813-.681,1.2-1.009,1.526-1.288,2.806-2.421,3.824-3.348.139-.131.271-.254.4-.361l.082-.082c.148-.139.3-.271.427-.394l.016-.016c1.2-1.1,1.855-1.756,1.945-1.846l.008-.008ZM337.012,301.3a.105.105,0,0,1-.008.049,2.905,2.905,0,0,1-.074.377l-.024.1c-.033.1-.065.206-.107.3a.879.879,0,0,1-.057.131,1.971,1.971,0,0,1-.164.353,3.375,3.375,0,0,1-.87,1.017,2.19,2.19,0,0,1-.37.237c-3.036,1.658-6.072,3.217-9.034,4.662-.525.254-1.042.508-1.559.763q-1.871.9-3.692,1.731c-.574.263-1.141.525-1.7.78-.985.443-1.953.878-2.905,1.3-.484.213-.951.418-1.419.615s-.927.4-1.378.6c-1.83.78-3.577,1.5-5.219,2.167h-.008c-.878.361-1.731.7-2.552,1.017-.41.164-.8.32-1.2.467-1.96.764-3.692,1.411-5.153,1.945a2.124,2.124,0,0,1-2.626-.894,2.629,2.629,0,0,1-.271-.731l-7.926-39.5a3.763,3.763,0,0,1,1.673-3.758l33.438-19.308a1.805,1.805,0,0,1,2.8,1.215l7.918,33.076,2.4,10.018.042.165.024.123a.337.337,0,0,1,.025.13.737.737,0,0,1,.016.14,1.758,1.758,0,0,1,.016.3A2.421,2.421,0,0,1,337.012,301.3Zm29.474-18.339c-.008.008-.008.008-.016.008l-.016.016c-.188.164-.394.328-.591.492-1.953,1.576-4.169,3.3-6.606,5.121-.829.615-1.69,1.238-2.576,1.879l-.96.689q-1.944,1.39-4.037,2.815c-.46.3-.919.615-1.387.927s-.944.632-1.428.944-.968.64-1.461.952q-2.633,1.7-5.448,3.389a1.767,1.767,0,0,1-2.766-1.2l-.057-.238v-.008l-2.38-10-7.852-32.994a3.632,3.632,0,0,1,1.624-3.758l6.343-3.652,25.8-14.925,1.149-.657a.554.554,0,0,1,.1-.049,1.717,1.717,0,0,1,2.609,1.272l7.886,39.189a4.954,4.954,0,0,1-.755,3.446c-.091.139-.189.279-.287.4l-.016.016a3.859,3.859,0,0,1-.312.32c-.132.123-.271.246-.419.378-.188.172-.377.344-.574.517-.533.459-1.124.976-1.764,1.534s-1.321,1.132-2.06,1.748c-.492.41-1.009.837-1.542,1.272-.066.049-.123.1-.181.148A.025.025,0,0,1,366.486,282.958Z" transform="translate(-282.34 -214.025)"/>
            </g>
            <path id="Path_218" data-name="Path 218" d="M289.925,272.616l74.39-42.97a2.935,2.935,0,0,0,1.32-2.922l-1.349-6.707a1.33,1.33,0,0,0-2.1-.947L287.8,262.04a2.932,2.932,0,0,0-1.319,2.921l1.349,6.706A1.33,1.33,0,0,0,289.925,272.616Z" transform="translate(-283.091 -214.91)" fill="#455a64"/>
            <g id="Group_637" data-name="Group 637" transform="translate(13.768 59.826)">
              <path id="Path_219" data-name="Path 219" d="M340.076,317.343a3.488,3.488,0,0,1-1.63,3.678,273.26,273.26,0,0,1-35.82,16.036,2.121,2.121,0,0,1-2.893-1.622l-.521-2.6c7.23-5.257,24.785-17.794,38.261-25.578.051-.033.111-.06.162-.094Z" transform="translate(-299.212 -291.006)" fill="#37474f"/>
              <path id="Path_220" data-name="Path 220" d="M385.944,290.123a3.538,3.538,0,0,1-.614.742,206.8,206.8,0,0,1-31.083,22.83,1.765,1.765,0,0,1-2.766-1.2l-2.44-10.25a234.784,234.784,0,0,1,32.687-14.893Z" transform="translate(-308.39 -287.358)" fill="#37474f"/>
            </g>
            <g id="Group_638" data-name="Group 638" transform="translate(53.181 18.68)">
              <path id="Path_221" data-name="Path 221" d="M385.046,272.359l-9.012-5.2a8.174,8.174,0,0,1-3.7-6.4V241.634l6.913-3.994,1.144-.666a.548.548,0,0,1,.1-.051l6.545,34.01C387.359,272.538,386.463,273.178,385.046,272.359Z" transform="translate(-352.095 -236.923)" fill="#f7d400" opacity="0.1"/>
              <path id="Path_222" data-name="Path 222" d="M361.2,247.353V260.6c0,1.417-.99,1.989-2.219,1.28l-11.461-6.614,1.357-.786Z" transform="translate(-347.524 -238.844)" fill="#f7d400" opacity="0.1"/>
            </g>
          </g>
          <path id="Path_223" data-name="Path 223" d="M351.072,205.083l-82.456,47.6-28.341-20.825L207.83,213.125l82.456-47.6,32.444,18.733Z" transform="translate(-207.822 -165.525)" fill="#f7d400"/>
          <g id="Group_642" data-name="Group 642" transform="translate(50.316 123.039)">
            <g id="Percentage_Box-2" data-name="Percentage Box">
              <g id="Group_640" data-name="Group 640">
                <path id="Path_224" data-name="Path 224" d="M271.514,320.184l6.141-3.565a1.412,1.412,0,0,1,1.433-.137c.361.213,1.083.653,1.448.859a1.413,1.413,0,0,1,.6,1.309v14.735a4.46,4.46,0,0,1-2.017,3.493l-6.14,3.565a1.418,1.418,0,0,1-1.426.141c-.365-.211-1.092-.657-1.457-.864a1.415,1.415,0,0,1-.6-1.309V323.677A4.458,4.458,0,0,1,271.514,320.184Z" transform="translate(-269.496 -316.343)" fill="#fafafa"/>
                <path id="Path_225" data-name="Path 225" d="M269.5,324.883V339.62a1.413,1.413,0,0,0,.6,1.309c.354.2.906.546,1.415.839a1.454,1.454,0,0,1-.545-1.281V325.75a4.082,4.082,0,0,1,.591-1.984l-1.466-.867A4.119,4.119,0,0,0,269.5,324.883Z" transform="translate(-269.496 -317.551)" fill="#e0e0e0"/>
                <path id="Path_226" data-name="Path 226" d="M279.446,337.074l-6.14,3.565c-1.114.643-2.017.122-2.017-1.164V324.74a4.458,4.458,0,0,1,2.017-3.493l6.141-3.565c1.114-.643,2.017-.122,2.017,1.164v14.735A4.46,4.46,0,0,1,279.446,337.074Z" transform="translate(-269.826 -316.539)" fill="#f0f0f0"/>
              </g>
            </g>
            <path id="Path_227" data-name="Path 227" d="M287.536,344.449a4.588,4.588,0,0,1,2.066,3.588c0,1.32-.927,1.855-2.071,1.2a4.564,4.564,0,0,1-2.065-3.588C285.468,344.323,286.4,343.788,287.536,344.449Z" transform="translate(-272.438 -321.468)" fill="#37474f"/>
            <g id="Group_641" data-name="Group 641" transform="translate(6.306 12.912)">
              <path id="Path_228" data-name="Path 228" d="M278.755,349.177a1.535,1.535,0,0,1-1.529-1.531V332.681a.51.51,0,1,1,1.02,0v14.965a.508.508,0,0,0,.764.441l6.752-3.9a.51.51,0,0,1,.51.883l-6.752,3.9A1.521,1.521,0,0,1,278.755,349.177Z" transform="translate(-277.226 -332.171)" fill="#263238"/>
            </g>
          </g>
        </g>
      </g>
    </g>
    <g id="Label" transform="translate(147.974 16.195)">
      <g id="Label-2" data-name="Label">
        <g id="Group_643" data-name="Group 643" transform="translate(0 43.475)">
          <path id="Path_229" data-name="Path 229" d="M180.969,123.127a.821.821,0,0,1-.812-.708c-3.8-27.293,16.126-43.943,36.035-50.424,20.764-6.762,35.437,2.242,36.052,2.628a.82.82,0,1,1-.873,1.389c-.144-.09-14.669-8.969-34.671-2.457-19.278,6.276-38.575,22.348-34.918,48.638a.821.821,0,0,1-.7.926A.776.776,0,0,1,180.969,123.127Z" transform="translate(-179.689 -69.486)" fill="#37474f"/>
        </g>
        <g id="Label-3" data-name="Label" transform="translate(61.918)">
          <path id="Path_230" data-name="Path 230" d="M321.28,16.195,268.92,46.427,255.586,73.373,268.92,84.919l1.5.87,52.359-30.232V17.065Zm-54.189,52.2a7.07,7.07,0,0,1,3.2-5.547,2.876,2.876,0,0,1,1.376-.42,2.878,2.878,0,0,1,.321,1.4,7.082,7.082,0,0,1-3.2,5.547,2.957,2.957,0,0,1-1.393.426A2.914,2.914,0,0,1,267.091,68.393Z" transform="translate(-255.586 -16.195)" fill="#f7d400"/>
          <path id="Path_231" data-name="Path 231" d="M270.761,47.493,257.427,74.439l13.334,11.545,52.359-30.232V17.261Zm-.131,22.942c-1.773,1.025-3.2.2-3.2-1.846a7.07,7.07,0,0,1,3.2-5.547c1.764-1.017,3.2-.189,3.2,1.846A7.082,7.082,0,0,1,270.63,70.436Z" transform="translate(-255.925 -16.391)" fill="#f7d400"/>
          <path id="Path_232" data-name="Path 232" d="M276.157,75.132a7.082,7.082,0,0,1-3.2,5.547c-1.286.739-2.384.513-2.9-.444h0a2.939,2.939,0,0,0,1.393-.426,7.08,7.08,0,0,0,3.2-5.547,2.856,2.856,0,0,0-.321-1.387,1.647,1.647,0,0,1,1.207.451A2.479,2.479,0,0,1,276.157,75.132Z" transform="translate(-258.252 -26.635)" opacity="0.3"/>
          <path id="Path_233" data-name="Path 233" d="M325.792,17.065l-1.5-.87L271.93,46.427l1.5.87Z" transform="translate(-258.596 -16.195)" fill="#f7d400"/>
          <path id="Path_234" data-name="Path 234" d="M270.422,54.123,257.088,81.069l-1.5-.87L268.92,53.253Z" transform="translate(-255.586 -23.021)" opacity="0.15"/>
          <path id="Path_235" data-name="Path 235" d="M257.088,87.153,270.422,98.7l-1.5-.87L255.586,86.283Z" transform="translate(-255.586 -29.105)" opacity="0.3"/>
        </g>
        <g id="Text" transform="translate(79.054 20.198)">
          <g id="Group_644" data-name="Group 644">
            <path id="Path_236" data-name="Path 236" d="M279,63.944l.573,4.828-1.117.5L278,65.455l-1.037.736-.372-.689,1.437-1.12Z" transform="translate(-276.591 -45.188)" fill="#fafafa"/>
            <path id="Path_237" data-name="Path 237" d="M286.413,65.827l-1.659-.9.186,1.566-1.044.471-.572-4.828,1.044-.471.343,2.9,1.212-2.145,1.246-.562-1.424,2.437,1.882.99Z" transform="translate(-277.831 -44.767)" fill="#fafafa"/>
            <path id="Path_238" data-name="Path 238" d="M292.481,59.47l.573,4.829-1.043.471-.212-1.787a2.616,2.616,0,0,1-1.251,1.094c-1.084.489-2.068.1-2.19-.931a2.907,2.907,0,0,1,1.759-2.711,1.5,1.5,0,0,1,1.37-.087l-.048-.407Zm-.839,2.195c-.069-.579-.593-.757-1.233-.468a1.553,1.553,0,0,0-1.008,1.479c.069.58.591.759,1.239.467A1.553,1.553,0,0,0,291.642,61.665Z" transform="translate(-278.756 -44.364)" fill="#fafafa"/>
            <path id="Path_239" data-name="Path 239" d="M301.166,55.635a2.742,2.742,0,0,1-1.741,2.494l-1,.449.188,1.586-1.116.5-.573-4.828,2.112-.952C300.133,54.394,301.059,54.732,301.166,55.635Zm-1.108.5c-.051-.421-.435-.574-.913-.359l-.994.449.174,1.462.994-.449A1.171,1.171,0,0,0,300.059,56.136Z" transform="translate(-280.337 -43.478)" fill="#fafafa"/>
            <path id="Path_240" data-name="Path 240" d="M303.109,56.3l-.384-3.249,1.108-.5.377,3.173c.055.467.388.688,1.149.345s1.01-.826.954-1.294l-.376-3.174,1.116-.5.386,3.249A2.868,2.868,0,0,1,305.469,57C304.231,57.56,303.233,57.342,303.109,56.3Z" transform="translate(-281.405 -42.822)" fill="#fafafa"/>
            <path id="Path_241" data-name="Path 241" d="M313.006,52.87l.107.91-3.276,1.477-.573-4.828,1.117-.5.464,3.918Z" transform="translate(-282.609 -42.606)" fill="#fafafa"/>
            <path id="Path_242" data-name="Path 242" d="M314.1,52.039l.9-.907c.255.357.686.467,1.39.15.671-.3.877-.649.845-.919-.042-.359-.439-.326-1.305-.153-.89.176-1.769.246-1.878-.672a2.538,2.538,0,0,1,1.691-2.274,1.775,1.775,0,0,1,2.151.171l-.884.885c-.246-.274-.584-.392-1.158-.132-.469.211-.72.543-.687.818.035.3.272.357,1.156.191.928-.163,1.912-.339,2.029.647.107.9-.677,1.839-1.882,2.383C315.31,52.749,314.493,52.615,314.1,52.039Z" transform="translate(-283.489 -42.066)" fill="#fafafa"/>
            <path id="Path_243" data-name="Path 243" d="M320.039,48.667l-.385-3.249,1.109-.5.377,3.174c.055.467.388.688,1.149.346s1.01-.827.954-1.295l-.376-3.173,1.116-.5.386,3.249a2.868,2.868,0,0,1-1.969,2.654C321.161,49.927,320.162,49.709,320.039,48.667Z" transform="translate(-284.523 -41.416)" fill="#fafafa"/>
            <path id="Path_244" data-name="Path 244" d="M330.211,44.848l.108.91-3.828,1.725-.09-.759,1.981-4.22-2.3,1.036-.108-.91,3.722-1.678.089.751-1.978,4.228Z" transform="translate(-285.687 -40.953)" fill="#fafafa"/>
            <path id="Path_245" data-name="Path 245" d="M283.082,78.49l1.019.042a4.581,4.581,0,0,1-1.835,2l.031.248c.281-.069.591-.034.629.282.05.414-.337.894-1.705,1.437l-.074-.627c.6-.232.872-.414.858-.533s-.213-.064-.53.057l-.057-.475c-1.53.537-2.705-.03-2.859-1.334a4.119,4.119,0,0,1,2.647-3.838,2.473,2.473,0,0,1,2.57.04l-.906.909a1.43,1.43,0,0,0-1.555-.024,2.5,2.5,0,0,0-1.649,2.414c.11.924.916,1.251,2.024.752A2.694,2.694,0,0,0,283.082,78.49Z" transform="translate(-276.95 -47.3)" fill="#fafafa"/>
            <path id="Path_246" data-name="Path 246" d="M289.41,76.4l-2.257,1.017-.237,1.023-1.206.543,1.41-5.722,1.384-.623,2.563,3.931-1.214.547Zm-.454-.733-1.01-1.623-.543,2.323Z" transform="translate(-278.271 -46.79)" fill="#fafafa"/>
            <path id="Path_247" data-name="Path 247" d="M295.506,70.3l-1.53.689.465,3.918-1.116.5-.464-3.918-1.522.686-.108-.911,4.167-1.878Z" transform="translate(-279.287 -46.192)" fill="#fafafa"/>
            <path id="Path_248" data-name="Path 248" d="M302.368,68.919a3.891,3.891,0,0,1-2.441,3.643l-2.249,1.014-.574-4.828,2.25-1.014C300.915,67.031,302.205,67.561,302.368,68.919ZM301.3,69.4c-.105-.89-.858-1.2-1.837-.756l-1.133.511.357,3.007,1.133-.511A2.308,2.308,0,0,0,301.3,69.4Z" transform="translate(-280.369 -45.829)" fill="#fafafa"/>
            <path id="Path_249" data-name="Path 249" d="M305.3,65.241l.573,4.828-1.117.5-.573-4.828Z" transform="translate(-281.673 -45.427)" fill="#fafafa"/>
            <path id="Path_250" data-name="Path 250" d="M309.181,66.646l-.85.383.2,1.676-1.117.5-.573-4.828,2.266-1.021c1.043-.471,1.97-.133,2.075.751a2.407,2.407,0,0,1-.926,1.9l1.47,1.256-1.2.543Zm-.949-.452,1.149-.518a1.141,1.141,0,0,0,.684-1.063c-.047-.4-.432-.553-.853-.364l-1.149.518Z" transform="translate(-282.163 -45.041)" fill="#fafafa"/>
            <path id="Path_251" data-name="Path 251" d="M314.05,61.3l.573,4.828-1.117.5-.573-4.828Z" transform="translate(-283.285 -44.7)" fill="#fafafa"/>
            <path id="Path_252" data-name="Path 252" d="M319.334,63.039l.109.91-3.277,1.477-.573-4.828,1.116-.5.465,3.917Z" transform="translate(-283.775 -44.479)" fill="#fafafa"/>
            <path id="Path_253" data-name="Path 253" d="M326.5,60.317l-1.11.5-.372-3.131-1.327,2.96-.13.058L321.7,59.188l.37,3.125-1.117.5-.573-4.828,1.15-.518,1.9,1.55,1.348-3.013,1.15-.518Z" transform="translate(-284.657 -43.63)" fill="#fafafa"/>
            <path id="Path_254" data-name="Path 254" d="M332.26,57.085,330,58.1l-.237,1.022-1.2.543,1.409-5.721,1.384-.624,2.563,3.931L332.7,57.8Zm-.454-.733-1.01-1.623-.543,2.323Z" transform="translate(-286.163 -43.231)" fill="#fafafa"/>
          </g>
          <g id="Text-2" data-name="Text" transform="translate(0.331 0.175)">
            <g id="Group_645" data-name="Group 645">
              <path id="Path_255" data-name="Path 255" d="M279.4,64.159l.573,4.828-1.117.5-.453-3.82-1.038.736L277,65.716l1.437-1.119Z" transform="translate(-276.997 -45.402)" fill="#162366"/>
              <path id="Path_256" data-name="Path 256" d="M286.819,66.041l-1.659-.9.186,1.566-1.043.471-.573-4.828,1.044-.471.343,2.9,1.211-2.145,1.246-.562L286.15,64.5l1.882.99Z" transform="translate(-278.237 -44.982)" fill="#162366"/>
              <path id="Path_257" data-name="Path 257" d="M292.887,59.685l.573,4.829-1.043.471L292.2,63.2a2.616,2.616,0,0,1-1.251,1.094c-1.084.489-2.068.1-2.19-.932a2.9,2.9,0,0,1,1.758-2.71,1.5,1.5,0,0,1,1.371-.087l-.049-.407Zm-.839,2.195c-.069-.579-.593-.757-1.233-.468a1.553,1.553,0,0,0-1.008,1.479c.069.58.591.758,1.239.467A1.551,1.551,0,0,0,292.049,61.88Z" transform="translate(-279.162 -44.578)" fill="#162366"/>
              <path id="Path_258" data-name="Path 258" d="M301.572,55.85a2.742,2.742,0,0,1-1.74,2.494l-1,.449.188,1.586-1.116.5-.573-4.828,2.112-.952C300.539,54.609,301.465,54.947,301.572,55.85Zm-1.108.5c-.051-.421-.434-.574-.912-.359l-1,.449.174,1.462,1-.449A1.172,1.172,0,0,0,300.464,56.351Z" transform="translate(-280.743 -43.692)" fill="#162366"/>
              <path id="Path_259" data-name="Path 259" d="M303.516,56.514l-.385-3.248,1.108-.5.377,3.173c.056.468.388.689,1.149.346s1.011-.826.954-1.294l-.376-3.173,1.117-.5.385,3.248a2.867,2.867,0,0,1-1.969,2.655C304.638,57.775,303.639,57.557,303.516,56.514Z" transform="translate(-281.811 -43.036)" fill="#162366"/>
              <path id="Path_260" data-name="Path 260" d="M313.412,53.085l.108.91-3.277,1.477-.573-4.828,1.117-.5.464,3.917Z" transform="translate(-283.015 -42.82)" fill="#162366"/>
              <path id="Path_261" data-name="Path 261" d="M314.507,52.254l.9-.907c.255.357.686.467,1.39.15.671-.3.877-.649.845-.919-.042-.36-.439-.326-1.3-.153-.891.176-1.769.246-1.879-.672a2.538,2.538,0,0,1,1.691-2.274,1.774,1.774,0,0,1,2.151.171l-.883.885c-.246-.274-.584-.392-1.158-.132-.469.211-.72.543-.687.818.035.3.272.357,1.156.191.928-.163,1.912-.339,2.03.647.106.9-.678,1.839-1.883,2.383C315.716,52.964,314.9,52.83,314.507,52.254Z" transform="translate(-283.895 -42.28)" fill="#162366"/>
              <path id="Path_262" data-name="Path 262" d="M320.445,48.882l-.384-3.249,1.108-.5.377,3.174c.055.467.388.688,1.149.345s1.01-.826.955-1.294l-.376-3.174,1.116-.5.386,3.249a2.868,2.868,0,0,1-1.969,2.654C321.567,50.142,320.569,49.924,320.445,48.882Z" transform="translate(-284.929 -41.63)" fill="#162366"/>
              <path id="Path_263" data-name="Path 263" d="M330.617,45.062l.108.911L326.9,47.7l-.091-.759,1.981-4.22-2.3,1.036-.109-.91,3.722-1.679.09.751-1.978,4.228Z" transform="translate(-286.093 -41.167)" fill="#162366"/>
              <path id="Path_264" data-name="Path 264" d="M283.489,78.7l1.019.042a4.58,4.58,0,0,1-1.835,2l.03.249c.281-.069.591-.034.629.282.05.414-.337.894-1.705,1.437l-.073-.627c.595-.233.871-.414.857-.533s-.212-.064-.53.057l-.056-.475c-1.53.537-2.706-.031-2.86-1.334a4.12,4.12,0,0,1,2.647-3.838,2.473,2.473,0,0,1,2.57.039l-.906.91a1.428,1.428,0,0,0-1.554-.024,2.5,2.5,0,0,0-1.65,2.414c.11.924.916,1.251,2.025.752A2.7,2.7,0,0,0,283.489,78.7Z" transform="translate(-277.356 -47.514)" fill="#162366"/>
              <path id="Path_265" data-name="Path 265" d="M289.816,76.619l-2.257,1.017-.237,1.023-1.207.543,1.411-5.722,1.383-.624,2.564,3.931-1.215.547Zm-.453-.733-1.011-1.623-.543,2.323Z" transform="translate(-278.677 -47.004)" fill="#162366"/>
              <path id="Path_266" data-name="Path 266" d="M295.912,70.519l-1.53.689.465,3.918-1.116.5-.464-3.918-1.522.685-.108-.91,4.166-1.879Z" transform="translate(-279.694 -46.406)" fill="#162366"/>
              <path id="Path_267" data-name="Path 267" d="M302.774,69.134a3.892,3.892,0,0,1-2.44,3.643l-2.25,1.014-.573-4.828,2.25-1.014C301.323,67.246,302.612,67.776,302.774,69.134Zm-1.069.482c-.105-.89-.857-1.2-1.837-.756l-1.132.511.357,3.007,1.133-.511A2.308,2.308,0,0,0,301.705,69.616Z" transform="translate(-280.775 -46.043)" fill="#162366"/>
              <path id="Path_268" data-name="Path 268" d="M305.7,65.456l.573,4.828-1.117.5-.573-4.828Z" transform="translate(-282.079 -45.641)" fill="#162366"/>
              <path id="Path_269" data-name="Path 269" d="M309.587,66.86l-.85.383.2,1.676-1.117.5-.573-4.828,2.266-1.021c1.044-.471,1.97-.133,2.075.751a2.408,2.408,0,0,1-.925,1.9l1.469,1.256-1.2.543Zm-.949-.451,1.149-.518a1.143,1.143,0,0,0,.684-1.063c-.047-.4-.432-.554-.853-.364l-1.149.518Z" transform="translate(-282.569 -45.255)" fill="#162366"/>
              <path id="Path_270" data-name="Path 270" d="M314.456,61.51l.573,4.828-1.117.5-.573-4.828Z" transform="translate(-283.691 -44.914)" fill="#162366"/>
              <path id="Path_271" data-name="Path 271" d="M319.74,63.254l.109.91-3.277,1.477L316,60.814l1.116-.5.466,3.917Z" transform="translate(-284.181 -44.693)" fill="#162366"/>
              <path id="Path_272" data-name="Path 272" d="M326.907,60.532l-1.109.5-.372-3.131L324.1,60.86l-.13.059L322.11,59.4l.37,3.125-1.117.5-.573-4.828,1.15-.518,1.9,1.55,1.348-3.013,1.149-.518Z" transform="translate(-285.063 -43.845)" fill="#162366"/>
              <path id="Path_273" data-name="Path 273" d="M332.666,57.3l-2.257,1.017-.237,1.022-1.2.544,1.409-5.721,1.384-.624,2.562,3.93-1.213.547Zm-.454-.733-1.01-1.623-.543,2.323Z" transform="translate(-286.569 -43.446)" fill="#162366"/>
            </g>
          </g>
        </g>
        <g id="Group_646" data-name="Group 646" transform="translate(66.544 49.628)">
          <path id="Path_274" data-name="Path 274" d="M264.2,90.849a9.663,9.663,0,0,1-2.314-.29.82.82,0,1,1,.39-1.593,6.653,6.653,0,0,0,7.98-3.811,5.135,5.135,0,0,0-1.786-6.614.821.821,0,1,1,.881-1.384,6.78,6.78,0,0,1,2.415,8.643A8.186,8.186,0,0,1,264.2,90.849Z" transform="translate(-261.257 -77.028)" fill="#37474f"/>
        </g>
      </g>
    </g>
    <g id="Character" transform="translate(73.722 191.799)">
      <g id="Character-2" data-name="Character">
        <g id="Bottom" transform="translate(6.616 46.219)">
          <path id="Path_275" data-name="Path 275" d="M97.434,371.2a4.581,4.581,0,0,0-.392,2.368,11.09,11.09,0,0,1,.392,3.223c-.134,1.612-.479,2.128-.607,3.266a4.693,4.693,0,0,0,.693,3.289c.7,1.052,2.27,1.889,5.153,1.677,2.331-.171,3.316-1.479,3.316-2.855Z" transform="translate(-96.782 -303.407)" fill="#263238"/>
          <path id="Path_276" data-name="Path 276" d="M98.845,366.362c1.469.788,3.869-.138,5.655-1.091l1.88-11.1-8.121-1.8Z" transform="translate(-97.054 -299.938)" fill="#ffa8a7"/>
          <path id="Path_277" data-name="Path 277" d="M98,367.055a5.75,5.75,0,0,0-.107.912c-.066.543-.209,1.067-.317,1.6-.029.142-.055.284-.081.426a17.217,17.217,0,0,0,.108,3.274,18.414,18.414,0,0,1-.533,3.842c-.439,2.286-.432,3.714,1.61,5.212a5.353,5.353,0,0,0,3.518.855,4.742,4.742,0,0,0,2.9-.816,2.446,2.446,0,0,0,.8-1.386c-.012-2.414-.985-5.184-1.251-7.584a11.679,11.679,0,0,1-.118-1.95c.051-.8.3-1.6.357-2.411a1.369,1.369,0,0,0-.144-.879,1.419,1.419,0,0,0-1.089-.443q-1.592-.148-3.19-.2a.964.964,0,0,0-.716.171,1.315,1.315,0,0,0-.237.78c-.044.273-.235.589-.509.547a.458.458,0,0,1-.337-.388c-.034-.179-.161-1.57-.162-1.753C98.492,366.866,98.116,366.82,98,367.055Z" transform="translate(-96.792 -302.607)" fill="#37474f"/>
          <path id="Path_278" data-name="Path 278" d="M106.12,383a2.966,2.966,0,0,0-.386-1.459c-1.185-2.121-7.124-1.972-8.9.259a3.251,3.251,0,0,0,1.495,3.028,6.851,6.851,0,0,0,3.982.852,5.178,5.178,0,0,0,2.908-.9A1.973,1.973,0,0,0,106.12,383Z" transform="translate(-96.792 -305.034)" fill="#455a64"/>
          <path id="Path_279" data-name="Path 279" d="M117.531,366.268c1.241,2.682,3.188,1.6,5.712-.117l1.233-16.058-7.782,2.1Z" transform="translate(-100.449 -299.519)" fill="#ffa8a7"/>
          <g id="Group_647" data-name="Group 647" transform="translate(15.374 63.665)">
            <path id="Path_280" data-name="Path 280" d="M133.31,376.679a1.806,1.806,0,0,1-.074,1.325c-.185.387-2.209,1.529-4.94,1.345a11.371,11.371,0,0,1-5.647-1.974,6.538,6.538,0,0,0-3.477-.895c-1.352-.078-3.127-.751-3.424-1.384a3,3,0,0,1,.045-1.722Z" transform="translate(-115.627 -367.472)" fill="#263238"/>
            <path id="Path_281" data-name="Path 281" d="M123.768,366.875a5.34,5.34,0,0,1,.26.612,4.841,4.841,0,0,0,1.424,1.935,15.553,15.553,0,0,0,2.952,1.749c.658.326,1.359.44,2.029.706a11.563,11.563,0,0,1,2.172,1.061,1.969,1.969,0,0,1-.011,3.253,9.641,9.641,0,0,1-6.73.464c-1.583-.448-3.341-2.14-5.419-2.3-1.322-.1-3.82-.475-4.671-1.478-.268-1.459.105-1.856.45-3.074a9.922,9.922,0,0,0,.334-2.1c.024-.374-.188-1.459.6-1.557l.048.808s.136.279.948.456c.262.057.456.412.587.736.1.249.2.565.472.57a.5.5,0,0,0,.423-.3,4.318,4.318,0,0,0,.174-.52,2.064,2.064,0,0,1,1.287-1.176,6.24,6.24,0,0,1,1.461-.245c.379-.043.693-.192,1.013.14A1.232,1.232,0,0,1,123.768,366.875Z" transform="translate(-115.637 -366.139)" fill="#37474f"/>
            <path id="Path_282" data-name="Path 282" d="M116.419,369.539a8.38,8.38,0,0,1-.193.888c-.345,1.218-.719,1.615-.45,3.074.653.771,2.279,1.168,3.6,1.358A5.009,5.009,0,0,0,116.419,369.539Z" transform="translate(-115.637 -366.765)" fill="#455a64"/>
          </g>
          <path id="Path_283" data-name="Path 283" d="M99.356,290.769c-.343,10.4-.2,14.569-.159,33.7a33.067,33.067,0,0,0-1.4,9.043c-.131,4.787.376,14.692.376,14.692s3.962,2.452,7.319.5c0,0,2.694-14.561,3.727-21.238.908-5.867,1.838-14.453,1.838-14.453l1.3,12.2a48.609,48.609,0,0,0-.221,9.266c.222,3.138,1.082,14.183,1.082,14.183s3.585,2.507,7.369.494c0,0,1.765-21.978,1.819-24.823.062-3.244-1.2-36.231-1.2-36.231Z" transform="translate(-96.964 -288.1)" fill="#455a64"/>
          <path id="Path_284" data-name="Path 284" d="M114.051,315.452l1.962-11.354s4.273-.374,6.633-2.757c0,0-.421,2.336-5.792,3.737l-1.962,11.456.454,11.115Z" transform="translate(-99.963 -290.539)" fill="#263238"/>
          <path id="Path_285" data-name="Path 285" d="M135.077,374.165a10.458,10.458,0,0,0-1.925-.844,4.666,4.666,0,0,0-4.316,4.8,8.93,8.93,0,0,0,6.208-.529A2.135,2.135,0,0,0,135.077,374.165Z" transform="translate(-102.683 -303.797)" fill="#455a64"/>
        </g>
        <g id="Top">
          <g id="Arm" transform="translate(23.543 18.78)">
            <path id="Path_286" data-name="Path 286" d="M118.1,257.923c1.838-.053,5.26-.09,7.647,2.994,1.677,2.167,6.268,7.394,8.857,10.834,1.833-1.82,6.278-6.231,7.019-7.533a20.842,20.842,0,0,0,1.712-3.847,13.509,13.509,0,0,0,.627-2.408,13.21,13.21,0,0,0,.123-3.035c0-.919,1.353-.416,1.84,1.054a7.954,7.954,0,0,1,.341,2.5c.512-.23,2-.917,2.227-1.017.808-.352,3.368-1.185,3.577.252.047.321-.063.669.07.965a2.1,2.1,0,0,0,.269.379,1.638,1.638,0,0,1,.159,1.66,1.3,1.3,0,0,0-.156.755,2.093,2.093,0,0,1,.015.824,3.338,3.338,0,0,1-.335.584,2.577,2.577,0,0,0-.24.838,3.147,3.147,0,0,1-.212.847c-.294.628-1.065.755-1.659.953-.791.263-1.847.605-2.671.981-1.437.9-5.414,7.709-9.38,12.04-1.358,1.484-2.568,2.4-3.82,2.208l.011,0c-1.015-.047-2.25-1-3.436-2.073-3.772-3.415-9.875-9.8-9.875-9.8C118.277,265.686,117.753,260.016,118.1,257.923Z" transform="translate(-117.617 -254.466)" fill="#ffa8a7"/>
            <path id="Path_287" data-name="Path 287" d="M118.011,258.682a9.053,9.053,0,0,1,5.175.784c1.6.789,1.954,1.335,3.495,3.143s3.692,4.538,3.692,4.538-1.216,5.154-6.234,6.434l-6.609-7.67Z" transform="translate(-117.53 -255.224)" fill="#455a64"/>
            <path id="Path_288" data-name="Path 288" d="M153.469,259.586c-.792.259-1.006.787-.974,1.929a3.1,3.1,0,0,1-.9,2.439,1.751,1.751,0,0,0,.954-.424c.345-.361.44-.4.635-.2a1.263,1.263,0,0,0,.511.288.88.88,0,0,0-.072,1.049c.359.582,1.945.582,3.239-.1,0,0-2.1.675-2.6.008s.616-1.517,1.446-1.752c0,0-2.033.5-2.35-.162s.52-1.18,1.717-1.5c0,0-1.683.32-1.976-.249A1.046,1.046,0,0,1,153.469,259.586Z" transform="translate(-123.804 -255.409)" fill="#f28f8f"/>
          </g>
          <path id="Path_289" data-name="Path 289" d="M121.121,266.557c-.46-3.337-.9-7.822-6.073-8.028l-6.723-.321c-1.643.427-8.957,2.553-8.957,2.553v10.611s.243,4.432.547,10.018c0,0-.6,6.515-.547,9.064,4.779,3.03,17.464,2.167,22.513-.875C122.075,284.969,121.577,269.862,121.121,266.557Z" transform="translate(-90.641 -236.376)" fill="#f7d400"/>
          <g id="Group_657" data-name="Group 657" transform="translate(5.972)">
            <g id="Group_650" data-name="Group 650" transform="translate(0 10.357)">
              <g id="Group_648" data-name="Group 648" transform="translate(0 0.33)">
                <path id="Path_290" data-name="Path 290" d="M112.226,245.1l-10.539-.552c-2,1.583-5.716,4.906-5.694,5.8h0l.014.623h0a.232.232,0,0,0,.023.077c.388.7,1.738,1.108,3.83,1.1,2.48-.011,6.323-.319,7.315-1.209,1.5-1.34,5.064-5.251,5.064-5.251l-.531-.028Z" transform="translate(-95.993 -244.546)" fill="#f7d400"/>
                <path id="Path_291" data-name="Path 291" d="M112.226,245.1l-10.539-.552c-2,1.583-5.716,4.906-5.694,5.8h0l.014.623h0a.232.232,0,0,0,.023.077c.388.7,1.738,1.108,3.83,1.1,2.48-.011,6.323-.319,7.315-1.209,1.5-1.34,5.064-5.251,5.064-5.251l-.531-.028Z" transform="translate(-95.993 -244.546)" opacity="0.2"/>
                <path id="Path_292" data-name="Path 292" d="M101.7,245.271c-2.091,1.655-6.057,5.212-5.669,5.914s1.738,1.108,3.83,1.1c2.48-.011,6.323-.319,7.315-1.209,1.5-1.34,5.064-5.251,5.064-5.251Z" transform="translate(-95.995 -244.68)" fill="#f7d400"/>
                <path id="Path_293" data-name="Path 293" d="M101.7,245.271c-2.091,1.655-6.057,5.212-5.669,5.914s1.738,1.108,3.83,1.1c2.48-.011,6.323-.319,7.315-1.209,1.5-1.34,5.064-5.251,5.064-5.251Z" transform="translate(-95.995 -244.68)" opacity="0.4"/>
              </g>
              <g id="Group_649" data-name="Group 649" transform="translate(5.705)">
                <path id="Path_294" data-name="Path 294" d="M102.987,245.063c-.027.307,1.061.919,1.061.919l-.339-1.841Z" transform="translate(-102.986 -244.141)" fill="#f7d400"/>
                <path id="Path_295" data-name="Path 295" d="M102.987,245.063c-.027.307,1.061.919,1.061.919l-.339-1.841Z" transform="translate(-102.986 -244.141)" opacity="0.3"/>
              </g>
            </g>
            <g id="Group_652" data-name="Group 652" transform="translate(5.119 0.81)">
              <g id="Group_651" data-name="Group 651">
                <path id="Path_296" data-name="Path 296" d="M119.658,236.007a6.987,6.987,0,0,0-2.119-2.373,8.9,8.9,0,0,0-5.472-1.179A13.617,13.617,0,0,0,108.5,233a7.2,7.2,0,0,0-4.724,4.612,9.722,9.722,0,0,0,.99,8.167c.657,1.037,1.088,2.158,1.644,3.248.461.9.8,1.663.8,1.663l-.153-2.859,2.719-.244a10.588,10.588,0,0,1,2.374-.126,3.142,3.142,0,0,0,2.077-.657,33.128,33.128,0,0,0,3.676-2.72,10.4,10.4,0,0,0,1.986-2.106,5.467,5.467,0,0,0,.338-.579,3.443,3.443,0,0,0,.36-1.095,6.143,6.143,0,0,0,.077-1.627,7.887,7.887,0,0,0-.483-1.627A10.626,10.626,0,0,0,119.658,236.007Z" transform="translate(-102.457 -232.439)" fill="#263238"/>
                <path id="Path_297" data-name="Path 297" d="M112.392,239.413a14.767,14.767,0,0,1-1.834-.367l-.169-.044a4.119,4.119,0,0,1-3.032,2.74,10.272,10.272,0,0,1,.082,3.466,1.9,1.9,0,0,1-.261.694.846.846,0,0,1-.609.387c-.334.024-.472-.179-.576-.441a8.437,8.437,0,0,0-.508-.974,1.936,1.936,0,0,0-.3-.375,1.64,1.64,0,0,0-2.714.56,3.449,3.449,0,0,0,1.823,4.2c2.093.583,2.546-.84,2.546-.84l.4,7.465c1.134,1.187,5.444,2.817,6.681,4.221.556-.956,2.149-3.3.05-4.637l-.079-2.274a13.071,13.071,0,0,0,2.8.052c1.515-.285,2.266-1.572,2.675-3.236a38.268,38.268,0,0,0,.366-9.774,16.168,16.168,0,0,0-.312-2.142c.064.2-1.436.8-1.6.857a9.5,9.5,0,0,1-2.088.44,19.067,19.067,0,0,1-2.479.089A8.323,8.323,0,0,1,112.392,239.413Z" transform="translate(-102.268 -233.48)" fill="#ffa8a7"/>
              </g>
              <path id="Path_298" data-name="Path 298" d="M115.091,255.98a26.042,26.042,0,0,1-4.631-1.168,3.914,3.914,0,0,1-1.7-1.572,5.35,5.35,0,0,0,1,1.887c.9,1.083,5.357,1.575,5.357,1.575Z" transform="translate(-103.465 -236.27)" fill="#f28f8f"/>
            </g>
            <g id="Group_655" data-name="Group 655" transform="translate(6.782 7.798)">
              <path id="Path_299" data-name="Path 299" d="M114.446,245.607a.635.635,0,1,1-.656-.64A.645.645,0,0,1,114.446,245.607Z" transform="translate(-105.94 -241.734)" fill="#263238"/>
              <path id="Path_300" data-name="Path 300" d="M113.313,241.777l-1.593.487a.874.874,0,0,1,.572-1.065A.813.813,0,0,1,113.313,241.777Z" transform="translate(-105.666 -241.033)" fill="#263238"/>
              <g id="Group_653" data-name="Group 653" transform="translate(8.691 8.306)">
                <path id="Path_301" data-name="Path 301" d="M115.019,251.185l2.345.795a1.215,1.215,0,0,1-1.548.818A1.3,1.3,0,0,1,115.019,251.185Z" transform="translate(-114.959 -251.185)" fill="#b16668"/>
                <path id="Path_302" data-name="Path 302" d="M115.269,251.789a1.076,1.076,0,0,0-.3.046,1.275,1.275,0,0,0,.844,1.074,1.183,1.183,0,0,0,.527.051c0-.029.009-.057.009-.087A1.084,1.084,0,0,0,115.269,251.789Z" transform="translate(-114.962 -251.296)" fill="#f28f8f"/>
              </g>
              <path id="Path_303" data-name="Path 303" d="M122.687,242.1l-1.526-.579a.788.788,0,0,1,1.03-.466A.83.83,0,0,1,122.687,242.1Z" transform="translate(-107.411 -241.004)" fill="#263238"/>
              <path id="Path_304" data-name="Path 304" d="M109.651,243.091l-5.345,1.831a1.947,1.947,0,0,1,1.54.782l3.785-1.437Z" transform="translate(-104.306 -241.388)" fill="#37474f"/>
              <path id="Path_305" data-name="Path 305" d="M121.593,245.475a.639.639,0,1,1-.66-.645A.649.649,0,0,1,121.593,245.475Z" transform="translate(-107.255 -241.709)" fill="#263238"/>
              <g id="Group_654" data-name="Group 654" transform="translate(4.443 1.336)">
                <path id="Path_306" data-name="Path 306" d="M122.52,242.744c-.112-.013-.228-.026-.349-.037a10.142,10.142,0,0,0-3.494.179c-1.121.366-1.521.76-2.138.774-.66.009-1.07-.37-2.253-.693a11.515,11.515,0,0,0-3.731-.045c-.13.016-.255.033-.375.051a.63.63,0,0,0-.427.638,1.381,1.381,0,0,0,.345.728.88.88,0,0,1,.117.294,12.75,12.75,0,0,0,.419,2.018,2.473,2.473,0,0,0,.465.72,1.981,1.981,0,0,0,.24.21c.045.032.091.063.139.094a2.15,2.15,0,0,0,.415.195l.07.022.111.032c.038.01.076.018.116.027a2.845,2.845,0,0,0,.369.052c.051,0,.1.008.158.011s.13,0,.2,0a2.642,2.642,0,0,0,2.581-1.552c.4-.774.317-1.858,1.024-1.868a.591.591,0,0,1,.067,0,.485.485,0,0,1,.063.009c.52.115.437,1.11.754,1.822a2.806,2.806,0,0,0,.486.774c.038.041.076.081.117.118a.808.808,0,0,0,.063.056c.021.018.043.036.066.053s.039.031.06.046l.065.045.052.033a.383.383,0,0,0,.036.023,2.145,2.145,0,0,0,.605.238l.056.012a3.23,3.23,0,0,0,.746.063,2.249,2.249,0,0,0,2.19-1.446,13.414,13.414,0,0,0,.475-2.035.645.645,0,0,1,.135-.268,1.45,1.45,0,0,0,.337-.754C122.917,243.059,122.713,242.767,122.52,242.744Zm-7.408,3a2.388,2.388,0,0,1-.551,1.079h0a2.2,2.2,0,0,1-1.682.641,1.792,1.792,0,0,1-1.592-.751c-.017-.025-.034-.051-.049-.076s-.032-.05-.046-.075a.74.74,0,0,1-.038-.071c-.011-.02-.022-.042-.031-.064a.466.466,0,0,1-.024-.051.442.442,0,0,1-.02-.046c-.011-.025-.022-.051-.032-.077h0q-.044-.115-.076-.223l0-.006c-.013-.046-.026-.091-.038-.134-.02-.078-.035-.152-.048-.216l-.008-.041-.009-.04c-.109-.534-.229-1.587.038-1.829a3.009,3.009,0,0,1,2.109-.41c.038,0,.079,0,.122.01a4.85,4.85,0,0,1,.52.082c.068.014.135.03.2.047a4.467,4.467,0,0,1,.5.158q.081.031.154.064c.059.024.114.051.167.078l.033.018a.61.61,0,0,1,.06.033,1.016,1.016,0,0,1,.337.275A2.451,2.451,0,0,1,115.112,245.745Zm6.66-.35a2.415,2.415,0,0,1-1.109,1.739,2,2,0,0,1-.853.2,1.782,1.782,0,0,1-1.691-.773l0-.007c-.011-.017-.021-.033-.03-.049s-.024-.038-.033-.056l-.017-.03c-.015-.028-.029-.056-.042-.084s-.03-.064-.044-.1l-.02-.048-.01-.027-.015-.04c0-.011-.007-.022-.011-.032a2.876,2.876,0,0,1-.1-.4,2.639,2.639,0,0,1,.066-1.622,3.23,3.23,0,0,1,1.882-.828,4.9,4.9,0,0,1,.525-.049l.062,0h.067c.063,0,.123,0,.182,0l.066,0,.086.006c.049,0,.1.008.142.014.094.011.182.025.263.043l.062.015.015,0c.014,0,.028.006.042.011l.063.018c.025.007.051.016.075.024.044.016.085.031.123.048l.021.01a.956.956,0,0,1,.278.176C122.052,243.8,121.894,244.857,121.772,245.4Z" transform="translate(-109.752 -242.642)" fill="#263238"/>
              </g>
              <path id="Path_307" data-name="Path 307" d="M117.807,245.07l.122,4.443,2.479-.715-2.311-3.764A.644.644,0,0,0,117.807,245.07Z" transform="translate(-106.793 -241.746)" fill="#f28f8f"/>
            </g>
            <g id="Group_656" data-name="Group 656" transform="translate(5.191)">
              <path id="Path_308" data-name="Path 308" d="M102.366,240.174a9.215,9.215,0,0,0,.5,2.6,3.26,3.26,0,0,1,.628-.746,15.553,15.553,0,0,1,4.675-2.809h.007a18.439,18.439,0,0,1,12.31-.729,8.32,8.32,0,0,0-.542-2.214c-1.428-3.495-4.2-5.283-8.554-4.737C106.285,232.184,102.123,235.116,102.366,240.174Z" transform="translate(-102.356 -231.446)" fill="#f7d400"/>
              <path id="Path_309" data-name="Path 309" d="M113.775,237.2a13.416,13.416,0,0,1,5.1-.465,5.454,5.454,0,0,0,1.04-1.2c.4-.667.241-1.493-.151-1.654s-.408.351-1.9,1.13a2.491,2.491,0,0,0,.091-1.525c-.258-.607-.753.5-1.859,1.234S113.888,235.844,113.775,237.2Z" transform="translate(-104.459 -231.791)" fill="#263238"/>
            </g>
          </g>
          <g id="Group_658" data-name="Group 658" transform="translate(13.277 20.389)">
            <path id="Path_310" data-name="Path 310" d="M114.418,263.48c-.851-.515-2.627-1.406-3.55-.414s-1.42,1.267-2.035,1.088a11.844,11.844,0,0,1-3.25-3.287c-.784-1.247-.621-1.75-.621-1.75s1-1.316,1.523-2.009c.427-.562.563-.629,1.1-.67l.077,1.489a2.789,2.789,0,0,0,1.149,1.827C110.317,260.813,113.307,261.092,114.418,263.48Z" transform="translate(-104.947 -256.439)" fill="#455a64"/>
            <path id="Path_311" data-name="Path 311" d="M116.556,263.714c.5-.463,1.592-1.614,2.418-1.383s1.188.731,1.21.289a8.863,8.863,0,0,0-1.348-2.962,5.119,5.119,0,0,0-2.28-1.95l.05,1.369s.979,1.241.87,1.987S116.656,262.989,116.556,263.714Z" transform="translate(-107.085 -256.673)" fill="#455a64"/>
          </g>
          <g id="Arm-2" data-name="Arm" transform="translate(0 24.177)">
            <g id="Group_660" data-name="Group 660" transform="translate(19.315 15.092)">
              <path id="Path_312" data-name="Path 312" d="M137.057,280.668,119.349,283.7l-7,21.028,16.875-3.329Z" transform="translate(-112.348 -279.781)" fill="#263238"/>
              <path id="Path_313" data-name="Path 313" d="M122.433,299.789a4.056,4.056,0,0,1-2.924,2.872,8.926,8.926,0,0,1-4.72-.388l.585-1.759Z" transform="translate(-112.798 -283.303)" opacity="0.15"/>
              <path id="Path_314" data-name="Path 314" d="M134.387,283.708l.2-.648c.111-.358-.9-.463-2.266-.235l-2.608.436c-1.362.228-2.557.7-2.668,1.061l-.2.648Z" transform="translate(-115.018 -280.156)" opacity="0.15"/>
              <g id="Group_659" data-name="Group 659" transform="translate(11.534)">
                <path id="Path_315" data-name="Path 315" d="M135.74,280.748c.07-.223-.336-.32-.907-.215l-1.034.19s.427-1.4-1.858-1.1a3.525,3.525,0,0,0-2.917,1.88l-1.105.211a2.034,2.034,0,0,0-1.269.61l-.163.4,9.122-1.561S135.67,280.97,135.74,280.748Z" transform="translate(-126.486 -279.581)" fill="#f7d400"/>
                <path id="Path_316" data-name="Path 316" d="M135.74,280.748c.07-.223-.336-.32-.907-.215l-1.034.19s.427-1.4-1.858-1.1a3.525,3.525,0,0,0-2.917,1.88l-1.105.211a2.034,2.034,0,0,0-1.269.61l-.163.4,9.122-1.561S135.67,280.97,135.74,280.748Z" transform="translate(-126.486 -279.581)" opacity="0.3"/>
                <path id="Path_317" data-name="Path 317" d="M127.173,284.162c.092-.3.936-.674,2-.923.011-.038.022-.075.031-.1.089-.312-.029-.514-.671-.4l-.031-.256,6.322-1.03-.284.25c-.835.125-1.183.2-1.355.755-.014.046-.024.082-.037.126.99-.09,1.657.03,1.566.322l-.2.648-7.541,1.263Z" transform="translate(-126.575 -279.924)" fill="#f7d400"/>
                <path id="Path_318" data-name="Path 318" d="M127.173,284.162c.092-.3.936-.674,2-.923.011-.038.022-.075.031-.1.089-.312-.029-.514-.671-.4l-.031-.256,6.322-1.03-.284.25c-.835.125-1.183.2-1.355.755-.014.046-.024.082-.037.126.99-.09,1.657.03,1.566.322l-.2.648-7.541,1.263Z" transform="translate(-126.575 -279.924)" opacity="0.4"/>
              </g>
            </g>
            <path id="Path_319" data-name="Path 319" d="M111.853,289.523c2.141.774,4.548.577,6.788.649.216.007.478.043.562.243a.472.472,0,0,1-.2.507,2.062,2.062,0,0,0-.439.378c-.17.253-.106.59-.156.891a2.317,2.317,0,0,1-.7,1.128,5.364,5.364,0,0,1-1.132,1.009,7.845,7.845,0,0,1-5.043.595,16.934,16.934,0,0,1-3.081-.99c-.941-.373-6.681-2.212-7.363-2.468-5.061-1.9-12.028-4.249-12.384-6.677s1.738-10.4,2.8-16.525c1.008-5.818,3.172-6.516,6.45-7.12a10.935,10.935,0,0,1,.8,11.331l-2.128,9.452a110.22,110.22,0,0,0,10.211,5.855,4.07,4.07,0,0,0,2.027-.167,8.8,8.8,0,0,1,3.712-.289" transform="translate(-88.672 -261.093)" fill="#ffa8a7"/>
            <path id="Path_320" data-name="Path 320" d="M98.408,261.082c-3.475.394-5.064,1.242-5.942,4.011-.871,2.745-2.149,9.362-2.149,9.362,2.255,2.085,5.31,2.491,7.877,2.5l1.145-4.626C100.232,270.477,101.786,265.136,98.408,261.082Z" transform="translate(-88.975 -261.082)" fill="#455a64"/>
          </g>
        </g>
      </g>
    </g>
  </g>
</svg>
