<svg xmlns="http://www.w3.org/2000/svg" width="18.613" height="18.614" viewBox="0 0 18.613 18.614">
  <g id="link_2_" data-name="link (2)" transform="translate(-0.498)">
    <path id="Path_339" data-name="Path 339" d="M240,1.842l-.759-.759a3.706,3.706,0,0,0-5.237,0l-2.08,2.08a3.71,3.71,0,0,0-.167,5.057l.013.015L232.906,7.1l-.01-.013a2.1,2.1,0,0,1,.161-2.794l2.08-2.08a2.111,2.111,0,0,1,2.975,0l.759.759a2.1,2.1,0,0,1,0,2.975l-2.079,2.08A2.1,2.1,0,0,1,234,8.189l-.013-.01L232.85,9.312l.015.013a3.709,3.709,0,0,0,5.057-.167L240,7.079A3.707,3.707,0,0,0,240,1.842Zm0,0" transform="translate(-221.972)" fill="#f8ca1c"/>
    <path id="Path_340" data-name="Path 340" d="M9.827,232.36l-.013-.015L8.68,233.479l.01.013a2.1,2.1,0,0,1-.161,2.794l-2.08,2.08a2.11,2.11,0,0,1-2.975,0l-.759-.759a2.106,2.106,0,0,1,0-2.975l2.08-2.08a2.1,2.1,0,0,1,2.794-.161l.013.01,1.134-1.134-.015-.013a3.709,3.709,0,0,0-5.057.167l-2.08,2.08a3.707,3.707,0,0,0,0,5.237l.759.759a3.707,3.707,0,0,0,5.237,0l2.08-2.08A3.71,3.71,0,0,0,9.827,232.36Zm0,0" transform="translate(-0.003 -221.966)" fill="#f8ca1c"/>
    <g id="Group_117" data-name="Group 117" transform="translate(0.499 0.001)">
      <path id="Path_341" data-name="Path 341" d="M179.2,173.125a.8.8,0,0,0-1.131,0l-4.444,4.444a.8.8,0,0,0,1.131,1.131l4.444-4.444A.8.8,0,0,0,179.2,173.125Zm0,0" transform="translate(-167.101 -166.606)" fill="#f8ca1c"/>
      <path id="Path_342" data-name="Path 342" d="M287.535,226.4a.426.426,0,0,1-.071-.651l.4-.419a2.1,2.1,0,0,1-.725-.373l-.013-.01L286,226.083l.015.013a3.7,3.7,0,0,0,3,.872A3.681,3.681,0,0,1,287.535,226.4Zm0,0" transform="translate(-275.617 -216.772)" fill="#e4e7e7"/>
      <path id="Path_343" data-name="Path 343" d="M233.047,3.176l2.08-2.08a3.682,3.682,0,0,1,2.058-1.04,3.7,3.7,0,0,0-3.179,1.04l-2.08,2.08a3.71,3.71,0,0,0-.167,5.057l.013.015.657-.657A3.713,3.713,0,0,1,233.047,3.176Zm0,0" transform="translate(-222.471 -0.014)" fill="#e4e7e7"/>
      <path id="Path_344" data-name="Path 344" d="M3.462,239.5l-.759-.759a3.707,3.707,0,0,1,0-5.237l2.08-2.08a3.684,3.684,0,0,1,2.062-1.039,3.706,3.706,0,0,0-3.183,1.039l-2.08,2.08a3.707,3.707,0,0,0,0,5.237l.759.759a3.7,3.7,0,0,0,3.179,1.04A3.683,3.683,0,0,1,3.462,239.5Zm0,0" transform="translate(-0.499 -221.972)" fill="#e4e7e7"/>
    </g>
    <path id="Path_345" data-name="Path 345" d="M174.742,178.7a.8.8,0,0,1,0-1.131l4.444-4.444,0,0a.8.8,0,0,0-1.126,0l-4.444,4.444a.8.8,0,0,0,1.126,1.135Zm0,0" transform="translate(-166.603 -166.608)" fill="#e4e7e7"/>
  </g>
</svg>
