<svg id="mail-black-envelope-symbol_1_" data-name="mail-black-envelope-symbol (1)" xmlns="http://www.w3.org/2000/svg" width="24.721" height="18.54" viewBox="0 0 24.721 18.54">
  <path id="Path_297" data-name="Path 297" d="M24.72,76.1a3.063,3.063,0,0,1-.4,1.486l-7.805-8.733L24.239,62.1a3.067,3.067,0,0,1,.481,1.641V76.1ZM12.36,70.44,23.1,61.04a3.052,3.052,0,0,0-1.473-.389H3.09a3.041,3.041,0,0,0-1.472.389Zm3-.569-2.487,2.177a.775.775,0,0,1-1.017,0L9.364,69.871l-7.9,8.845a3.053,3.053,0,0,0,1.629.475H21.63a3.053,3.053,0,0,0,1.629-.475ZM.481,62.1A3.068,3.068,0,0,0,0,63.741V76.1a3.053,3.053,0,0,0,.4,1.486l7.8-8.734Z" transform="translate(0 -60.651)" fill="#f8be1c"/>
</svg>
