<svg id="old-typical-phone_1_" data-name="old-typical-phone (1)" xmlns="http://www.w3.org/2000/svg" width="22.286" height="18.348" viewBox="0 0 22.286 18.348">
  <g id="Group_97" data-name="Group 97" transform="translate(0 0)">
    <path id="Path_298" data-name="Path 298" d="M11.3,7.894c3.755.037,6.108-.2,6.425,3.965H22.3c0-6.448-5.623-7.317-11.124-7.317S.052,5.411.052,11.859H4.6C4.947,7.618,7.571,7.857,11.3,7.894Z" transform="translate(-0.029 -4.542)" fill="#f8be1c"/>
    <path id="Path_299" data-name="Path 299" d="M2.294,24.186c1.115,0,2.043.067,2.25-1.03a2.8,2.8,0,0,0,.044-.514H0C0,24.274,1.027,24.186,2.294,24.186Z" transform="translate(0 -14.796)" fill="#f8be1c"/>
    <path id="Path_300" data-name="Path 300" d="M40.824,22.642h-.043a2.45,2.45,0,0,0,.049.514c.218,1.012,1.144.949,2.256.949,1.273,0,2.3.084,2.3-1.463Z" transform="translate(-23.103 -14.796)" fill="#f8be1c"/>
    <path id="Path_301" data-name="Path 301" d="M17.588,18.828v-.648c0-.29-.334-.308-.747-.308h-.674c-.412,0-.746.018-.746.308v.992H10.652v-.992c0-.29-.334-.308-.746-.308H9.231c-.412,0-.746.018-.746.308v1.215a48.056,48.056,0,0,0-4.77,6.516l0,3.882a.651.651,0,0,0,.65.65H21.706a.651.651,0,0,0,.65-.65v-3.9a48.914,48.914,0,0,0-4.768-6.5Zm-7.171,7.6a.632.632,0,1,1,.632-.632A.632.632,0,0,1,10.417,26.432Zm0-2.167a.632.632,0,1,1,.632-.632A.632.632,0,0,1,10.417,24.264Zm0-2.167a.632.632,0,1,1,.632-.632A.632.632,0,0,1,10.417,22.1Zm2.6,4.334a.632.632,0,1,1,.632-.632A.632.632,0,0,1,13.018,26.432Zm0-2.167a.632.632,0,1,1,.632-.632A.632.632,0,0,1,13.018,24.264Zm0-2.167a.632.632,0,1,1,.632-.632A.632.632,0,0,1,13.018,22.1Zm2.6,4.334a.632.632,0,1,1,.632-.632A.632.632,0,0,1,15.619,26.432Zm0-2.167a.632.632,0,1,1,.632-.632A.632.632,0,0,1,15.619,24.264Zm0-2.167a.632.632,0,1,1,.632-.632A.632.632,0,0,1,15.619,22.1Z" transform="translate(-2.105 -12.093)" fill="#f8be1c"/>
  </g>
</svg>
