<svg xmlns="http://www.w3.org/2000/svg" xmlns:xlink="http://www.w3.org/1999/xlink" width="303.452" height="207.168" viewBox="0 0 303.452 207.168">
  <defs>
    <linearGradient id="linear-gradient" x1="0.499" y1="0.081" x2="0.501" y2="1.303" gradientUnits="objectBoundingBox">
      <stop offset="0.235" stop-color="#9c9c9c"/>
      <stop offset="1" stop-color="#fff" stop-opacity="0"/>
    </linearGradient>
    <radialGradient id="radial-gradient" cx="0.5" cy="0.5" r="6.27" gradientTransform="translate(0.458 0.456) scale(0.084 0.088)" gradientUnits="objectBoundingBox">
      <stop offset="0.408" stop-color="#9c9c9c"/>
      <stop offset="1" stop-color="#fff" stop-opacity="0"/>
    </radialGradient>
    <radialGradient id="radial-gradient-2" cx="0.5" cy="0.5" r="6.034" gradientTransform="translate(0.458 0.464) scale(0.084 0.071)" xlink:href="#radial-gradient"/>
  </defs>
  <g id="Group_599" data-name="Group 599" transform="translate(-132.551 -101.389)">
    <g id="Group_471" data-name="Group 471" transform="translate(135.183 117.527)">
      <g id="Group_470" data-name="Group 470" transform="translate(2.423)">
        <path id="Path_5595" data-name="Path 5595" d="M223.638,311.089h188.11a160.4,160.4,0,0,0,20.36-99.55c-1.427-11.478-4.2-23.029-10.351-32.826s-16.075-17.685-27.533-19.261c-14.733-2.026-28.628,6.245-42.724,10.984-21.062,7.081-44.294,6.314-65.649.173-23.352-6.714-45.644-19.763-69.929-18.956-22.091.735-42.814,13.512-55.875,31.345S141.078,223.2,140.5,245.3s3.9,44.044,10.023,65.282Z" transform="translate(-140.452 -135.622)" fill="#d6edf1"/>
        <path id="Path_5596" data-name="Path 5596" d="M191.034,148.289c6.8-4.389,14.454-7.66,22.5-8.572,2.689-.3,5.848-.6,7.248-2.913,1.166-1.928.464-4.563-1.1-6.185a12.1,12.1,0,0,0-5.975-2.958c-11.1-2.728-23.1.079-32.835,6.058a34.82,34.82,0,0,0-9.584,8.265,20.23,20.23,0,0,0-4.4,11.717,12.214,12.214,0,0,0,1.486,6.373c.933,1.605,2.667,3.718,4.691,2.934,2-.774,4-3.614,5.58-5.046A96.825,96.825,0,0,1,191.034,148.289Z" transform="translate(-149.977 -126.615)" fill="#d6edf1"/>
      </g>
      <line id="Line_38" data-name="Line 38" x2="292.374" transform="translate(0 175.299)" fill="none" stroke="#1c484f" stroke-miterlimit="10" stroke-width="1"/>
    </g>
    <g id="Group_483" data-name="Group 483" transform="translate(132.551 225.491)">
      <path id="Path_5597" data-name="Path 5597" d="M201.885,398.792l-27.492,16.415H132.551l31.381-17.782Z" transform="translate(-132.551 -332.141)" opacity="0.5" fill="url(#linear-gradient)" style="mix-blend-mode: multiply;isolation: isolate"/>
      <g id="Group_482" data-name="Group 482" transform="translate(22.068)">
        <g id="Group_476" data-name="Group 476" transform="translate(0 27.95)">
          <path id="Path_5598" data-name="Path 5598" d="M214.312,339.067v3.165H167.046l7.667-2.585,1.714-.579Z" transform="translate(-167.046 -339.067)" fill="#c7762f"/>
          <g id="Group_474" data-name="Group 474" transform="translate(0 3.164)">
            <rect id="Rectangle_174" data-name="Rectangle 174" width="41.045" height="39.137" transform="translate(0 0)" fill="#f5ad49"/>
            <g id="Group_473" data-name="Group 473" transform="translate(1.854 30.185)">
              <g id="Group_472" data-name="Group 472">
                <rect id="Rectangle_175" data-name="Rectangle 175" width="17.249" height="2.402" transform="translate(0 2.784)" fill="#c7762f"/>
                <rect id="Rectangle_176" data-name="Rectangle 176" width="11.572" height="1.747" fill="#c7762f"/>
              </g>
            </g>
            <path id="Path_5599" data-name="Path 5599" d="M222.722,351.077a3.139,3.139,0,1,1-3.139-3.139A3.139,3.139,0,0,1,222.722,351.077Z" transform="translate(-184.843 -345.427)" fill="#c7762f"/>
            <rect id="Rectangle_177" data-name="Rectangle 177" width="1.854" height="39.137" transform="translate(1.854 39.137) rotate(180)" fill="#f5ad49" opacity="0.5" style="mix-blend-mode: screen;isolation: isolate"/>
          </g>
          <g id="Group_475" data-name="Group 475" transform="translate(41.046 0)">
            <path id="Path_5600" data-name="Path 5600" d="M237.427,339.067v38.7l-6.221,3.6V342.232l1.662-.843Z" transform="translate(-231.206 -339.067)" fill="#e38c3b"/>
            <path id="Path_5601" data-name="Path 5601" d="M237.427,371.818v7.257l-6.221,3.6V343.54l1.662-.843a126.625,126.625,0,0,0,.777,17.824,28.089,28.089,0,0,0,1.879,8.175A13.319,13.319,0,0,0,237.427,371.818Z" transform="translate(-231.206 -340.375)" fill="#e38c3b" opacity="0.5" style="mix-blend-mode: multiply;isolation: isolate"/>
          </g>
          <path id="Path_5602" data-name="Path 5602" d="M218.63,339.067v.438a161.642,161.642,0,0,1-39.6.141l1.714-.58Z" transform="translate(-171.363 -339.067)" fill="#c7762f" opacity="0.5" style="mix-blend-mode: multiply;isolation: isolate"/>
        </g>
        <g id="Group_481" data-name="Group 481" transform="translate(6.221)">
          <path id="Path_5603" data-name="Path 5603" d="M211.595,295.377v2.332H176.77l5.649-1.9,1.263-.427Z" transform="translate(-176.77 -295.377)" fill="#c7762f"/>
          <g id="Group_479" data-name="Group 479" transform="translate(0 2.331)">
            <rect id="Rectangle_178" data-name="Rectangle 178" width="30.241" height="28.835" transform="translate(0)" fill="#f5ad49"/>
            <g id="Group_478" data-name="Group 478" transform="translate(1.366 22.24)">
              <g id="Group_477" data-name="Group 477">
                <rect id="Rectangle_179" data-name="Rectangle 179" width="12.708" height="1.77" transform="translate(0 2.051)" fill="#c7762f"/>
                <rect id="Rectangle_180" data-name="Rectangle 180" width="8.526" height="1.287" fill="#c7762f"/>
              </g>
            </g>
            <path id="Path_5604" data-name="Path 5604" d="M217.791,304.226a2.312,2.312,0,1,1-2.313-2.313A2.312,2.312,0,0,1,217.791,304.226Z" transform="translate(-189.882 -300.063)" fill="#c7762f"/>
            <rect id="Rectangle_181" data-name="Rectangle 181" width="1.366" height="28.835" transform="translate(1.366 28.835) rotate(180)" fill="#f5ad49" opacity="0.5" style="mix-blend-mode: screen;isolation: isolate"/>
          </g>
          <g id="Group_480" data-name="Group 480" transform="translate(30.241 0)">
            <path id="Path_5605" data-name="Path 5605" d="M228.625,295.377v28.513l-4.583,2.654V297.709l1.225-.621Z" transform="translate(-224.041 -295.377)" fill="#e38c3b"/>
            <path id="Path_5606" data-name="Path 5606" d="M228.625,319.507v5.347l-4.584,2.654V298.672l1.225-.621a93.23,93.23,0,0,0,.573,13.133,20.683,20.683,0,0,0,1.384,6.023A9.811,9.811,0,0,0,228.625,319.507Z" transform="translate(-224.041 -296.341)" fill="#e38c3b" opacity="0.5" style="mix-blend-mode: multiply;isolation: isolate"/>
          </g>
          <path id="Path_5607" data-name="Path 5607" d="M214.776,295.377v.323a119.083,119.083,0,0,1-29.177.1l1.264-.427Z" transform="translate(-179.951 -295.377)" fill="#c7762f" opacity="0.5" style="mix-blend-mode: multiply;isolation: isolate"/>
        </g>
      </g>
    </g>
    <g id="Group_496" data-name="Group 496" transform="translate(369.441 172.309)">
      <g id="Group_485" data-name="Group 485" transform="translate(5.579 29.07)">
        <g id="Group_484" data-name="Group 484">
          <path id="Path_5608" data-name="Path 5608" d="M511.565,257.688a82.706,82.706,0,0,1,6.48,7.752,93.945,93.945,0,0,1,5.518,8.483,115.016,115.016,0,0,1,8.426,18.4,167.336,167.336,0,0,1,5.546,19.47q1.1,4.939,2,9.918c.59,3.32,1.129,6.647,1.637,9.977l-.93.147c-.544-3.319-1.118-6.632-1.744-9.933s-1.27-6.6-2-9.876a174.306,174.306,0,0,0-5.392-19.389,118.052,118.052,0,0,0-8.057-18.421,94.277,94.277,0,0,0-5.28-8.573A82.537,82.537,0,0,0,511.565,257.688Z" transform="translate(-511.565 -257.688)" fill="#1c2540"/>
        </g>
      </g>
      <g id="Group_487" data-name="Group 487" transform="translate(24.266 5.738)">
        <g id="Group_486" data-name="Group 486">
          <path id="Path_5609" data-name="Path 5609" d="M540.775,221.217a238.923,238.923,0,0,1,8.565,22.86c.587,1.95,1.121,3.916,1.586,5.9.244.99.449,1.988.659,2.985.193,1,.358,2.006.539,3.009a112.906,112.906,0,0,1,1.327,12.151c.482,8.139.314,16.292.279,24.425-.012,4.067.007,8.132.15,12.19.161,4.057.456,8.1.946,12.127l-.935.115c-.456-4.062-.713-8.139-.835-12.215-.1-4.077-.084-8.152-.033-12.223.114-8.139.36-16.274-.043-24.393a112.445,112.445,0,0,0-1.205-12.119c-.17-1-.326-2-.507-3-.2-1-.4-1.992-.629-2.981-.445-1.982-.958-3.949-1.526-5.9A238.713,238.713,0,0,0,540.775,221.217Z" transform="translate(-540.775 -221.217)" fill="#1c2540"/>
        </g>
      </g>
      <g id="Group_489" data-name="Group 489" transform="translate(39.665 30.581)">
        <g id="Group_488" data-name="Group 488">
          <path id="Path_5610" data-name="Path 5610" d="M587.681,260.049a101,101,0,0,0-21.7,70.029l-.939.065A101.462,101.462,0,0,1,587.681,260.049Z" transform="translate(-564.846 -260.049)" fill="#1c2540"/>
        </g>
      </g>
      <g id="Group_491" data-name="Group 491" transform="translate(21.716 96.889)">
        <g id="Group_490" data-name="Group 490">
          <path id="Path_5611" data-name="Path 5611" d="M559.812,391.079H543.929a2.911,2.911,0,0,1-2.9-2.637l-1.789-18.858H564.5l-1.789,18.858A2.912,2.912,0,0,1,559.812,391.079Z" transform="translate(-537.672 -365.819)" fill="#ff4846"/>
          <path id="Path_5612" data-name="Path 5612" d="M563.971,375.169l.53-5.584h-25.26l.53,5.584Z" transform="translate(-537.672 -365.819)" fill="#871a1a" opacity="0.5" style="mix-blend-mode: multiply;isolation: isolate"/>
          <rect id="Rectangle_182" data-name="Rectangle 182" width="28.398" height="5.177" fill="#ff4846"/>
        </g>
      </g>
      <g id="Group_493" data-name="Group 493" transform="translate(38.904 27.761)">
        <g id="Group_492" data-name="Group 492">
          <path id="Path_5613" data-name="Path 5613" d="M590.54,262.594a20.081,20.081,0,0,1-3.607,4.172c-.646.65-1.267,1.328-1.86,2.025a38.036,38.036,0,0,0-5.769,9.126,37.362,37.362,0,0,0-2.462,7.53c-.043.207-.085.41-.127.617-.692,3.527-.956,7.148-2,10.591a21.61,21.61,0,0,1-1.229,3.056c-1.313,2.689-3.428,5.642-5.844,5.01a3.017,3.017,0,0,1-.914-.4,5.019,5.019,0,0,1-1.516-1.535c-1.455-2.237-1.7-5.708-1.5-8.335.038-.518.094-1,.16-1.432a38.882,38.882,0,0,1,2.633-8.59c.476-1.187.971-2.373,1.432-3.565.862-2.223,1.639-4.483,2.467-6.721a63.4,63.4,0,0,1,2.91-6.866,30.6,30.6,0,0,1,3.137-4.973,19.7,19.7,0,0,1,6.607-5.6,8.657,8.657,0,0,1,3.946-1.06,4.514,4.514,0,0,1,3.593,1.7A5.031,5.031,0,0,1,590.54,262.594Z" transform="translate(-563.656 -255.642)" fill="#80d4a9"/>
        </g>
        <path id="Path_5614" data-name="Path 5614" d="M590.54,262.594a20.081,20.081,0,0,1-3.607,4.172c-.646.65-1.267,1.328-1.86,2.025-.509.25-1.013.513-1.507.8-1.921,1.116-3.734,2.736-4.238,4.9a10.106,10.106,0,0,0-.024,3.428,37.362,37.362,0,0,0-2.462,7.53c-.043.207-.085.41-.127.617-1.464,1.686-3.1,3.31-3.735,5.406a11.16,11.16,0,0,0-.037,5.114c.179,1.041.405,2.082.546,3.127-1.313,2.689-3.428,5.642-5.844,5.01a3.017,3.017,0,0,1-.914-.4,5.019,5.019,0,0,1-1.516-1.535c-1.455-2.237-1.7-5.708-1.5-8.335,1.041-1.121,2.35-2.044,3.028-3.41,1.017-2.039.363-4.314-.235-6.612.476-1.187.971-2.373,1.432-3.565.862-2.223,1.639-4.483,2.467-6.721,1.747-1.182,3.556-2.354,4.563-4.135,1.121-2,1.031-4.417,1.324-6.687.042-.339.1-.678.16-1.017a19.7,19.7,0,0,1,6.607-5.6,8.657,8.657,0,0,1,3.946-1.06,4.514,4.514,0,0,1,3.593,1.7A5.031,5.031,0,0,1,590.54,262.594Z" transform="translate(-563.656 -255.642)" fill="#80d4a9" opacity="0.19" style="mix-blend-mode: screen;isolation: isolate"/>
      </g>
      <g id="Group_494" data-name="Group 494" transform="translate(19.479)">
        <path id="Path_5615" data-name="Path 5615" d="M555.541,257.076a77.02,77.02,0,0,0,.438,8.265c.028.523.052,1.045.052,1.568v.005a15,15,0,0,1-1.2,6.541c-1.2,2.548-4.714,6.085-7.389,3.546a9.163,9.163,0,0,1-2.218-3.451,19.032,19.032,0,0,1-1.022-7.205c.1-3.137.64-6.287.6-9.409a19.536,19.536,0,0,0-.217-2.816,18.879,18.879,0,0,0-.772-3.117c-1.86-5.5-5.953-10.242-8.288-15.667a26.627,26.627,0,0,1-1.271-3.654,27.952,27.952,0,0,1-.551-12.056c.1-.556.212-1.107.344-1.653.579-2.4,1.879-5.062,4.233-5.618a2.583,2.583,0,0,1,.278-.056c2.6-.415,4.78,1.907,6.254,4.092a85.838,85.838,0,0,1,4.681,7.93c.64,1.191,1.262,2.388,1.884,3.584a57.321,57.321,0,0,1,4.945,11.561l0,0a22.211,22.211,0,0,1,.787,6.131v.132C557.006,249.55,555.739,253.261,555.541,257.076Z" transform="translate(-533.292 -212.247)" fill="#80d4a9"/>
        <path id="Path_5616" data-name="Path 5616" d="M555.706,265.693q.169.6.325,1.215v.005a15,15,0,0,1-1.2,6.541c-1.2,2.548-4.714,6.085-7.389,3.546a9.163,9.163,0,0,1-2.218-3.451,3.177,3.177,0,0,0,1.912-.848,5.366,5.366,0,0,0,1.488-3.391c.457-4.346-2.3-8.226-3.824-12.376a19.536,19.536,0,0,0-.217-2.816,18.879,18.879,0,0,0-.772-3.117c.061-4.05,1.064-8.255-1-11.655-2-3.3-6.259-4.6-8.561-7.666a27.952,27.952,0,0,1-.551-12.056q.142-.424.3-.834a16.438,16.438,0,0,1,2.585-4.884,8.445,8.445,0,0,1,1.7-1.554,2.583,2.583,0,0,1,.278-.056c2.6-.415,4.78,1.907,6.254,4.092a85.838,85.838,0,0,1,4.681,7.93c.014.513.024,1.027.043,1.535.1,3.155.48,6.48,2.35,9.023a45.561,45.561,0,0,0,3.814,3.871c.217.226.424.466.622.716l0,0a22.211,22.211,0,0,1,.787,6.131c-.335.65-.744,1.276-1.107,1.907a17.18,17.18,0,0,0-2.228,9.838A43.836,43.836,0,0,0,555.706,265.693Z" transform="translate(-533.292 -212.247)" fill="#80d4a9" opacity="0.19" style="mix-blend-mode: screen;isolation: isolate"/>
      </g>
      <g id="Group_495" data-name="Group 495" transform="translate(0 22.681)">
        <path id="Path_5617" data-name="Path 5617" d="M536.128,293.522q-.021.389-.056.777c-.193,2.138-.645,7.139-3.4,7.63-1.949.344-4.785-3.08-6.339-4.158-.871-.6-1.766-1.206-2.618-1.851a14.131,14.131,0,0,1-3.56-3.612,12.587,12.587,0,0,1-1.652-4.337c-.5-2.439-.589-5.044-1.046-7.5a24.832,24.832,0,0,0-.824-3.231,37.887,37.887,0,0,0-5.877-10.732h-.005c-1.224-1.644-2.529-3.231-3.857-4.771-.461-.532-.928-1.083-1.379-1.653-1.563-1.987-2.882-4.191-2.642-6.635.315-3.164,3.433-5.589,6.612-5.736a10.659,10.659,0,0,1,8.293,4.018,16.408,16.408,0,0,1,1.582,2.2,30.421,30.421,0,0,1,2.722,6.249c.509,1.54.965,3.1,1.474,4.639a36.689,36.689,0,0,0,1.7,4.351,34.15,34.15,0,0,0,2.388,4.125c1.808,2.736,3.856,5.335,5.477,8.157a25.186,25.186,0,0,1,1.615,3.3A20.815,20.815,0,0,1,536.128,293.522Z" transform="translate(-502.844 -247.701)" fill="#80d4a9"/>
        <path id="Path_5618" data-name="Path 5618" d="M537.632,297.027q-.021.389-.056.777c-.193,2.138-.645,7.139-3.4,7.63-1.949.344-4.785-3.08-6.339-4.158-.871-.6-1.766-1.206-2.618-1.851.33-1.625.631-3.348-.132-4.79-.946-1.794-3.094-2.4-5.081-3.16-.5-2.439-.589-5.044-1.046-7.5a24.837,24.837,0,0,0-.824-3.231,19.5,19.5,0,0,0,1.441-3.367c.7-2.359.4-5.293-1.611-6.715-1.469-1.041-3.437-1-5.218-.73-.16.023-.325.052-.489.08h-.005c-1.224-1.643-2.529-3.231-3.857-4.771-.461-.532-.928-1.083-1.379-1.653a30.906,30.906,0,0,1,8.08-4.582,30.241,30.241,0,0,1,5.52-1.531l.244-.042a30.416,30.416,0,0,1,2.722,6.249c.509,1.54.965,3.1,1.474,4.639a14.967,14.967,0,0,0-.6,1.6c-.622,2.039-.457,4.582,1.234,5.877a6.1,6.1,0,0,0,3.457,1c1.808,2.736,3.856,5.335,5.477,8.157-.514,1.149-1.13,2.256-1.592,3.428-.688,1.761-.975,3.861.023,5.463C534.039,295.416,535.98,296.1,537.632,297.027Z" transform="translate(-504.348 -251.207)" fill="#80d4a9" opacity="0.19" style="mix-blend-mode: screen;isolation: isolate"/>
      </g>
    </g>
    <g id="Group_511" data-name="Group 511" transform="translate(133.359 101.389)">
      <g id="Group_509" data-name="Group 509" transform="translate(0)">
        <g id="Group_499" data-name="Group 499" transform="translate(52.56 45.23)">
          <g id="Group_497" data-name="Group 497" transform="translate(3.359 3.265)">
            <path id="Path_5619" data-name="Path 5619" d="M225.742,187.915v1.45h-1.295v-1.411a6.136,6.136,0,0,1-3.224-1.036l.712-1.579a5.235,5.235,0,0,0,2.512.919V184.1c-1.437-.35-3.043-.829-3.043-2.681,0-1.372,1-2.551,3.043-2.783v-1.437h1.295V178.6a5.856,5.856,0,0,1,2.628.79l-.647,1.593a5.29,5.29,0,0,0-1.981-.674v2.2c1.438.337,3.017.816,3.017,2.641C228.759,186.5,227.775,187.669,225.742,187.915Zm-1.295-5.723v-1.839c-.686.155-.958.531-.958.958C223.489,181.764,223.877,182.011,224.447,182.192Zm2.227,3.12c0-.452-.376-.7-.932-.892v1.786C226.39,186.063,226.674,185.726,226.674,185.312Z" transform="translate(-221.223 -177.194)" fill="#fff"/>
          </g>
          <g id="Group_498" data-name="Group 498">
            <path id="Path_5620" data-name="Path 5620" d="M218.192,177.358v.713h-.636v-.693a3.014,3.014,0,0,1-1.584-.509l.35-.776a2.566,2.566,0,0,0,1.234.452v-1.062c-.706-.172-1.5-.408-1.5-1.317,0-.674.49-1.253,1.5-1.368v-.706h.636v.693a2.881,2.881,0,0,1,1.292.388l-.318.782a2.606,2.606,0,0,0-.974-.331V174.7c.706.166,1.482.4,1.482,1.3C219.674,176.664,219.191,177.237,218.192,177.358Zm-.636-2.812v-.9c-.337.076-.471.26-.471.471S217.276,174.456,217.556,174.546Zm1.094,1.533c0-.223-.184-.344-.458-.439v.878C218.51,176.448,218.65,176.282,218.65,176.079Z" transform="translate(-215.972 -172.09)" fill="#fff"/>
          </g>
        </g>
        <g id="Group_500" data-name="Group 500" transform="translate(116.296 12.86)">
          <path id="Path_5621" data-name="Path 5621" d="M329.485,128.433c0,2.871-3.893,8.816-5.848,11.621a1.332,1.332,0,0,1-2.187,0c-1.955-2.8-5.849-8.75-5.849-11.621a6.942,6.942,0,0,1,13.884,0Z" transform="translate(-315.601 -121.491)" fill="#d6edf1"/>
          <path id="Path_5622" data-name="Path 5622" d="M327.713,130.717a2.886,2.886,0,1,1-2.886-2.885A2.886,2.886,0,0,1,327.713,130.717Z" transform="translate(-317.885 -123.775)" fill="#fff"/>
        </g>
        <g id="Group_501" data-name="Group 501" transform="translate(211.476 16.543)">
          <path id="Path_5623" data-name="Path 5623" d="M469.166,127.249l1.479,3,3.307.48-2.393,2.332.565,3.293-2.958-1.555-2.958,1.555.565-3.293-2.393-2.332,3.307-.48Z" transform="translate(-464.38 -127.249)" fill="#f5ad49"/>
          <path id="Path_5624" data-name="Path 5624" d="M486.744,127.249l1.479,3,3.307.48-2.393,2.332.565,3.293-2.958-1.555-2.958,1.555.565-3.293-2.393-2.332,3.307-.48Z" transform="translate(-470.713 -127.249)" fill="#f5ad49"/>
          <path id="Path_5625" data-name="Path 5625" d="M504.323,127.249l1.479,3,3.307.48-2.393,2.332.565,3.293-2.958-1.555-2.958,1.555.565-3.293-2.393-2.332,3.307-.48Z" transform="translate(-477.046 -127.249)" fill="#f5ad49"/>
          <path id="Path_5626" data-name="Path 5626" d="M521.9,127.249l1.479,3,3.307.48-2.393,2.332.565,3.293L521.9,134.8l-2.958,1.555.565-3.293-2.393-2.332,3.307-.48Z" transform="translate(-483.379 -127.249)" fill="#f5ad49"/>
          <path id="Path_5627" data-name="Path 5627" d="M539.48,127.249l1.479,3,3.307.48-2.393,2.332.565,3.293L539.48,134.8l-2.958,1.555.565-3.293-2.393-2.332,3.307-.48Z" transform="translate(-489.712 -127.249)" fill="#f5ad49"/>
        </g>
        <g id="Group_503" data-name="Group 503" transform="translate(0 14.464)">
          <path id="Path_5628" data-name="Path 5628" d="M154.095,124H134.6a.789.789,0,0,0-.789.789v12.332a.79.79,0,0,0,.789.789h13.118l6.231,2.486a.68.68,0,0,0,.932-.632V124.788A.789.789,0,0,0,154.095,124Z" transform="translate(-133.814 -123.999)" fill="#f5ad49"/>
          <g id="Group_502" data-name="Group 502" transform="translate(3.818 5.989)">
            <path id="Path_5629" data-name="Path 5629" d="M141.62,134.28a.919.919,0,1,1-.919-.919A.919.919,0,0,1,141.62,134.28Z" transform="translate(-139.782 -133.361)" fill="#fff"/>
            <path id="Path_5630" data-name="Path 5630" d="M150.683,134.28a.919.919,0,1,1-.919-.919A.919.919,0,0,1,150.683,134.28Z" transform="translate(-143.047 -133.361)" fill="#fff"/>
            <path id="Path_5631" data-name="Path 5631" d="M159.747,134.28a.919.919,0,1,1-.919-.919A.919.919,0,0,1,159.747,134.28Z" transform="translate(-146.313 -133.361)" fill="#fff"/>
          </g>
        </g>
        <g id="Group_506" data-name="Group 506" transform="translate(67.442)">
          <g id="Group_504" data-name="Group 504">
            <path id="Path_5632" data-name="Path 5632" d="M254.827,101.389h-14.8a.789.789,0,0,0-.789.789V114.51a.789.789,0,0,0,.789.789h8.429l6.231,2.487a.681.681,0,0,0,.933-.632V102.178A.789.789,0,0,0,254.827,101.389Z" transform="translate(-239.235 -101.389)" fill="#ff4846"/>
          </g>
          <g id="Group_505" data-name="Group 505" transform="translate(4.808 3.923)">
            <path id="Path_5633" data-name="Path 5633" d="M246.75,109.108a1.434,1.434,0,1,1,1.43,1.587A1.432,1.432,0,0,1,246.75,109.108Zm2.031,0c0-.617-.238-.912-.6-.912s-.6.3-.6.912.246.913.6.913S248.781,109.724,248.781,109.108Zm2.829-1.521h.978l-3.93,5.756h-.979Zm-.946,4.235a1.434,1.434,0,1,1,1.422,1.587A1.43,1.43,0,0,1,250.664,111.821Zm2.022,0c0-.609-.238-.913-.6-.913s-.6.3-.6.913.246.912.6.912S252.686,112.43,252.686,111.821Z" transform="translate(-246.75 -107.521)" fill="#fff"/>
          </g>
        </g>
        <g id="Group_508" data-name="Group 508" transform="translate(22.612 71.361)">
          <path id="Path_5634" data-name="Path 5634" d="M176.092,225.917c-2.682,8.109-.618,17.368,4.4,24.278s12.71,11.591,20.9,14.029,16.871,2.769,25.391,2.181c11.986-.828,23.77-3.426,35.66-5.145s24.125-2.545,35.832.15,22.933,9.309,29.008,19.674" transform="translate(-171.232 -217.612)" fill="none" stroke="#fff" stroke-miterlimit="10" stroke-width="1" stroke-dasharray="9"/>
          <g id="Group_507" data-name="Group 507">
            <path id="Path_5635" data-name="Path 5635" d="M191.551,212.936l-18.037,5.971-4.355-4.379Z" transform="translate(-169.16 -212.936)" fill="#80c8d4" opacity="0.5" style="mix-blend-mode: multiply;isolation: isolate"/>
            <path id="Path_5636" data-name="Path 5636" d="M177.383,225.26l-1.735,1.951,2.944-.957Z" transform="translate(-171.497 -217.376)" fill="#577bb5"/>
            <path id="Path_5637" data-name="Path 5637" d="M178.36,220.82l4.879,6.832s11.659-14.8,11.626-14.716S178.36,220.82,178.36,220.82Z" transform="translate(-172.474 -212.936)" fill="#80c8d4" opacity="0.5" style="mix-blend-mode: multiply;isolation: isolate"/>
            <path id="Path_5638" data-name="Path 5638" d="M175.648,222.771l.2-3.863,18.037-5.971-16.505,7.884Z" transform="translate(-171.497 -212.936)" fill="#4e6fa3"/>
          </g>
        </g>
      </g>
      <g id="Group_510" data-name="Group 510" transform="translate(4.247 1.686)">
        <path id="Path_5639" data-name="Path 5639" d="M151.662,197.549a3.158,3.158,0,1,1-3.158-3.158A3.158,3.158,0,0,1,151.662,197.549Z" transform="translate(-142.215 -136.58)" fill="#d6edf1"/>
        <circle id="Ellipse_13" data-name="Ellipse 13" cx="2.219" cy="2.219" r="2.219" transform="translate(0 68.749)" fill="#d6edf1"/>
        <path id="Path_5640" data-name="Path 5640" d="M215.146,208.722a2.583,2.583,0,1,1-2.583-2.583A2.583,2.583,0,0,1,215.146,208.722Z" transform="translate(-165.5 -140.812)" fill="#fff"/>
        <path id="Path_5641" data-name="Path 5641" d="M225.364,226.444a2.007,2.007,0,1,1-2.007-2.007A2.007,2.007,0,0,1,225.364,226.444Z" transform="translate(-169.597 -147.404)" fill="#fff"/>
        <path id="Path_5642" data-name="Path 5642" d="M381.649,237.592a.879.879,0,1,1-.878-.878A.879.879,0,0,1,381.649,237.592Z" transform="translate(-226.713 -151.827)" fill="#fff"/>
        <path id="Path_5643" data-name="Path 5643" d="M175.821,274.99a1.45,1.45,0,1,1-1.45-1.45A1.45,1.45,0,0,1,175.821,274.99Z" transform="translate(-152.149 -165.094)" fill="#fff"/>
        <circle id="Ellipse_14" data-name="Ellipse 14" cx="1.332" cy="1.332" r="1.332" transform="translate(125.475 140.798)" fill="#fff"/>
        <path id="Path_5644" data-name="Path 5644" d="M573.16,155.012a1.312,1.312,0,1,1-1.312-1.311A1.312,1.312,0,0,1,573.16,155.012Z" transform="translate(-295.395 -121.921)" fill="#d6edf1"/>
        <circle id="Ellipse_15" data-name="Ellipse 15" cx="1.443" cy="1.443" r="1.443" transform="translate(279.062 70.131)" fill="#fff"/>
        <path id="Path_5645" data-name="Path 5645" d="M590.118,179.333a1.62,1.62,0,1,1-1.62-1.62A1.62,1.62,0,0,1,590.118,179.333Z" transform="translate(-301.282 -130.571)" fill="#d6edf1"/>
        <circle id="Ellipse_16" data-name="Ellipse 16" cx="1.396" cy="1.396" r="1.396" transform="translate(158.886)" fill="#d6edf1"/>
        <path id="Path_5646" data-name="Path 5646" d="M228.263,109.389a1,1,0,1,1-1-1A1,1,0,0,1,228.263,109.389Z" transform="translate(-171.364 -105.596)" fill="#d6edf1"/>
      </g>
    </g>
    <g id="Group_560" data-name="Group 560" transform="translate(266.048 122.484)">
      <ellipse id="Ellipse_17" data-name="Ellipse 17" cx="32.644" cy="2.757" rx="32.644" ry="2.757" transform="translate(24.737 171.839)" opacity="0.5" fill="url(#radial-gradient)" style="mix-blend-mode: multiply;isolation: isolate"/>
      <g id="Group_559" data-name="Group 559">
        <g id="Group_520" data-name="Group 520" transform="translate(31.475 101.799)">
          <g id="Group_515" data-name="Group 515" transform="translate(0 1.652)">
            <g id="Group_513" data-name="Group 513" transform="translate(4.309)">
              <g id="Group_512" data-name="Group 512">
                <path id="Path_5647" data-name="Path 5647" d="M412.452,313.859a151.768,151.768,0,0,1,.25,18.088c-.876,18.46-5.006,29.009-5.006,29.009l-6.207-.141L397.6,304.6l-.438-6.329c1.286-.113,2.567-.24,3.824-.353,5-.438,9.974-1.1,14.933-1.851A169.9,169.9,0,0,1,412.452,313.859Z" transform="translate(-397.161 -296.072)" fill="#c7683c"/>
              </g>
              <path id="Path_5648" data-name="Path 5648" d="M412.452,313.859a151.768,151.768,0,0,1,.25,18.088L411.316,317.1A13.776,13.776,0,0,0,397.6,304.6h0l-.438-6.329c1.286-.113,2.567-.24,3.824-.353,5-.438,9.974-1.1,14.933-1.851A169.9,169.9,0,0,1,412.452,313.859Z" transform="translate(-397.161 -296.072)" fill="#c7683c" opacity="0.5" style="mix-blend-mode: multiply;isolation: isolate"/>
            </g>
            <g id="Group_514" data-name="Group 514" transform="translate(0 54.937)">
              <path id="Path_5649" data-name="Path 5649" d="M406.037,391.61s1.2,3.664.443,5.7h-15.95s-1.045-2.934,3.485-2.614l4.568-2.8-.56-9.338a3.264,3.264,0,0,1,4.488.72l5.571.48Z" transform="translate(-390.425 -381.946)" fill="#e6e6e6"/>
              <path id="Path_5650" data-name="Path 5650" d="M404.531,383.275s-1.121,7.653-1.46,8.618-2.025,3.485-3.867,3.5a7.077,7.077,0,0,1-3.169-.7l4.568-2.8-.56-9.338A3.264,3.264,0,0,1,404.531,383.275Z" transform="translate(-392.446 -381.946)" fill="#a9c0c4"/>
            </g>
          </g>
          <g id="Group_519" data-name="Group 519" transform="translate(16.052)">
            <g id="Group_517" data-name="Group 517">
              <g id="Group_516" data-name="Group 516">
                <path id="Path_5651" data-name="Path 5651" d="M432.136,293.489c-2.507.505-5.045.946-7.617,1.345-2.995.465-6,.905-9,1.292,6.685,19.4,15.653,42.935,23.627,58.869,2.505.8,3.955-1.575,6.051-2.011-.408-14.832-6.219-30.093-11.682-43.6C433.233,304.75,432.839,299.253,432.136,293.489Z" transform="translate(-415.517 -293.489)" fill="#d4774c"/>
              </g>
            </g>
            <g id="Group_518" data-name="Group 518" transform="translate(18.651 51.047)">
              <path id="Path_5652" data-name="Path 5652" d="M456.866,381.263s2.641,2.809,2.817,4.973L445.236,393s-2.19-2.214,2.048-3.845l2.949-4.474-4.467-8.22a3.263,3.263,0,0,1,4.37-1.25l5.249-1.927Z" transform="translate(-444.671 -373.282)" fill="#e6e6e6"/>
              <path id="Path_5653" data-name="Path 5653" d="M450.754,376.056s2.229,7.406,2.332,8.424-.356,4.014-2.016,4.812A7.073,7.073,0,0,1,447.9,390l2.949-4.474-4.467-8.22A3.263,3.263,0,0,1,450.754,376.056Z" transform="translate(-445.288 -374.129)" fill="#a9c0c4"/>
            </g>
          </g>
        </g>
        <g id="Group_541" data-name="Group 541" transform="translate(0 14.112)">
          <g id="Group_525" data-name="Group 525" transform="translate(42.113 12.218)">
            <g id="Group_524" data-name="Group 524">
              <g id="Group_523" data-name="Group 523" transform="translate(8.033 16.486)">
                <g id="Group_522" data-name="Group 522">
                  <g id="Group_521" data-name="Group 521">
                    <path id="Path_5654" data-name="Path 5654" d="M440.958,242.33c-1.606.5-3.132,1.192-4.756,1.6-3.052-8.787-6.273-18.257-10.256-26.249-.909-1.823-1.794-3.527-2.666-5.157-1.233-2.317-2.444-4.483-3.668-6.635,2.6-1.055,5.157-2.242,7.709-3.423l2.548-1.173c.96,2.133,1.822,4.3,2.613,6.484.654,1.8,1.262,3.612,1.832,5.411A206.368,206.368,0,0,1,440.958,242.33Z" transform="translate(-419.611 -201.29)" fill="#d4774c"/>
                  </g>
                  <path id="Path_5655" data-name="Path 5655" d="M447.171,261.348a7.767,7.767,0,0,1,2.346,1.622c1.208,1.182,1.357,3.556,2.058,4.589s1.363,1.889,1.125,2.176-.657-.122-1.9-1.641c0,0-.779-.585-.425.3s1.721,2.706,1.3,3.164c-.345.372-2.114-2.485-2.324-2.529s1.435,3.749.75,4.28-1.384-4.026-1.887-4.081.369,3.165-.078,3.329c-.977.358-1.3-4.925-1.732-4.815s-.773,2.07-1.365,1.954.178-2.12.145-2.523S444.3,262.109,447.171,261.348Z" transform="translate(-428.688 -222.927)" fill="#d4774c"/>
                </g>
                <path id="Path_5656" data-name="Path 5656" d="M432.481,207.774l-9.2,4.747c-1.233-2.317-2.444-4.483-3.668-6.635,2.6-1.055,5.157-2.242,7.709-3.423l2.548-1.173C430.828,203.423,431.69,205.594,432.481,207.774Z" transform="translate(-419.611 -201.29)" fill="#bf6237"/>
              </g>
              <path id="Path_5657" data-name="Path 5657" d="M427.251,194.563s-7.455,5.11-10.822,5.349l-9.362-17.071a14.748,14.748,0,0,1,.075-2.251,5.659,5.659,0,0,1,9.187-3.8l.1.085a16.971,16.971,0,0,1,2.581,3.178c2.59,3.81,5.726,9.654,7.276,12.626C426.888,193.843,427.251,194.563,427.251,194.563Z" transform="translate(-407.054 -175.521)" fill="#d99434"/>
            </g>
            <path id="Path_5658" data-name="Path 5658" d="M427.251,194.563s-7.455,5.11-10.822,5.349l-9.362-17.071a14.748,14.748,0,0,1,.075-2.251,5.659,5.659,0,0,1,9.187-3.8l.1.085a16.971,16.971,0,0,1,2.581,3.178q-.466,5.426-.933,10.855a4.427,4.427,0,0,0,.278,2.529,3.327,3.327,0,0,0,2.844,1.464,6.483,6.483,0,0,0,5.086-2.222C426.888,193.843,427.251,194.563,427.251,194.563Z" transform="translate(-407.054 -175.521)" fill="#d99434" opacity="0.5" style="mix-blend-mode: multiply;isolation: isolate"/>
          </g>
          <g id="Group_530" data-name="Group 530" transform="translate(30.337)">
            <g id="Group_526" data-name="Group 526" transform="translate(2.725)">
              <path id="Path_5659" data-name="Path 5659" d="M405.862,167.1V156.422h-7.1v11.213a8.627,8.627,0,0,0-4.271,3.384c-.576.878-1.108,1.617-1.585,2.3a17.915,17.915,0,0,0,2.062.843c.258-.03.5-.059.713-.081a18.327,18.327,0,0,0,6.028-1.54,11.19,11.19,0,0,0,3.9-2.816,2.087,2.087,0,0,1,.07-.305,11.64,11.64,0,0,1,1.029-2.236C406.418,167.156,406.136,167.128,405.862,167.1Z" transform="translate(-392.905 -156.422)" fill="#d4774c"/>
              <path id="Path_5660" data-name="Path 5660" d="M409.055,160.546a11.8,11.8,0,0,1-2.425,4.243,7.857,7.857,0,0,1-2.971,1.921,6.422,6.422,0,0,1-1.6.339v-1.865a5.869,5.869,0,0,0,2.4-.339,7.88,7.88,0,0,0,2.976-1.917A8.91,8.91,0,0,0,409.055,160.546Z" transform="translate(-396.204 -157.908)" fill="#bf6237"/>
            </g>
            <g id="Group_529" data-name="Group 529" transform="translate(0 10.531)">
              <path id="Path_5661" data-name="Path 5661" d="M426.063,252.775c-.494.127-1.37.329-2.528.589-6.226,1.375-20.641,4.266-28.392,4.657-.928.047-1.766.061-2.477.029l-.72-52.174s-.706-4.285-1.441-8.7c-.711-4.233-1.45-8.585-1.624-9.395-.363-1.653-.692-2.708,2.194-8.42s6.193-5.82,6.193-5.82c-2.505.509-5.223,5-5.223,5s5.793-1.6,7.94-3.843a5.592,5.592,0,0,1,4.747-1.771,6.607,6.607,0,0,1,4.5,3.033,8.735,8.735,0,0,1,1.182,6.324,71.72,71.72,0,0,0-.885,9.093c-.244,5.2-.164,9.9-.164,9.9,8.646,8.505,6.988,21.875,6.988,21.875Z" transform="translate(-388.645 -172.883)" fill="#f5ad49"/>
              <g id="Group_528" data-name="Group 528" transform="translate(13.742 19.013)">
                <g id="Group_527" data-name="Group 527">
                  <path id="Path_5662" data-name="Path 5662" d="M411.518,202.6c-.385,2.672-.713,5.353-.913,8.042-.1,1.344-.174,2.691-.176,4.035,0,.336,0,.672.017,1.007s.022.67.058,1l.044.5c.022.166.054.33.08.5.057.33.106.66.169.99,1.07,5.284,2.291,10.547,3.51,15.8l3.634,15.785,1.808,7.895,1.775,7.9c-1.359-5.227-2.656-10.469-3.936-15.715s-2.511-10.5-3.741-15.763l-1.769-7.906c-.566-2.641-1.165-5.273-1.636-7.939-.059-.334-.1-.672-.156-1.009-.024-.168-.054-.336-.073-.5l-.036-.511c-.031-.34-.038-.679-.042-1.019s-.01-.679,0-1.018c.024-1.355.113-2.706.244-4.051C410.654,207.936,411.028,205.259,411.518,202.6Z" transform="translate(-410.126 -202.603)" fill="#c2612d"/>
                </g>
              </g>
              <path id="Path_5663" data-name="Path 5663" d="M408.4,188.044l-5.524,16.935v0a56.309,56.309,0,0,0-7.653,30.333l.967,27.386c-.928.047-1.766.061-2.477.029l-.72-52.174s-.706-4.285-1.441-8.7l14.665-15.988Z" transform="translate(-389.692 -177.561)" fill="#f5ad49" opacity="0.5" style="mix-blend-mode: screen;isolation: isolate"/>
              <path id="Path_5664" data-name="Path 5664" d="M436.6,263.189c-.494.127-1.37.329-2.528.589L424.322,233.3c2.124-9.442-6.433-20.118-6.433-20.118l2.175-11.392c-.244,5.2-.164,9.9-.164,9.9,8.646,8.505,6.988,21.875,6.988,21.875Z" transform="translate(-399.181 -183.297)" fill="#f5ad49" opacity="0.5" style="mix-blend-mode: multiply;isolation: isolate"/>
            </g>
          </g>
          <g id="Group_540" data-name="Group 540" transform="translate(0 13.577)">
            <g id="Group_534" data-name="Group 534" transform="translate(0 2.149)">
              <g id="Group_532" data-name="Group 532" transform="translate(1.549)">
                <g id="Group_531" data-name="Group 531">
                  <path id="Path_5665" data-name="Path 5665" d="M347.461,194.595a9.31,9.31,0,0,0-3.815-.66c.15-4.34.332-8.6.911-12.932,1.974.268,3.931.647,5.911.878C349.82,186.491,349.682,190.4,347.461,194.595Z" transform="translate(-343.646 -181.003)" fill="#f7f7f7"/>
                  <path id="Path_5666" data-name="Path 5666" d="M344.633,193.213c-.343-3.453.463-6.988.774-10.427a.548.548,0,0,0,.6-.459c1.164.191,2.324.394,3.492.557a.554.554,0,0,0,.461.6c-.338,3.513-.372,7.07-2.111,10.239a.593.593,0,0,0-.692.295,3.7,3.7,0,0,0-2.1-.3C345.041,193.441,344.923,193.239,344.633,193.213Z" transform="translate(-343.972 -181.48)" fill="#e8f9f0"/>
                </g>
              </g>
              <g id="Group_533" data-name="Group 533" transform="translate(0 8.669)">
                <path id="Path_5667" data-name="Path 5667" d="M384.086,203.676c-.965,1.342-1.983,2.656-3.037,3.937-.075.1-.16.2-.24.3-1.017,1.233-2.774,3.169-4.318,4.836a6.24,6.24,0,0,1-7.158,1.455c-1.625-.734-3.381-1.54-4.545-2.1a102.045,102.045,0,0,1-9.1-5.171c-2.981-1.855-5.938-3.791-8.985-5.623-.871-.495-2.119-1.3-2.119-1.3a1.175,1.175,0,0,1-.923-1.135c-.7-.033-.678-.781-.678-.781a.855.855,0,0,1-.537-1.234s1.2.475,1.239.334-3.089-2.1-2.341-2.368,4.092,1.714,5.359,1.817a1.337,1.337,0,0,0,1.484-1.055l.273-1.031a2.485,2.485,0,0,1,.7.871,7.51,7.51,0,0,1-.132,2.171c6.724,2.623,13.807,5.4,20.664,7.482.867-1.3,1.686-2.576,2.487-3.828,1.073-1.681,2.1-3.339,3.151-5.02.9.862,1.836,1.7,2.778,2.524Q381.023,201.305,384.086,203.676Z" transform="translate(-341.225 -194.554)" fill="#d4774c"/>
                <path id="Path_5668" data-name="Path 5668" d="M401.516,204.62c-.965,1.342-1.983,2.656-3.037,3.937-4.111-.914-7.181-4.144-8.872-6.362,1.073-1.681,2.1-3.339,3.151-5.02.9.862,1.836,1.7,2.778,2.524Q398.453,202.249,401.516,204.62Z" transform="translate(-358.655 -195.498)" fill="#bf6237"/>
              </g>
            </g>
            <g id="Group_539" data-name="Group 539" transform="translate(32.064)">
              <path id="Path_5669" data-name="Path 5669" d="M391.451,191.932l9.318-13.617s7.381-3.366,9.191,4.99L401.444,199.3A15.5,15.5,0,0,1,391.451,191.932Z" transform="translate(-391.383 -177.644)" fill="#f5ad49"/>
              <g id="Group_538" data-name="Group 538" transform="translate(0 3.284)">
                <g id="Group_537" data-name="Group 537">
                  <g id="Group_535" data-name="Group 535">
                    <path id="Path_5670" data-name="Path 5670" d="M391.858,194.433c-.166-.205-.332-.411-.491-.62l-.022-.028.022-.036c.589-.962,1.221-1.893,1.84-2.834s1.275-1.855,1.931-2.77,1.316-1.826,2.006-2.717,1.372-1.786,2.1-2.65c-.578.97-1.193,1.914-1.816,2.852s-1.262,1.864-1.91,2.785-1.311,1.828-1.984,2.732-1.359,1.8-2.075,2.667v-.064C391.6,193.975,391.728,194.2,391.858,194.433Z" transform="translate(-391.345 -182.778)" fill="#c2612d"/>
                  </g>
                  <g id="Group_536" data-name="Group 536" transform="translate(9.528 3.306)">
                    <path id="Path_5671" data-name="Path 5671" d="M406.239,203.006c.283.13.569.258.849.395l-.072.023c.575-1.327,1.2-2.631,1.8-3.941q.933-1.954,1.9-3.891c.65-1.289,1.3-2.577,1.985-3.849s1.362-2.547,2.089-3.8c-.562,1.333-1.164,2.645-1.776,3.953s-1.242,2.608-1.88,3.9-1.3,2.579-1.963,3.86c-.682,1.273-1.35,2.553-2.064,3.81l-.028.049-.044-.026C406.769,203.336,406.5,203.17,406.239,203.006Z" transform="translate(-406.239 -187.945)" fill="#c2612d"/>
                  </g>
                </g>
              </g>
            </g>
          </g>
        </g>
        <g id="Group_558" data-name="Group 558" transform="translate(30.444)">
          <g id="Group_556" data-name="Group 556" transform="translate(0 1.223)">
            <path id="Path_5672" data-name="Path 5672" d="M388.844,148.241a5.79,5.79,0,0,1,.985-1.73,5.594,5.594,0,0,0,.634-1.082,25.613,25.613,0,0,1,1.454-7.06c.688-1.359,4.4-2.583,8.049-1.9,3.654.66,6.68,3.13,6.84,4.646.06.576.333,2.876-1.616,8.53a12.323,12.323,0,0,1-2.53,4.536,7.914,7.914,0,0,1-2.972,1.92,5.439,5.439,0,0,1-3.029.246l-.7-.129a5.7,5.7,0,0,1-3.265-1.8,8.37,8.37,0,0,1-1.57-2.366,8.71,8.71,0,0,1-.633-2.466,2.277,2.277,0,0,1-1.389-.491A.826.826,0,0,1,388.844,148.241Z" transform="translate(-388.813 -136.275)" fill="#d4774c"/>
            <g id="Group_555" data-name="Group 555" transform="translate(2.133 6.782)">
              <g id="Group_554" data-name="Group 554">
                <g id="Group_544" data-name="Group 544" transform="translate(9.392 2.928)">
                  <g id="Group_542" data-name="Group 542">
                    <path id="Path_5673" data-name="Path 5673" d="M409.036,153.509a2.1,2.1,0,0,0,.121-.708,1.58,1.58,0,0,0-.078-.665.649.649,0,0,0-1-.2,2.485,2.485,0,0,0-.887,1,4.8,4.8,0,0,0-.285,1.391,3.079,3.079,0,0,1,.025-1.492,2.38,2.38,0,0,1,.963-1.2,1.159,1.159,0,0,1,.82-.164.805.805,0,0,1,.625.574,1.564,1.564,0,0,1-.012.78A1.766,1.766,0,0,1,409.036,153.509Z" transform="translate(-406.828 -151.452)" fill="#bf6237"/>
                  </g>
                  <g id="Group_543" data-name="Group 543" transform="translate(0.539 0.915)">
                    <path id="Path_5674" data-name="Path 5674" d="M408.122,154.984a1.845,1.845,0,0,0,.186-.608,2.916,2.916,0,0,0,.017-.606,1.065,1.065,0,0,0-.154-.526.617.617,0,0,0-.5-.276.577.577,0,0,1,.7.086,1.017,1.017,0,0,1,.307.69,1.65,1.65,0,0,1-.1.707A.98.98,0,0,1,408.122,154.984Z" transform="translate(-407.671 -152.882)" fill="#bf6237"/>
                  </g>
                </g>
                <g id="Group_547" data-name="Group 547" transform="translate(0 6.189)">
                  <g id="Group_545" data-name="Group 545" transform="translate(1.466 1.53)">
                    <path id="Path_5675" data-name="Path 5675" d="M395.474,158.941a1.036,1.036,0,0,1-.448.391,1.022,1.022,0,0,1-.588.092c.176-.106.348-.165.512-.253C395.124,159.1,395.281,159.008,395.474,158.941Z" transform="translate(-394.438 -158.941)" fill="#bf6237"/>
                  </g>
                  <g id="Group_546" data-name="Group 546">
                    <path id="Path_5676" data-name="Path 5676" d="M395.113,156.55a2.5,2.5,0,0,1-1.171,1.38,2.369,2.369,0,0,1-.883.294,2.18,2.18,0,0,1-.912-.068,4.93,4.93,0,0,0,1.622-.537A5.871,5.871,0,0,0,395.113,156.55Z" transform="translate(-392.147 -156.55)" fill="#bf6237"/>
                  </g>
                </g>
                <g id="Group_549" data-name="Group 549" transform="translate(0.561 6.053)">
                  <g id="Group_548" data-name="Group 548">
                    <path id="Path_5677" data-name="Path 5677" d="M393.514,156.4a.4.4,0,0,1-.159.288.391.391,0,0,1-.328.024.309.309,0,0,1,.487-.312Z" transform="translate(-393.024 -156.338)" fill="#bf6237"/>
                  </g>
                </g>
                <g id="Group_551" data-name="Group 551" transform="translate(1.16 2.454)">
                  <g id="Group_550" data-name="Group 550">
                    <path id="Path_5678" data-name="Path 5678" d="M394.541,151.782c0,.511.309.925.691.925s.692-.415.692-.925-.31-.926-.692-.926S394.541,151.271,394.541,151.782Z" transform="translate(-394.169 -150.764)" fill="#5e2b13"/>
                    <path id="Path_5679" data-name="Path 5679" d="M393.96,150.712s.077.352,1.037.371" transform="translate(-393.96 -150.712)" fill="none" stroke="#5e2b13" stroke-linecap="round" stroke-linejoin="round" stroke-width="0.871"/>
                  </g>
                </g>
                <g id="Group_553" data-name="Group 553" transform="translate(0.628)">
                  <g id="Group_552" data-name="Group 552">
                    <path id="Path_5680" data-name="Path 5680" d="M393.871,147.655a6.387,6.387,0,0,1,.771-.027,5.772,5.772,0,0,1,.791.067,4.788,4.788,0,0,1,.78.191,6.743,6.743,0,0,1,.763.312l.012.005a.18.18,0,0,0,.2-.3,3.583,3.583,0,0,0-.741-.538,3.716,3.716,0,0,0-.86-.349,3.639,3.639,0,0,0-.924-.143,3.168,3.168,0,0,0-.951.113.342.342,0,0,0,.124.669Z" transform="translate(-393.249 -146.876)" fill="#5e2b13"/>
                    <path id="Path_5681" data-name="Path 5681" d="M393.141,147.136a.415.415,0,0,0,.116.393.824.824,0,0,0,.357.2l.01,0a.183.183,0,1,0,.04-.356.56.56,0,0,1-.262-.032.243.243,0,0,1-.1-.072.254.254,0,0,1-.051-.117l0-.012a.056.056,0,0,0-.065-.047A.056.056,0,0,0,393.141,147.136Z" transform="translate(-393.129 -146.954)" fill="#5e2b13"/>
                  </g>
                </g>
              </g>
              <circle id="Ellipse_18" data-name="Ellipse 18" cx="3.167" cy="3.167" r="3.167" transform="translate(3.215 5.693)" fill="#d46c46"/>
            </g>
          </g>
          <g id="Group_557" data-name="Group 557" transform="translate(1.382)">
            <path id="Path_5682" data-name="Path 5682" d="M397.464,165.5a5.7,5.7,0,0,1-3.263-1.8,7.87,7.87,0,0,1-1.215-1.663,36.34,36.34,0,0,0,3.551,8.552,4.964,4.964,0,0,1,2.256-.951v-3.918a3.391,3.391,0,0,1-.631-.094Z" transform="translate(-391.698 -144.334)" fill="#1a223b"/>
            <path id="Path_5683" data-name="Path 5683" d="M415.129,159.868c-1.823-2.082-4.008-3.979-5.02-6.555-1.5-3.824-.09-8.26-1.286-12.187a9.663,9.663,0,0,0-6.061-6.24,11.166,11.166,0,0,0-5.745-.273,7.616,7.616,0,0,0-4.71,2.642,9.242,9.242,0,0,0-1.333,5.674c.01.72.038,1.446.094,2.166a2.648,2.648,0,0,0,.169-.353,33.971,33.971,0,0,1,.509-3.654,8.73,8.73,0,0,0,6.547-.788,4.978,4.978,0,0,0,1.816,6.184,5.974,5.974,0,0,1,1.715-1.526,1.958,1.958,0,0,1,2.116.322,1.907,1.907,0,0,1,.2,2.083,4.654,4.654,0,0,1-1.484,1.626,4.983,4.983,0,0,0,1.125,2.73,4.856,4.856,0,0,0,1.377,1.137v6.153a3.057,3.057,0,0,1,.4.038,6.465,6.465,0,0,1,3.895,2.223,5.567,5.567,0,0,1,1.073.7l.1.085c1.432,1.205,3.659,4.681,5.717,8.241a5.929,5.929,0,0,0,1.635-2.943C418.552,164.638,416.956,161.954,415.129,159.868Z" transform="translate(-390.973 -134.363)" fill="#1a223b"/>
          </g>
        </g>
      </g>
    </g>
    <g id="Group_598" data-name="Group 598" transform="translate(200.219 122.888)">
      <path id="Path_5684" data-name="Path 5684" d="M303.613,404.647c0,1.523-14.615,2.757-32.644,2.757s-32.644-1.234-32.644-2.757,14.615-2.757,32.644-2.757S303.613,403.124,303.613,404.647Z" transform="translate(-238.325 -231.147)" opacity="0.5" fill="url(#radial-gradient-2)" style="mix-blend-mode: multiply;isolation: isolate"/>
      <g id="Group_597" data-name="Group 597" transform="translate(6.438)">
        <g id="Group_566" data-name="Group 566" transform="translate(2.58 63.424)">
          <g id="Group_563" data-name="Group 563" transform="translate(13.085 0)">
            <g id="Group_561" data-name="Group 561">
              <path id="Path_5685" data-name="Path 5685" d="M304.605,337.7H293.694l-20.819-60.97.961-38.441,13.186-4.149,4.394,25.887Z" transform="translate(-272.874 -234.137)" fill="#1c2540"/>
              <path id="Path_5686" data-name="Path 5686" d="M296.538,337.7h-2.844l-20.82-60.97.961-38.441,13.186-4.149,4.394,25.886h0A79.434,79.434,0,0,0,289,312.663Z" transform="translate(-272.874 -234.137)" fill="#1c2540" opacity="0.5" style="mix-blend-mode: multiply;isolation: isolate"/>
            </g>
            <g id="Group_562" data-name="Group 562" transform="translate(20.962 103.563)">
              <path id="Path_5687" data-name="Path 5687" d="M306.281,396.821a5.77,5.77,0,0,0,0,5.348h17.524s.571-.989,0-1.5-6.369-.67-8.956-4.648h-8.688Z" transform="translate(-305.64 -396.02)" fill="#e6e6e6"/>
              <rect id="Rectangle_183" data-name="Rectangle 183" width="18.069" height="0.701" transform="translate(0.351 5.81)" fill="#a9c0c4"/>
            </g>
          </g>
          <g id="Group_565" data-name="Group 565">
            <path id="Path_5688" data-name="Path 5688" d="M255.787,235.218s-1.844,7.245-.5,12.82l.441,43.72L252.421,337.7H262.7l13.885-88.955,3.068-14.608Z" transform="translate(-252.421 -234.136)" fill="#28365d"/>
            <g id="Group_564" data-name="Group 564" transform="translate(0.32 103.563)">
              <path id="Path_5689" data-name="Path 5689" d="M253.563,396.821a5.77,5.77,0,0,0,0,5.348h17.524s.571-.989,0-1.5-6.369-.67-8.956-4.648h-8.689Z" transform="translate(-252.922 -396.02)" fill="#e6e6e6"/>
              <rect id="Rectangle_184" data-name="Rectangle 184" width="18.069" height="0.701" transform="translate(0.351 5.81)" fill="#a9c0c4"/>
            </g>
          </g>
        </g>
        <g id="Group_583" data-name="Group 583" transform="translate(0 14.429)">
          <g id="Group_570" data-name="Group 570" transform="translate(5.446)">
            <g id="Group_567" data-name="Group 567" transform="translate(9.407)">
              <path id="Path_5690" data-name="Path 5690" d="M274.747,171.65c1.837,1.548,4.325,3.714,6.8,4.078a3.334,3.334,0,0,0,2.975-.907c.063-.168.13-.336.194-.5-.342-.515-.7-1.063-1.081-1.673-1.016-1.636-1.857-2.911-3.214-3.65V157.55h-6.78v10.623c-.639.037-1.32.1-2.035.187A22.083,22.083,0,0,0,274.747,171.65Z" transform="translate(-271.605 -157.55)" fill="#ebaf7f"/>
              <path id="Path_5691" data-name="Path 5691" d="M282.591,167.874v1.9a5.972,5.972,0,0,1-.758-.217,7.962,7.962,0,0,1-4.2-3.551,7.648,7.648,0,0,0,2.557,1.526A5.893,5.893,0,0,0,282.591,167.874Z" transform="translate(-273.778 -160.597)" fill="#e48855"/>
            </g>
            <g id="Group_569" data-name="Group 569" transform="translate(0 7.494)">
              <path id="Path_5692" data-name="Path 5692" d="M282.161,206.221c-.311,4.38-.574,7.672-.574,7.672s-2.421.5-6.075.862c-.16.014-.32.033-.485.047-4.922.457-11.858.631-18.126-.908l3.245-13.586,1.069-9.729,1.738-15.842a14.38,14.38,0,0,1,5.392-.688s5.251,4.281,6.758,3.918c0,0,.014,0,.019,0a.823.823,0,0,0,.433-.259c.457-.513.123-1.554-.155-2.208-.146-.339-.278-.575-.278-.575a2.31,2.31,0,0,1,.24.066,3.475,3.475,0,0,1,1.342.659,107.781,107.781,0,0,1,6.207,9.07C283.489,185.816,282.745,197.952,282.161,206.221Z" transform="translate(-256.901 -170.969)" fill="#ff4846"/>
              <path id="Path_5693" data-name="Path 5693" d="M274.372,172.53s-.361-3.236.03-3.266,5.771,2.219,6.162,3.029a28.359,28.359,0,0,1,.967,3.9S279.882,177.389,274.372,172.53Z" transform="translate(-263.14 -169.264)" fill="#ff814f"/>
              <path id="Path_5694" data-name="Path 5694" d="M285.53,177.138l-.209-4.05.038-1.19a5.954,5.954,0,0,1,1.969,1.04c.391.511.261,2.772.261,2.772A1.959,1.959,0,0,1,285.53,177.138Z" transform="translate(-267.14 -170.213)" fill="#ff814f"/>
              <g id="Group_568" data-name="Group 568" transform="translate(18.126 6.734)">
                <path id="Path_5695" data-name="Path 5695" d="M285.719,216.841c-.16.014-.321.033-.485.047,1.681-9.075.579-29.187.076-36.835,0,0,.014,0,.019,0a.823.823,0,0,0,.433-.259C286.256,187.23,287.391,207.545,285.719,216.841Z" transform="translate(-285.234 -179.789)" fill="#ff814f"/>
              </g>
              <path id="Path_5696" data-name="Path 5696" d="M282.161,215.06c-.311,4.38-.574,7.672-.574,7.672s-2.421.5-6.075.862c-.16.014-.32.033-.485.047-4.922.457-11.858.631-18.126-.908l3.245-13.586,1.069-9.729a15.476,15.476,0,0,1,4.172-.885,17.293,17.293,0,0,0,16.774,16.529Z" transform="translate(-256.901 -179.807)" fill="#871a1a" opacity="0.5" style="mix-blend-mode: multiply;isolation: isolate"/>
            </g>
          </g>
          <g id="Group_582" data-name="Group 582" transform="translate(0 10.965)">
            <g id="Group_575" data-name="Group 575" transform="translate(23.062 24.651)">
              <path id="Path_5697" data-name="Path 5697" d="M319.262,213.222v2.332H284.438l5.649-1.9,1.263-.427Z" transform="translate(-284.438 -213.222)" fill="#c7762f"/>
              <g id="Group_573" data-name="Group 573" transform="translate(0 2.331)">
                <rect id="Rectangle_185" data-name="Rectangle 185" width="30.241" height="28.835" transform="translate(0)" fill="#f5ad49"/>
                <g id="Group_572" data-name="Group 572" transform="translate(1.366 22.24)">
                  <g id="Group_571" data-name="Group 571">
                    <rect id="Rectangle_186" data-name="Rectangle 186" width="12.708" height="1.769" transform="translate(0 2.051)" fill="#c7762f"/>
                    <rect id="Rectangle_187" data-name="Rectangle 187" width="8.526" height="1.287" fill="#c7762f"/>
                  </g>
                </g>
                <path id="Path_5698" data-name="Path 5698" d="M325.458,222.07a2.313,2.313,0,1,1-2.313-2.313A2.313,2.313,0,0,1,325.458,222.07Z" transform="translate(-297.55 -217.907)" fill="#c7762f"/>
                <rect id="Rectangle_188" data-name="Rectangle 188" width="1.366" height="28.835" transform="translate(1.366 28.835) rotate(180)" fill="#f5ad49" opacity="0.5" style="mix-blend-mode: screen;isolation: isolate"/>
              </g>
              <g id="Group_574" data-name="Group 574" transform="translate(30.241)">
                <path id="Path_5699" data-name="Path 5699" d="M336.292,213.222v28.513l-4.583,2.654V215.553l1.225-.621Z" transform="translate(-331.709 -213.222)" fill="#e38c3b"/>
                <path id="Path_5700" data-name="Path 5700" d="M336.292,237.351V242.7l-4.583,2.654V216.516l1.224-.621a93.3,93.3,0,0,0,.573,13.133,20.737,20.737,0,0,0,1.384,6.024A9.831,9.831,0,0,0,336.292,237.351Z" transform="translate(-331.709 -214.185)" fill="#e38c3b" opacity="0.5" style="mix-blend-mode: multiply;isolation: isolate"/>
              </g>
              <path id="Path_5701" data-name="Path 5701" d="M322.443,213.222v.322a119.12,119.12,0,0,1-29.176.1l1.263-.427Z" transform="translate(-287.619 -213.222)" fill="#c7762f" opacity="0.5" style="mix-blend-mode: multiply;isolation: isolate"/>
            </g>
            <g id="Group_581" data-name="Group 581">
              <path id="Path_5702" data-name="Path 5702" d="M286.092,253.4s2.373.178,2.514-.162-2.219-1.1-2.219-1.1l-2.048-1.352c-1.366-1.629-2.756-3.284-4.144-4.956-.093.062-.185.125-.279.187a28.635,28.635,0,0,1-3.38,2.4c-.431.4-.875.793-1.328,1.18q2.655,2.354,5.409,4.685c.627.9,2.135,2.691,2.135,2.691a5.012,5.012,0,0,0,1.587.035,6.77,6.77,0,0,0,1.654-.148,1.562,1.562,0,0,0,1.24-.413,3.61,3.61,0,0,0,2.895-.36h-1.369Z" transform="translate(-258.05 -200.319)" fill="#ebaf7f"/>
              <g id="Group_580" data-name="Group 580">
                <path id="Path_5703" data-name="Path 5703" d="M274.592,223.481l-1.017.848-3.6,2.986-.853.706s-19.722-17.584-20.56-20.593c-.353-1.248-.127-3.687.25-6.108a65.312,65.312,0,0,1,2.679-10.732c1.545-4.568,4.13-11.721,5.91-13.963.081-.1.161-.2.236-.278.1-.1.2-.193.3-.283,3.721-3.343,9.588-.141,9.136,4.836a7.152,7.152,0,0,1-.335,1.7l-.466,1.46-.015.033L265.2,187.4l-5.152,17.627Z" transform="translate(-248.388 -174.689)" fill="#ff4846"/>
                <path id="Path_5704" data-name="Path 5704" d="M279.035,228.776l-1.017.848-16.657-19.887,1.286-.881-1.926-3.056,3.207,1.168,6.772-17.579-1.06,3.306-5.152,17.627Z" transform="translate(-252.831 -179.985)" fill="#871a1a" opacity="0.5" style="mix-blend-mode: multiply;isolation: isolate"/>
                <path id="Path_5705" data-name="Path 5705" d="M269.977,228.4l-.853.706s-19.722-17.585-20.56-20.593c-.353-1.248-.127-3.687.25-6.108a65.313,65.313,0,0,1,2.679-10.732c1.545-4.568,4.13-11.721,5.91-13.963-1.7,5.265-8.876,27.756-8.118,30.267C250.067,210.56,266.926,225.681,269.977,228.4Z" transform="translate(-248.388 -175.779)" fill="#ff7a46" opacity="0.5" style="mix-blend-mode: screen;isolation: isolate"/>
                <g id="Group_579" data-name="Group 579" transform="translate(10.455 9.372)">
                  <g id="Group_578" data-name="Group 578">
                    <g id="Group_576" data-name="Group 576" transform="translate(0 19.5)">
                      <path id="Path_5706" data-name="Path 5706" d="M274.09,231.631c-.856-.924-1.672-1.88-2.481-2.84s-1.6-1.938-2.383-2.918-1.551-1.976-2.3-2.986l-1.118-1.517c-.36-.516-.731-1.022-1.079-1.548.432.459.839.937,1.26,1.4l1.221,1.436c.814.958,1.6,1.938,2.382,2.919s1.551,1.975,2.3,2.987S273.386,230.587,274.09,231.631Z" transform="translate(-264.731 -219.821)" fill="#911b1a"/>
                    </g>
                    <g id="Group_577" data-name="Group 577" transform="translate(1.322)">
                      <path id="Path_5707" data-name="Path 5707" d="M272.9,189.339c-.415,1.773-.88,3.531-1.353,5.286s-.983,3.5-1.473,5.251c-.527,1.74-1.033,3.486-1.578,5.221l-.826,2.6c-.292.862-.568,1.728-.874,2.586.2-.887.436-1.766.653-2.65l.7-2.636c.472-1.756.983-3.5,1.474-5.251.527-1.74,1.033-3.486,1.578-5.221S272.3,191.057,272.9,189.339Z" transform="translate(-266.798 -189.339)" fill="#911b1a"/>
                    </g>
                  </g>
                </g>
              </g>
            </g>
          </g>
        </g>
        <g id="Group_596" data-name="Group 596" transform="translate(13.671)">
          <g id="Group_594" data-name="Group 594" transform="translate(0.43 1.54)">
            <g id="Group_593" data-name="Group 593">
              <path id="Path_5708" data-name="Path 5708" d="M288.44,149.368a5.786,5.786,0,0,0-.985-1.729,5.574,5.574,0,0,1-.633-1.082,25.637,25.637,0,0,0-1.455-7.06c-.688-1.359-4.4-2.583-8.049-1.9-3.654.66-6.68,3.129-6.84,4.646-.06.576-.333,2.876,1.616,8.53a12.323,12.323,0,0,0,2.53,4.536,7.921,7.921,0,0,0,2.972,1.92,5.441,5.441,0,0,0,3.029.246l.7-.128a5.7,5.7,0,0,0,3.265-1.8,8.34,8.34,0,0,0,1.57-2.366,8.708,8.708,0,0,0,.633-2.466,2.275,2.275,0,0,0,1.389-.49A.826.826,0,0,0,288.44,149.368Z" transform="translate(-270.43 -137.402)" fill="#ebaf7f"/>
              <g id="Group_592" data-name="Group 592" transform="translate(4.076 6.782)">
                <g id="Group_591" data-name="Group 591">
                  <g id="Group_584" data-name="Group 584" transform="translate(0 3.099)">
                    <path id="Path_5709" data-name="Path 5709" d="M277.033,154.733a1.848,1.848,0,0,1-.2-.673,1.151,1.151,0,0,1,.216-1.037.792.792,0,0,1,.736-.141,1.6,1.6,0,0,1,.655.413,2.326,2.326,0,0,1,.548.764,3.622,3.622,0,0,1,.177,1.5" transform="translate(-276.801 -152.848)" fill="none" stroke="#e48855" stroke-miterlimit="10" stroke-width="0.558"/>
                    <path id="Path_5710" data-name="Path 5710" d="M278.85,156.144a1.481,1.481,0,0,1-.385-1.033,1.213,1.213,0,0,1,.175-.729.6.6,0,0,1,.661-.255" transform="translate(-277.4 -153.299)" fill="none" stroke="#e48855" stroke-miterlimit="10" stroke-width="0.558"/>
                  </g>
                  <g id="Group_585" data-name="Group 585" transform="translate(8.866 6.188)">
                    <path id="Path_5711" data-name="Path 5711" d="M291.386,160.068a2.175,2.175,0,0,0,1.036.483" transform="translate(-290.922 -158.538)" fill="none" stroke="#e48855" stroke-linecap="round" stroke-linejoin="round" stroke-width="0.279"/>
                    <path id="Path_5712" data-name="Path 5712" d="M290.66,157.677a3.254,3.254,0,0,0,2.966,1.606" transform="translate(-290.66 -157.677)" fill="none" stroke="#e48855" stroke-linecap="round" stroke-linejoin="round" stroke-width="0.558"/>
                  </g>
                  <g id="Group_586" data-name="Group 586" transform="translate(10.782 6.112)">
                    <path id="Path_5713" data-name="Path 5713" d="M293.654,157.558a1.917,1.917,0,0,1,.486.312" transform="translate(-293.654 -157.558)" fill="none" stroke="#e48855" stroke-linecap="round" stroke-linejoin="round" stroke-width="0.558"/>
                  </g>
                  <g id="Group_588" data-name="Group 588" transform="translate(8.918 2.546)">
                    <g id="Group_587" data-name="Group 587">
                      <path id="Path_5714" data-name="Path 5714" d="M292.124,152.909c0,.511-.31.926-.692.926s-.692-.415-.692-.926.31-.925.692-.925S292.124,152.4,292.124,152.909Z" transform="translate(-290.741 -151.984)" fill="#5e2b13"/>
                    </g>
                  </g>
                  <g id="Group_590" data-name="Group 590" transform="translate(7.211)">
                    <g id="Group_589" data-name="Group 589">
                      <path id="Path_5715" data-name="Path 5715" d="M291.444,148.783a6.257,6.257,0,0,0-.771-.027,5.778,5.778,0,0,0-.791.067,4.855,4.855,0,0,0-.78.19,6.764,6.764,0,0,0-.763.312l-.012.005a.18.18,0,0,1-.2-.3,3.535,3.535,0,0,1,.741-.538,3.738,3.738,0,0,1,.86-.35,3.629,3.629,0,0,1,.923-.142,3.167,3.167,0,0,1,.951.113.342.342,0,0,1-.124.669Z" transform="translate(-288.073 -148.004)" fill="#5e2b13"/>
                      <path id="Path_5716" data-name="Path 5716" d="M293.891,148.263a.417.417,0,0,1-.115.393.833.833,0,0,1-.358.2l-.009,0a.182.182,0,0,1-.107-.349.2.2,0,0,1,.067-.008.561.561,0,0,0,.262-.031.243.243,0,0,0,.148-.189l0-.012a.057.057,0,0,1,.111-.006Z" transform="translate(-289.911 -148.082)" fill="#5e2b13"/>
                    </g>
                  </g>
                </g>
                <path id="Path_5717" data-name="Path 5717" d="M286.7,160.07a3.167,3.167,0,1,1-3.167-3.167A3.167,3.167,0,0,1,286.7,160.07Z" transform="translate(-278.087 -151.21)" fill="#e9a770"/>
              </g>
            </g>
            <path id="Path_5718" data-name="Path 5718" d="M279.575,142.957A8.291,8.291,0,0,1,277.783,149a2.754,2.754,0,0,0-1.855-2.2,1.571,1.571,0,0,0-1.422.145,1.669,1.669,0,0,0-.453,1.652,3.351,3.351,0,0,0,1.851,2.366,9.761,9.761,0,0,1-.8,1.931,2.957,2.957,0,0,1-1.338,1.42,11.025,11.025,0,0,1-2.663-7.477c.058-1.44-.343-3.006.23-4.329a7.534,7.534,0,0,1,2.8-3.217,12.184,12.184,0,0,1,3.982-1.627,4.658,4.658,0,0,1,1.326-.159,1.9,1.9,0,0,1,1.218.486,2.219,2.219,0,0,1,.56,1.571A4.1,4.1,0,0,1,279.575,142.957Z" transform="translate(-270.642 -137.438)" fill="#5e2b13"/>
          </g>
          <g id="Group_595" data-name="Group 595">
            <path id="Path_5719" data-name="Path 5719" d="M277.291,136.247s-.571-.361-.08-.762,1.413-.31,1.273.321Z" transform="translate(-272.371 -135.084)" fill="#ff814f"/>
            <path id="Path_5720" data-name="Path 5720" d="M270.63,147.307s-2.886-5.971,1.844-9.818,12.264-2.6,13.622,2.605l-5.326,2.926Z" transform="translate(-269.758 -135.084)" fill="#ff4846"/>
            <path id="Path_5721" data-name="Path 5721" d="M278.65,135.738s5.644,2.954,5.193,7.222l6.583-2.705S287.524,132.634,278.65,135.738Z" transform="translate(-272.962 -134.995)" fill="#c42c2b"/>
            <path id="Path_5722" data-name="Path 5722" d="M269.879,149.493a.877.877,0,0,1,.971-.106,1.21,1.21,0,0,1,.612.8l.173.662-1.322.581A6.375,6.375,0,0,1,269.879,149.493Z" transform="translate(-269.802 -140.144)" fill="#5e2b13"/>
            <path id="Path_5723" data-name="Path 5723" d="M280.446,146.412s9.588-3.911,9.6-5.312c0,0,4.539-1.841,6.1.143s-17.027,5.731-17.027,5.731Z" transform="translate(-273.13 -136.914)" fill="#ff814f"/>
          </g>
        </g>
      </g>
    </g>
  </g>
</svg>
