<svg id="online-shop_1_" data-name="online-shop (1)" xmlns="http://www.w3.org/2000/svg" width="115.655" height="97.548" viewBox="0 0 115.655 97.548">
  <g id="Group_45" data-name="Group 45" transform="translate(0 0)">
    <g id="Group_44" data-name="Group 44">
      <path id="Path_184" data-name="Path 184" d="M108.529,40.081H7.127A7.134,7.134,0,0,0,0,47.207v68.809a7.134,7.134,0,0,0,7.127,7.126h34.3l-1.387,11.1H34.288a1.694,1.694,0,0,0,0,3.388h47.08a1.694,1.694,0,0,0,0-3.388H75.62l-1.387-11.1h34.3a7.135,7.135,0,0,0,7.127-7.126V47.207A7.134,7.134,0,0,0,108.529,40.081ZM43.45,134.241l1.387-11.1h6.235l.612,2.446a6.333,6.333,0,0,0,12.287,0l.612-2.446h6.235l1.387,11.1Zm11.115-11.1H61.09l-.406,1.625a2.944,2.944,0,0,1-5.713,0Zm57.7-7.126h0a3.742,3.742,0,0,1-3.738,3.738H7.127a3.742,3.742,0,0,1-3.738-3.738V47.207a3.742,3.742,0,0,1,3.738-3.738h101.4a3.742,3.742,0,0,1,3.738,3.738Z" transform="translate(0 -40.081)" fill="#f8c91c"/>
    </g>
  </g>
  <g id="Group_47" data-name="Group 47" transform="translate(7.243 7.243)">
    <g id="Group_46" data-name="Group 46">
      <path id="Path_185" data-name="Path 185" d="M120.675,72.146H33.758a1.694,1.694,0,0,0-1.694,1.694v65.187a1.694,1.694,0,0,0,1.694,1.694H37.38a1.694,1.694,0,0,0,0-3.388H35.453v-61.8h85.222a1.694,1.694,0,0,0,0-3.388Z" transform="translate(-32.064 -72.146)" fill="#f8c91c"/>
    </g>
  </g>
  <g id="Group_49" data-name="Group 49" transform="translate(18.108 7.243)">
    <g id="Group_48" data-name="Group 48">
      <path id="Path_186" data-name="Path 186" d="M168.773,72.146h-3.622a1.694,1.694,0,0,0,0,3.388h1.928v61.8H81.856a1.694,1.694,0,0,0,0,3.388h86.916a1.694,1.694,0,0,0,1.694-1.694V73.84A1.694,1.694,0,0,0,168.773,72.146Z" transform="translate(-80.162 -72.146)" fill="#f8c91c"/>
    </g>
  </g>
  <g id="Group_51" data-name="Group 51" transform="translate(30.783 18.107)">
    <g id="Group_50" data-name="Group 50">
      <path id="Path_187" data-name="Path 187" d="M186.384,128.134a1.694,1.694,0,0,0-1.257-.648l-39.837-1.811-.093,0a3.511,3.511,0,0,0-1.409-1.9l-4.879-3.252a1.694,1.694,0,0,0-1.879,2.819l4.878,3.252a.118.118,0,0,1,.048.065l6.214,21.749a5.334,5.334,0,0,0,.922,1.814l-2.274,4.547a3.482,3.482,0,0,0,.153,3.41,3.519,3.519,0,0,0,.869.956,5.315,5.315,0,1,0,9.567.706h15.446a5.316,5.316,0,1,0,9.71-.44,1.692,1.692,0,0,0-1.136-2.949H149.953a.116.116,0,0,1-.1-.169l2.094-4.189a5.319,5.319,0,0,0,1.325.169,5.464,5.464,0,0,0,.634-.037l23.806-2.8a7.109,7.109,0,0,0,6.156-5.68l2.848-14.239A1.694,1.694,0,0,0,186.384,128.134Zm-8.577,31.711a1.927,1.927,0,1,1-1.927,1.927A1.93,1.93,0,0,1,177.806,159.845Zm-25.35,0a1.927,1.927,0,1,1-1.927,1.927A1.929,1.929,0,0,1,152.456,159.845ZM148.3,136.538l-2.123-7.431,6.773.308,1.174,7.123Zm5.2,12.327a1.919,1.919,0,0,1-2.078-1.385l-2.158-7.554h5.415l1.423,8.633Zm9.931-1.168-3.96.466-1.358-8.236h5.318Zm0-11.159H157.56l-1.148-6.965,7.025.319Zm8.58,10.149-5.191.611v-7.372h5.8Zm.919-10.149h-6.11v-6.492l6.67.3Zm7.6,6.547a3.729,3.729,0,0,1-3.229,2.979l-1.856.218.575-6.356h5.141Zm1.309-6.547h-5.512l.546-6.035,6.117.278Z" transform="translate(-136.276 -120.241)" fill="#f8c91c"/>
    </g>
  </g>
</svg>
