<svg xmlns="http://www.w3.org/2000/svg" width="18.377" height="22.95" viewBox="0 0 18.377 22.95">
  <g id="paper" transform="translate(-48.65)">
    <g id="Group_387" data-name="Group 387" transform="translate(48.65)">
      <path id="Path_489" data-name="Path 489" d="M61.133,85.4H50.464a1.815,1.815,0,0,0-1.814,1.814v15.308a1.815,1.815,0,0,0,1.814,1.814H61.133a1.815,1.815,0,0,0,1.814-1.814V87.214A1.821,1.821,0,0,0,61.133,85.4Zm.541,17.117a.546.546,0,0,1-.545.545H50.46a.546.546,0,0,1-.545-.545v-15.3a.546.546,0,0,1,.545-.545H61.129a.546.546,0,0,1,.545.545Z" transform="translate(-48.65 -81.386)" fill="#bebebe"/>
      <path id="Path_490" data-name="Path 490" d="M147.933,0H137.264a1.815,1.815,0,0,0-1.814,1.814.635.635,0,0,0,1.269,0,.546.546,0,0,1,.545-.545h10.669a.546.546,0,0,1,.545.545V17.122a.546.546,0,0,1-.545.545.635.635,0,1,0,0,1.269,1.815,1.815,0,0,0,1.814-1.814V1.814A1.815,1.815,0,0,0,147.933,0Z" transform="translate(-131.37)" fill="#bebebe"/>
    </g>
  </g>
</svg>
