<svg xmlns="http://www.w3.org/2000/svg" viewBox="0 0 1992.177 2059.33">
  <defs>
    <style>
      .cls-1 {
        fill: #994dc9;
        opacity: 0.1;
      }
    </style>
  </defs>
  <path id="Path_24" data-name="Path 24" class="cls-1" d="M1593.273,112.01c-63.8-54.346-159.494-87.426-271.73-98.059-246.92-23.629-577.721,50.8-841.18,197.3C391.756,259.69,311.419,317.58,244.077,380.2c38.987,10.633,79.156,21.266,120.506,30.717C890.321,506.609,1332.177,429.816,1593.273,112.01ZM1276.649,715.723C957.662,597.579,474.456,534.963,163.74,465.259c-51.983,63.8-89.789,133.5-111.055,207.932Q31.419,747.621,34.963,829.14c2.363,42.531,18.9,101.6,46.076,171.308C221.63,1220.194,850.152,1003.992,1276.649,715.723Zm441.856-321.35C1679.518,481.8,1600.362,583.4,1494.033,685.005c83.882,38.987,150.042,87.426,191.392,150.042,15.359-62.616,27.173-125.232,34.262-186.666C1729.138,558.592,1729.138,472.347,1718.505,394.373ZM739.1,503.065c236.286,41.35,464.3,77.974,642.7,138.228,172.489-132.321,294.177-274.092,301.265-389.873-3.544-8.27-5.907-15.359-9.451-23.629-8.27-18.9-16.54-35.443-27.173-51.983-7.088-11.814-16.54-23.629-25.991-35.443C1401.881,419.183,1080.531,510.153,739.1,503.065Zm-298.9,1036.117c15.359,15.359,29.536,30.717,46.076,44.894,76.793,69.7,160.675,125.232,245.738,157.131,83.882,30.717,170.126,37.806,255.19,11.814,98.059-30.717,191.392-88.607,275.274-164.219,20.084-17.721,37.806-36.625,56.709-55.527,81.519-86.245,154.768-190.211,215.021-302.447C1336.9,1468.3,811.165,1698.674,440.195,1539.181ZM1400.7,768.887c-340.253,289.451-857.72,551.729-1199.154,463.122,5.907,9.452,11.814,18.9,17.721,29.536l1.181,1.181c336.708,541.1,1271.222,127.595,1377.551-216.2C1621.628,929.562,1540.109,840.954,1400.7,768.887Z" transform="translate(115.543 140.365)"/>
</svg>
