<svg xmlns="http://www.w3.org/2000/svg" width="41.952" height="51" viewBox="0 0 41.952 51">
  <g id="Group_184" data-name="Group 184" transform="translate(-1260 -901)">
    <g id="credit-card" transform="translate(1260 836.734)">
      <g id="Group_173" data-name="Group 173" transform="translate(0 64.266)">
        <g id="Group_172" data-name="Group 172" transform="translate(0 0)">
          <path id="Path_23" data-name="Path 23" d="M40.028,73.9H35.9l-2.086-8.181a1.926,1.926,0,0,0-2.34-1.389l-4.756,1.213a.6.6,0,1,0,.3,1.162l4.756-1.213a.726.726,0,0,1,.882.523l.231.906L1.453,74.932l-.231-.906a.725.725,0,0,1,.523-.882l21.62-5.513a.6.6,0,0,0-.3-1.162L1.449,71.982A1.926,1.926,0,0,0,.06,74.322L4.494,91.708A1.923,1.923,0,0,0,6.833,93.1l.284-.072v.738a1.926,1.926,0,0,0,1.924,1.924H40.028a1.926,1.926,0,0,0,1.924-1.924V75.82A1.926,1.926,0,0,0,40.028,73.9ZM7.117,91.787l-.58.148a.726.726,0,0,1-.882-.523L2.942,80.77,7.117,79.7Zm0-15.968v2.648l-4.472,1.14-.9-3.514,5.792-1.477A1.915,1.915,0,0,0,7.117,75.82ZM34.664,73.9H29.9l4.474-1.141Zm-1.483-5.817.9,3.514-9.03,2.3H10.368Zm6.847,26.409H9.041a.726.726,0,0,1-.725-.725V75.82a.726.726,0,0,1,.725-.725H40.028a.726.726,0,0,1,.725.725V93.762h0A.726.726,0,0,1,40.028,94.487Z" transform="translate(0 -64.266)" fill="#676767"/>
        </g>
      </g>
      <g id="Group_175" data-name="Group 175" transform="translate(10.211 88.653)">
        <g id="Group_174" data-name="Group 174">
          <path id="Path_24" data-name="Path 24" d="M138.28,361.895H125.218a.6.6,0,0,0,0,1.2H138.28a.6.6,0,0,0,0-1.2Z" transform="translate(-124.619 -361.895)" fill="#676767"/>
        </g>
      </g>
      <g id="Group_177" data-name="Group 177" transform="translate(25.298 78.112)">
        <g id="Group_176" data-name="Group 176">
          <path id="Path_25" data-name="Path 25" d="M317.31,233.249A3.924,3.924,0,0,0,315,234a3.946,3.946,0,1,0,0,6.4,3.945,3.945,0,1,0,2.307-7.145Zm-3.942,4.133c0,.015,0,.031,0,.046q0,.075.012.15l0,.035a3.89,3.89,0,0,0,.746,1.922,2.747,2.747,0,1,1,0-4.681,3.891,3.891,0,0,0-.746,1.922l0,.035q-.007.075-.012.15c0,.015,0,.031,0,.046,0,.062,0,.125,0,.187S313.366,237.32,313.369,237.382Zm3.942,2.56a2.738,2.738,0,0,1-1.927-.791l-.03-.03-.068-.071-.018-.02c-.026-.029-.051-.058-.076-.088h0a2.742,2.742,0,0,1,0-3.493h0c.025-.03.05-.059.076-.088l.018-.02.068-.071.03-.03a2.747,2.747,0,1,1,1.927,4.7Z" transform="translate(-308.747 -233.249)" fill="#676767"/>
        </g>
      </g>
      <g id="Group_179" data-name="Group 179" transform="translate(10.211 78.502)">
        <g id="Group_178" data-name="Group 178">
          <path id="Path_26" data-name="Path 26" d="M129.491,238.006h-2.629a2.245,2.245,0,0,0-2.242,2.242v2.629a2.245,2.245,0,0,0,2.242,2.242h2.629a2.245,2.245,0,0,0,2.242-2.242v-2.629A2.245,2.245,0,0,0,129.491,238.006Zm1.043,3.879h-1.279a.6.6,0,0,0,0,1.2h1.258a1.045,1.045,0,0,1-1.023.837h-2.629a1.045,1.045,0,0,1-1.023-.837H127.1a.6.6,0,0,0,0-1.2h-1.279v-.519H127.1a.6.6,0,0,0,0-1.2h-1.275a1.044,1.044,0,0,1,1.039-.961h2.629a1.044,1.044,0,0,1,1.039.961h-1.275a.6.6,0,1,0,0,1.2h1.279Z" transform="translate(-124.62 -238.006)" fill="#676767"/>
        </g>
      </g>
      <g id="Group_181" data-name="Group 181" transform="translate(16.475 91.29)">
        <g id="Group_180" data-name="Group 180">
          <path id="Path_27" data-name="Path 27" d="M222.543,394.085H201.67a.6.6,0,1,0,0,1.2h20.872a.6.6,0,0,0,0-1.2Z" transform="translate(-201.071 -394.085)" fill="#676767"/>
        </g>
      </g>
      <g id="Group_183" data-name="Group 183" transform="translate(10.211 91.29)">
        <g id="Group_182" data-name="Group 182">
          <path id="Path_28" data-name="Path 28" d="M127.662,394.085h-2.443a.6.6,0,0,0,0,1.2h2.443a.6.6,0,1,0,0-1.2Z" transform="translate(-124.62 -394.085)" fill="#676767"/>
        </g>
      </g>
    </g>
    <text id="Ödə" transform="translate(1267 949)" fill="#676767" font-size="15" font-family="Helvetica-Bold, Helvetica" font-weight="700"><tspan x="0" y="0">Ödə</tspan></text>
  </g>
</svg>
