<svg xmlns="http://www.w3.org/2000/svg" width="19.341" height="19.341" viewBox="0 0 19.341 19.341">
  <path id="pencil_3_" data-name="pencil (3)" d="M18.42.921a3.155,3.155,0,0,0-4.456,0L1.34,13.545c-.006.006-.009.013-.015.02s-.014.018-.02.027a.34.34,0,0,0-.044.084c0,.009-.008.017-.01.026l0,.011L.009,18.91A.347.347,0,0,0,0,18.981s0,.009,0,.013a.348.348,0,0,0,.023.116c0,.009.007.016.011.025a.349.349,0,0,0,.069.1.352.352,0,0,0,.115.076.348.348,0,0,0,.133.026.352.352,0,0,0,.081-.009l5.2-1.237a.253.253,0,0,0,.027-.011l.035-.014a.345.345,0,0,0,.07-.043c.008-.007.017-.012.025-.019L5.795,18,18.419,5.377A3.154,3.154,0,0,0,18.42.921Zm-.495.495a2.453,2.453,0,0,1,.228,3.2L14.726,1.188A2.453,2.453,0,0,1,17.925,1.416Zm-1.733,5.2L12.726,3.149l.495-.495,3.466,3.466ZM1.737,17.6a.35.35,0,0,0-.495,0l-.265.265.894-3.755,1.548-.172-.2,1.793a.35.35,0,0,0,0,.039.358.358,0,0,0,0,.039c0,.012.007.021.01.032a.356.356,0,0,0,.018.058.341.341,0,0,0,.033.063.331.331,0,0,0,.035.044.351.351,0,0,0,.055.047.356.356,0,0,0,.048.029.364.364,0,0,0,.072.023.366.366,0,0,0,.038.012l.038,0h0l.038,0,1.793-.2L5.228,17.47l-3.756.894.265-.265A.35.35,0,0,0,1.737,17.6ZM6.13,15.686l7.834-7.834a.35.35,0,0,0-.495-.495L5.635,15.191l-1.671.186.186-1.671,7.834-7.834a.35.35,0,1,0-.495-.495L3.655,13.211l-1.114.124,9.691-9.691L15.7,7.109,6.006,16.8ZM17.182,5.624,13.716,2.159l.5-.5,3.466,3.466Z" fill="#fcd626"/>
</svg>
