<svg xmlns="http://www.w3.org/2000/svg" xmlns:xlink="http://www.w3.org/1999/xlink" width="783.559" height="739.601"><defs><linearGradient id="c" x1="-.102" y1=".5" x2="1.321" y2=".5" gradientUnits="objectBoundingBox"><stop offset="0" stop-color="#fff"/><stop offset=".123" stop-color="#eee6a9"/><stop offset=".448" stop-color="#cbbf68"/><stop offset=".903" stop-color="#a49420"/><stop offset="1" stop-color="#b8a200"/></linearGradient><linearGradient id="a" x1=".5" y1=".204" x2=".5" y2="1.339" gradientUnits="objectBoundingBox"><stop offset="0" stop-color="#fff"/><stop offset=".123" stop-color="#dadada"/><stop offset=".448" stop-color="#7d7d7d"/><stop offset=".713" stop-color="#3a3a3a"/><stop offset=".903" stop-color="#101010"/><stop offset="1"/></linearGradient><linearGradient id="d" x1="-.157" y1="1.012" x2="1.312" y2=".218" xlink:href="#a"/><linearGradient id="e" x1=".5" y1="1.963" x2=".5" y2=".035" xlink:href="#a"/><linearGradient id="f" x1=".5" y1="1.283" x2=".5" y2=".229" xlink:href="#a"/><linearGradient id="b" x1="1.026" y1="1.202" x2="-.305" y2=".172" gradientUnits="objectBoundingBox"><stop offset="0" stop-color="#fff"/><stop offset=".102" stop-color="#cfcfcf"/><stop offset=".234" stop-color="#999"/><stop offset=".368" stop-color="#6a6a6a"/><stop offset=".5" stop-color="#444"/><stop offset=".63" stop-color="#262626"/><stop offset=".758" stop-color="#111"/><stop offset=".883" stop-color="#040404"/><stop offset="1"/></linearGradient><linearGradient id="g" x1="0" y1=".5" x2="1" y2=".5" xlink:href="#a"/><linearGradient id="h" x1=".569" y1=".418" x2=".512" y2=".901" xlink:href="#a"/><linearGradient id="i" x1="1.011" y1=".907" x2="-.953" y2="-.398" gradientUnits="objectBoundingBox"><stop offset="0" stop-color="#fff"/><stop offset=".123" stop-color="#dadada"/><stop offset=".448" stop-color="#7d7d7d"/><stop offset=".713" stop-color="#3a3a3a"/><stop offset=".903" stop-color="#6a89c5"/><stop offset="1" stop-color="#284c94"/></linearGradient><linearGradient id="j" x1=".5" y1="1.456" x2=".5" y2="-1.212" xlink:href="#b"/><linearGradient id="k" x1=".223" y1=".97" x2="1.175" y2="-1.037" xlink:href="#b"/><linearGradient id="l" x1=".338" y1="1.35" x2=".6" y2="-.333" xlink:href="#b"/><linearGradient id="m" x1=".733" y1="1.903" x2=".189" y2="-1.147" xlink:href="#b"/></defs><g xmlns="http://www.w3.org/2000/svg" data-name="Group 706"><path data-name="Path 1023" d="M326.19 35.596c222.8 150.6 454.059 88.836 454.059 279.374s30.905 24.038-96.151 228.358c-42.925 379.453-341.236 96.391-468.401 71.268-54.707 87.532-277.322-157.454-199.285-234.45C145.19 253.089 103.39-115.004 326.19 35.596z" fill="#ffeb56" opacity=".15"/></g></svg>