<svg xmlns="http://www.w3.org/2000/svg" width="16.529" height="20.316" viewBox="0 0 16.529 20.316">
  <path id="garbage_2_" data-name="garbage (2)" d="M21.684,2.066H16.848A2.737,2.737,0,0,0,16.224.444,1.457,1.457,0,0,0,15.141,0H11.7a1.457,1.457,0,0,0-1.083.444,2.737,2.737,0,0,0-.624,1.622H5.844a.344.344,0,0,0,0,.689h.7L7.207,18.6A1.671,1.671,0,0,0,8.9,20.316h9.735a1.669,1.669,0,0,0,1.69-1.707l.66-15.854h.7a.344.344,0,0,0,0-.689ZM10.665,17.217a.344.344,0,0,1-.689,0V5.854a.344.344,0,1,1,.689,0Zm3.443,0a.344.344,0,0,1-.689,0V5.854a.344.344,0,0,1,.689,0Zm3.443,0a.344.344,0,0,1-.689,0V5.854a.344.344,0,1,1,.689,0ZM11.11.923A.781.781,0,0,1,11.7.689h3.443a.781.781,0,0,1,.588.234,2.026,2.026,0,0,1,.427,1.143H10.683A2.028,2.028,0,0,1,11.11.923Z" transform="translate(-5.5)" fill="#c0392c"/>
</svg>
