<svg id="rubbish-bin_2_" data-name="rubbish-bin (2)" xmlns="http://www.w3.org/2000/svg" width="16.453" height="22.075" viewBox="0 0 16.453 22.075">
  <g id="Group_35" data-name="Group 35" transform="translate(0)">
    <path id="Path_140" data-name="Path 140" d="M74.784,115.1a1.111,1.111,0,0,0,1.11,1.065H86.265a1.111,1.111,0,0,0,1.11-1.065l.741-15.635H74.043Zm8.642-11.752a.451.451,0,0,1,.451-.451H84.6a.451.451,0,0,1,.451.451v8.933a.451.451,0,0,1-.451.451h-.722a.451.451,0,0,1-.451-.451Zm-3.158,0a.451.451,0,0,1,.451-.451h.722a.451.451,0,0,1,.451.451v8.933a.451.451,0,0,1-.451.451h-.722a.451.451,0,0,1-.451-.451v-8.933Zm-3.158,0a.451.451,0,0,1,.451-.451h.722a.451.451,0,0,1,.451.451v8.933a.451.451,0,0,1-.451.451H77.56a.451.451,0,0,1-.451-.451Z" transform="translate(-72.853 -94.093)" fill="#fcd626"/>
    <path id="Path_141" data-name="Path 141" d="M67.772,1.137H62.987v-.9A.233.233,0,0,0,62.755,0H57.73A.233.233,0,0,0,57.5.233v.9H52.713a.7.7,0,0,0-.7.7v2.19H68.469V1.834A.7.7,0,0,0,67.772,1.137Z" transform="translate(-52.016)" fill="#fcd626"/>
  </g>
</svg>
