<svg xmlns="http://www.w3.org/2000/svg" xmlns:xlink="http://www.w3.org/1999/xlink" width="783.559" height="739.601" viewBox="0 0 783.559 739.601">
  <defs>
    <linearGradient id="linear-gradient" x1="-0.102" y1="0.5" x2="1.321" y2="0.5" gradientUnits="objectBoundingBox">
      <stop offset="0" stop-color="#fff"/>
      <stop offset="0.123" stop-color="#eee6a9"/>
      <stop offset="0.448" stop-color="#cbbf68"/>
      <stop offset="0.903" stop-color="#a49420"/>
      <stop offset="1" stop-color="#b8a200"/>
    </linearGradient>
    <linearGradient id="linear-gradient-3" x1="0.5" y1="0.204" x2="0.5" y2="1.339" gradientUnits="objectBoundingBox">
      <stop offset="0" stop-color="#fff"/>
      <stop offset="0.123" stop-color="#dadada"/>
      <stop offset="0.448" stop-color="#7d7d7d"/>
      <stop offset="0.713" stop-color="#3a3a3a"/>
      <stop offset="0.903" stop-color="#101010"/>
      <stop offset="1"/>
    </linearGradient>
    <linearGradient id="linear-gradient-4" x1="-0.157" y1="1.012" x2="1.312" y2="0.218" xlink:href="#linear-gradient-3"/>
    <linearGradient id="linear-gradient-5" x1="0.5" y1="1.963" x2="0.5" y2="0.035" xlink:href="#linear-gradient-3"/>
    <linearGradient id="linear-gradient-6" x1="0.5" y1="1.283" x2="0.5" y2="0.229" xlink:href="#linear-gradient-3"/>
    <linearGradient id="linear-gradient-7" x1="1.026" y1="1.202" x2="-0.305" y2="0.172" gradientUnits="objectBoundingBox">
      <stop offset="0" stop-color="#fff"/>
      <stop offset="0.102" stop-color="#cfcfcf"/>
      <stop offset="0.234" stop-color="#999"/>
      <stop offset="0.368" stop-color="#6a6a6a"/>
      <stop offset="0.5" stop-color="#444"/>
      <stop offset="0.63" stop-color="#262626"/>
      <stop offset="0.758" stop-color="#111"/>
      <stop offset="0.883" stop-color="#040404"/>
      <stop offset="1"/>
    </linearGradient>
    <linearGradient id="linear-gradient-8" x1="0" y1="0.5" x2="1" y2="0.5" xlink:href="#linear-gradient-3"/>
    <linearGradient id="linear-gradient-9" x1="0.569" y1="0.418" x2="0.512" y2="0.901" xlink:href="#linear-gradient-3"/>
    <linearGradient id="linear-gradient-10" x1="1.011" y1="0.907" x2="-0.953" y2="-0.398" gradientUnits="objectBoundingBox">
      <stop offset="0" stop-color="#fff"/>
      <stop offset="0.123" stop-color="#dadada"/>
      <stop offset="0.448" stop-color="#7d7d7d"/>
      <stop offset="0.713" stop-color="#3a3a3a"/>
      <stop offset="0.903" stop-color="#6a89c5"/>
      <stop offset="1" stop-color="#284c94"/>
    </linearGradient>
    <linearGradient id="linear-gradient-11" x1="0.5" y1="1.456" x2="0.5" y2="-1.212" xlink:href="#linear-gradient-7"/>
    <linearGradient id="linear-gradient-12" x1="0.223" y1="0.97" x2="1.175" y2="-1.037" xlink:href="#linear-gradient-7"/>
    <linearGradient id="linear-gradient-13" x1="0.338" y1="1.35" x2="0.6" y2="-0.333" xlink:href="#linear-gradient-7"/>
    <linearGradient id="linear-gradient-14" x1="0.733" y1="1.903" x2="0.189" y2="-1.147" xlink:href="#linear-gradient-7"/>
  </defs>
  <g id="Group_706" data-name="Group 706" transform="translate(-650.31 -11.404)">
    <path id="Path_1023" data-name="Path 1023" d="M423.5,0C646.3,150.6,877.559,88.836,877.559,279.374s30.905,24.038-96.151,228.358C738.483,887.185,440.172,604.123,313.007,579,258.3,666.532,35.685,421.546,113.722,344.55,242.5,217.493,200.7-150.6,423.5,0Z" transform="translate(553 47)" fill="#ffeb56" opacity="0.15"/>
    <line id="Line_71" data-name="Line 71" x2="143.18" transform="translate(800.57 649.671)" fill="none" stroke="#343947" stroke-miterlimit="10" stroke-width="0.504"/>
    <line id="Line_72" data-name="Line 72" x2="118.262" transform="translate(959.379 649.671)" fill="none" stroke="#343947" stroke-miterlimit="10" stroke-width="0.504"/>
    <g id="Group_671" data-name="Group 671" transform="translate(740.751 215.277)">
      <path id="Path_911" data-name="Path 911" d="M415.566,205.552c-4.16-4.037,9.94-13.4,16.423-18.8s20.1-5.709,33.495-4.15,25.933,1.993,32.846-.82,9.077-1.6,8.861.82-16.856,6.742-16.207,11.928,6.265,1.081,8.859,4.105,3.24,7.132,8.426,4.97,4.756-5.618,5.835-7.346,5.4-2.81,6.916,3.24,11.805,4.754,13.143,8-2.122,4.115-7.74,3.137S514.753,214.413,510,224.569s-12.318,25.714-21.609,28.093-20.046-.608-25.5,1.727c-4.656,1.993-6.267,9.078,1.511,12.1s13.3,1.071,15.777,2.594c4.213,2.592-.216,5.51,2.268,8.643s5.186,3.027,4.862,4.754-1.619,3.135-1.405,5.078-2.268,3.351-3.781,0-2.808-4.862-4.754-5.294-4.213.54-5.835-4.213-7.24-5.943-12.426-4.321-10.372.541-12.532-5.078-6.591-21.393-10.913-28.093-10.375-11.777-8.969-15.342,10.913-9.294,12.858-17.828-4-9.834-8.969-6.808S419.241,209.116,415.566,205.552Z" transform="translate(-414.811 -135.535)" fill="#c0cbcc"/>
      <path id="Path_912" data-name="Path 912" d="M444.695,251.63c6.493,5.259,3.17,11.237,5.186,18.728s11.237,10.086,12.677,19.882,2.305,31.981,2.881,40.338,8.643,19.593,12.966,18.15-2.019-6.626,3.167-13.253,8.934-8.932,8.934-14.693,4.321-3.746,8.067-7.78,3.168-7.491,7.2-14.4,9.8-5.189,12.1-17.866,6.916-25.355,0-29.1-10.661-.329-14.694-8.233-8.932-7.9-15.561-7.612-7.778-2.305-12.1-7.491-15.561-10.086-19.882-8.07-3.839,10.284-7.2,16.137S438.644,246.733,444.695,251.63Z" transform="translate(-373.348 -75.583)" fill="#c0cbcc"/>
      <path id="Path_913" data-name="Path 913" d="M505.863,193.211c6.016,3.24-.432,7.778,2.376,10.8s5.835,4.754,10.588,2.159,8.861-5.681,13.183,1.267,12.967,16.237,19.018,23.153,10.372,12.1,15.126,12.1,6.483-4.97,10.372-3.457,3.457,9.291,1.946,12.315-14.264,22.258-14.48,28.741,1.513,12.318-1.3,17.288-14.636,10.588-19.2,14.477-8.437,13.615-10.066,17.72-11.788,12.318-17.839,11.886-5.835-8.21-5.618-15.558,1.513-13.4-1.081-17.288-3.889-4.105-3.024-8.643,2.592-6.267,1.078-9.294-5.618-7.346-5.618-14.477-1.511-7.763-3.889-8.959-5.835-4.359-6.267-7.207-11.388,1.038-15.724-1.986-11.936-18.8-9.99-26.363S500.244,190.184,505.863,193.211Z" transform="translate(-338.619 -116.062)" fill="#c0cbcc"/>
      <path id="Path_914" data-name="Path 914" d="M711.12,172.927c0-3.6-5.043-8.5-12.966-6.627s-17.288,5.186-23.2,2.162-4.9-5.908-8.786-6.051-3.6,4.465-7.348,3.6-5.618-2.448-12.534-3.024-26.506,1.3-34.573,2.305-20.6,17.864-27.085,19.593-8.932.432-13.256.287-8.932,2.594-13.54,2.305-9.077-2.881-14.407-2.016-20.89,22.927-25.355,21.476,5.619-12.687,5.186-13.552-4.754,3.457-10.086,2.881-9.651-2.167-14.118,1.151-11.091,11.725-13.11,12.057-4.61-.82-6.916,1.342-3.457,5.619-2.592,5.619,4.754-4.9,7.348-3.17c2.373,1.581-4.324,5.332-1.873,6.483s7.635-5.908,10.083-9.075,9.354-7.924,13.681-2.738-5.613,14.983-7.341,16.566-10.229,5.908-7.2,8.789,3.17-1.44,9.078-2.162,6.051,0,9.364-1.295,5.329-3.6,7.924-2.738.287,4.754,3.6,5.329,4.321-2.305,7.637-5.186,3.313-4.321,10.226-.289,7.637,6.627,6.627,8.213-7.2,2.821-11.523,2.345-5.993-.131-7.247,1.86,1.918,2.853,2.637,7.031-.354,7.2,2.594,11.38,15.269,13.975,18.15,18.3,6.34,2.738,10.086.576,5.618-1.727,6.915-3.457,2.881-8.789,1.295-10.083-3.889,1.44-8.21-3.316-7.635-9.507-5.332-10.8,8.356,7.2,16.712,10.95,15.126,7.059,16.712,15.415-.146,17.142,2.305,18.15,7.345-9.075,13.686-12.245,12.1-5.043,12.821,5.043,0,12.534,5.618,15.558,10.8,4.321,15.991,8.932,6.483,7.635,8.213,6.916-1.154-4.61,0-8.5a33.37,33.37,0,0,0,1.584-13.4c-.576-4.9-8.932-12.1-7.924-17.142s9.078-7.78,16.423-12.534,9.8-8.067,9.653-14.118-10.8-17.864-5.186-21.609,6.916,17.431,12.389,17.431-2.159-8.932,3.17-13.686,12.245-7.924,13.4-15.847-4.9-11.958-4.178-16.855,2.592-6.627,6.627-4.61,5.186.146,8.21-5.762,8.645-5.475,10.661-9.075S711.12,176.529,711.12,172.927Zm-148.783,63.5c-3.024,2.486-7.238-3.673-9.508-7.346a36.121,36.121,0,0,0-7.454-8.645c-2.27-1.835-2.029-2.755-.865-3.781,2.426-2.142,12.424-2.054,13.288,0s-1.727,8,.757,11.345S563.877,235.157,562.336,236.422Z" transform="translate(-321.947 -162.408)" fill="#c0cbcc"/>
      <path id="Path_915" data-name="Path 915" d="M547.018,238.3c1.652,2.391,14.048-3.024,15.126-5.186s-1.4-4.538-.865-6.483,1.081-4.97-1.511-6.481C555.877,217.877,542.913,232.354,547.018,238.3Z" transform="translate(-215.868 -75.36)" fill="#c0cbcc"/>
      <path id="Path_916" data-name="Path 916" d="M556.733,223.61c1.785.161.327,2.237,2.725,4.759s3.459,4.15,2.4,5.329-5.329.568-6.752-1.709S553.56,223.326,556.733,223.61Z" transform="translate(-203.87 -69.768)" fill="#c0cbcc"/>
      <path id="Path_917" data-name="Path 917" d="M557,222.536c1.649-2.474,5.4-1.35,11.453,1.081s14.264,10.048,13.94,11.669-4.429,1.566-6.159,2.431-7.833,1.73-10.372-2.215-1.782-6.488-4.213-8.188S555.6,224.643,557,222.536Z" transform="translate(-200.028 -73.483)" fill="#c0cbcc"/>
      <path id="Path_918" data-name="Path 918" d="M540.662,228.823c3.776-2.758,13.831,4.683,21.106,5.116s24.633.143,24.779,2.232-16.28,5.978-26.149,3.962S536.916,231.561,540.662,228.823Z" transform="translate(-225.251 -62.789)" fill="#c0cbcc"/>
      <path id="Path_919" data-name="Path 919" d="M545.855,250.116c8.082-11.124,18.5-5.186,27.834-9.291s13.871,8.859,21.652,9.291,7.582-6.051,6.385-11.237,2.157-6.267,8.258,1.729,12.368,17.288,16.69,20.1,6.051,1.73,5.835,9.075-.216,23.123-7.129,23.123-11.453-10.123-21.4-14.462-28.522,10.141-36.951,7.982S548.879,266.755,545.855,262,543.776,252.977,545.855,250.116Z" transform="translate(-219.35 -52.819)" fill="#c0cbcc"/>
    </g>
    <path id="Path_924" data-name="Path 924" d="M750.347,171.3c25.745,0,114.838,31.148,114.838,98.364s-64.775,77.809-111.216,62.329-149.1-79.6-220.8-95.2-120.15,3.23-115.766,50.765c2.119,22.957,31.564,58.04,81.671,59.083" transform="translate(329.446 80.349)" fill="none" stroke="#001c54" stroke-miterlimit="10" stroke-width="0.688"/>
    <g id="Group_673" data-name="Group 673" transform="translate(789.06 246.952)">
      <ellipse id="Ellipse_42" data-name="Ellipse 42" cx="12.916" cy="4.9" rx="12.916" ry="4.9" transform="translate(4.79 50.33)" fill="#fff"/>
      <path id="Path_925" data-name="Path 925" d="M569.011,207.632c-8.909,0-17.707,6.621-17.707,16.659,0,9.692,3.054,22.878,16.255,36.657a2.024,2.024,0,0,0,2.9,0c13.2-13.779,16.257-26.966,16.257-36.657C586.718,214.253,577.918,207.632,569.011,207.632Zm0,24.835a7.129,7.129,0,1,1,7.128-7.128A7.129,7.129,0,0,1,569.011,232.467Z" transform="translate(-551.304 -207.632)" fill="#ffe051"/>
      <path id="Path_926" data-name="Path 926" d="M561.882,225.339a7.13,7.13,0,0,1,7.129-7.129V207.632c-8.909,0-17.707,6.622-17.707,16.659,0,9.692,3.054,22.878,16.255,36.657a2,2,0,0,0,1.451.613V232.467A7.129,7.129,0,0,1,561.882,225.339Z" transform="translate(-551.304 -207.632)" fill="url(#linear-gradient)"/>
    </g>
    <g id="Group_705" data-name="Group 705" transform="translate(951.052 248.521)">
      <ellipse id="Ellipse_42-2" data-name="Ellipse 42" cx="7.087" cy="2.689" rx="7.087" ry="2.689" transform="translate(2.628 27.614)" fill="#fff"/>
      <path id="Path_925-2" data-name="Path 925" d="M561.019,207.632c-4.888,0-9.715,3.633-9.715,9.14,0,5.317,1.675,12.552,8.919,20.112a1.111,1.111,0,0,0,1.592,0c7.243-7.56,8.92-14.795,8.92-20.112C570.734,211.265,565.906,207.632,561.019,207.632Zm0,13.626a3.911,3.911,0,1,1,3.911-3.911A3.911,3.911,0,0,1,561.019,221.258Z" transform="translate(-551.304 -207.632)" fill="#ffe051"/>
      <path id="Path_926-2" data-name="Path 926" d="M557.107,217.347a3.912,3.912,0,0,1,3.912-3.912v-5.8c-4.888,0-9.715,3.633-9.715,9.14,0,5.317,1.675,12.552,8.919,20.112a1.1,1.1,0,0,0,.8.336V221.258A3.911,3.911,0,0,1,557.107,217.347Z" transform="translate(-551.304 -207.632)" fill="url(#linear-gradient)"/>
    </g>
    <g id="Group_679" data-name="Group 679" transform="translate(910.358 312.884)">
      <path id="Path_927" data-name="Path 927" d="M539.587,263a33.055,33.055,0,1,0-49.745-17.771,4.654,4.654,0,0,1-.48,3.957l-6.88,10.526a1.224,1.224,0,0,0,1.237,1.875l12.383-2.174a4.65,4.65,0,0,1,3.826,1.116A33.051,33.051,0,0,0,539.587,263Z" transform="translate(-482.279 -199.5)" opacity="0.3" fill="url(#linear-gradient-3)"/>
      <path id="Path_928" data-name="Path 928" d="M538.084,260.26a32.187,32.187,0,1,0-48.44-17.3,4.531,4.531,0,0,1-.468,3.854l-6.7,10.246a1.193,1.193,0,0,0,1.2,1.828l12.059-2.119a4.53,4.53,0,0,1,3.726,1.089A32.187,32.187,0,0,0,538.084,260.26Z" transform="translate(-482.279 -201.235)" fill="#fff"/>
      <g id="Group_678" data-name="Group 678" transform="translate(16.393 21.908)">
        <path id="Path_929" data-name="Path 929" d="M515.882,232.67H491.188a2.386,2.386,0,0,1-2.356-2.773L492.1,209.95h29.533l-3.4,20.719A2.387,2.387,0,0,1,515.882,232.67Z" transform="translate(-488.8 -209.95)" fill="#eedb4b"/>
        <path id="Path_930" data-name="Path 930" d="M519.249,216.035H489.716l1-6.085h29.533Z" transform="translate(-487.413 -209.95)" fill="#ffb600"/>
        <g id="Group_677" data-name="Group 677" transform="translate(32.77 2.142)">
          <g id="Group_674" data-name="Group 674" transform="translate(2.454)">
            <path id="Path_931" data-name="Path 931" d="M513.4,214.261h-8.859a1.73,1.73,0,1,1,0-3.459H513.4a1.73,1.73,0,1,1,0,3.459Z" transform="translate(-502.812 -210.802)" fill="#eedb4b"/>
          </g>
          <g id="Group_675" data-name="Group 675" transform="translate(1.227 7.489)">
            <path id="Path_932" data-name="Path 932" d="M512.912,217.24h-8.861a1.73,1.73,0,0,1,0-3.459h8.861a1.73,1.73,0,0,1,0,3.459Z" transform="translate(-502.324 -213.781)" fill="#eedb4b"/>
          </g>
          <g id="Group_676" data-name="Group 676" transform="translate(0 14.978)">
            <path id="Path_933" data-name="Path 933" d="M512.422,220.219h-8.856a1.73,1.73,0,0,1,0-3.459h8.856a1.73,1.73,0,0,1,0,3.459Z" transform="translate(-501.836 -216.76)" fill="#eedb4b"/>
          </g>
        </g>
        <path id="Path_934" data-name="Path 934" d="M499.906,232.671h-6.742l3.723-22.721h6.742Z" transform="translate(-482.193 -209.95)" fill="#3c4b6a"/>
        <path id="Path_935" data-name="Path 935" d="M519.164,214H489.631l.287-1.629h29.533Z" transform="translate(-487.542 -206.285)" opacity="0.4"/>
      </g>
    </g>
    <g id="Group_697" data-name="Group 697" transform="translate(937.661 358.231)">
      <path id="Path_975" data-name="Path 975" d="M524.8,318.015l1.85,27.225a4.774,4.774,0,0,1-1.385,3.7l-4.01,4.01a9.194,9.194,0,0,1-4.786,2.539c-3.628.686-9.694,2.343-9.769,5.749h32.1a2.722,2.722,0,0,0,2.534-3.715l-4.268-10.873.7-28.63Z" transform="translate(-472.617 -69.793)" fill="#ff9c87"/>
      <path id="Path_976" data-name="Path 976" d="M538.937,318.015l6.084,26.551a5.262,5.262,0,0,1-1.408,4.895l-3.484,3.484a9.193,9.193,0,0,1-4.786,2.539c-3.628.686-9.693,2.343-9.769,5.749h32.1a2.72,2.72,0,0,0,2.532-3.715l-4.268-10.873-4.03-28.63Z" transform="translate(-444.041 -69.793)" fill="#ff9c87"/>
      <path id="Path_977" data-name="Path 977" d="M525.5,264.842s-16.37,70.18-12.778,136.385h20.745s.219-22.444-1.642-41.519c0,0,11.245-50.215,13.862-59.471s9.141-20.86,6.42-35.4Z" transform="translate(-464.269 -150.29)" fill="#7893c9"/>
      <path id="Path_978" data-name="Path 978" d="M548.834,275.249l0,0-35.868,65.117a409.734,409.734,0,0,0-.239,45.111H533.47s.219-22.444-1.642-41.519c0,0,11.244-50.215,13.862-59.471C546.5,281.635,547.673,278.563,548.834,275.249Z" transform="translate(-464.268 -134.538)" opacity="0.3" fill="url(#linear-gradient-4)"/>
      <path id="Path_979" data-name="Path 979" d="M522.628,264.842s-.724,71.748,17.627,139.429H561s-4.784-22.942-10.9-42.444c0,0,.05-51.336.6-60.8s4.49-21.323-1.471-36.185Z" transform="translate(-448.505 -150.29)" fill="#7893c9"/>
      <path id="Path_980" data-name="Path 980" d="M532.533,264.842s2.808,21.3,1.511,31.024-3.24,65.26-3.24,65.26,9.508,30.541,12.1,43.146" transform="translate(-436.124 -150.29)" fill="none" stroke="#bababa" stroke-miterlimit="10" stroke-width="0.271"/>
      <path id="Path_981" data-name="Path 981" d="M527.209,264.842s-2.27,16.184,12.7,19.787" transform="translate(-441.751 -150.29)" fill="none" stroke="#bababa" stroke-miterlimit="10" stroke-width="0.271"/>
      <path id="Path_982" data-name="Path 982" d="M560.2,338.186l-2.587-6.594a13.972,13.972,0,0,1-14.661-.807l-2.826,2.828a9.194,9.194,0,0,1-4.786,2.539c-3.628.686-9.693,2.343-9.769,5.749h32.1A2.72,2.72,0,0,0,560.2,338.186Z" transform="translate(-444.041 -50.461)" fill="#001c54"/>
      <path id="Path_983" data-name="Path 983" d="M541.328,338.03l-2.358-6c-7.288,2.132-12.5.314-15.149-1.139l-2.569,2.569A9.2,9.2,0,0,1,516.466,336c-3.628.686-9.694,2.343-9.769,5.749h32.1A2.722,2.722,0,0,0,541.328,338.03Z" transform="translate(-472.617 -50.305)" fill="#001c54"/>
      <path id="Path_984" data-name="Path 984" d="M559.038,264.842h-39.5s-1.453,6.247-3.394,16.72c16.049,5.091,36-2.7,45.526-7.233A44.55,44.55,0,0,0,559.038,264.842Z" transform="translate(-458.308 -150.29)" opacity="0.3" fill="url(#linear-gradient-5)"/>
      <path id="Path_985" data-name="Path 985" d="M522.665,268.5s.89,27.064,2.419,41.992" transform="translate(-448.443 -144.755)" fill="none" stroke="#bababa" stroke-miterlimit="10" stroke-width="0.271"/>
      <path id="Path_986" data-name="Path 986" d="M534.419,239.9l-19.834,19.674,8.644,9.757L539.8,249.347Z" transform="translate(-460.675 -188.048)" fill="#ff9c87"/>
      <path id="Path_987" data-name="Path 987" d="M520.834,221.915c-2.484,2.69-5.618,8.092,0,14.575s.865,14.8-.865,17.61-4.646,10.229,2.378,10.229H543.2s6.7-20.061.865-30.109S520.834,221.915,520.834,221.915Z" transform="translate(-455.976 -215.276)" fill="#33353a"/>
      <path id="Path_988" data-name="Path 988" d="M522.2,224.833s-.649,8.067-4.178,9.291c.578,1.44,2.667,1.657,2.667,1.657s.5,7.2,2.232,9.148,7.275.721,9.075,2.378,1.657,8.932,1.657,8.932,5.691,1.873,10.734,0C544.388,242.445,544.964,224.833,522.2,224.833Z" transform="translate(-455.471 -210.858)" fill="#ff9c87"/>
      <path id="Path_989" data-name="Path 989" d="M538.5,229.489c-.108.128-.216.214-.324.362-4.452,6.189-14.052,9.3-17.67,8.806,2.35.787,6.259.254,7.722,1.6a6.415,6.415,0,0,1,1.29,3.406l10.9-4.1A35.678,35.678,0,0,0,538.5,229.489Z" transform="translate(-451.706 -203.81)" opacity="0.3" fill="url(#linear-gradient-6)"/>
      <path id="Path_990" data-name="Path 990" d="M535.736,237.326s-11.41,15.088-12.318,24.274c-1.008,10.229,2.775,15.272-6.77,46.964,0,0,16.712,7.2,45.235,0-2.881-10.083-3.409-17.72-.913-29.387s3.218-31.119-4.274-41.851Z" transform="translate(-457.552 -191.946)" fill="#fefefe"/>
      <path id="Path_991" data-name="Path 991" d="M561.885,290.5c-5.281-17.665-38.57-33.382-38.641-41.24v0c.143,7.554,1.053,15.832-6.6,41.238C516.648,290.5,533.36,297.7,561.885,290.5Z" transform="translate(-457.552 -173.881)" opacity="0.6" fill="url(#linear-gradient-7)"/>
      <rect id="Rectangle_490" data-name="Rectangle 490" width="64.21" height="45.179" transform="translate(0 67.542)" fill="#fff"/>
      <rect id="Rectangle_491" data-name="Rectangle 491" width="19.357" height="45.179" transform="translate(0 67.542)" opacity="0.3" fill="url(#linear-gradient-8)"/>
      <rect id="Rectangle_492" data-name="Rectangle 492" width="9.076" height="45.179" transform="translate(37.245 67.542)" fill="#ffa600"/>
      <path id="Path_992" data-name="Path 992" d="M500.43,282.261l45.884-30.129v30.121Z" transform="translate(-482.104 -169.532)" opacity="0.3" fill="url(#linear-gradient-9)"/>
      <path id="Path_993" data-name="Path 993" d="M518.94,225.913a21.947,21.947,0,0,0,1.873,7.335c1.8,4.213,11.3,7.381,14.442,11.345,3.459,4.357,3.135,10.407,3.351,15.234s-.432,7.564,4.97,8.213,9.508,0,13.072,0,4.324-3.892,1.838-9.4a49.352,49.352,0,0,1-4.646-19.015c-.216-10.8-5.186-20.35-16.207-20.35C522.542,219.274,518.94,225.913,518.94,225.913Z" transform="translate(-454.083 -219.274)" fill="#33353a"/>
      <path id="Path_994" data-name="Path 994" d="M519.95,306.814a247.18,247.18,0,0,0,39.131-7.592,19.8,19.8,0,0,0,13.19-12.456l12.758-36.026a8.535,8.535,0,0,0-5.425-10.973h0a6.586,6.586,0,0,0-8.243,4.113l-15.126,43.678-38.583,13.293s-9.156-4-10.307-3.708,3.313,4.321,3.313,4.321H500.43S503.743,311.728,519.95,306.814Z" transform="translate(-482.104 -188.735)" fill="#ff9c87"/>
      <line id="Line_67" data-name="Line 67" x1="64.21" transform="translate(0 76.545)" fill="none" stroke="#343947" stroke-miterlimit="10" stroke-width="0.261"/>
      <line id="Line_68" data-name="Line 68" y2="37.434" transform="translate(19.357 70.432)" fill="none" stroke="#343947" stroke-miterlimit="10" stroke-width="0.261"/>
    </g>
    <path id="Path_995" data-name="Path 995" d="M476.557,328.616h12.1a8.247,8.247,0,0,0,4.646,5.332c3.122,1.194,16,2.7,19.8,8.034a2.106,2.106,0,0,1-1.843,3.2H476.876a2.368,2.368,0,0,1-2.32-2.9C475.383,338.719,476.63,332.648,476.557,328.616Z" transform="translate(416.291 304.487)" fill="#001c54"/>
    <path id="Path_996" data-name="Path 996" d="M452.463,328.158h12.424s-2.069,5.078,1.606,6.483c3.122,1.194,16,2.7,19.8,8.034a2.106,2.106,0,0,1-1.843,3.2H451.566a2.977,2.977,0,0,1-2.755-4.1C450.419,337.816,452.528,331.891,452.463,328.158Z" transform="translate(377.073 303.794)" fill="#001c54"/>
    <path id="Path_997" data-name="Path 997" d="M495.545,262.369,510.146,354a35.762,35.762,0,0,1,.317,9.1l-6.518,66.942H487.807s-3.318-10.151-3.155-15.953.978-11.315-1.737-20.307-.4-18.565.412-24.075,1.285-15.521,1.285-15.521-13.867-52.764-15.38-59.435-6.265-28.178-1.923-32.376Z" transform="translate(402.712 204.198)" fill="#001c54"/>
    <path id="Path_998" data-name="Path 998" d="M468.914,285.685c1.513,6.672,15.38,59.436,15.38,59.436s-.468,10.008-1.285,15.521-3.13,15.083-.412,24.075,1.9,14.505,1.737,20.307,3.155,15.953,3.155,15.953h16.137l6.519-66.942a35.765,35.765,0,0,0-.317-9.1l-1.875-11.77-42.218-64.813C466.559,275.154,468.147,282.314,468.914,285.685Z" transform="translate(403.031 213.258)" opacity="0.3" fill="url(#linear-gradient-10)"/>
    <path id="Path_999" data-name="Path 999" d="M467.914,275.161l20.5,53.04a42.474,42.474,0,0,1,2.846,16.3l-1.534,66.17" transform="translate(406.331 223.563)" fill="none" stroke="#eedb4b" stroke-miterlimit="10" stroke-width="0.271"/>
    <path id="Path_1000" data-name="Path 1000" d="M502.267,262.369l-10.141,91.01a38.246,38.246,0,0,1-2.142,9.035l-24.6,66.492H449.252s-.576-10.083,1.154-15.845,4.032-11.237,3.746-20.169,4.61-18.442,6.913-23.917,5.475-15.413,5.475-15.413.382-52.407.671-59.036,1.345-27.987,6.82-32.158Z" transform="translate(377.94 204.198)" fill="#001c54"/>
    <path id="Path_1001" data-name="Path 1001" d="M473.849,262.942s-6.546,31.434-3.715,84.81a19.612,19.612,0,0,1-1.37,8.391c-4.314,10.649-15.812,41.554-17.388,71.894" transform="translate(381.293 205.065)" fill="none" stroke="#eedb4b" stroke-miterlimit="10" stroke-width="0.271"/>
    <path id="Path_1002" data-name="Path 1002" d="M467.29,263.429s-.083,14.53-7.966,16.664" transform="translate(393.327 205.802)" fill="none" stroke="#eedb4b" stroke-miterlimit="10" stroke-width="0.271"/>
    <path id="Path_1003" data-name="Path 1003" d="M478,263.429s1.443,18.64-8.716,19.945" transform="translate(408.405 205.802)" fill="none" stroke="#eedb4b" stroke-miterlimit="10" stroke-width="0.271"/>
    <path id="Path_1024" data-name="Path 1024" d="M4.1,0,0,36.761" transform="translate(875.521 471.879)" fill="none" stroke="#eedb4b" stroke-width="0.271"/>
    <path id="Path_1004" data-name="Path 1004" d="M507.663,262.369H461.378c-1.659,1.265-2.908,4.12-3.859,7.657l52.261,5.623Z" transform="translate(390.594 204.198)" opacity="0.6" fill="url(#linear-gradient-11)"/>
    <path id="Path_1005" data-name="Path 1005" d="M497.884,253.09s-5.8,13.947-12.416,21.566S449.246,290.6,449.246,290.6s-19.012,4.9-20.287,2.627a10.679,10.679,0,0,1-1.413-3.58l6.941-.241,5.958-3.761-5.221-1.39.757-1.833s8.557-1.948,12.655,1.971l28.032-16.534,9.11-20.571Z" transform="translate(345.219 181.372)" fill="#ff9c87"/>
    <path id="Path_1006" data-name="Path 1006" d="M464.552,253.09l-12.107-5.8-2.881,6.506,10.086,9.442C462.588,257.8,464.552,253.09,464.552,253.09Z" transform="translate(378.552 181.372)" opacity="0.6" fill="url(#linear-gradient-12)"/>
    <path id="Path_1007" data-name="Path 1007" d="M487.039,235.876s3.839,3.5,9.025,14.593l-10.8,14.1-8.21-9.947Z" transform="translate(420.161 164.091)" fill="#eedb4b"/>
    <path id="Path_1008" data-name="Path 1008" d="M487.691,221.452s-.721,6.77,5.4,8.786l-3.746,1.549.392,8.137a3.61,3.61,0,0,1-3.6,3.786h-2.577a1.808,1.808,0,0,0-1.795,2.044l1.244,11.586h-18.08L465,243.079l.287-21.627Z" transform="translate(401.811 142.254)" fill="#ff9c87"/>
    <path id="Path_1009" data-name="Path 1009" d="M481.719,237.135a1.808,1.808,0,0,1,1.795-2.044h2.577a3.563,3.563,0,0,0,1.466-.314,39.865,39.865,0,0,1-15.468-7.632c-1.6.935-4.228,1.27-7.051,1.3l-.081,6.018c11.139,11.672,17.185,6.609,17.185,6.609Z" transform="translate(401.854 150.873)" opacity="0.2" fill="url(#linear-gradient-13)"/>
    <path id="Path_1010" data-name="Path 1010" d="M500.017,235.713l-1.631-3.029-9.223,2.426-1.8,5.6-1.8-5.6-9.224-2.426-1.631,3.029c-11.9,2.19-18.371,5-18.371,5,2.232,17.1,3.763,58.274,4.082,67.437a1.9,1.9,0,0,0,1.913,1.828h44.639a4.494,4.494,0,0,0,4.48-4.06c1.2-12.293,4.849-49.244,6.933-65.2C518.388,240.708,511.913,237.9,500.017,235.713Z" transform="translate(388.811 159.258)" fill="#eedb4b"/>
    <path id="Path_1011" data-name="Path 1011" d="M472.093,234.417l-2.485,5.943-5.51-5.4" transform="translate(400.553 161.883)" fill="none" stroke="#343947" stroke-miterlimit="10" stroke-width="0.688"/>
    <path id="Path_1012" data-name="Path 1012" d="M470.094,234.417l2.485,5.943,5.51-5.4" transform="translate(409.632 161.883)" fill="none" stroke="#343947" stroke-miterlimit="10" stroke-width="0.688"/>
    <path id="Path_1013" data-name="Path 1013" d="M467.177,235.876c-4.92,1.843-17.994,30.621-17.994,30.621l16.315,6.878,8-15.126Z" transform="translate(377.975 164.091)" fill="#eedb4b"/>
    <path id="Path_1014" data-name="Path 1014" d="M498.385,232.684l-9.223,2.426-1.8,5.6-1.8-5.6-9.224-2.426-1.631,3.029c-11.9,2.19-18.371,5-18.371,5,1,7.68,1.863,20.214,2.536,32.529h55.863c1.28-12.315,2.645-24.85,3.648-32.529,0,0-6.476-2.806-18.371-5Z" transform="translate(388.811 159.258)" fill="#001c54"/>
    <path id="Path_1015" data-name="Path 1015" d="M508.125,289.807H472.779l10.162-51.381h35.346Z" transform="translate(413.696 167.952)" opacity="0.4"/>
    <path id="Path_1016" data-name="Path 1016" d="M509.3,288.62H473.956l10.162-51.38h35.346Z" transform="translate(415.478 166.155)" fill="#fff"/>
    <path id="Path_1017" data-name="Path 1017" d="M490.05,244.1s3.394,2.632,4.118,5.671a29.977,29.977,0,0,0-4.708-3.484l-1.667,5.45,1.956,2.738s.8,4.349,3.7,4.276,4.274-4.392,4.492-7.014S495.766,244,495.766,244l-.523,2.637a16.322,16.322,0,0,0-4.671-4.666Z" transform="translate(436.424 173.313)" fill="#ff9c87"/>
    <line id="Line_70" data-name="Line 70" y2="69.267" transform="translate(876.175 399.965)" fill="none" stroke="#343947" stroke-miterlimit="10" stroke-width="0.261"/>
    <path id="Path_1018" data-name="Path 1018" d="M474.5,233.649l-2.57,7.189-8.284-6.584" transform="translate(399.875 160.719)" fill="none" stroke="#343947" stroke-miterlimit="10" stroke-width="0.261"/>
    <path id="Path_1019" data-name="Path 1019" d="M469.394,233.649l2.57,7.189,8.284-6.584" transform="translate(408.572 160.719)" fill="none" stroke="#343947" stroke-miterlimit="10" stroke-width="0.261"/>
    <path id="Path_1020" data-name="Path 1020" d="M472.2,235.207c-1.048-2.016.759-6.121,2.848-6.121,2.051,0,2.511,3.142,2.526,3.255a42.64,42.64,0,0,0,3.924-11.27H463.528s-2,10.669,1.151,17.522a23.335,23.335,0,0,0,3.386,5.06,28.158,28.158,0,0,0,7.132-7.315A2.273,2.273,0,0,1,472.2,235.207Z" transform="translate(398.746 141.679)" fill="#33353a"/>
    <path id="Path_1021" data-name="Path 1021" d="M490.72,222.027h-9.445c.133-.608.191-.955.191-.955H463.493a44.532,44.532,0,0,0-.566,5.262l29.37,1.732A9.765,9.765,0,0,1,490.72,222.027Z" transform="translate(398.781 141.679)" opacity="0.6" fill="url(#linear-gradient-14)"/>
    <path id="Path_1022" data-name="Path 1022" d="M462.636,231.928h40.3s0-4-10.913-4c0,0-4.324-12.21-13.4-12.21C466.849,215.721,462.636,223.285,462.636,231.928Z" transform="translate(398.341 133.579)" fill="#eedb4b"/>
    <g id="Group_703" data-name="Group 703" transform="matrix(0.978, 0.208, -0.208, 0.978, 1035.745, 231.376)">
      <g id="Group_474" data-name="Group 474" transform="translate(18.718 0)">
        <path id="Path_683" data-name="Path 683" d="M0,30.926,9.622,5.282,17.589,0l4.575,7.7Z" fill="#ffe051"/>
        <path id="Path_684" data-name="Path 684" d="M23.225,3.626,22.164,0,0,23.224Z" transform="translate(0 7.702)" fill="#ffb600"/>
        <path id="Path_685" data-name="Path 685" d="M26.821,1.349,23.225,0,0,19.6Z" transform="translate(0 11.328)" fill="#fdc526"/>
        <path id="Path_686" data-name="Path 686" d="M26.73,12.609,0,18.249,26.821,0l5.9,5.779Z" transform="translate(0 12.677)" fill="#ffe051"/>
      </g>
      <g id="Group_475" data-name="Group 475" transform="translate(31.003 30.267)">
        <path id="Path_687" data-name="Path 687" d="M0,15.74,4.9,2.689,8.952,0l2.329,3.92Z" fill="#ffe051"/>
        <path id="Path_688" data-name="Path 688" d="M11.82,1.845,11.281,0,0,11.82Z" transform="translate(0 3.92)" fill="#ffb600"/>
        <path id="Path_689" data-name="Path 689" d="M13.651.687,11.82,0,0,9.975Z" transform="translate(0 5.766)" fill="#fdc526"/>
        <path id="Path_690" data-name="Path 690" d="M13.6,6.417,0,9.288,13.651,0l3,2.941Z" transform="translate(0 6.452)" fill="#ffe051"/>
      </g>
      <g id="Group_476" data-name="Group 476" transform="translate(0 35.704)">
        <path id="Path_691" data-name="Path 691" d="M0,35.719,11.113,6.1l9.2-6.1L25.6,8.9Z" fill="#ffe051"/>
        <path id="Path_692" data-name="Path 692" d="M26.824,4.188,25.6,0,0,26.824Z" transform="translate(0 8.896)" fill="#ffb600"/>
        <path id="Path_693" data-name="Path 693" d="M30.977,1.558,26.824,0,0,22.636Z" transform="translate(0 13.083)" fill="#fdc526"/>
        <path id="Path_694" data-name="Path 694" d="M30.872,14.563,0,21.077,30.977,0l6.817,6.674Z" transform="translate(0 14.642)" fill="#ffe051"/>
      </g>
    </g>
  </g>
</svg>
