<svg xmlns="http://www.w3.org/2000/svg" width="24.209" height="10.176" viewBox="0 0 24.209 10.176">
  <g id="sort-alphabet-ascending" transform="translate(-0.001)">
    <path id="Path_606" data-name="Path 606" d="M5.691,123.854a.44.44,0,0,0-.4-.249H4.766a.439.439,0,0,0-.4.25l-4.327,9.07a.439.439,0,0,0,.4.629h.649a.44.44,0,0,0,.4-.25l1.132-2.373H7.477l1.145,2.375a.44.44,0,0,0,.4.249H9.67a.44.44,0,0,0,.381-.658Zm-2.374,5.613,1.718-3.6,1.736,3.6Z" transform="translate(-0.001 -123.379)" fill="#f8ca1c"/>
    <path id="Path_607" data-name="Path 607" d="M287.286,120.458l-.234-.47a.44.44,0,0,0-.393-.244H280.1a.439.439,0,0,0-.439.439v.586a.439.439,0,0,0,.439.439h5.1l-5.608,7.53a.439.439,0,0,0-.041.458l.234.47a.44.44,0,0,0,.393.244H286.7a.439.439,0,0,0,.439-.439v-.586a.439.439,0,0,0-.439-.439h-5.059l5.608-7.53A.44.44,0,0,0,287.286,120.458Z" transform="translate(-263.123 -119.745)" fill="#f8ca1c"/>
    <path id="Path_608" data-name="Path 608" d="M176.6,125.773l-.461-.361a.439.439,0,0,0-.617.075l-1.068,1.364v-6.666a.439.439,0,0,0-.439-.439h-.586a.439.439,0,0,0-.439.439v6.666l-1.068-1.364a.439.439,0,0,0-.617-.075l-.461.361a.439.439,0,0,0-.075.617l2.608,3.331a.439.439,0,0,0,.692,0l2.608-3.331A.44.44,0,0,0,176.6,125.773Z" transform="translate(-160.674 -119.746)" fill="#f8ca1c"/>
  </g>
</svg>
