<svg id="storage_1_" data-name="storage (1)" xmlns="http://www.w3.org/2000/svg" width="103.632" height="103.631" viewBox="0 0 103.632 103.631">
  <path id="Path_189" data-name="Path 189" d="M102.468,17.367,52.379.1a1.731,1.731,0,0,0-1.127,0L1.164,17.367A1.728,1.728,0,0,0,0,19v82.906a1.727,1.727,0,0,0,1.727,1.727h8.636a1.727,1.727,0,0,0,1.727-1.727V41.453H91.542v60.452a1.727,1.727,0,0,0,1.727,1.727H101.9a1.727,1.727,0,0,0,1.727-1.727V19A1.728,1.728,0,0,0,102.468,17.367ZM91.542,38H12.09V34.544H91.542Zm0-6.909H12.09V27.635H91.542Zm8.636,69.088H95V25.908a1.727,1.727,0,0,0-1.727-1.727H10.363a1.727,1.727,0,0,0-1.727,1.727v74.27H3.454V20.231L51.816,3.555l48.362,16.676Zm0,0" transform="translate(0 -0.001)" fill="#f8c91c"/>
  <path id="Path_190" data-name="Path 190" d="M135.907,241.268h-19V225.723A1.727,1.727,0,0,0,115.18,224H73.727A1.727,1.727,0,0,0,72,225.723V277.54a1.727,1.727,0,0,0,1.727,1.727h62.179a1.727,1.727,0,0,0,1.727-1.727V243A1.727,1.727,0,0,0,135.907,241.268ZM82.363,227.451h3.454V230.9H82.363Zm10.363,48.362H75.454V261.995h3.454v5.182a1.727,1.727,0,0,0,1.727,1.727h6.909a1.727,1.727,0,0,0,1.727-1.727v-5.182h3.454ZM82.363,265.449v-3.454h3.454v3.454Zm10.363-6.909H75.454V244.723h3.454V249.9a1.727,1.727,0,0,0,1.727,1.727h6.909a1.727,1.727,0,0,0,1.727-1.727v-5.182h3.454ZM82.363,248.177v-3.454h3.454v3.454Zm10.363-6.909H75.454V227.451h3.454v5.182a1.727,1.727,0,0,0,1.727,1.727h6.909a1.727,1.727,0,0,0,1.727-1.727v-5.182h3.454Zm10.363-13.818h3.454V230.9H103.09Zm10.363,48.362H96.181V261.995h3.454v5.182a1.727,1.727,0,0,0,1.727,1.727h6.909A1.727,1.727,0,0,0,110,267.176v-5.182h3.454ZM103.09,265.449v-3.454h3.454v3.454Zm10.363-6.909H96.181V244.723h3.454V249.9a1.727,1.727,0,0,0,1.727,1.727h6.909A1.727,1.727,0,0,0,110,249.9v-5.182h3.454ZM103.09,248.177v-3.454h3.454v3.454Zm10.363-6.909H96.181V227.451h3.454v5.182a1.727,1.727,0,0,0,1.727,1.727h6.909A1.727,1.727,0,0,0,110,232.632v-5.182h3.454Zm10.363,3.454h3.454v3.454h-3.454Zm10.363,31.09H116.907V261.995h3.454v5.182a1.727,1.727,0,0,0,1.727,1.727H129a1.727,1.727,0,0,0,1.727-1.727v-5.182h3.454Zm-10.363-10.363v-3.454h3.454v3.454Zm10.363-6.909H116.907V244.723h3.454V249.9a1.727,1.727,0,0,0,1.727,1.727H129a1.727,1.727,0,0,0,1.727-1.727v-5.182h3.454Zm0,0" transform="translate(-56.455 -175.635)" fill="#f8c91c"/>
</svg>
