<svg xmlns="http://www.w3.org/2000/svg" width="50" height="37.373" viewBox="0 0 50 37.373">
  <g id="Group_23" data-name="Group 23" transform="translate(-472 -408.627)">
    <text id="təcili_sifariş" data-name="təcili sifariş" transform="translate(497 443)" fill="#707070" font-size="10" font-family="Helvetica"><tspan x="-24.448" y="0">təcili sifariş</tspan></text>
    <g id="timer" transform="translate(446.567 408.627)">
      <path id="Path_3" data-name="Path 3" d="M57.926,7.253l.613-.613.78.78A.483.483,0,1,0,60,6.737L57.759,4.494a.483.483,0,0,0-.684.684l.78.78-.613.613a10.366,10.366,0,0,0-6.557-2.716V3.069h1.891a.483.483,0,0,0,.483-.483V.483A.483.483,0,0,0,52.576,0H47.827a.483.483,0,0,0-.483.483v2.1a.483.483,0,0,0,.483.483h1.891v.785A10.452,10.452,0,0,0,41.57,20.188a.483.483,0,0,0,.8-.546,9.484,9.484,0,1,1,2.61,2.569.483.483,0,0,0-.533.806A10.452,10.452,0,0,0,57.926,7.253ZM48.311.967h3.782V2.1H48.311Z" fill="#fcd626" fill-rule="evenodd"/>
      <path id="Path_4" data-name="Path 4" d="M95.168,143.086A8.168,8.168,0,1,0,87,134.918,8.177,8.177,0,0,0,95.168,143.086Zm-.483-15.353v1.276a.483.483,0,1,0,.967,0v-1.276a7.2,7.2,0,0,1,0,14.37v-1.276a.483.483,0,1,0-.967,0V142.1a7.212,7.212,0,0,1-6.7-6.7H89.26a.483.483,0,1,0,0-.967H87.983A7.212,7.212,0,0,1,94.685,127.733Z" transform="translate(-44.966 -120.624)" fill="#fcd626" fill-rule="evenodd"/>
      <path id="Path_5" data-name="Path 5" d="M216.863,258.6a1.991,1.991,0,0,0,1.928-1.5h3.654a.483.483,0,0,0,0-.967h-3.654a1.988,1.988,0,1,0-1.928,2.471Zm0-3.009a1.021,1.021,0,1,1-1.021,1.021A1.022,1.022,0,0,1,216.863,255.592Z" transform="translate(-166.661 -242.318)" fill="#fcd626" fill-rule="evenodd"/>
      <path id="Path_6" data-name="Path 6" d="M101.791,432.729a.483.483,0,1,0,.483.483A.484.484,0,0,0,101.791,432.729Z" transform="translate(-58.583 -411.814)" fill="#fcd626" fill-rule="evenodd"/>
    </g>
  </g>
</svg>
