<svg id="united-states-of-america" xmlns="http://www.w3.org/2000/svg" width="46.792" height="46.792" viewBox="0 0 46.792 46.792">
  <g id="Group_87" data-name="Group 87" transform="translate(0.092 11.064)">
    <path id="Path_223" data-name="Path 223" d="M0,119.192a5,5,0,0,1,.085-.849,4.74,4.74,0,0,0-.085.849" transform="translate(0 -116.692)" fill="#eee"/>
    <path id="Path_224" data-name="Path 224" d="M7.863,99.556a.013.013,0,0,0,0,.006Z" transform="translate(-7.17 -99.556)" fill="#eee"/>
    <path id="Path_225" data-name="Path 225" d="M1.816,110.556c.031-.128.075-.249.115-.371-.041.122-.082.245-.115.371" transform="translate(-1.656 -109.251)" fill="#eee"/>
  </g>
  <g id="united-states-of-america_1_" data-name="united-states-of-america (1)" transform="translate(0.785 0.785)">
    <g id="Group_89" data-name="Group 89" transform="translate(0.093)">
      <rect id="Rectangle_111" data-name="Rectangle 111" width="44.712" height="0.001" transform="translate(0.009 24.557)" fill="#c42126"/>
      <rect id="Rectangle_112" data-name="Rectangle 112" width="40.053" height="0.001" transform="translate(2.337 12.298)" fill="#c42126"/>
      <rect id="Rectangle_113" data-name="Rectangle 113" width="43.237" height="0.001" transform="translate(0.745 16.384)" fill="#c42126"/>
      <path id="Path_245" data-name="Path 245" d="M101.779,431.346h0Z" transform="translate(-92.22 -390.446)" fill="#c42126"/>
      <path id="Path_246" data-name="Path 246" d="M224.3,0c-.441,0-.879.016-1.313.041h2.626C225.181.016,224.743,0,224.3,0Z" transform="translate(-201.938)" fill="#c42126"/>
      <rect id="Rectangle_114" data-name="Rectangle 114" width="44.727" height="0.001" transform="translate(0 20.47)" fill="#c42126"/>
    </g>
    <path id="Path_247" data-name="Path 247" d="M290.39,47.61h10.723a22.571,22.571,0,0,0-4.394-4.085h-8.052A21.348,21.348,0,0,1,290.39,47.61Z" transform="translate(-261.296 -39.398)" fill="#e7e7e7"/>
    <path id="Path_248" data-name="Path 248" d="M247.689,4.516h8.052A22.333,22.333,0,0,0,244.087.43H243.4C245.433.686,246.369,2.194,247.689,4.516Z" transform="translate(-220.318 -0.389)" fill="#dc3027"/>
    <path id="Path_249" data-name="Path 249" d="M331.869,133.8a22.308,22.308,0,0,0-1.593-4.085H317.94c.25,1.312.447,2.682.593,4.085Z" transform="translate(-287.794 -117.411)" fill="#e7e7e7"/>
    <path id="Path_250" data-name="Path 250" d="M300.9,90.7h13.03a22.47,22.47,0,0,0-2.666-4.086H299.886A36.063,36.063,0,0,1,300.9,90.7Z" transform="translate(-271.452 -78.4)" fill="#dc3027"/>
    <path id="Path_251" data-name="Path 251" d="M329.178,219.978h13.6c.065-.691.1-1.391.1-2.1,0-.67-.035-1.331-.093-1.986H329.181C329.225,217.252,329.225,218.62,329.178,219.978Z" transform="translate(-297.966 -195.422)" fill="#e7e7e7"/>
    <path id="Path_252" data-name="Path 252" d="M332.808,176.887a22.363,22.363,0,0,0-.745-4.085H318.154c.14,1.338.232,2.706.277,4.085Z" transform="translate(-287.987 -156.417)" fill="#dc3027"/>
    <path id="Path_253" data-name="Path 253" d="M315.465,306.161h12.512a22.279,22.279,0,0,0,1.619-4.086H316.07C315.921,303.481,315.719,304.85,315.465,306.161Z" transform="translate(-285.553 -273.433)" fill="#e7e7e7"/>
    <path id="Path_254" data-name="Path 254" d="M335.24,263.073a22.319,22.319,0,0,0,.769-4.085H321.984c-.048,1.38-.143,2.748-.285,4.085Z" transform="translate(-291.196 -234.431)" fill="#dc3027"/>
    <path id="Path_255" data-name="Path 255" d="M297.124,392.346a22.585,22.585,0,0,0,4.459-4.085H291.047a20.869,20.869,0,0,1-1.756,4.085Z" transform="translate(-261.861 -351.447)" fill="#e7e7e7"/>
    <g id="Group_90" data-name="Group 90" transform="translate(21.506 32.728)">
      <path id="Path_256" data-name="Path 256" d="M303.625,349.253h10.933a22.492,22.492,0,0,0,2.7-4.086h-12.6A35.546,35.546,0,0,1,303.625,349.253Z" transform="translate(-296.342 -345.167)" fill="#dc3027"/>
      <path id="Path_257" data-name="Path 257" d="M226.954,473.462l-.136,0Z" transform="translate(-226.818 -461.293)" fill="#dc3027"/>
      <path id="Path_258" data-name="Path 258" d="M236.837,435.372a22.352,22.352,0,0,0,12.805-4.012h-8.127C240.073,433.845,239.121,435.372,236.837,435.372Z" transform="translate(-235.887 -423.187)" fill="#dc3027"/>
    </g>
    <path id="Path_259" data-name="Path 259" d="M229.069,473.525c-.273,0-.544-.006-.814-.016C228.528,473.518,228.8,473.525,229.069,473.525Z" transform="translate(-206.612 -428.612)" fill="#c42126"/>
    <path id="Path_260" data-name="Path 260" d="M76.765,43.525H58.141a22.572,22.572,0,0,0-4.394,4.085H78.488A21.347,21.347,0,0,0,76.765,43.525Z" transform="translate(-48.651 -39.398)" fill="#f3f4f5"/>
    <path id="Path_261" data-name="Path 261" d="M100.092,4.516h18.624c-1.32-2.322-3-3.83-5.036-4.086h-1.935A22.33,22.33,0,0,0,100.092,4.516Z" transform="translate(-90.602 -0.389)" fill="#e73625"/>
    <path id="Path_262" data-name="Path 262" d="M8.835,133.8h30.61c-.146-1.4-.343-2.774-.593-4.085H10.428A22.3,22.3,0,0,0,8.835,133.8Z" transform="translate(-7.997 -117.411)" fill="#f3f4f5"/>
    <path id="Path_263" data-name="Path 263" d="M28.3,86.609a22.486,22.486,0,0,0-2.665,4.086H54.061a36.005,36.005,0,0,0-1.018-4.086Z" transform="translate(-23.206 -78.397)" fill="#e73625"/>
    <path id="Path_264" data-name="Path 264" d="M0,217.882c0,.708.037,1.408.1,2.1H31.724c.047-1.358.048-2.726,0-4.085H.095C.037,216.551,0,217.212,0,217.882Z" transform="translate(-0.002 -195.425)" fill="#f3f4f5"/>
    <path id="Path_265" data-name="Path 265" d="M.978,176.887H32.61c-.045-1.379-.138-2.747-.277-4.085H1.723A22.338,22.338,0,0,0,.978,176.887Z" transform="translate(-0.885 -156.417)" fill="#e73625"/>
    <path id="Path_266" data-name="Path 266" d="M39.742,302.072H9.175a22.293,22.293,0,0,0,1.619,4.086H39.137C39.391,304.848,39.593,303.478,39.742,302.072Z" transform="translate(-8.305 -273.43)" fill="#f3f4f5"/>
    <path id="Path_267" data-name="Path 267" d="M1.837,263.073H32.4c.142-1.337.238-2.706.285-4.085H1.068A22.345,22.345,0,0,0,1.837,263.073Z" transform="translate(-0.967 -234.431)" fill="#e73625"/>
    <path id="Path_268" data-name="Path 268" d="M59.212,392.346h18.4a20.861,20.861,0,0,0,1.756-4.085H54.753A22.574,22.574,0,0,0,59.212,392.346Z" transform="translate(-49.562 -351.447)" fill="#f3f4f5"/>
    <g id="Group_91" data-name="Group 91" transform="translate(2.489 32.728)">
      <path id="Path_269" data-name="Path 269" d="M26.254,345.166a22.494,22.494,0,0,0,2.7,4.086h24.61a35.621,35.621,0,0,0,1.03-4.086Z" transform="translate(-26.254 -345.166)" fill="#e73625"/>
      <path id="Path_270" data-name="Path 270" d="M113.648,435.351l.136,0c.27.01.541.016.814.016,2.284,0,4.146-1.527,5.589-4.012H101.793A22.338,22.338,0,0,0,113.648,435.351Z" transform="translate(-94.631 -423.186)" fill="#e73625"/>
    </g>
    <path id="Path_271" data-name="Path 271" d="M22.9.123a22.45,22.45,0,0,0-21.9,20.422h21.9V.123Z" transform="translate(-0.913 -0.111)" fill="#283991"/>
    <g id="Group_92" data-name="Group 92" transform="translate(0.756 1.556)">
      <path id="Path_272" data-name="Path 272" d="M33.542,134.187l.342,1.053h1.108l-.9.651.342,1.054-.9-.652-.9.652.342-1.054-.9-.651H33.2Z" transform="translate(-29.804 -123.02)" fill="#efefef"/>
      <path id="Path_273" data-name="Path 273" d="M33.542,173.438l.342,1.054h1.108l-.9.651.342,1.054-.9-.652-.9.652.342-1.054-.9-.651H33.2Z" transform="translate(-29.804 -158.549)" fill="#efefef"/>
      <path id="Path_274" data-name="Path 274" d="M72.8,75.3l.342,1.054h1.108l-.9.652.342,1.053-.9-.651-.9.651L72.242,77l-.9-.652h1.108Z" transform="translate(-65.336 -69.713)" fill="#efefef"/>
      <path id="Path_275" data-name="Path 275" d="M72.8,114.554l.342,1.054h1.108l-.9.651.342,1.054-.9-.651-.9.651.342-1.054-.9-.651h1.108Z" transform="translate(-65.336 -105.248)" fill="#efefef"/>
      <path id="Path_276" data-name="Path 276" d="M72.8,153.812l.342,1.054h1.108l-.9.651.342,1.054-.9-.652-.9.652.342-1.054-.9-.651h1.108Z" transform="translate(-65.336 -140.784)" fill="#efefef"/>
      <path id="Path_277" data-name="Path 277" d="M8.883,165.9l-.342-1.054.9-.651H8.329l-.025-.077c-.122.376-.232.757-.333,1.142l.016-.012Z" transform="translate(-7.971 -150.11)" fill="#efefef"/>
      <path id="Path_278" data-name="Path 278" d="M37.2,97.685l.9-.652.9.652-.342-1.054.9-.652H38.434l-.342-1.053-.342,1.053h-.408c-.076.115-.149.23-.223.347l.42.3Z" transform="translate(-34.354 -87.482)" fill="#efefef"/>
      <path id="Path_279" data-name="Path 279" d="M78.083,48.207l.9.651L78.637,47.8l.9-.652h-.64q-.815.61-1.572,1.29l-.135.415Z" transform="translate(-70.623 -44.238)" fill="#efefef"/>
      <path id="Path_280" data-name="Path 280" d="M116.452,27.878l.9-.652.9.652-.342-1.054.9-.651H117.69l-.046-.142c-.375.192-.747.391-1.11.6l.26.189Z" transform="translate(-106.166 -25.119)" fill="#efefef"/>
      <path id="Path_281" data-name="Path 281" d="M112.055,55.671l.342,1.053h1.108l-.9.652.342,1.054-.9-.652-.9.652.342-1.054-.9-.652h1.108Z" transform="translate(-100.873 -51.949)" fill="#efefef"/>
      <path id="Path_282" data-name="Path 282" d="M112.055,94.929l.342,1.053h1.108l-.9.652.342,1.054-.9-.652-.9.652.342-1.054-.9-.652h1.108Z" transform="translate(-100.873 -87.484)" fill="#efefef"/>
      <path id="Path_283" data-name="Path 283" d="M112.055,134.187l.342,1.053h1.108l-.9.651.342,1.054-.9-.652-.9.652.342-1.054-.9-.651h1.108Z" transform="translate(-100.873 -123.02)" fill="#efefef"/>
      <path id="Path_284" data-name="Path 284" d="M112.055,173.438l.342,1.054h1.108l-.9.651.342,1.054-.9-.652-.9.652.342-1.054-.9-.651h1.108Z" transform="translate(-100.873 -158.549)" fill="#efefef"/>
      <path id="Path_285" data-name="Path 285" d="M151.313,36.038l.342,1.054h1.108l-.9.652.342,1.053-.9-.651-.9.651.342-1.053-.9-.652h1.108Z" transform="translate(-136.408 -34.177)" fill="#efefef"/>
      <path id="Path_286" data-name="Path 286" d="M151.313,75.3l.342,1.054h1.108l-.9.652.342,1.053-.9-.651-.9.651L150.759,77l-.9-.652h1.108Z" transform="translate(-136.408 -69.713)" fill="#efefef"/>
      <path id="Path_287" data-name="Path 287" d="M151.313,114.554l.342,1.054h1.108l-.9.651.342,1.054-.9-.651-.9.651.342-1.054-.9-.651h1.108Z" transform="translate(-136.408 -105.248)" fill="#efefef"/>
      <path id="Path_288" data-name="Path 288" d="M151.313,153.812l.342,1.054h1.108l-.9.651.342,1.054-.9-.652-.9.652.342-1.054-.9-.651h1.108Z" transform="translate(-136.408 -140.784)" fill="#efefef"/>
      <path id="Path_289" data-name="Path 289" d="M190.571,16.413l.342,1.054h1.108l-.9.651.342,1.054-.9-.652-.9.652.342-1.054-.9-.651h1.108Z" transform="translate(-171.944 -16.413)" fill="#efefef"/>
      <path id="Path_290" data-name="Path 290" d="M190.571,55.671l.342,1.053h1.108l-.9.652.342,1.054-.9-.652-.9.652.342-1.054-.9-.652h1.108Z" transform="translate(-171.944 -51.949)" fill="#efefef"/>
      <path id="Path_291" data-name="Path 291" d="M190.571,94.929l.342,1.053h1.108l-.9.652.342,1.054-.9-.652-.9.652.342-1.054-.9-.652h1.108Z" transform="translate(-171.944 -87.484)" fill="#efefef"/>
      <path id="Path_292" data-name="Path 292" d="M190.571,134.187l.342,1.053h1.108l-.9.651.342,1.054-.9-.652-.9.652.342-1.054-.9-.651h1.108Z" transform="translate(-171.944 -123.02)" fill="#efefef"/>
      <path id="Path_293" data-name="Path 293" d="M190.571,173.438l.342,1.054h1.108l-.9.651.342,1.054-.9-.652-.9.652.342-1.054-.9-.651h1.108Z" transform="translate(-171.944 -158.549)" fill="#efefef"/>
    </g>
  </g>
  <g id="Ellipse_16" data-name="Ellipse 16" transform="translate(0 0)" fill="none" stroke="#fff" stroke-width="3">
    <ellipse cx="23.396" cy="23.396" rx="23.396" ry="23.396" stroke="none"/>
    <ellipse cx="23.396" cy="23.396" rx="21.896" ry="21.896" fill="none"/>
  </g>
</svg>
