<?xml version="1.0" standalone="no"?>
<!DOCTYPE svg PUBLIC "-//W3C//DTD SVG 20010904//EN"
 "http://www.w3.org/TR/2001/REC-SVG-20010904/DTD/svg10.dtd">
<svg version="1.0" xmlns="http://www.w3.org/2000/svg"
 width="4267.000000pt" height="4267.000000pt" viewBox="0 0 4267.000000 4267.000000"
 preserveAspectRatio="xMidYMid meet">
<metadata>
Created by potrace 1.11, written by Peter Selinger 2001-2013
</metadata>
<g transform="translate(0.000000,4267.000000) scale(0.100000,-0.100000)"
fill="#000000" stroke="none">
<path d="M20755 36373 c-920 -43 -1627 -128 -2439 -293 -3600 -732 -6829
-2783 -9037 -5740 -2316 -3101 -3338 -6926 -2883 -10790 427 -3632 2190 -7004
4939 -9450 2218 -1973 4948 -3240 7875 -3654 397 -57 768 -94 1255 -127 253
-17 1193 -23 1495 -10 2463 108 4791 784 6898 2003 1723 996 3247 2340 4463
3938 770 1012 1442 2183 1925 3359 1171 2846 1440 5978 773 9006 -337 1531
-946 3062 -1757 4420 -632 1058 -1356 1993 -2227 2873 -451 457 -858 824
-1344 1211 -1526 1216 -3314 2140 -5177 2675 -1160 333 -2299 520 -3519 576
-192 9 -1074 11 -1240 3z m4465 -2733 l0 -1330 -2560 0 -2560 0 0 -7085 0
-7085 1755 0 1755 0 0 -1330 0 -1330 -1755 0 -1755 0 0 -3885 0 -3885 -1327 2
-1328 3 -3 13615 c-1 7488 0 13621 3 13628 3 9 791 12 3890 12 l3885 0 0
-1330z"/>
</g>
</svg>
